<?xml version="1.0" encoding="UTF-8" standalone="no"?>
<svg
   xmlns:dc="http://purl.org/dc/elements/1.1/"
   xmlns:cc="http://creativecommons.org/ns#"
   xmlns:rdf="http://www.w3.org/1999/02/22-rdf-syntax-ns#"
   xmlns:svg="http://www.w3.org/2000/svg"
   xmlns="http://www.w3.org/2000/svg"
   xmlns:sodipodi="http://sodipodi.sourceforge.net/DTD/sodipodi-0.dtd"
   xmlns:inkscape="http://www.inkscape.org/namespaces/inkscape"
   id="bb5d7bf9-f1d1-4967-8b85-2debba85734f"
   data-name="Layer 1"
   width="826.30527"
   height="603.5"
   viewBox="0 0 826.30527 603.5"
   version="1.1"
   sodipodi:docname="undraw_gift_card.svg"
   inkscape:version="0.92.3 (2405546, 2018-03-11)">
  <metadata
     id="metadata99">
    <rdf:RDF>
      <cc:Work
         rdf:about="">
        <dc:format>image/svg+xml</dc:format>
        <dc:type
           rdf:resource="http://purl.org/dc/dcmitype/StillImage" />
        <dc:title>gift card</dc:title>
      </cc:Work>
    </rdf:RDF>
  </metadata>
  <defs
     id="defs97">
    <filter
       height="1.0001324"
       y="-6.6244371e-005"
       width="1.0001827"
       x="-9.1357208e-005"
       id="filter15630"
       style="color-interpolation-filters:sRGB">
      <feGaussianBlur
         id="feGaussianBlur15632"
         stdDeviation="0.025538268" />
    </filter>
    <clipPath
       clipPathUnits="userSpaceOnUse"
       id="clipPath4915-1-0">
      <path
         inkscape:connector-curvature="0"
         d="m 325.64723,174.47949 a 24.26149,22.645655 0 0 1 -3.05266,-31.83931 24.26149,22.645655 0 0 1 34.09963,-2.96701 24.26149,22.645655 0 0 1 3.30471,31.81739 24.26149,22.645655 0 0 1 -34.0752,3.20218"
         style="opacity:0.658147;fill:#00ffff;fill-opacity:1;stroke:#ffc300;stroke-width:0;stroke-dashoffset:3.90350008"
         id="path4917-5-9" />
    </clipPath>
    <filter
       style="color-interpolation-filters:sRGB"
       id="filter3479-5-0"
       x="-0.005719915"
       width="1.0114398"
       y="-0.012205861"
       height="1.0244117">
      <feGaussianBlur
         stdDeviation="0.090921971"
         id="feGaussianBlur3481-5-1" />
    </filter>
    <clipPath
       clipPathUnits="userSpaceOnUse"
       id="clipPath4911-7-3">
      <path
         inkscape:connector-curvature="0"
         d="m 324.78972,174.41705 a 24.26149,22.645655 0 0 1 -3.05266,-31.83931 24.26149,22.645655 0 0 1 34.09963,-2.96701 24.26149,22.645655 0 0 1 3.30471,31.81739 24.26149,22.645655 0 0 1 -34.07521,3.20218"
         style="opacity:0.658147;fill:#00ffff;fill-opacity:1;stroke:#ffc300;stroke-width:0;stroke-dashoffset:3.90350008"
         id="path4913-5-4" />
    </clipPath>
  </defs>
  <sodipodi:namedview
     pagecolor="#ffffff"
     bordercolor="#666666"
     borderopacity="1"
     objecttolerance="10"
     gridtolerance="10"
     guidetolerance="10"
     inkscape:pageopacity="0"
     inkscape:pageshadow="2"
     inkscape:window-width="1239"
     inkscape:window-height="668"
     id="namedview95"
     showgrid="false"
     inkscape:zoom="1.26"
     inkscape:cx="615.00432"
     inkscape:cy="288.37129"
     inkscape:window-x="0"
     inkscape:window-y="0"
     inkscape:window-maximized="0"
     inkscape:current-layer="bb5d7bf9-f1d1-4967-8b85-2debba85734f" />
  <title
     id="title2">gift card</title>
  <rect
     x="343.05673"
     y="42.5"
     width="180"
     height="24"
     rx="5.42126"
     fill="#ca313c"
     id="rect4" />
  <rect
     x="321.05673"
     y="0.5"
     width="462"
     height="531"
     rx="5.42126"
     fill="none"
     stroke="#3f3d56"
     stroke-miterlimit="10"
     id="rect6" />
  <rect
     x="348.05673"
     y="35.5"
     width="180"
     height="24"
     rx="5.42126"
     fill="none"
     stroke="#3f3d56"
     stroke-miterlimit="10"
     id="rect8" />
  <rect
     x="366.55673"
     y="123.5"
     width="361"
     height="12"
     rx="5.42126"
     fill="#f2f2f2"
     id="rect10" />
  <rect
     x="367.05673"
     y="161.5"
     width="361"
     height="12"
     rx="5.42126"
     id="rect12"
     fill="#f2f2f2" />
  <rect
     x="367.55673"
     y="199.5"
     width="361"
     height="12"
     rx="5.42126"
     fill="#f2f2f2"
     id="rect14" />
  <rect
     x="371.55673"
     y="118.5"
     width="361"
     height="12"
     rx="5.42126"
     fill="none"
     stroke="#3f3d56"
     stroke-miterlimit="10"
     id="rect16" />
  <rect
     x="372.05673"
     y="156.5"
     width="361"
     height="12"
     rx="5.42126"
     fill="none"
     stroke="#3f3d56"
     stroke-miterlimit="10"
     id="rect18" />
  <rect
     x="372.55673"
     y="194.5"
     width="361"
     height="12"
     rx="5.42126"
     fill="none"
     stroke="#3f3d56"
     stroke-miterlimit="10"
     id="rect20" />
  <path
     d="M341.28311,217.84168s20.21009,37.995,16.97648,58.20506-6.46723,37.995,0,47.69582-34.76136-1.61681-34.76136-1.61681V265.5375Z"
     transform="translate(-187.09737 -148.25)"
     fill="#ff6584"
     id="path40"
     style="fill:#aa4400" />
  <path
     d="M384.53271,320.10474s-48.90842,54.56725-64.26809,40.82439-29.50673-46.48321-18.18908-56.99246c6.11153-5.675,6.56423-16.53186,5.69119-25.3273a85.23619,85.23619,0,0,0-2.45758-13.47607s24.25211-7.27564,25.06051,7.27563a11.08578,11.08578,0,0,0,1.31771,4.89083c4.63213,8.22145,19.70079,4.00161,19.70079,4.00161Z"
     transform="translate(-187.09737 -148.25)"
     fill="#fbbebe"
     id="path42" />
  <path
     d="M348.15454,283.72658l3.23362-2.42521a96.75249,96.75249,0,0,1,37.995,5.65882c19.40169,7.27564,53.35464,13.74286,63.05548,11.31765s33.14455-7.27563,33.14455-7.27563,25.86892-10.50925,31.52774,2.42521-34.76135,12.93446-34.76135,12.93446-28.69833,11.72185-48.90842,10.10505-46.48321,7.67983-58.60927-2.021S348.15454,283.72658,348.15454,283.72658Z"
     transform="translate(-187.09737 -148.25)"
     fill="#fbbebe"
     id="path44" />
  <path
     d="M251.95451,592.53676h-21.8269l-8.084,16.16808,10.50924,11.31765s20.2101-2.42521,25.86892-8.89244S251.95451,592.53676,251.95451,592.53676Z"
     transform="translate(-187.09737 -148.25)"
     fill="#fbbebe"
     id="path46" />
  <path
     d="M248.60528,592.53676s9.00806-4.042,3.34923-8.89244-10.50925-11.31765-19.40169-4.85042-52.54623,39.61178-44.46219,50.92943,10.50924,8.89244,14.55126,6.46723,16.97648-12.126,27.48572-12.126,6.46723-13.74287,2.42521-17.78488S245.256,592.53676,248.60528,592.53676Z"
     transform="translate(-187.09737 -148.25)"
     fill="#3f3d56"
     id="path48" />
  <path
     d="M332.79487,696.01243l-8.89244,15.35967,8.89244,9.70084h25.06052s-8.084-16.16807-4.85042-23.4437S332.79487,696.01243,332.79487,696.01243Z"
     transform="translate(-187.09737 -148.25)"
     fill="#fbbebe"
     id="path50" />
  <path
     d="M357.85539,707.33008s-8.89244,9.70084-14.55127,8.084-15.49606-10.7881-15.49606-10.7881-14.41487,14.02171-7.94764,20.48894,32.33614,18.59328,39.61177,23.4437,31.52775,1.61681,30.71934-4.042-12.93446-12.12606-18.59328-19.40169S357.85539,707.33008,357.85539,707.33008Z"
     transform="translate(-187.09737 -148.25)"
     fill="#3f3d56"
     id="path52" />
  <path
     d="M400.70078,442.17369s17.78488,55.77985-6.46723,121.26054c0,0-21.8269,96.2-29.91093,115.60172s-8.084,27.48573-8.084,27.48573-30.71934.8084-28.29413-5.65883c0,0,10.50925-31.52774,10.50925-43.6538s16.97648-77.60674,16.97648-77.60674L361.089,439.74848Z"
     transform="translate(-187.09737 -148.25)"
     fill="#3f3d56"
     id="path54" />
  <path
     d="M400.70078,442.17369s17.78488,55.77985-6.46723,121.26054c0,0-21.8269,96.2-29.91093,115.60172s-8.084,27.48573-8.084,27.48573-30.71934.8084-28.29413-5.65883c0,0,10.50925-31.52774,10.50925-43.6538s16.97648-77.60674,16.97648-77.60674L361.089,439.74848Z"
     transform="translate(-187.09737 -148.25)"
     opacity="0.1"
     id="path56" />
  <path
     d="M396.65876,446.21571s0,25.86891-16.97648,37.18656c0,0,12.93446,90.54121-3.23361,107.51769s-42.84539,9.70084-42.84539,9.70084-44.4622,2.42521-77.60675,15.35967c0,0-25.86892-7.27563-4.85042-25.86892,0,0,25.86891-6.46723,33.953-12.126s45.2706-16.97648,54.97145-12.12606c0,0-.80841-13.74286-4.042-23.4437-2.91474-8.74422-8.084-35.56976-8.084-35.56976s-22.6353-42.84539,0-65.48069S396.65876,446.21571,396.65876,446.21571Z"
     transform="translate(-187.09737 -148.25)"
     fill="#3f3d56"
     id="path58" />
  <path
     d="M331.68737,277.29976a29.97514,29.97514,0,0,1-23.92064,1.30961,85.23619,85.23619,0,0,0-2.45758-13.47607s24.25211-7.27564,25.06051,7.27563A11.08578,11.08578,0,0,0,331.68737,277.29976Z"
     transform="translate(-187.09737 -148.25)"
     opacity="0.1"
     id="path60" />
  <circle
     cx="131.14624"
     cy="99.906822"
     r="29.910931"
     id="circle62"
     style="fill:#fbbebe" />
  <path
     d="M316.6268,359.71652s33.95295,24.25211,18.59329,50.121-10.50925,40.42019-10.50925,40.42019,29.10253,0,38.80337,6.46722,40.42018-4.85042,40.42018-4.85042,4.85043-32.33614-1.6168-47.69581-9.70085-39.61178-7.27564-44.4622,8.89244-27.48572-6.46723-40.42018l-8.74466-4.69713s5.51105,23.29041-31.67552,8.73915C348.15454,323.33836,340.07051,371.03417,316.6268,359.71652Z"
     transform="translate(-187.09737 -148.25)"
     fill="#ca313c"
     id="path64" />
  <polygon
     points="161.478 133.65 162.318 134.531 192.957 166.616 193.903 167.603 193.959 167.788 194.574 169.704 195.802 173.577 190.976 168.225 161.259 135.323 159.95 133.876 161.478 133.65"
     fill="#ca313c"
     id="polygon66" />
  <path
     d="M350.72087,325.797s-25.20163-21.86028-42.98651-16.20146,8.62071,53.7555,14.0112,54.36347l2.15687-.20042s-33.14454-40.42018-14.55126-52.54624c0,0,23.4437,2.42521,41.22858,16.97648Z"
     transform="translate(-187.09737 -148.25)"
     fill="#ca313c"
     id="path68" />
  <path
     d="M335.22009,320.91315l59.01346,18.59328,97.81684,5.65882s28.29413.80841,23.4437,13.74287-30.71933,3.23361-30.71933,3.23361l-84.074,1.61681s-69.52271-7.27563-75.18154-11.31765S328.75286,318.48793,335.22009,320.91315Z"
     transform="translate(-187.09737 -148.25)"
     fill="#fbbebe"
     id="path70" />
  <path
     d="m 122.2538,124.96733 c 0,0 -3.23362,-6.46723 3.23361,-13.74286 3.29248,-3.704 6.1659,-11.59856 8.19359,-18.45679 a 13.54255,13.54255 0 0 1 15.14967,-9.5348 c 5.78776,0.93419 11.8907,1.23219 13.84331,-1.11094 4.042,-4.85042 -0.8084,-30.71934 -32.33614,-25.06051 C 98.8101,62.72026 78.6,49.78579 78.6,80.50513 c 0,30.71934 19.40169,39.61178 5.65883,70.33112 -13.74286,30.71934 -40.42018,33.95295 -25.06051,54.163 15.35967,20.21005 55.77985,25.86892 58.20506,18.59328 2.42521,-7.27564 -9.70085,-35.56976 -1.61681,-46.88741 8.08404,-11.31765 21.8269,-23.4437 17.78488,-30.71933 -4.04202,-7.27563 -11.31765,-21.01846 -11.31765,-21.01846 z"
     id="path72"
     style="fill:#aa4400"
     inkscape:connector-curvature="0" />
  <line
     x1="26.55673"
     y1="603"
     x2="342.55673"
     y2="603"
     fill="none"
     stroke="#3f3d56"
     stroke-miterlimit="10"
     id="line74" />
  <path
     d="M945.87445,313.68414A20.81252,20.81252,0,1,0,948.646,273.7689l.52094,10.7122-5.06815-9.18045a20.734,20.734,0,0,0-10.68367,11.72261,20.40883,20.40883,0,0,0-1.19713,5.62986A20.80857,20.80857,0,0,0,945.87445,313.68414Z"
     transform="translate(-187.09737 -148.25)"
     fill="#57b894"
     id="path76" />
  <path
     d="M970.95179,437.92756c-1.78906-9.11027,5.96331-17.1868,13.62087-22.43651s16.605-10.40779,19.21775-19.31684c3.755-12.80387-7.43-24.52981-16.13565-34.64176a125.30039,125.30039,0,0,1-16.52358-24.55738c-1.81108-3.5325-3.47559-7.22528-3.95222-11.16626-.68641-5.67546,1.13693-11.32309,2.97391-16.73673q9.17924-27.05169,19.62842-53.65005"
     transform="translate(-187.09737 -148.25)"
     fill="none"
     stroke="#3f3d56"
     stroke-miterlimit="10"
     id="path78" />
  <path
     d="M946.73156,310.9262a20.81252,20.81252,0,1,0,2.7716-39.91524l.52093,10.7122-5.06814-9.18045a20.734,20.734,0,0,0-10.68367,11.72261,20.40847,20.40847,0,0,0-1.19713,5.62986A20.80856,20.80856,0,0,0,946.73156,310.9262Z"
     transform="translate(-187.09737 -148.25)"
     fill="none"
     stroke="#3f3d56"
     stroke-miterlimit="10"
     id="path80" />
  <path
     d="M968.408,251.72266A20.78819,20.78819,0,0,1,983.38792,238.525l1.71361,10.18378,3.177-10.69566A20.81,20.81,0,1,1,968.408,251.72266Z"
     transform="translate(-187.09737 -148.25)"
     fill="#57b894"
     id="path82" />
  <path
     d="M969.55081,248.0454a20.78824,20.78824,0,0,1,14.97993-13.19763l1.71362,10.18378,3.177-10.69567a20.81,20.81,0,1,1-19.87057,13.70952Z"
     transform="translate(-187.09737 -148.25)"
     fill="none"
     stroke="#3f3d56"
     stroke-miterlimit="10"
     id="path84" />
  <path
     d="M984.00138,361.73885a20.81,20.81,0,0,0,18.419-37.02267l-2.44121,8.21926-1.731-10.30382a.3621.3621,0,0,0-.053-.0201,20.81113,20.81113,0,1,0-14.1938,39.12733Z"
     transform="translate(-187.09737 -148.25)"
     fill="#57b894"
     id="path86" />
  <path
     d="M984.99159,358.01417a20.81,20.81,0,0,0,18.419-37.02267l-2.44121,8.21926-1.73106-10.30382a.3621.3621,0,0,0-.053-.0201,20.81113,20.81113,0,1,0-14.1938,39.12733Z"
     transform="translate(-187.09737 -148.25)"
     fill="none"
     stroke="#3f3d56"
     stroke-miterlimit="10"
     id="path88" />
  <path
     d="M962.33445,396.30148a20.80132,20.80132,0,1,0,4.01059-16.29737l9.27266,13.95654L962.94776,386.553A20.61651,20.61651,0,0,0,962.33445,396.30148Z"
     transform="translate(-187.09737 -148.25)"
     fill="#57b894"
     id="path90" />
  <path
     d="M963.19157,393.54354a20.80131,20.80131,0,1,0,4.01058-16.29737l9.27267,13.95655L963.80488,383.795A20.61639,20.61639,0,0,0,963.19157,393.54354Z"
     transform="translate(-187.09737 -148.25)"
     fill="none"
     stroke="#3f3d56"
     stroke-miterlimit="10"
     id="path92" />
  <rect
     id="rect168"
     rx="5.4212599"
     height="12"
     width="361"
     y="259.5"
     x="366.55673"
     style="fill:#f2f2f2" />
  <rect
     id="rect170"
     rx="5.4212599"
     height="12"
     width="361"
     y="297.5"
     x="367.05673"
     style="fill:#f2f2f2" />
  <rect
     id="rect174"
     stroke-miterlimit="10"
     rx="5.4212599"
     height="12"
     width="361"
     y="254.5"
     x="371.55673"
     style="fill:none;stroke:#3f3d56;stroke-miterlimit:10" />
  <rect
     id="rect176"
     stroke-miterlimit="10"
     rx="5.4212599"
     height="12"
     width="361"
     y="292.5"
     x="372.05673"
     style="fill:none;stroke:#3f3d56;stroke-miterlimit:10" />
  <path
     inkscape:connector-curvature="0"
     style="fill:#c83737"
     d="m 917.92281,568.15595 c 3,-2.29 5.85,-5 6.72,-8.27 a 7,7 0 0 0 -4.69,-8.42 c -4.31,-1.34 -8.91,1.09 -12.41,3.55 -3.5,2.46 -7.49,5.27 -12.06,4.75 4.73,-3.42 7,-9 5.68,-14 a 5.43,5.43 0 0 0 -1.58,-2.85 c -2.39,-2.09 -6.73,-1.19 -9.59,0.45 -9.11,5.23 -11.65,15.32 -11.7,24.41 -0.92,-3.28 -0.14,-6.69 -0.17,-10.06 -0.03,-3.37 -1.15,-7.09 -4.63,-8.9 a 16.55,16.55 0 0 0 -7.06,-1.35 c -4.09,-0.12 -8.65999,0.21 -11.44999,2.66 -3.47,3 -2.57,8.13 0.45,11.47 3.02,3.34 7.61999,5.44 11.84999,7.75 3.23,1.76 6.49,3.81 8.47,6.59 a 6,6 0 0 1 0.63,1.18 h 25.67 a 73.8,73.8 0 0 0 15.87,-8.96 z"
     id="path120" />
  <path
     id="path478"
     style="fill:#550000;stroke-width:0.99999994"
     d="m 936.58718,543.0818 c -1.09051,-0.69041 -3.23749,-1.04244 -5.44358,-0.68955 -3.93829,0.63 -6.3889,4.25301 -5.21483,7.71059 1.11114,3.27225 3.2355,4.16493 7.21888,3.02998 3.99277,-1.13733 5.08304,0.009 3.07104,3.22932 -1.25059,2.00129 -1.33722,2.01402 -0.71034,0.10756 0.39344,-1.19728 0.35879,-2.37533 -0.0765,-2.6176 -0.45711,-0.25443 -0.95818,0.70907 -1.18674,2.27659 -0.21745,1.49361 -0.45426,2.82015 -0.52572,2.94855 -0.0716,0.12844 -4.60848,1.57146 -10.08305,3.20826 -5.47455,1.6368 -12.07378,4.47173 -14.66402,6.29814 -2.75304,1.94124 -5.07546,2.9106 -5.59054,2.33349 -1.08218,-1.21248 -1.39043,-0.72981 -1.43957,2.26109 -0.028,1.69648 -0.45447,2.43234 -1.59949,2.75321 -1.1757,0.33003 -1.20805,0.1396 -0.12953,-0.76725 0.88134,-0.74105 1.02208,-1.43392 0.36469,-1.79981 -0.65842,-0.36643 -1.36578,0.30048 -1.83941,1.73453 -0.60172,1.8218 -1.00831,2.0467 -1.87129,1.03277 -0.91369,-1.07356 -1.04386,-0.96252 -0.76126,0.64479 0.0246,0.14044 0.0342,0.26254 0.0442,0.38661 0.33511,-0.0652 0.72377,-0.12423 1.25197,-0.15703 0.6542,-0.0403 1.30815,0.0724 1.96241,0.10872 0.12829,0.0625 0.24159,0.18892 0.38501,0.18773 0.77035,9.6e-4 1.5354,-0.12488 2.30335,-0.18654 0.1349,0.005 0.26995,0.0101 0.40504,0.0152 3.41549,-5.88915 9.7477,-10.06418 19.61126,-12.94162 11.35111,-3.31146 15.23099,-5.37708 17.39563,-9.26618 1.39595,-2.50803 1.50471,-3.87822 0.46335,-5.86454 -0.87576,-1.67052 -1.73436,-2.38195 -2.41543,-2.00158 -0.5812,0.32456 -1.67762,-0.0682 -2.43568,-0.87287 -1.65388,-1.75562 -2.2109,-1.09127 -1.41786,1.692 0.82551,2.89807 0.14779,3.57793 -2.64866,2.65431 -2.53613,-0.83764 -3.41256,-2.63742 -1.33128,-2.73258 0.65643,-0.03 1.85046,-1.23629 2.65515,-2.68203 1.24176,-2.231 1.68125,-2.3989 2.90259,-1.10256 0.82548,0.87601 1.65949,1.13086 1.95747,0.59551 0.32215,-0.57876 0.0479,-1.1147 -0.60641,-1.52893 z m -4.54779,0.0303 c 0.0151,0.0344 -0.0314,0.0935 -0.14812,0.18574 -0.46926,0.36826 -1.48136,1.22124 -2.24875,1.89562 -1.43354,1.25988 -2.63129,1.26174 -1.93062,0.003 0.21633,-0.38869 1.43723,-1.12551 2.71293,-1.6373 0.95679,-0.38386 1.56691,-0.54548 1.61456,-0.44698 z m 5.81896,5.28409 c 0.31808,0.13206 0.75312,0.59306 1.47437,1.45544 1.57759,1.88678 0.57913,2.95593 -1.184,1.26779 -0.82127,-0.78628 -1.29992,-1.77688 -1.06363,-2.20141 0.25425,-0.45675 0.45527,-0.65409 0.77326,-0.52182 z m -35.50592,11.86462 c -0.28135,0.13322 -0.566,0.26182 -1.0259,0.46167 -0.0634,0.98792 0.40191,0.36082 0.82686,-0.17234 0.0677,-0.0999 0.13156,-0.18975 0.19911,-0.28928 z"
     inkscape:connector-curvature="0" />
  <path
     id="path610"
     style="opacity:1;fill:#aad400;stroke:none;stroke-width:0.812383;stroke-opacity:1"
     d="m 128.87085,415.26568 c 0.19494,0.0256 0.29626,0.49653 0.49666,1.43968 0.22133,1.04058 0.33605,3.46615 0.25542,5.38912 -0.0834,1.98706 0.21909,3.50204 0.69882,3.50919 0.57712,0.009 0.57961,0.20396 0.0144,0.617 -0.98986,0.72164 -1.00599,1.83746 -0.0457,3.3903 0.48767,0.78967 0.11279,1.61955 -1.21594,2.69456 l -1.91932,1.55375 2.20612,-0.52059 c 2.39914,-0.56733 2.79142,0.28853 1.37566,3.00145 -0.45671,0.87517 -1.5398,1.59071 -2.40668,1.59071 -0.86697,0 -1.57622,0.37021 -1.57622,0.82267 0,0.45247 0.69947,0.82267 1.55584,0.82267 3.82558,0 2.45754,3.58216 -1.85827,4.86531 l -2.50536,0.74555 2.95974,0.0739 c 1.62851,0.0407 3.17649,0.43011 3.43922,0.86606 0.84201,1.3971 -2.5092,4.05875 -4.53442,3.60078 -1.48733,-0.33633 -1.62114,-0.24368 -0.6612,0.45954 1.01723,0.74518 0.95521,0.88492 -0.40111,0.90622 -0.88245,0.0124 -2.14595,0.40486 -2.80779,0.86927 -1.06969,0.75055 -1.06969,0.82437 0,0.65877 1.93729,-0.30005 9.58732,1.03388 10.01683,1.74657 0.71695,1.18964 -1.88114,2.63121 -3.76204,2.0872 -1.45852,-0.42187 -1.59129,-0.34793 -0.63921,0.3567 0.89673,0.66365 0.13004,0.77292 -3.00835,0.42901 -2.67871,-0.29352 -4.21168,-0.14937 -4.21168,0.39688 0,0.47239 0.70299,0.85962 1.5637,0.85962 2.9554,0 9.49089,1.74434 10.98199,2.93076 1.44553,1.1501 1.44473,1.1686 -0.0497,0.62985 -1.20623,-0.43474 -1.43334,-0.26084 -1.0388,0.79375 0.41948,1.12093 0.0706,1.2813 -2.0667,0.9496 -2.04704,-0.31777 -2.2439,-0.24062 -0.96668,0.38081 1.32472,0.64446 1.05549,0.79101 -1.5418,0.83874 -1.9178,0.0351 -3.77222,-0.50413 -4.7507,-1.38183 -0.88269,-0.79184 -1.34469,-0.98297 -1.02629,-0.42419 0.42799,0.7512 -0.11094,0.90733 -2.06821,0.59611 -2.54306,-0.40436 -2.56761,-0.3829 -0.64082,0.55595 1.10306,0.53747 2.18606,1.01497 2.40668,1.06208 0.22069,0.0472 0.85236,0.37999 1.40389,0.73912 0.55153,0.35908 1.3325,0.44385 1.73602,0.18798 0.40352,-0.25589 0.8571,-0.0869 1.00751,0.37599 0.15042,0.46278 1.41064,0.98924 2.80154,1.16973 5.55003,0.72034 7.2396,3.26774 2.75452,4.15352 -0.99572,0.19651 -2.50271,0.58389 -3.34994,0.85962 -0.84723,0.2758 -1.54019,0.15318 -1.54019,-0.27154 0,-0.4248 -2.34755,-0.67153 -5.2176,-0.54952 -2.86964,0.12188 -5.41919,-0.11087 -5.66419,-0.51738 -0.77311,-1.28284 -2.48939,-0.80053 -2.49284,0.70055 -0.008,2.08566 1.99466,3.27929 5.07344,3.02877 1.81696,-0.14769 2.68561,0.13829 2.68561,0.88534 0,0.76407 0.86424,1.02075 2.80779,0.83552 1.54428,-0.14707 2.80779,0.0819 2.80779,0.50935 0,0.42728 0.45125,0.69826 1.00278,0.60093 0.55153,-0.0973 2.56047,0.49196 4.46551,1.30952 l 3.46425,1.48627 -2.26091,1.53286 c -1.24321,0.84309 -2.71064,1.35882 -3.26217,1.14724 -0.55153,-0.21143 -1.0035,-0.11796 -1.00439,0.20728 -8e-4,0.32514 -1.63983,0.61696 -3.6413,0.64913 -2.73342,0.0438 -3.53701,-0.21697 -3.22615,-1.04762 0.32787,-0.87623 0.0706,-0.91644 -1.23944,-0.19763 -1.31116,0.71961 -1.97043,0.61129 -3.19005,-0.52059 -1.46069,-1.35559 -1.53707,-1.35481 -1.53707,0.0354 0,1.20168 -0.21387,1.28052 -1.19555,0.44507 -0.65694,-0.55914 -0.96027,-1.43631 -0.67371,-1.95062 0.28655,-0.51434 0.22181,-0.65688 -0.14416,-0.31654 -0.36582,0.34035 -1.31693,0.0117 -2.11371,-0.72626 -1.35768,-1.26001 -1.50184,-1.20047 -2.2954,0.93997 -0.4657,1.25606 -1.07194,2.65835 -1.3475,3.11554 -0.28503,0.47274 -0.10213,0.57791 0.42462,0.24422 0.61274,-0.38835 0.94405,0.19514 0.97775,1.72407 l 0.0513,2.31055 0.87274,-2.05667 c 0.74711,-1.75918 0.92368,-1.83958 1.22211,-0.55756 0.3375,1.44999 0.38483,1.44999 1.4258,0 0.99861,-1.39079 1.11453,-1.39792 1.60605,-0.098 0.43922,1.16144 0.79573,1.23178 2.08707,0.41133 1.24041,-0.78812 1.69479,-0.76355 2.23428,0.12533 0.47211,0.77776 0.84451,0.84029 1.22685,0.20567 0.30171,-0.50072 1.09255,-0.90943 1.758,-0.90943 0.88854,0 1.05845,0.49013 0.63929,1.84458 -0.50203,1.62199 -0.41491,1.71132 0.71607,0.74875 1.41633,-1.20542 6.50549,-0.53433 5.72837,0.75518 -0.24741,0.41046 0.11488,0.5238 0.80535,0.25227 1.46832,-0.5778 3.64291,1.0271 3.64291,2.68974 0,1.23486 -3.70291,3.1455 -5.49645,2.83596 -0.67443,-0.11629 -0.85188,0.19727 -0.4701,0.8307 0.43625,0.7239 0.19943,0.85372 -0.82261,0.4515 -0.79011,-0.31093 -1.9324,-0.14284 -2.53824,0.37278 -0.60592,0.51568 -1.14485,0.61493 -1.19708,0.22012 -0.0521,-0.39472 -0.0313,-1.05748 0.0457,-1.47341 0.077,-0.41596 -0.42262,-0.27896 -1.10932,0.30529 -1.01626,0.86488 -1.47906,0.85884 -2.48818,0.007 -0.6819,-0.58035 -1.04723,-1.56995 -0.81162,-2.19968 0.23562,-0.6297 0.073,-0.91916 -0.36348,-0.64271 -0.43617,0.27642 -0.79284,1.03673 -0.79284,1.68872 0,1.74693 -1.2303,1.4433 -2.6934,-0.6652 -0.838,-1.2075 -1.12159,-1.35051 -0.81482,-0.41134 0.58819,1.80066 -1.17261,1.93092 -1.84416,0.13657 -0.36316,-0.97057 -0.64266,-1.04443 -1.0968,-0.29082 -0.91237,1.51395 -3.0913,0.29132 -4.03929,-2.26556 -0.68606,-1.8504 -0.98345,-2.03869 -1.66093,-1.04922 -0.61915,0.90444 -0.69151,0.69224 -0.28984,-0.84998 1.40927,-5.41285 1.39267,-5.81221 -0.28519,-7.3044 -0.92809,-0.82549 -1.45339,-1.74075 -1.16724,-2.03417 0.28616,-0.29352 -0.48454,-0.53346 -1.71259,-0.53346 -1.8379,0 -2.158229,-0.29105 -1.81287,-1.64533 0.31696,-1.24301 0.02407,-1.64534 -1.195477,-1.64534 -1.106109,0 -1.469437,-0.3889 -1.1532,-1.234 0.281341,-0.75168 0,-1.23401 -0.716067,-1.23401 -0.647958,6e-5 -1.178229,-0.37021 -1.178229,-0.82267 0,-0.45246 0.420607,-0.82267 0.935395,-0.82267 1.211682,0 0.03209,-1.22894 -1.203338,-1.25328 -0.514789,-0.009 -0.830063,-0.65802 -0.700424,-1.43967 0.164376,-0.99162 -0.320489,-1.43787 -1.604451,-1.47823 -1.692777,-0.0531 -1.714116,-0.10882 -0.270992,-0.6877 1.430288,-0.5737 1.44882,-0.69777 0.217724,-1.40432 -1.448018,-0.831 -2.564395,-6.56433 -1.419539,-7.28994 0.379212,-0.24035 1.602125,0.67557 2.716898,2.03417 1.114774,1.35862 2.411732,2.46962 2.881435,2.46962 0.469703,0 0.85397,0.5768 0.85397,1.2822 0,0.70541 0.361001,1.05412 0.802225,0.77447 0.45398,-0.28761 0.802226,0.39464 0.802226,1.57142 0,1.51727 0.326506,1.9501 1.211124,1.60196 0.88373,-0.34775 1.07249,-0.10183 0.69416,0.90943 -0.38924,1.04004 -0.14063,1.32035 0.9934,1.11993 1.06287,-0.1878 1.4436,0.15796 1.28011,1.16008 -0.16197,0.99144 0.144,1.27786 1.00278,0.93997 0.88325,-0.34762 1.23623,0.0331 1.23623,1.33523 0,1.32804 0.34544,1.68572 1.27699,1.31916 0.87346,-0.34376 1.42355,0.0687 1.73914,1.30631 0.44042,1.727 0.4904,1.73654 1.0733,0.20888 1.06391,-2.78792 0.81282,-5.30235 -0.52803,-5.30235 -0.74109,0 -1.01601,-0.3868 -0.67683,-0.94961 0.34648,-0.57497 0.21973,-0.7274 -0.31969,-0.38563 -0.48984,0.31063 -1.80902,-0.25397 -2.93157,-1.25489 -2.28009,-2.03301 -2.83531,-4.00237 -0.63609,-2.25591 1.14285,0.90757 1.11871,0.77386 -0.12539,-0.72144 -0.84049,-1.01024 -2.25393,-1.83654 -3.14151,-1.83654 -0.88759,0 -1.37614,-0.24365 -1.08582,-0.54148 0.29049,-0.29756 0.12635,-1.03815 -0.36509,-1.64534 -0.491443,-0.60725 -0.64908,-1.10386 -0.349369,-1.10386 0.299549,0 0.02407,-0.76414 -0.615788,-1.69837 -1.150954,-1.68513 -0.949675,-4.88298 0.307092,-4.88298 0.360119,0 2.613495,1.94584 5.007655,4.32383 4.77669,4.7443 8.25755,7.01081 9.1911,5.98524 0.33164,-0.36425 0.14857,-0.82863 -0.40576,-1.03155 -0.55426,-0.20304 -0.8182,-0.68273 -0.58764,-1.06529 0.23048,-0.38255 0,-0.96284 -0.52016,-1.29024 -0.58659,-0.37179 -0.72417,-0.23819 -0.36662,0.35509 0.91382,1.51631 -0.74815,1.09639 -2.20772,-0.55755 -0.73115,-0.82853 -1.05733,-1.81326 -0.72545,-2.18843 0.33188,-0.37517 0.21836,-0.45805 -0.2507,-0.18478 -0.97599,0.56848 -5.32919,-5.87256 -4.68797,-6.93644 0.73003,-1.21142 2.25273,-0.76953 4.66294,1.35612 1.28196,1.1306 2.56849,2.05667 2.85793,2.05667 0.2892,0 1.31565,0.7549 2.28129,1.67747 1.27426,1.21735 1.75647,1.35864 1.75647,0.51577 0,-0.63874 -1.29864,-2.2984 -2.88456,-3.68754 -1.58592,-1.38918 -2.64951,-2.91237 -2.3644,-3.38548 0.29835,-0.49484 0.0497,-0.67689 -0.58442,-0.4274 -0.90579,0.35645 -2.9911,-2.56635 -2.9911,-4.19208 0,-0.84274 2.96936,-0.28876 4.5548,0.84999 0.9366,0.67276 2.69275,1.6089 3.90299,2.08077 2.14114,0.83479 2.1214,0.76752 -0.74888,-2.4905 -3.26402,-3.70498 -3.1189,-5.26787 0.44178,-4.73195 1.72631,0.25993 2.23212,0.0631 1.91155,-0.74394 -0.23947,-0.6032 -0.65502,-1.65113 -0.9228,-2.32982 -0.30108,-0.76334 -0.0377,-1.23401 0.69095,-1.23401 0.82389,0 1.06255,-0.61818 0.79437,-2.05667 -0.31215,-1.67451 -0.065,-2.05667 1.33025,-2.05667 1.45363,0 1.63181,-0.33198 1.17831,-2.18521 -0.47187,-1.92771 -0.33509,-2.13092 1.16411,-1.72889 1.37189,0.3679 1.66414,0.11623 1.52142,-1.31113 -0.10974,-1.09742 0.22679,-1.68141 0.88686,-1.5409 0.72987,0.15547 0.90234,-0.296 0.5484,-1.43967 -0.47427,-1.53226 0.19053,-2.07647 2.1701,-1.77388 0.31504,0.0482 0.36638,-0.4627 0.11432,-1.13599 -0.2519,-0.67328 -0.0361,-1.22436 0.47789,-1.22436 0.51454,0 0.71253,-0.36938 0.44034,-0.82107 -0.27228,-0.45166 0.0249,-1.58149 0.65806,-2.50978 0.57464,-0.84132 0.86264,-1.26122 1.05758,-1.23561 z m -45.919649,49.81163 c 0.644188,0 1.713555,0.55531 2.375391,1.234 0.661836,0.67871 1.58921,1.23403 2.061961,1.23401 0.472752,0 0.860147,0.55531 0.860147,1.234 0,0.6787 0.451252,1.14151 1.002782,1.02834 0.583138,-0.11971 0.974624,0.58366 0.935476,1.68068 -0.04492,1.2515 0.292892,1.74475 1.002782,1.46538 1.068805,-0.42059 1.370121,0.37323 1.123437,2.95165 -0.0722,0.75174 0.244759,1.60297 0.701948,1.89279 0.512141,0.32457 0.631913,-0.006 0.311744,-0.86124 -0.36413,-0.97305 -0.182666,-1.26798 0.609532,-0.98174 0.635282,0.22947 1.04161,1.27014 0.927533,2.37482 -0.160686,1.55602 -0.0353,1.70942 0.60167,0.73268 0.686063,-1.05202 0.913334,-1.06353 1.534016,-0.0755 0.400391,0.63766 0.513264,1.74827 0.250695,2.46801 -0.427345,1.17218 -0.322414,1.1808 1.005911,0.0755 1.384803,-1.15245 1.453794,-1.08447 1.062308,1.02833 -0.23048,1.24429 -0.107338,2.26237 0.272596,2.26234 0.380095,0 0.69681,-0.46274 0.70355,-1.02833 0.009,-0.68451 0.26963,-0.61557 0.78338,0.20566 0.42445,0.67871 0.57623,1.87989 0.33693,2.66887 -0.30509,1.00549 -0.0927,1.29965 0.71133,0.98334 1.27947,-0.50352 2.46468,3.64237 1.65772,5.79885 -0.25984,0.69438 -0.0305,1.24368 0.5233,1.24364 0.67868,0 0.83856,0.83794 0.50925,2.67367 l -0.47949,2.67368 1.20647,-2.26234 c 1.21433,-2.27573 3.0515,-2.95342 3.9532,-1.45734 0.26715,0.44313 0.0948,1.55374 -0.38234,2.468 -0.55506,1.0636 -0.5768,1.66304 -0.0642,1.66301 0.44123,0 1.18858,-0.74038 1.66085,-1.64534 0.8372,-1.60412 3.19808,-2.20438 4.28533,-1.08938 0.29803,0.30596 -0.24628,1.41638 -1.20959,2.468 -2.18511,2.38515 -1.01618,2.53274 1.42587,0.17996 2.15622,-2.07733 3.94399,-1.44008 2.69179,0.95924 -0.47829,0.9165 -0.51551,1.59554 -0.0877,1.59553 0.40945,0 0.9524,-0.55531 1.20647,-1.23401 0.25406,-0.6787 1.23719,-1.234 2.18414,-1.234 1.67576,0 1.68459,0.0582 0.33685,2.16754 l -1.38504,2.16755 1.87239,-1.34488 c 2.28506,-1.6413 3.20802,-1.71768 2.64638,-0.21691 -0.31094,0.83099 0.11905,1.02397 1.62949,0.72786 2.2135,-0.4339 2.65737,0.47393 1.04979,2.14988 -0.80857,0.84289 -0.57536,0.93735 1.20334,0.48684 1.71812,-0.43511 2.20612,-0.26578 2.20612,0.76483 0,0.72777 0.361,1.32402 0.80222,1.32398 0.44123,0 0.80223,0.5553 0.80223,1.234 0,0.6787 0.361,1.23401 0.80223,1.23401 0.4413,0 0.80222,0.32654 0.80222,0.72626 0,1.0687 -3.65245,1.60111 -5.13769,0.74876 -0.851,-0.48841 -1.28012,-0.41144 -1.28012,0.22977 0,0.71066 -0.31647,0.69668 -1.20333,-0.0595 -0.83135,-0.70757 -1.20334,-0.73919 -1.20334,-0.10122 0,1.78638 -1.64553,0.89523 -3.22928,-1.74979 l -1.60133,-2.67367 0.51086,2.67367 c 0.28046,1.47053 0.17465,2.67368 -0.23353,2.67368 -1.26093,0 -2.66347,-1.89169 -2.71689,-3.66184 -0.0481,-1.59106 -0.0927,-1.58071 -0.77712,0.1655 -1.01385,2.58647 -2.33327,2.30609 -2.90342,-0.61701 -0.26465,-1.35739 -0.74679,-2.468 -1.07169,-2.468 -0.3249,0 -0.41764,0.9255 -0.20681,2.05667 0.2762,1.48177 0.0337,2.05668 -0.86649,2.05667 -0.68726,0 -1.53626,-0.46275 -1.88651,-1.02833 -0.70019,-1.13087 -0.77255,-1.41015 -1.05758,-4.11335 -0.16253,-1.53976 -0.28166,-1.43603 -0.70981,0.617 -0.69127,3.31528 -2.69997,3.16834 -3.38122,-0.24744 -0.78458,-3.93367 -1.52928,-4.21857 -1.52928,-0.58486 0,3.06173 -0.0401,3.10632 -1.55897,1.69675 -0.85782,-0.79607 -1.68387,-2.24275 -1.83477,-3.21355 -0.205287,-1.31974 -1.040244,-0.23511 -3.310783,4.29652 l -3.03811,6.06075 3.216765,-3.46741 c 3.086968,-3.3278 4.921418,-3.76208 4.921418,-1.16492 0,0.67257 -0.88654,2.13186 -1.969467,3.24248 -2.161518,2.21652 -1.652746,2.72402 0.813137,0.81142 1.59009,-1.23334 5.16746,-1.71484 5.16746,-0.69574 0,0.31031 -0.81218,1.49452 -1.80501,2.6319 l -1.80501,2.06792 2.24222,-1.44128 c 1.3678,-0.87913 2.89572,-1.23014 3.91551,-0.89819 1.6091,0.52374 1.58543,0.62097 -0.63769,2.57727 -1.66655,1.46653 -1.8639,1.8679 -0.70668,1.43967 2.83988,-1.05075 6.01669,-1.39071 6.01669,-0.64432 0,0.39902 -0.99276,1.39694 -2.20612,2.21735 -1.26832,0.85764 -1.52407,1.23413 -0.60167,0.88694 0.88253,-0.3321 2.86796,-0.75266 4.41224,-0.93514 l 2.80779,-0.33099 -2.27503,2.12255 -2.27503,2.12415 3.27781,-0.53827 c 3.64885,-0.59835 4.60037,0.79572 1.47281,2.1579 -1.30225,0.56723 -0.68791,0.63932 2.2046,0.2603 3.58266,-0.46939 3.89697,-0.38772 2.96286,0.76643 -0.87587,1.08231 -0.80945,1.4322 0.40424,2.15629 0.79661,0.47523 1.19307,0.87478 0.88221,0.88855 -0.31087,0.0124 0.32089,0.93321 1.40389,2.04382 2.76359,2.83406 2.64959,4.91689 -0.22879,4.176 -1.20896,-0.31114 -2.46669,-0.99994 -2.79528,-1.52964 -0.41523,-0.66943 -0.60729,-0.58613 -0.6283,0.27154 -0.0209,0.83649 -0.54375,0.57151 -1.62636,-0.82267 -1.13795,-1.4653 -1.442,-1.61183 -1.05765,-0.50613 0.38499,1.1075 0.22222,1.44335 -0.56878,1.17294 -0.60961,-0.20832 -1.35391,-1.27559 -1.65298,-2.3732 l -0.54375,-1.99562 -0.0802,1.91849 c -0.1091,2.61747 -2.01679,1.83913 -2.33929,-0.95442 -0.13942,-1.20939 -0.61185,-2.19803 -1.04979,-2.19808 -0.43793,0 -0.576,0.36736 -0.30549,0.81625 0.27043,0.44885 0.17473,1.39721 -0.21307,2.10809 -0.63857,1.17012 -0.80776,1.16557 -1.7815,-0.0369 -0.59164,-0.731 -1.33426,-2.69738 -1.65146,-4.37043 l -0.57664,-3.04163 -0.0924,2.62387 c -0.0505,1.44383 -0.43481,2.84349 -0.85397,3.10911 -1.01177,0.6413 -2.42449,-2.17058 -2.54298,-5.06295 l -0.094,-2.31537 -0.51551,2.46801 c -0.80945,3.8819 -2.90494,3.18839 -2.90494,-0.96084 0,-1.8852 -0.32843,-3.73622 -0.73011,-4.11335 -0.41916,-0.39358 -0.50307,-0.2759 -0.1959,0.27476 0.29442,0.52758 0.16662,1.95505 -0.28511,3.17338 -0.681491,1.83818 -1.024282,2.04392 -2.011822,1.20347 -0.675474,-0.57494 -1.217538,-2.48162 -1.253478,-4.40899 l -0.06097,-3.39512 -0.858622,2.46801 c -1.42371,4.08945 -3.817231,4.76292 -4.614403,1.29988 -0.368061,-1.59868 -0.811532,-1.13711 -3.08512,3.20552 -2.25241,4.30265 -2.412373,4.93832 -1.049793,4.19047 3.188366,-1.74985 3.343918,-0.71967 0.532758,3.52848 -2.401703,3.62917 -1.57501,3.90509 1.580947,0.52702 1.444407,-1.54606 3.074129,-2.448 4.362103,-2.41177 1.868223,0.0526 1.909137,0.12413 0.451252,0.76643 -1.090707,0.48064 -1.219143,0.73323 -0.401113,0.78893 0.793,0.0541 0.31014,0.91526 -1.41649,2.52585 -2.978424,2.77844 -2.700533,3.21875 0.539015,0.8532 2.540088,-1.85477 6.493056,-3.04068 6.493056,-1.94742 0,1.08633 -1.747569,3.17482 -3.610017,4.31419 -1.471202,0.89999 -1.437829,0.93566 0.401113,0.42098 1.103061,-0.30876 3.449571,-0.74716 5.214464,-0.9737 l 3.20891,-0.41134 -2.00557,1.61641 c -1.10306,0.88905 -2.54706,1.82838 -3.2089,2.08882 -0.661917,0.26055 1.05292,0.25522 3.81057,0.007 5.54242,-0.5172 6.56213,0.4494 2.80779,2.65921 l -2.20612,1.29828 2.80779,-0.43705 c 3.26282,-0.50663 6.10855,0.7238 3.78707,1.63731 -2.57635,1.01382 -1.39748,1.85841 1.95069,1.39789 2.39953,-0.33005 3.17224,-0.19261 2.76078,0.49007 -0.31415,0.52124 -1.06993,0.94801 -1.67962,0.94799 -0.60977,0 -1.30474,0.32392 -1.5434,0.71984 -0.23858,0.39596 1.18441,0.53383 3.16197,0.30529 2.24647,-0.25963 3.59589,-0.0902 3.59589,0.45311 0,0.47812 -0.63175,1.03832 -1.40389,1.24525 -0.77214,0.20677 -0.23072,0.4199 1.20334,0.47239 1.74139,0.0638 2.60723,0.50462 2.60723,1.3288 0,0.67869 0.56244,1.234 1.25035,1.234 0.68783,0 1.06038,0.31467 0.82886,0.69895 -0.23168,0.38428 0.43922,1.16986 1.49006,1.74657 1.05083,0.57671 2.08145,1.6503 2.28915,2.38606 0.20769,0.73574 0.66023,2.04705 1.00591,2.91308 0.43721,1.0955 0.34873,1.39715 -0.29145,0.99139 -0.50613,-0.32079 -2.35718,-0.69333 -4.11293,-0.82749 -1.75575,-0.13401 -3.77054,-0.73446 -4.4765,-1.33524 -1.02886,-0.87567 -1.23431,-0.88048 -1.03728,-0.029 0.49874,2.16022 -1.6278,1.68564 -2.41919,-0.53988 -0.74688,-2.10049 -0.82437,-2.13686 -0.88213,-0.42258 -0.0545,1.61976 -0.28463,1.75811 -1.6671,0.99941 -0.88253,-0.48431 -1.61705,-1.70046 -1.63269,-2.70259 l -0.0297,-1.82209 -0.97454,1.79316 c -1.29768,2.38931 -3.76629,1.06926 -3.81683,-2.0406 l -0.0377,-2.22057 -1.00752,2.42463 -1.00904,2.42463 -1.76273,-1.80763 c -1.22067,-1.25177 -1.78969,-2.88297 -1.84889,-5.30396 l -0.0862,-3.49635 -0.80062,3.68595 -0.7991,3.68594 -1.521421,-1.92652 c -0.963634,-1.22034 -1.550863,-3.32426 -1.602927,-5.74261 -0.07942,-3.69913 -0.101482,-3.73221 -0.715987,-1.06691 -1.386567,6.0141 -3.987544,5.40977 -4.070734,-0.94639 l -0.05616,-4.27081 -1.18922,3.97195 c -0.993316,3.31545 -1.381433,3.80834 -2.350281,2.98378 -0.779763,-0.66368 -1.189701,-2.77704 -1.248745,-6.43995 -0.08736,-5.41954 -0.09242,-5.43039 -0.784978,-1.80923 -0.383383,2.00366 -1.031501,3.9854 -1.439915,4.40418 -1.071372,1.09867 -3.563086,-4.6785 -2.917535,-6.76453 0.707082,-2.28449 -0.229998,-2.16135 -1.198605,0.15746 -0.42526,1.01804 -2.079771,3.88713 -3.677403,6.37568 -1.597633,2.48861 -2.432991,4.06193 -1.855148,3.49635 0.577763,-0.56559 1.700238,-1.02833 2.494441,-1.02834 1.957512,0 1.85234,2.53755 -0.217804,5.23648 -0.914457,1.19221 -1.301371,2.16758 -0.860227,2.16754 0.441224,0 1.465667,-0.86718 2.278241,-1.92652 2.496287,-3.2544 8.266697,-5.3213 8.266697,-2.96129 0,0.47918 -0.326987,0.6633 -0.727057,0.40973 -0.40007,-0.25341 -0.553215,0.22439 -0.339984,1.06047 0.256231,1.0048 -0.470104,2.25942 -2.141862,3.70201 -1.391301,1.20053 -2.283135,2.18361 -1.98206,2.18361 0.301076,0 1.619052,-0.92551 2.92997,-2.05668 1.310917,-1.13116 3.298351,-2.05667 4.41537,-2.05667 1.753265,0 1.963288,0.27499 1.53867,2.01008 -0.479411,1.95889 -0.436572,1.98014 1.717244,0.82749 1.959838,-1.04877 2.241018,-1.03718 2.481927,0.11087 0.447481,2.13301 -1.385846,5.6616 -3.708771,7.1389 -1.679299,1.06801 -1.846563,1.39064 -0.73171,1.40753 0.795567,0.0124 2.774819,-0.90297 4.398123,-2.03418 6.242441,-4.3499 8.295821,-1.80831 2.862663,3.54295 l -3.893603,3.83376 3.752571,-2.24799 c 3.834,-2.29771 7.8797,-2.98114 7.8797,-1.33041 0,0.50569 -1.40189,2.35668 -3.11488,4.11334 -3.447083,3.53493 -3.486232,4.02598 -0.12691,1.57303 1.22099,-0.89156 2.44992,-1.38572 2.73102,-1.09742 0.28102,0.28823 0.51077,0.13591 0.51077,-0.33903 0,-1.09429 3.06378,-1.96012 3.62727,-1.02513 0.2316,0.38419 -0.86231,2.01542 -2.43179,3.62489 -2.88697,2.96051 -2.87221,3.86255 0.0297,1.8028 2.81036,-1.99471 5.19257,-2.43755 5.19257,-0.96406 0,0.72338 -0.51295,1.51884 -1.14069,1.76584 -0.62766,0.24719 -1.33394,0.96104 -1.56843,1.5875 -0.33709,0.90102 0.15074,0.85756 2.33464,-0.21049 3.67579,-1.79755 4.58038,-0.62356 1.57782,2.04863 -1.63558,1.45568 -1.89269,1.93815 -0.80223,1.50555 2.77658,-1.10159 7.38376,-1.5721 6.05584,-0.6186 -0.64082,0.46008 -1.54324,0.61599 -2.00557,0.34706 -0.46224,-0.26895 -0.56998,-0.18217 -0.23818,0.19282 0.33188,0.37516 0.0353,1.32517 -0.65806,2.11129 -1.19034,1.34892 -1.0883,1.36919 1.80188,0.35028 3.61787,-1.27545 4.8675,-0.80593 3.12122,1.17295 -1.16756,1.32294 -1.07442,1.39313 1.34902,1.02834 2.3591,-0.35505 2.49781,-0.26201 1.48853,0.98495 -0.97134,1.20024 -0.94342,1.30991 0.21307,0.8548 0.9877,-0.38866 1.1978,-0.18141 0.82573,0.81303 -0.34977,0.93479 -0.15491,1.19895 0.65021,0.88212 0.71293,-0.28046 1.50369,0.34607 2.08233,1.64855 l 0.93387,2.10005 -4.47802,-0.1928 c -3.42246,-0.14677 -4.76578,-0.58509 -5.70182,-1.86226 -0.92104,-1.25679 -1.10948,-1.3216 -0.75987,-0.25869 0.25559,0.77732 0.16053,1.60723 -0.21155,1.84297 -0.90619,0.57435 -2.72499,-1.74379 -2.1356,-2.72188 0.25623,-0.42488 -0.0329,-0.9685 -0.64242,-1.20829 -0.75898,-0.2988 -0.98746,0.0327 -0.72698,1.05404 0.70941,2.78205 -1.3633,2.69326 -2.51168,-0.10765 l -1.11558,-2.72348 -0.31969,2.45997 -0.318,2.45997 -1.7016,-3.70201 c -1.47473,-3.20751 -1.72222,-3.42728 -1.85362,-1.64534 -0.0834,1.13117 -0.10855,2.33433 -0.0578,2.67367 0.14801,0.962 -0.47805,0.73253 -1.85202,-0.67644 -0.69337,-0.71101 -1.26126,-2.37693 -1.26126,-3.70201 0,-3.27609 -1.21369,-3.06771 -1.46037,0.25065 -0.10854,1.46315 -0.513828,2.98377 -0.899378,3.37905 -0.976389,1.00132 -2.519551,-2.23461 -2.702779,-5.66709 -0.141272,-2.64427 -1.279791,-4.09974 -1.41641,-1.81085 -0.03369,0.56559 -0.187721,1.71024 -0.341588,2.54353 -0.881646,4.77822 -3.580895,0.99342 -3.686789,-5.16899 l -0.07862,-4.57289 -1.330251,5.34735 c -1.17141,4.71224 -1.541878,5.32401 -3.129002,5.15132 -1.248183,-0.13588 -1.802922,0.24285 -1.805008,1.234 0,0.7865 -0.723688,2.64154 -1.604451,4.12299 -2.448394,4.11811 -1.922134,4.43428 1.513559,0.91104 3.783538,-3.8799 5.995034,-4.2744 5.206686,-0.93032 -0.293534,1.24428 -1.203098,3.24495 -2.021288,4.44595 -2.19842,3.22745 -1.825465,3.27436 1.378866,0.17513 4.888925,-4.72834 6.845954,-3.23278 3.122744,2.38606 -2.136167,3.22367 -2.149805,3.95215 -0.0345,1.78192 0.690476,-0.70814 2.225776,-1.46673 3.410984,-1.68711 1.185289,-0.22045 2.45064,-0.58851 2.812524,-0.81785 1.376061,-0.87213 0.581614,1.71475 -1.085813,3.5349 -1.940423,2.11809 -1.03086,2.57327 1.389776,0.69574 1.610308,-1.24905 4.365228,-1.68792 4.365228,-0.69574 0,0.3103 -0.79629,1.43346 -1.77051,2.49693 l -1.772115,1.93295 2.948745,-1.26292 c 1.62194,-0.69496 3.14183,-1.26293 3.37657,-1.26293 0.97029,0 0.3269,1.95219 -0.97768,2.96772 -0.77511,0.60339 -0.97559,1.10385 -0.44812,1.11831 0.52546,0.0155 1.17823,-0.34288 1.4509,-0.79536 0.84403,-1.40039 2.8082,-0.96051 2.25939,0.50614 -0.42004,1.12255 -0.23593,1.18664 1.17671,0.41134 2.19938,-1.20713 2.5806,-1.15956 2.5806,0.31653 0,0.67872 0.58041,1.234 1.2895,1.234 0.79621,0 1.11846,0.45597 0.84297,1.19223 -0.29289,0.78239 -0.061,1.04008 0.67532,0.75036 0.61699,-0.24283 2.1113,0.49907 3.32017,1.64856 l 2.19826,2.0888 -2.35814,0.97532 c -3.93123,1.62542 -9.32917,1.66466 -10.50724,0.0739 -0.95585,-1.2893 -1.02757,-1.2833 -1.05139,0.0578 -0.0321,1.82671 -1.51581,1.87515 -2.1904,0.0723 -0.43112,-1.15184 -0.61699,-1.07172 -1.18617,0.50613 -0.56533,1.56734 -0.87459,1.70227 -1.90056,0.82909 -0.6737,-0.57339 -1.17012,-1.63456 -1.10306,-2.35713 0.21259,-2.29003 -0.0401,-3.36941 -0.789707,-3.36941 -0.399909,0 -0.56236,0.64786 -0.361884,1.43967 0.200396,0.79181 -0.167825,2.18008 -0.817949,3.085 -1.155767,1.60915 -1.201253,1.59493 -2.033723,-0.64109 -0.468179,-1.25747 -0.932668,-3.38613 -1.032545,-4.73035 -0.303321,-4.08145 -1.114612,-2.73078 -1.078031,1.79477 0.06177,7.6017 -2.913283,5.69617 -4.282201,-2.74277 l -0.709729,-4.37525 -0.09402,3.8161 c -0.05936,2.42742 -0.654937,4.52342 -1.635819,5.75868 l -1.541798,1.94258 -0.864879,-2.31696 c -0.47548,-1.27376 -0.86488,-4.12132 -0.86488,-6.32749 0,-5.46605 -1.17494,-5.85379 -1.31926,-0.43543 -0.127715,4.78746 -1.332738,7.84588 -3.092982,7.84588 -2.534633,0 -3.84924,-6.89036 -2.550838,-13.36837 0.381699,-1.90444 0.316398,-3.08501 -0.170793,-3.08501 -0.434165,0 -1.045862,1.75847 -1.35849,3.90768 -0.729062,5.01315 -3.025274,10.52153 -4.653471,11.16227 -2.294928,0.90309 -3.819397,-4.36109 -2.176359,-7.51489 0.397022,-0.76205 0.944621,-2.82853 1.217458,-4.59216 0.272837,-1.76365 0.709328,-4.0774 0.969811,-5.14168 0.283828,-1.15986 0.117767,-1.93456 -0.415152,-1.93456 -0.489037,0 -0.829501,0.27768 -0.755215,0.617 0.247647,1.13214 -1.024282,7.15452 -2.260993,10.70273 -1.480187,4.24674 -3.600791,5.7232 -5.468293,3.80806 -1.583272,-1.62361 -1.018907,-8.51098 1.18922,-14.51239 0.790834,-2.14937 1.161944,-4.08237 0.824207,-4.29652 -0.337898,-0.21423 -1.580305,2.65596 -2.76086,6.37729 -2.432911,7.66993 -2.626087,8.0292 -5.057713,9.42052 -2.128787,1.21801 -2.814931,0.3985 -2.782761,-3.32763 0.05455,-6.33155 1.753184,-13.72503 3.152507,-13.72507 1.177988,0 0.98754,-3.9207 -0.24131,-4.96654 -1.522544,-1.2958 -1.983423,-0.81227 -2.499094,2.62547 -0.842578,5.61701 -5.544343,12.2131 -8.705434,12.21309 -1.570437,0 -2.172909,-2.70891 -1.192348,-5.35377 0.866243,-2.33649 0.469623,-3.77999 -0.661195,-2.40695 -0.347845,0.4223 -2.795195,3.35944 -5.438537,6.52672 -2.278161,2.72966 -4.042336,4.88392 -5.47455,6.70668 -0.453739,-0.21789 -0.912933,-0.41205 -1.446252,-0.64592 0,-0.005 0.008,-0.01 0.01123,-0.0145 0.04733,0.0104 0.07621,0.0153 0.114397,0.0225 -0.06979,-0.0307 -0.03931,-0.0156 -0.09875,-0.0418 0.894241,-1.18399 1.818165,-2.40769 2.803138,-3.67309 2.59159,-3.32937 5.041588,-6.05432 5.44319,-6.05432 0.401675,0 0.730186,-0.35867 0.730186,-0.79696 0,-0.43826 -0.506204,-0.59799 -1.123445,-0.3551 -1.99313,0.78436 -2.323086,-1.40656 -0.57656,-3.82895 2.345877,-3.25385 2.13441,-4.11988 -0.338459,-1.38503 -1.171891,1.29595 -2.888655,2.25269 -4.039367,2.25269 -1.821374,0 -1.916839,-0.16632 -1.054446,-1.851 0.521126,-1.01805 1.436305,-2.14635 2.033723,-2.50818 0.597417,-0.36187 1.087417,-1.02419 1.087417,-1.4718 0,-0.44762 -0.790834,-0.0598 -1.756474,0.86284 -0.965639,0.92255 -1.958393,1.70491 -2.206121,1.73853 -0.247647,0.0336 -1.244974,0.21387 -2.215507,0.40008 -2.20941,0.42412 -3.017893,-0.76592 -1.435182,-2.11291 0.656943,-0.55914 1.195477,-1.39392 1.195477,-1.85422 0,-0.4603 0.631753,-1.32867 1.403895,-1.92973 0.772143,-0.60109 1.001259,-1.10392 0.509253,-1.11832 -0.492005,-0.0156 -1.755591,0.65029 -2.80779,1.47824 -3.085601,2.42771 -4.720939,2.78754 -4.720939,1.03797 0,-0.83534 0.541503,-1.98027 1.203339,-2.54352 2.134081,-1.8163 1.277224,-2.64666 -0.910366,-0.88213 -0.364932,0.29443 -0.724089,0.53898 -1.076426,0.76001 -0.419243,-0.73981 -1.284604,-1.17446 -2.673017,-1.00263 0.314633,-0.53155 0.732914,-1.15551 1.198606,-1.76263 0.844503,-1.10088 1.296237,-1.90603 1.118784,-1.96026 -0.02567,-0.007 -0.06418,-10e-5 -0.116002,0.0241 -2.752276,1.2884 -4.201978,2.18063 -4.807017,3.00949 -0.207616,-0.21502 -0.444834,-0.38825 -0.797573,-0.39205 -0.266579,-0.10013 -0.539096,-0.18062 -0.81474,-0.25227 -0.02968,-0.0228 -0.06979,-0.0585 -0.09563,-0.0771 -0.243235,-0.18212 -0.507569,-0.32817 -0.778721,-0.46275 1.75896,-0.1798 2.420556,-1.38041 1.983664,-2.33465 0.399909,-0.2756 0.859424,-0.71843 1.425796,-1.3754 l 1.529283,-1.77228 -2.069823,1.36416 c -0.687909,0.45345 -1.406382,0.75113 -1.950692,0.84356 -0.270431,-0.11031 -0.585705,-0.18565 -0.947991,-0.22013 -0.07701,-0.0465 -0.127794,-0.0591 -0.136298,-0.01 -0.09587,-0.006 -0.184752,-0.0193 -0.286715,-0.0193 h -1.891142 c -0.008,0 -0.01043,0.002 -0.01524,0.002 -0.509414,-1.29846 -0.932909,-2.30098 -1.131299,-2.53549 l -1.40542,-1.66141 -0.141031,0.55273 c -0.402557,-0.65628 -1.0064725,-1.36064 -1.1265657,-1.50073 0.1763292,0.15256 0.232485,0.20331 -0.023265,-0.029 0,0.003 0.020056,0.0249 0.023265,0.029 -0.1252275,-0.10833 -0.3235377,-0.2727 -0.5123816,-0.4274 -8.023e-4,-0.003 0,-0.004 0,-0.008 -0.00802,-0.0237 -0.8879838,-0.94519 -0.2161999,-0.2394 -0.3069316,-0.3925 -0.5556216,-0.62821 -0.8382458,-0.81303 -0.00802,-0.10702 -0.00802,-0.2151 -0.02166,-0.32136 -0.037705,-0.26852 -0.4153925,-1.62928 -0.4591138,-1.71442 -0.1514603,-0.29476 -0.40007,-0.52478 -0.6000649,-0.78732 -0.1847527,-0.37024 0.094582,0.18372 -0.1191306,-0.15586 -0.1099851,-0.36084 -0.099075,-0.80888 -0.3728746,-1.05726 -0.2399457,-0.21768 -0.532357,-0.3529 -0.8367215,-0.46918 -0.093219,-0.10842 -0.3420691,-0.29016 -0.4465189,-0.39366 -0.046529,-0.0464 -0.099797,-0.0862 -0.1488931,-0.13014 0.4713077,0.14227 1.0984878,0.11689 1.8786524,-0.1896 0.3370953,-0.13241 0.6949683,-0.22018 1.0121684,-0.39688 0.1123918,-0.0626 0.264895,-0.17191 0.4104989,-0.27315 3.209e-4,0.005 0,0.0108 0,0.016 0.037705,0.79429 0.1874802,0.91702 0.4152321,0.41294 0.3444758,0.75129 1.7772506,0.42502 2.6683636,-0.43704 0.648038,0.96156 1.461736,1.43168 2.275032,1.15366 0.5476,-0.18717 0.995001,0.24617 0.995001,0.96246 0,0.71641 0.38194,1.3031 0.849236,1.3031 0.467217,0 0.642423,-0.34524 0.388518,-0.76643 -0.253744,-0.42122 -0.09426,-0.99803 0.354102,-1.28221 0.451413,-0.28606 0.814821,0.23811 0.814821,1.17616 0,0.93164 0.38194,1.69515 0.849236,1.69515 0.467217,0 0.626779,-0.3702 0.354103,-0.82267 -0.272596,-0.45247 0.06739,-0.82267 0.755215,-0.82267 0.687828,0 1.295434,0.3702 1.350627,0.82267 0.05535,0.45247 0.145685,1.16147 0.200557,1.57624 0.257675,1.93822 1.303617,1.73471 1.303617,-0.25387 0,-1.28542 0.34231,-2.02667 0.802226,-1.73532 0.441224,0.27954 0.802226,1.41337 0.802226,2.51782 0,1.10449 0.361001,2.00702 0.802225,2.00686 0.441224,0 0.802226,-0.9255 0.802226,-2.05667 0,-3.95313 2.312014,-1.77995 2.478717,2.32983 0.04974,1.22432 0.323778,0.88451 0.874266,-1.08457 0.759467,-2.71608 0.862633,-2.7841 1.933524,-1.28222 0.622126,0.87247 1.131299,2.50316 1.131299,3.62328 0,2.38655 0.699621,1.97512 1.203339,-0.70698 0.847632,-4.51379 2.785007,-2.69021 2.893949,2.72349 l 0.08616,4.26919 0.763077,-3.49634 c 1.234946,-5.65521 3.49338,-4.17535 3.177544,2.08239 -0.121866,2.41529 0.105011,3.43765 0.681571,3.07215 0.475319,-0.30129 0.811371,-0.9821 0.747434,-1.51358 -0.2162,-1.79543 0.09474,-3.42933 0.888385,-4.66929 1.363463,-2.12998 2.419192,0.72524 1.977326,5.34734 -0.21612,2.26234 -0.166462,3.55806 0.109664,2.87934 1.977888,-4.85707 3.053914,-6.58135 4.109884,-6.58135 0.970452,0 1.133063,0.78392 0.808483,3.90768 -0.2235,2.14921 -0.668976,4.55558 -0.990268,5.34735 -1.005831,2.47923 -0.02326,1.60916 4.186656,-3.71165 3.392453,-4.28779 4.062713,-5.67796 3.990753,-8.28132 -0.05214,-1.89803 0.361322,-3.41312 1.052921,-3.85144 0.62702,-0.3974 0.903788,-0.96596 0.614184,-1.26292 -0.289523,-0.29695 -1.352071,0.0529 -2.361191,0.77768 -1.0092,0.72487 -2.115309,1.31755 -2.458421,1.31755 -1.215292,0 -0.600546,-3.09933 1.038802,-5.23648 1.97869,-2.57954 1.375657,-2.79721 -1.444648,-0.5222 -2.074075,1.67306 -5.031079,2.22501 -5.031079,0.93835 0,-0.38935 0.890711,-2.05523 1.980455,-3.702 1.896141,-2.86529 1.648173,-4.26094 -0.32434,-1.82369 -1.240161,1.53239 -5.512334,3.04204 -6.055842,2.14022 -0.233448,-0.3871 0.558429,-1.90065 1.759522,-3.36459 2.050088,-2.49838 2.06894,-2.59193 0.308696,-1.51036 -4.78648,2.94106 -5.293246,3.15127 -5.576432,2.30411 -0.157646,-0.47146 0.474195,-1.68772 1.403895,-2.7026 2.368572,-2.58541 2.105041,-3.37536 -0.51543,-1.5441 -3.516324,2.45722 -6.273895,1.6387 -3.415806,-1.01388 2.178204,-2.02141 2.049527,-3.29253 -0.172318,-1.69675 -1.805569,1.29686 -4.634699,1.74258 -4.634699,0.72948 0,-0.30378 0.631753,-1.31674 1.403895,-2.24949 1.187696,-1.43475 1.199408,-1.53261 0.06899,-0.6395 -1.774684,1.40404 -5.48554,2.05495 -5.48554,0.96246 0,-0.4755 0.541502,-1.07798 1.203338,-1.33844 0.661837,-0.26057 1.203339,-0.81725 1.203339,-1.23722 0,-0.42025 -0.751044,-0.34937 -1.671838,0.15585 -0.920234,0.50505 -1.912988,0.65261 -2.206122,0.32779 -0.293213,-0.32483 -0.08295,-0.75734 0.4685,-0.95924 1.667587,-0.61075 1.123999,-1.75275 -0.612659,-1.28704 -1.141327,0.30596 -1.494307,0.10186 -1.201735,-0.69412 0.24492,-0.66651 -0.571185,-1.70066 -1.994653,-2.52907 -2.769685,-1.61198 -3.134858,-3.07699 -0.803751,-3.2264 0.501151,-0.0322 0.959061,-0.0751 1.480669,-0.11729 0.08183,0.0354 0.116322,0.0494 0.20208,0.0868 0.05856,-0.038 0.115761,-0.0774 0.173922,-0.11569 0.240026,-0.0205 0.591802,-0.0433 0.750563,-0.0595 0.105653,-0.0109 0.211146,-0.0794 0.314873,-0.17353 0.414511,0.68502 0.867207,1.39297 1.399243,2.14022 0.239544,0.33649 2.344665,-2.33686 2.984841,-2.08238 1.491579,0.59296 0.321372,3.14096 1.762731,2.76526 0.529469,-0.13801 1.006713,-0.30905 1.443044,-0.50131 -0.01043,0.0135 -0.01203,0.017 -0.02166,0.0305 -0.948793,1.26975 0.388999,-0.47437 1.53546,-0.9255 1.144135,-0.8982 1.705933,-2.01046 1.736097,-3.05769 0.605921,0.55666 1.116698,1.37897 1.157933,1.90724 0.04412,0.56558 0.134453,1.76874 0.200556,2.67367 0.06578,0.90493 0.472271,1.64534 0.902504,1.64534 0.442268,0 0.571346,-1.07862 0.297706,-2.48247 -0.398385,-2.04256 -0.258557,-2.39425 0.791244,-1.98115 0.701787,0.2761 1.516367,1.2776 1.809661,2.22538 0.517435,1.67172 0.565649,1.67663 1.637423,0.17353 1.431331,-2.00736 2.350441,-0.99028 3.349854,3.71005 l 0.786583,3.70201 0.08616,-3.44815 c 0.04733,-1.8963 0.394214,-3.6432 0.770939,-3.88196 0.899536,-0.57013 2.524203,3.14436 2.524203,5.77154 0,1.13657 0.312066,1.8682 0.694086,1.62605 0.38202,-0.24221 0.554178,-1.28167 0.382341,-2.31054 -0.171917,-1.02883 0.05616,-2.4256 0.507649,-3.10429 1.51035,-2.26951 2.795115,1.27126 2.536718,6.99268 -0.04492,0.98771 0.319125,0.58213 0.910286,-1.01548 1.477459,-3.99306 2.542253,-3.27183 2.991179,2.02775 l 0.402637,4.74642 0.647075,-3.14607 c 0.560195,-2.71837 0.81803,-3.00056 1.891248,-2.0872 0.930983,0.79237 1.126084,1.99025 0.780245,4.7898 -0.45775,3.70582 -0.452937,3.71724 0.753691,1.4477 1.572362,-2.95766 3.050383,-2.02406 2.481846,1.56821 -0.24131,1.52611 -0.293936,2.7749 -0.117526,2.7749 0.176489,0 1.826347,-2.27292 3.666493,-5.0517 1.840145,-2.77878 2.936467,-4.79337 2.43644,-4.47647 -1.243129,0.78786 -1.103943,-1.2469 0.206814,-3.01753 1.213687,-1.63959 2.500778,-1.97345 1.585599,-0.41133 -0.409296,0.69872 -0.168548,0.66756 0.753691,-0.0996 1.469437,-1.22235 1.862047,-2.16764 0.556264,-1.34004 -0.441225,0.27953 -0.802226,0.10885 -0.802226,-0.38081 0,-0.50548 -0.908601,-0.28012 -2.102714,0.5222 -2.476391,1.66391 -5.117319,2.02957 -5.117319,0.70859 0,-1.29664 1.698232,-2.90665 3.066268,-2.90665 0.971415,0 0.97695,0.21424 0.03931,1.43967 -0.989385,1.29378 -0.963393,1.33003 0.255429,0.35188 1.883305,-1.51152 0.961949,-3.65461 -1.25035,-2.90826 -1.999628,0.67456 -4.481955,0.60668 -5.209734,-0.143 -0.2811,-0.28949 0.357873,-1.24953 1.419538,-2.1322 l 1.930316,-1.60356 -3.334211,0.54631 c -2.67077,0.43793 -3.334291,0.29987 -3.334291,-0.69252 0,-0.68137 0.812253,-1.82318 1.805008,-2.53711 1.724545,-1.2401 1.626192,-1.27818 -2.206121,-0.86604 l -4.011129,0.43222 3.208903,-3.00146 c 1.764897,-1.65042 2.4869,-2.65085 1.604452,-2.22217 -0.882449,0.42865 -2.996474,1.03769 -4.697354,1.35291 -3.835923,0.71081 -3.698983,-0.68061 0.346241,-3.51402 l 2.746661,-1.92331 -2.967594,0.4724 c -3.447565,0.549 -4.708343,-0.68671 -2.528856,-2.48087 1.429406,-1.17678 1.425956,-1.20642 -0.119131,-0.78732 -0.882448,0.23942 -2.102554,0.11509 -2.710641,-0.27637 -1.523427,-0.98101 -0.26313,-2.77753 1.598195,-2.2784 0.83263,0.22325 1.513559,0.0239 1.513559,-0.44347 0,-0.49033 -0.946947,-0.65303 -2.243665,-0.38724 -1.440798,0.29551 -2.6167,0.18311 -3.241875,-0.14461 0.01685,-0.22058 0.02728,-0.44783 0.03129,-0.68287 0.008,-0.33448 0.0088,-0.49618 0.0096,-0.72305 0.09859,-0.0759 0.211306,-0.15145 0.340063,-0.22816 1.293268,-0.77049 1.31541,-0.89753 0.162932,-0.91908 -0.210343,-0.003 -0.419724,-0.0531 -0.62357,-0.12372 -0.157076,-0.4844 -0.493289,-1.02332 -1.206548,-2.66725 -0.0088,-0.0204 0.07381,0.0471 0.05616,0.0337 -0.171997,-0.13222 -0.344556,-0.26366 -0.517034,-0.39527 -0.268505,-0.44232 -0.552975,-0.87461 -0.810088,-1.32398 -0.04653,-0.0813 0.121216,0.14129 0.181784,0.21209 l -0.471628,-0.66681 c -0.08825,-0.0498 -0.129078,-0.0768 -0.211547,-0.12372 -0.03931,-0.2373 -0.0714,-0.47673 -0.128437,-0.71019 -0.05936,-0.244 -0.229356,-0.4432 -0.344716,-0.66521 0.0937,0.19037 0.402236,0.74325 0.280458,0.57041 -0.476281,-0.67592 -0.822362,-1.44722 -1.347499,-2.08399 -0.08126,-0.0985 -0.19847,-0.18883 -0.318082,-0.27797 -0.821961,-2.24502 -0.472351,-2.49951 1.049793,-2.02454 0.956413,0.2985 2.310731,1.05611 3.008346,1.68229 0.697696,0.62615 1.501527,0.89936 1.786237,0.60736 0.284709,-0.29195 0.744385,0.0754 1.021554,0.81625 0.277169,0.74085 0.788829,1.16582 1.137556,0.94478 0.348808,-0.22107 0.87202,0.23254 1.162586,1.00905 0.422372,1.12862 0.661997,1.18985 1.197081,0.30208 0.907398,-1.50565 2.43997,-0.39713 2.517946,1.82208 0.0345,0.99137 0.244198,1.34005 0.466896,0.77447 0.845305,-2.14825 2.678311,-1.04349 2.729493,1.64534 0.04573,2.4268 0.117125,2.50274 0.775592,0.82267 0.399027,-1.01806 1.091589,-1.85101 1.538589,-1.85101 1.117821,0 1.89935,3.58234 1.287973,5.9049 -0.4255,1.61651 -0.307493,1.55902 0.767731,-0.37599 1.769469,-3.18424 2.826803,-2.06594 2.389429,2.52746 -0.354744,3.72628 -0.334448,3.77179 0.537492,1.19865 1.293268,-3.81703 2.268855,-3.30333 2.342419,1.23401 0.05856,3.59988 0.125709,3.72947 0.868008,1.64534 1.510993,-4.24243 3.43457,-1.80019 2.679354,3.40153 -0.337897,2.3271 -0.265938,2.58896 0.328993,1.20669 0.418361,-0.97175 1.186412,-2.03626 1.707859,-2.36677 1.141086,-0.72317 2.517705,1.21954 1.961682,2.77008 -0.217964,0.60761 -0.614184,2.08838 -0.880523,3.29067 l -0.484143,2.18682 1.334904,-1.851 c 1.697269,-2.35262 2.848543,-2.36434 2.848543,-0.0305 0,1.57473 0.146086,1.65837 1.079556,0.617 1.590091,-1.77416 4.980619,-7.96266 3.702432,-6.7581 -0.600065,0.56558 -1.560409,1.02833 -2.134001,1.02833 -1.333459,0 -1.369239,-2.20159 -0.04252,-2.73633 0.551531,-0.22262 -0.350973,-0.20268 -2.005564,0.0401 -3.609214,0.53219 -4.015862,-0.79428 -0.802226,-2.61583 l 2.206121,-1.25007 -3.309182,0.49007 c -4.080682,0.60451 -5.204841,-0.75376 -2.129348,-2.57245 l 2.229627,-1.31916 -2.597848,0.43543 c -3.517359,0.58829 -5.368094,-0.16002 -4.142775,-1.67425 0.506526,-0.62587 1.397237,-1.13749 1.978931,-1.1376 0.581854,0 1.266474,-0.3488 1.523026,-0.77446 0.276768,-0.45909 -0.682053,-0.58252 -2.358143,-0.30368 -3.052148,0.5079 -3.49979,-0.0855 -1.646729,-2.18522 1.071212,-1.21384 0.905713,-1.31095 -1.805008,-1.05083 l -2.984842,0.28601 1.894296,-1.68712 1.894296,-1.68872 h -2.582124 c -1.884268,0 -2.464599,-0.31207 -2.149725,-1.15366 0.264414,-0.70682 -0.24524,-1.34804 -1.317736,-1.65819 -1.716924,-0.49649 -1.721015,-0.52952 -0.192695,-1.72729 1.526716,-1.19655 1.523267,-1.21954 -0.153546,-1.21954 -0.94077,0 -1.933444,-0.37014 -2.206121,-0.82267 -0.272596,-0.45245 -0.152343,-0.82267 0.267944,-0.82267 0.420045,0 0.956012,-0.51331 1.190743,-1.14081 0.29169,-0.77949 -0.02808,-1.01953 -1.007435,-0.75679 -0.913173,0.24501 -1.58576,-0.16269 -1.853623,-1.12153 -0.231282,-0.82828 -0.680127,-2.15336 -0.998049,-2.94522 -0.828459,-2.06372 0.610654,-1.77544 3.141516,0.62986 1.197964,1.13856 2.514577,1.85745 2.925317,1.59714 0.41074,-0.26026 0.745829,-0.0424 0.745829,0.48524 0,0.52758 0.541503,0.74729 1.203339,0.48685 0.833192,-0.32787 1.203339,0.0559 1.203339,1.24686 0,1.34583 0.234169,1.5202 1.076426,0.80338 1.424593,-1.21247 2.109052,-0.38826 2.242141,2.7026 0.08335,1.93787 0.191732,2.10033 0.45751,0.68609 0.191331,-1.01807 0.658066,-1.851 1.038802,-1.851 0.966602,0 1.813672,3.05837 1.193953,4.31098 -0.281662,0.56962 0.03209,0.35187 0.697294,-0.48524 1.595066,-2.00737 2.894752,-1.07005 3.030248,2.18681 0.08399,2.01524 0.190609,2.18363 0.462243,0.72626 0.572949,-3.0749 2.245831,-1.52395 2.140258,1.98437 -0.08455,2.8077 0.008,2.97604 0.723928,1.35451 1.36587,-3.08056 2.428819,-2.15217 1.883306,1.64534 -0.37825,2.63366 -0.294738,3.14117 0.338459,2.05667 1.45965,-2.4996 2.612609,-1.67691 2.108971,1.50555 -0.385389,2.43561 -0.276045,2.78352 0.634561,2.00847 0.869693,-0.74017 1.157532,-0.56674 1.364747,0.82107 0.190127,1.27338 1.256526,-0.2113 3.871702,-5.38913 3.56108,-7.05089 4.848492,-10.06605 3.38435,-7.92944 -0.412344,0.60181 -1.729198,0.97201 -2.925236,0.82267 l -2.174834,-0.27155 1.833246,-2.00686 c 1.636862,-1.79207 1.66502,-1.93646 0.256953,-1.34647 -3.123306,1.30873 -4.385608,1.47306 -4.385608,0.5704 0,-0.50526 0.322013,-0.91891 0.716067,-0.91908 0.393973,0 0.928175,-0.5641 1.18609,-1.25327 0.383785,-1.0257 0.177533,-1.09289 -1.134427,-0.37278 -2.542735,1.39554 -3.699063,-0.01 -1.479064,-1.79637 l 1.914673,-1.5409 -2.123091,0.78411 c -2.453929,0.90565 -3.476125,0.29807 -2.18422,-1.29828 0.706279,-0.87262 0.480774,-1.10375 -1.076347,-1.10386 -2.507196,0 -3.269551,-0.78178 -2.132557,-2.18681 0.708927,-0.87586 0.459435,-1.10375 -1.209596,-1.10386 -2.291718,0 -2.654004,-0.75215 -1.118704,-2.32661 0.779523,-0.79934 0.569661,-0.9638 -1.002782,-0.7825 -1.327844,0.15329 -1.993772,-0.18103 -2.00396,-1.00584 -0.0088,-0.67929 -0.640257,-2.15007 -1.403895,-3.26818 -0.763719,-1.11816 -1.388252,-2.50534 -1.388252,-3.0834 0,-0.57801 -0.332523,-1.05078 -0.739572,-1.05084 -0.406969,0 -1.16756,-1.32955 -1.690611,-2.95485 -1.165313,-3.6209 -0.143438,-5.08511 2.074476,-2.97253 1.7158,1.63421 4.391625,2.98345 5.438529,2.74276 0.368944,-0.0849 0.870175,0.62811 1.114051,1.58428 0.302279,1.18535 0.635123,1.42252 1.04506,0.74233 0.916222,-1.52016 2.374268,-0.14077 2.478798,2.34589 0.05856,1.39281 0.228393,1.68041 0.459033,0.77446 0.202001,-0.79181 0.702028,-1.43967 1.110923,-1.43967 0.748396,0 1.049151,1.65577 0.784978,4.31901 -0.07862,0.79182 0.240748,1.43968 0.709809,1.43968 0.468981,0 0.852365,-0.5768 0.852365,-1.28221 0,-0.71915 0.385229,-1.03821 0.877394,-0.72626 0.48278,0.30595 0.71334,1.43809 0.512382,2.51621 -0.420527,2.25583 0.586186,2.653 1.375737,0.54309 0.853408,-2.28073 2.136247,0.49155 1.60758,3.47384 -0.394855,2.22726 -0.327949,2.3276 0.690958,1.02834 1.67625,-2.13752 2.153976,-1.77784 2.181011,1.64534 0.02086,2.51829 0.175768,2.817 0.850841,1.62766 1.076426,-1.89614 2.333033,-1.05946 2.333033,1.55375 0,2.90055 1.425154,1.70188 3.295064,-2.77168 1.7661,-4.2252 1.60132,-4.86096 -0.905635,-3.4851 -2.376674,1.30435 -3.925531,-0.15682 -2.315785,-2.18521 0.987299,-1.24406 0.969811,-1.36131 -0.145764,-0.93353 -1.887557,0.72368 -3.642747,-0.60956 -2.593115,-1.96991 0.463045,-0.60006 0.831347,-1.77824 0.817949,-2.61744 -0.02086,-1.34095 -0.195582,-1.2915 -1.439995,0.40008 -0.778721,1.05872 -1.672882,1.66171 -1.986712,1.34006 -0.313671,-0.32169 -0.113194,-1.15015 0.444994,-1.83976 0.865281,-1.0692 0.704916,-1.25327 -1.089021,-1.25329 -2.510085,0 -2.700774,-0.86722 -0.499787,-2.27679 0.882449,-0.56515 1.604452,-1.39433 1.604452,-1.84298 0,-1.18113 -2.205319,-1.00403 -2.640125,0.2121 -0.291369,0.81478 -0.596295,0.80778 -1.465025,-0.0337 -0.912051,-0.88398 -0.91534,-1.17799 -0.02326,-1.74335 0.776956,-0.49243 0.480132,-0.83096 -1.079555,-1.2324 -1.714036,-0.44115 -1.966577,-0.78497 -1.237835,-1.68551 0.718313,-0.88755 0.554018,-1.2483 -0.764601,-1.67747 -1.16427,-0.37893 -1.539712,-1.0028 -1.222111,-2.02936 0.260724,-0.84284 0,-1.66095 -0.598541,-1.8976 -1.53554,-0.60426 -1.786396,-6.35961 -0.277329,-6.35962 z m -1.972673,25.50435 c -0.467216,0 -0.625174,0.3702 -0.352498,0.82267 0.272596,0.45246 0.654697,0.82267 0.849236,0.82267 0.19462,0 0.354103,-0.37021 0.354103,-0.82267 0,-0.45247 -0.383544,-0.82267 -0.850841,-0.82267 z m 2.336242,1.25328 c -0.244438,0.0276 -0.416836,0.3446 -0.416836,0.83874 0,1.38715 0.253744,1.5086 0.902504,0.43222 0.253824,-0.42118 0.154188,-0.95946 -0.220933,-1.19705 -0.0937,-0.0594 -0.183309,-0.0847 -0.264735,-0.0739 z m -48.439126,5.6687 c 0.008,0.007 0.01524,0.0125 0.02166,0.0192 -0.153385,0.1118 -0.257675,0.18333 -0.162932,0.0996 0.05936,-0.0526 0.08656,-0.0716 0.140951,-0.1189 z m 10.569975,14.23443 c 0.209622,-0.0483 0.838647,0.91994 1.016902,1.18258 -0.340625,-0.25976 -0.68101,-0.51948 -1.021635,-0.77929 -0.06578,-0.27268 -0.05936,-0.38963 0.008,-0.40329 z m -0.105011,0.14139 c 0.01043,0.0231 0.02567,0.0443 0.0361,0.0675 0.104931,0.23114 0.139908,1.01027 0.0925,0.76 -0.05214,-0.27383 -0.08945,-0.55105 -0.128517,-0.82749 z m 48.121035,4.22904 c -0.441224,0 -0.260803,0.35994 0.401113,0.79856 0.661837,0.4386 1.564341,0.79696 2.005565,0.79696 0.441224,0 0.260723,-0.35836 -0.401113,-0.79696 -0.661836,-0.43862 -1.56434,-0.7986 -2.005565,-0.79856 z m -70.808952,9.58762 c 0.04252,0.0482 0.05535,0.0625 0.103407,0.11729 -0.01043,-0.004 -0.01765,-0.007 -0.02808,-0.0113 -0.02086,-0.0202 -0.05616,-0.0541 -0.08022,-0.0771 -0.0088,-0.0119 -0.008,-0.005 -0.01284,-0.016 0.008,-0.004 0.01203,-0.008 0.01765,-0.0128 z m -3.414193,3.45456 c 0.234571,0.13361 0.423816,0.24192 0.61266,0.35188 -0.04011,0.0124 -0.0714,0.022 -0.114397,0.0354 -0.164537,-0.13029 -0.333245,-0.25439 -0.498263,-0.38401 -8e-5,-8.3e-4 8.1e-5,-0.002 0,-0.003 z m 67.307076,2.13058 c -0.38924,-0.061 -0.856215,0.4462 -1.10306,1.24365 -0.281983,0.91148 -0.818351,1.6582 -1.190824,1.6582 -0.53709,0 -0.571827,1.42638 -0.07701,3.085 0.153145,0.51267 0.852365,0.13805 0.76781,-0.41133 -0.226548,-1.47027 0.175608,-2.63841 1.305142,-3.79681 0.673709,-0.69089 0.875629,-1.45103 0.457509,-1.71603 -0.05134,-0.0327 -0.104209,-0.054 -0.159803,-0.0627 z m -66.735169,17.68578 c -0.09482,-0.14119 0.0096,0.0122 0.09402,0.13658 -7.22e-4,6.4e-4 0,-7.4e-4 0,0.002 -0.03209,-0.0484 -0.05455,-0.0845 -0.09089,-0.13818 z m -16.9564067,2.64154 c 0.123302,0.10915 0.198551,0.17594 0.275725,0.24262 -0.122259,-0.0317 -0.236978,-0.0766 -0.275725,-0.24262 z m 102.5313717,0.13657 c -0.12162,-0.0189 -0.20473,0.28154 -0.2288,0.88052 -0.0345,0.86722 0.15475,1.35312 0.42149,1.07975 0.2665,-0.2733 0.29514,-0.98397 0.0626,-1.57785 -0.096,-0.2461 -0.18243,-0.37108 -0.25535,-0.38242 z m -87.997286,2.3941 c 0.0361,0.0592 0.0706,0.1154 0.109665,0.17835 0.008,0.016 0.01123,0.0322 0.01765,0.0482 -0.07541,-0.11675 -0.09699,-0.13659 -0.136299,-0.21049 0,-0.006 0.008,-0.007 0.0096,-0.016 z M 0.0807033,554.3401 c 0.02567,0.0383 0.04653,0.08 0.07381,0.11729 -0.01765,0.0288 -0.0369,0.0568 -0.05455,0.0852 -0.01284,0.0369 -0.01605,0.077 -0.03771,0.10926 -0.0941,0.14201 -0.103648,0.15461 -0.166141,0.24745 0.06177,-0.18645 0.123864,-0.37253 0.184913,-0.55916 z m 15.4553627,0.95924 c 0.01043,0.007 0.02086,0.0152 0.03129,0.0225 8.02e-4,0.0159 4.01e-4,0.0328 0,0.0499 -0.01043,-0.0253 -0.02166,-0.0464 -0.03129,-0.0723 z m 53.899555,0.27315 c -0.113996,0 -1.850735,2.53445 -3.859187,5.63175 -3.615231,5.57541 -3.654139,5.7108 -3.928099,13.56439 -0.314392,9.01423 0.726095,10.51062 2.315866,3.33245 0.572548,-2.58532 1.441359,-5.19464 1.930315,-5.79884 0.488957,-0.60419 0.66673,-1.09904 0.39646,-1.09904 -0.27051,0 0.135416,-0.74957 0.9009,-1.66622 1.261019,-1.51035 1.479545,-1.54261 2.337766,-0.33903 0.972779,1.36433 0.878518,3.99039 -0.427746,11.87728 -0.746793,4.50858 -0.460237,6.90358 0.415151,3.47063 0.253183,-0.9932 0.776635,-1.60558 1.162666,-1.36094 0.385951,0.2447 0.484224,-0.13548 0.219329,-0.84355 -0.264975,-0.70796 -0.0353,-1.83684 0.509253,-2.50979 0.544551,-0.67294 0.768372,-1.22436 0.496658,-1.22436 -0.271634,0 0.289764,-0.92551 1.248745,-2.05667 0.959141,-1.13116 2.220882,-2.05667 2.803137,-2.05667 1.554152,0 1.335465,5.46416 -0.438737,10.97909 -1.752623,5.44802 -1.004307,6.09964 1.45251,1.26614 0.946466,-1.86222 2.244628,-3.92312 2.886088,-4.58092 0.784336,-0.80428 0.933149,-1.64912 0.45438,-2.57887 -0.391566,-0.76038 -0.719115,-2.86424 -0.728581,-4.67411 -0.0088,-1.80986 -0.09274,-5.14166 -0.184913,-7.40402 l -0.167585,-4.11334 -0.783454,3.70201 c -1.318057,6.22808 -1.318218,6.22737 -2.748265,4.76087 -1.086695,-1.11437 -1.683391,-4.60994 -1.867662,-10.93089 -0.07541,-2.57911 -1.601724,0.28762 -1.616967,3.0368 -0.008,1.21757 -0.413547,2.46883 -0.904108,2.77973 -1.587605,1.00619 -2.4074,-1.59219 -2.032199,-6.43353 0.20168,-2.6017 0.272276,-4.73035 0.158279,-4.73035 z m -50.742396,1.96349 c 0.135256,0.0853 0.272677,0.16589 0.410499,0.24582 -0.178896,-0.0222 -0.313189,-0.10188 -0.410499,-0.24582 z m 68.466533,1.54089 c -0.104209,-0.0452 -0.390363,0.15981 -0.900899,0.59451 -1.392103,1.18474 -1.536182,1.6598 -0.50452,1.6598 0.393973,0 0.94422,-0.60698 1.222111,-1.3497 0.211226,-0.56455 0.287518,-0.85942 0.183308,-0.90461 z m -82.6574262,1.53447 c 0.084153,0.007 0.1747248,0.0439 0.2600817,0.0563 0.032089,0.0277 0.065783,0.0516 0.09715,0.0803 -0.1196119,-0.0449 -0.2433151,-0.0829 -0.3572312,-0.13657 z m 1.8926914,1.54089 c -0.02166,-0.0369 0.074607,0.0464 0.095625,0.0836 0.036902,0.0647 0.066585,0.16492 0.081426,0.20888 -0.046529,-0.0754 -0.07942,-0.12314 -0.1770513,-0.29244 z m 0.4512521,2.84721 c -0.1363784,-0.0542 0.3048458,0.0634 0.4074505,0.17032 v 0.003 c -0.1275539,-0.0564 -0.2545463,-0.11154 -0.4105792,-0.17354 z m 3.3750447,3.78235 c -0.03931,-0.0511 0.06739,0.0546 0.142555,0.13015 l -0.0096,0.0337 c -0.04332,-0.0524 -0.08399,-0.10024 -0.133169,-0.16389 z m 12.501887,0.12212 c -0.165419,-0.0215 -0.258558,0.0958 -0.258558,0.35348 0,1.09808 0.948392,2.07063 1.483797,1.52162 0.227993,-0.23382 -0.01284,-0.86405 -0.535887,-1.3995 -0.287838,-0.29516 -0.524014,-0.4541 -0.689352,-0.4756 z m -6.342638,0.20567 c -0.06177,-0.0128 -0.14039,-0.0131 -0.235052,0.002 -0.12619,0.0193 -0.280539,0.0631 -0.459034,0.13336 -1.389776,0.5469 -1.644403,1.13599 -0.490481,1.13599 0.415232,0 0.976149,-0.36575 1.245696,-0.81302 0.158119,-0.26233 0.12595,-0.4197 -0.06097,-0.45793 z m 67.941636,0.94317 c -0.382581,0.17285 -0.81466,1.90296 -1.015297,5.05973 -0.194379,3.0575 0.01845,4.31939 0.728582,4.31902 0.694326,-3.5e-4 1.002782,-1.56978 1.002782,-5.10151 0,-3.06615 -0.333405,-4.45009 -0.716067,-4.27724 z m -28.966289,5.77635 -1.71572,1.88797 c -1.400446,1.54156 -1.510752,2.02051 -0.601669,2.61101 1.871753,1.21558 2.317389,0.85548 2.317389,-1.87511 z m -46.0543483,0.83231 c -4.011e-4,0.003 -4.011e-4,0.007 0,0.0113 -0.060167,0.0344 -0.1208955,0.0689 -0.1817844,0.10284 0,-0.01 -0.00802,-0.0193 -0.00963,-0.029 0.131565,-0.072 0.1556318,-0.0736 0.1927749,-0.0852 z m 37.1624773,6.98305 c -0.278693,-0.0118 -0.595733,0.0403 -0.885256,0.15907 -0.640016,0.26273 -0.45045,0.45864 0.484143,0.4981 0.845707,0.0358 1.319501,-0.15904 1.052922,-0.43222 -0.13325,-0.13666 -0.373116,-0.21316 -0.651809,-0.22495 z m -1.830037,1.82208 c -0.05936,-0.0127 -0.127073,-0.0127 -0.199033,0.002 -0.09587,0.019 -0.199914,0.0619 -0.31022,0.13176 -0.441225,0.27952 -0.802226,0.87955 -0.802226,1.33201 0,0.45247 0.361001,0.59298 0.802226,0.31333 0.441224,-0.27953 0.802225,-0.87795 0.802225,-1.33042 0,-0.2545 -0.114156,-0.4102 -0.292972,-0.44828 z m -23.9791,4.6709 c 0.02647,0.0187 0.395578,0.34405 0.844583,0.71823 0.02968,0.0938 0.06017,0.18589 0.08929,0.27957 -0.415713,-0.44268 -0.948872,-1.00833 -0.933871,-0.9978 z m 54.421324,2.00686 c -0.185876,0.0383 -0.218045,0.19562 -0.06097,0.45793 0.471147,0.78172 2.000911,1.15636 2.000911,0.49007 0,-0.17785 -0.560916,-0.54358 -1.245696,-0.81303 -0.178495,-0.0703 -0.332843,-0.11406 -0.459034,-0.13336 -0.09466,-0.0145 -0.17304,-0.0142 -0.235052,-0.002 z"
     inkscape:connector-curvature="0" />
  <path
     style="opacity:1;fill:#ffffff;fill-opacity:1;fill-rule:evenodd;stroke:none;stroke-width:2.64566922;stroke-linecap:butt;stroke-linejoin:round;stroke-miterlimit:4;stroke-dasharray:none;stroke-opacity:1"
     id="path1417"
     d="m 895.33753,549.10741 c -1.20657,1.45498 -2.52074,2.83343 -3.60565,4.3834 -1.16286,1.66134 -2.23613,3.40094 -3.09142,5.23963 -0.65919,1.4171 -1.26467,2.88788 -1.55368,4.42384 -0.34168,1.8159 -0.32161,3.69701 -0.18967,5.54006 0.13045,1.82235 0.41626,3.65289 0.96588,5.39527 0.23312,0.73902 1.19482,1.36542 0.97753,2.10925 -0.0907,0.31064 -0.44868,1.10117 -0.81822,0.52261 v 0 c -0.46164,-0.73075 -0.82054,-1.50313 -1.07686,-2.31454 -0.58287,-1.84511 -0.8826,-3.78462 -1.01921,-5.71478 -0.13369,-1.88903 -0.14846,-3.81629 0.19981,-5.67775 0.30365,-1.62294 0.93305,-3.18032 1.62727,-4.67838 0.8847,-1.9091 2.00098,-3.71298 3.20833,-5.43625 1.07329,-1.5319 1.71773,-4.05725 3.56808,-4.33091 0.32014,-0.0473 1.18862,-0.0327 0.80781,0.53855 z"
     inkscape:connector-curvature="0"
     sodipodi:nodetypes="caaaaaaccaaaaaac" />
  <path
     style="opacity:1;fill:#ffffff;fill-opacity:1;fill-rule:evenodd;stroke:none;stroke-width:2.64566922;stroke-linecap:butt;stroke-linejoin:round;stroke-miterlimit:4;stroke-dasharray:none;stroke-opacity:1"
     id="path1421"
     d="m 863.4156,552.75703 c 1.12737,-1.57428 3.97583,-1.16047 5.789,-0.48097 1.54605,0.5794 2.60314,2.13641 3.45085,3.55322 0.88791,1.48399 1.15966,3.26474 1.57074,4.9445 0.40864,1.66977 0.4416,3.41973 0.88482,5.08065 0.42462,1.59118 0.76034,3.28321 1.69009,4.64252 0.50173,0.73354 1.89981,0.87571 2.00419,1.75827 0.038,0.32139 -0.56035,0.79285 -0.56035,0.79285 v 0 c 0,0 -1.7071,-1.20403 -2.27672,-2.05222 -1.00154,-1.49136 -1.36519,-3.33429 -1.82551,-5.07077 -0.42522,-1.6041 -0.46447,-3.29169 -0.85549,-4.90447 -0.38688,-1.5957 -0.6644,-3.2706 -1.46993,-4.70136 -0.6709,-1.19164 -1.44414,-2.56732 -2.71293,-3.07751 -1.69244,-0.68054 -3.96982,1.51869 -5.45329,0.45718 -0.26319,-0.18832 -0.42389,-0.67877 -0.23547,-0.94189 z"
     inkscape:connector-curvature="0"
     sodipodi:nodetypes="ssssssssssssssss" />
  <g
     id="g2617"
     style="fill:#810920;fill-opacity:1;filter:url(#filter15630)"
     transform="matrix(0.46067716,0,0,0.46067716,432.64156,384.80535)">
    <g
       transform="matrix(8.1912339,0,0,8.7757029,-2545.2973,-1286.5729)"
       id="g2169-1-4-1-4-42-0-6-5-8-1"
       style="fill:#810920;fill-opacity:1;filter:url(#filter3479-5-0)"
       clip-path="url(#clipPath4915-1-0)" />
    <g
       transform="matrix(8.1912339,0,0,8.7757029,-2539.8603,-1286.0249)"
       id="g2169-1-4-1-4-42-0-6-39-1-1"
       style="fill:#810920;fill-opacity:1"
       clip-path="url(#clipPath4911-7-3)">
      <path
         inkscape:connector-curvature="0"
         id="path2116-9-5-6-3-7-5-1-6-2-5"
         style="font-style:normal;font-variant:normal;font-weight:normal;font-stretch:normal;font-size:23.43639946px;line-height:1.25;font-family:'aliens and cows';-inkscape-font-specification:'aliens and cows';fill:#810920;fill-opacity:1;stroke:#ffc300;stroke-width:0;stroke-miterlimit:4;stroke-dasharray:none;stroke-opacity:1"
         d="m 327.64682,163.19181 c -0.003,0.67337 -0.29462,1.20364 -0.88388,1.59082 -0.57771,0.38719 -1.39226,0.58078 -2.44367,0.58078 -0.50837,0 -0.96477,-0.0505 -1.36917,-0.15151 -0.40438,-0.101 -0.75678,-0.24409 -1.05719,-0.42927 -0.28885,-0.19359 -0.51414,-0.42084 -0.6759,-0.68177 -0.15027,-0.26935 -0.22532,-0.57237 -0.22532,-0.90905 V 147.7508 c 0,-0.0758 0.0288,-0.13889 0.0867,-0.18939 0.0578,-0.0505 0.14453,-0.0757 0.25998,-0.0757 h 0.97052 c 0.30042,0 0.54305,0.0589 0.72791,0.17677 0.18486,0.11783 0.2773,0.27355 0.2773,0.46714 v 15.06225 c 0,0.22727 0.0809,0.41244 0.24264,0.55553 0.16176,0.13467 0.41594,0.20201 0.76257,0.20201 0.33505,0 0.58346,-0.0673 0.74522,-0.20201 0.17331,-0.14309 0.25996,-0.32826 0.25996,-0.55553 0.7031,-2.54519 -0.0644,-11.88576 0.41509,-14.01621 0.5274,-0.24275 1.16444,-0.23077 1.82063,-0.23077 0.34665,0.26509 -0.0577,-0.0505 0,0 0.0578,0.0505 0.156,0.1136 0.15552,0.18939 z" />
      <path
         inkscape:connector-curvature="0"
         id="path2118-6-5-7-4-1-1-6-15-6-5"
         style="font-style:normal;font-variant:normal;font-weight:normal;font-stretch:normal;font-size:23.43639946px;line-height:1.25;font-family:'aliens and cows';-inkscape-font-specification:'aliens and cows';fill:#810920;fill-opacity:1;stroke:#ffc300;stroke-width:0;stroke-miterlimit:4;stroke-dasharray:none;stroke-opacity:1"
         d="m 333.34278,150.13967 c 0.41599,0 0.79329,0.0547 1.1319,0.16412 0.3386,0.10101 0.62883,0.2441 0.87069,0.42927 0.24186,0.18517 0.42567,0.41244 0.55143,0.68179 0.13545,0.26934 0.20316,0.56814 0.20316,0.89641 v 4.59568 c -0.31647,1.95056 -2.66956,1.49653 -3.45871,1.51564 3.15147,0.0662 3.03305,0.29403 3.19751,0.5297 0.17414,0.22726 0.2612,0.52186 0.2612,0.88379 v 4.93658 c 0,0.0758 -0.0242,0.13889 -0.0726,0.18938 -0.0484,0.0505 -0.12089,0.0757 -0.21768,0.0757 h -0.81264 c -0.28056,0 -0.49338,-0.0673 -0.6385,-0.202 -0.13544,-0.14309 -0.20317,-0.32406 -0.20317,-0.5429 v -4.45681 c 0,-0.22726 -0.0676,-0.40823 -0.20315,-0.5429 -0.12582,-0.14309 -0.33861,-0.21464 -0.63851,-0.21464 h -0.84168 v 5.21435 c 0,0.21884 -0.0726,0.39981 -0.21767,0.5429 -0.13544,0.13467 -0.34343,0.202 -0.62398,0.202 h -0.81266 c -0.0967,0 -0.16929,-0.0252 -0.21766,-0.0757 -0.0484,-0.0505 -0.0723,-0.11359 -0.0726,-0.18938 L 330.4808,151.02 c -0.0983,-1.34063 1.66015,-0.91991 2.86198,-0.88028 z m -0.8707,1.41406 v 6.11075 h 0.84168 c 0.29022,0 0.50307,-0.0715 0.63851,-0.21463 0.13544,-0.14309 0.20315,-0.32406 0.20315,-0.54291 v -4.59568 c 0,-0.21884 -0.0726,-0.39981 -0.21767,-0.5429 -0.13544,-0.14309 -0.40295,-0.17815 -0.62399,-0.21463 -0.27508,-0.0454 -0.84168,0 -0.84168,0 z" />
      <path
         inkscape:connector-curvature="0"
         id="path2120-4-8-0-7-9-0-7-3-0-5"
         style="font-style:normal;font-variant:normal;font-weight:normal;font-stretch:normal;font-size:23.43639946px;line-height:1.25;font-family:'aliens and cows';-inkscape-font-specification:'aliens and cows';fill:#810920;fill-opacity:1;stroke:#ffc300;stroke-width:0;stroke-miterlimit:4;stroke-dasharray:none;stroke-opacity:1"
         d="m 344.60445,158.18212 c 0.10782,0 0.18871,0.0252 0.24263,0.0757 0.054,0.0505 0.0809,0.11359 0.0809,0.18938 v 4.62094 c 0,0.67337 -0.27497,1.20364 -0.82491,1.59082 -0.53918,0.38719 -1.29941,0.58078 -2.28069,0.58078 -0.47446,0 -0.90042,-0.0505 -1.27784,-0.15151 -0.37741,-0.10101 -0.70629,-0.2441 -0.98668,-0.42927 -0.26957,-0.19359 -0.47985,-0.42085 -0.63082,-0.68177 -0.14024,-0.26935 -0.21027,-0.57237 -0.21027,-0.90905 v -10.95895 c 0,-0.67337 0.26958,-1.20364 0.80876,-1.59082 0.54994,-0.38718 1.31556,-0.58077 2.29685,-0.58077 0.46368,0 0.88424,0.0505 1.26165,0.15151 0.38821,0.10099 0.71709,0.24829 0.98668,0.44188 0.28037,0.18517 0.49064,0.41244 0.63083,0.68179 0.15096,0.26093 0.0253,2.28557 0.0546,2.62156 0.0523,0.59972 -0.0564,0.62073 -1.86698,0.89398 l -0.12864,-2.61918 c -0.0104,-0.22714 -0.0755,-0.40823 -0.22646,-0.54291 -0.15096,-0.14308 -0.38819,-0.21462 -0.71169,-0.21462 -0.31271,0 -0.54996,0.0715 -0.7117,0.21462 -0.15097,0.13468 -0.22646,0.31565 -0.22646,0.54291 v 10.95895 c 0,0.22727 0.0756,0.41244 0.22646,0.55553 0.15096,0.13467 0.38819,0.20201 0.7117,0.20201 0.31272,0 0.54456,-0.0673 0.69553,-0.20201 0.16175,-0.14309 0.24262,-0.32826 0.24262,-0.55553 v -3.47202 c -0.64701,0 -0.97051,-0.24409 -0.97051,-0.73228 v -0.42926 c 0,-0.0842 0.0324,-0.1473 0.0971,-0.18939 0.0647,-0.0421 0.14545,-0.0631 0.24264,-0.0631 z" />
      <path
         inkscape:connector-curvature="0"
         id="path2122-0-8-01-73-7-3-1-5-04-6"
         style="font-style:normal;font-variant:normal;font-weight:normal;font-stretch:normal;font-size:23.43639946px;line-height:1.25;font-family:'aliens and cows';-inkscape-font-specification:'aliens and cows';fill:#810920;fill-opacity:1;stroke:#ffc300;stroke-width:0;stroke-miterlimit:4;stroke-dasharray:none;stroke-opacity:1"
         d="m 351.69062,150.13967 c 0.11062,0 0.19654,0.0252 0.25793,0.0757 0.0615,0.0505 0.0983,0.10938 0.11045,0.17675 l 2.02668,14.32998 c 0.0118,0.0757 -0.0246,0.1473 -0.11045,0.21463 -0.0737,0.0673 -0.19646,0.10096 -0.36849,0.10096 h -0.90279 c -0.30708,0 -0.56501,-0.0589 -0.77381,-0.17675 -0.19653,-0.12625 -0.30708,-0.27776 -0.33164,-0.45453 l -0.18424,-2.03271 h -1.52923 l -0.18424,2.03271 c -0.0246,0.17677 -0.14111,0.32828 -0.35005,0.45453 -0.19653,0.11783 -0.44834,0.17675 -0.75542,0.17675 h -0.90277 c -0.17196,0 -0.30093,-0.0336 -0.38692,-0.10096 -0.0737,-0.0673 -0.10435,-0.13884 -0.0922,-0.21463 l 2.02667,-14.32998 c 0.0119,-0.0673 0.0491,-0.12622 0.11062,-0.17675 0.0615,-0.0505 0.14738,-0.0757 0.25793,-0.0757 z m -1.67662,10.82008 h 1.27127 l -0.57161,-9.77796 z" />
      <path
         inkscape:connector-curvature="0"
         id="path2124-7-7-4-82-8-2-0-8-5-3"
         style="font-style:normal;font-variant:normal;font-weight:normal;font-stretch:normal;font-size:23.43639946px;line-height:1.25;font-family:'aliens and cows';-inkscape-font-specification:'aliens and cows';fill:#810920;fill-opacity:1;stroke:#ffc300;stroke-width:0;stroke-miterlimit:4;stroke-dasharray:none;stroke-opacity:1"
         d="m 362.66607,154.66121 c -1.38989,0.27946 -1.56197,-1.06257 -1.54599,-2.55196 0,-0.22726 -0.096,-0.40823 -0.28783,-0.54291 -0.17908,-0.14308 -0.45408,-0.21462 -0.82504,-0.21462 -0.38375,0 -0.66517,0.0715 -0.84426,0.21462 -0.17908,0.13468 -0.26862,0.31565 -0.26862,0.54291 0,0.68177 0.0639,1.27097 0.19188,1.76758 0.14061,0.4966 0.32618,0.93428 0.55643,1.31305 0.23024,0.37877 0.48609,0.71965 0.76749,1.02266 0.29422,0.30302 0.58842,0.60603 0.88263,0.90904 0.29422,0.30301 0.58203,0.62707 0.86345,0.97216 0.29422,0.33669 0.55645,0.7365 0.7867,1.19943 0.23024,0.45453 0.40933,0.98901 0.53725,1.60344 0.14078,0.60603 0.21107,1.32989 0.21107,2.17159 0,0.33668 -0.0896,0.6397 -0.26864,0.90905 -0.16636,0.26093 -0.41575,0.48818 -0.74832,0.68177 -0.31979,0.18518 -0.70993,0.32827 -1.17044,0.42927 -0.44772,0.10101 -0.9466,0.15151 -1.49662,0.15151 -1.16404,0 -2.07225,-0.19359 -2.72463,-0.58078 -0.63959,-0.38718 -0.95939,-0.91745 -0.95939,-1.59082 v -3.10587 c 0,-0.0758 0.0319,-0.13889 0.096,-0.18939 0.064,-0.0505 0.15984,-0.0757 0.28782,-0.0757 h 1.0745 c 0.37096,0 0.64598,0.0715 0.82506,0.21463 0.19189,0.13468 0.28783,0.31144 0.28783,0.53028 v 2.6261 c 0,0.22727 0.0896,0.41244 0.26862,0.55553 0.19187,0.13467 0.47328,0.20201 0.84424,0.20201 0.38376,0 0.66517,-0.0673 0.84425,-0.20201 0.17909,-0.14309 0.26864,-0.32826 0.26864,-0.55553 0,-0.80803 -0.0704,-1.49822 -0.21107,-2.07058 -0.12791,-0.57236 -0.30699,-1.06476 -0.53725,-1.47719 -0.23025,-0.42085 -0.49248,-0.78278 -0.78669,-1.08579 -0.28141,-0.31143 -0.56922,-0.60603 -0.86344,-0.88379 -0.29421,-0.28618 -0.58841,-0.58077 -0.88263,-0.88378 -0.28142,-0.30302 -0.53725,-0.66075 -0.76749,-1.07318 -0.23025,-0.41243 -0.41574,-0.89641 -0.55645,-1.45193 -0.1279,-0.55552 -0.19187,-1.23309 -0.19187,-2.03271 0,-0.33668 0.0831,-0.63548 0.24942,-0.89641 0.17908,-0.26935 0.42852,-0.49662 0.74832,-0.68179 0.3326,-0.19359 0.72274,-0.34089 1.17044,-0.44188 0.44772,-0.10101 0.95298,-0.15151 1.51582,-0.15151 1.16405,0 2.06399,0.1963 2.70545,0.58077 0.65052,0.3899 0.95272,0.91788 0.97858,1.59082 0.0384,0.99855 0.85738,2.17339 -1.02519,2.55191 -10e-6,0 -2e-5,0 -3e-5,0 z"
         sodipodi:nodetypes="cccscscccccccscccscsscsscsscscscccccccscccssscc" />
    </g>
  </g>
</svg>
