<svg xmlns="http://www.w3.org/2000/svg" data-name="Layer 1" width="826.31" height="603.5"><defs><clipPath clipPathUnits="userSpaceOnUse" id="b"><path d="M325.65 174.48a24.26 22.65 0 01-3.06-31.84 24.26 22.65 0 0134.1-2.97 24.26 22.65 0 013.3 31.82 24.26 22.65 0 01-34.07 3.2" opacity=".66" fill="#0ff" stroke="#ffc300" stroke-width="0" stroke-dashoffset="3.9"/></clipPath><clipPath clipPathUnits="userSpaceOnUse" id="d"><path d="M324.79 174.42a24.26 22.65 0 01-3.05-31.84 24.26 22.65 0 0134.1-2.97 24.26 22.65 0 013.3 31.82 24.26 22.65 0 01-34.07 3.2" opacity=".66" fill="#0ff" stroke="#ffc300" stroke-width="0" stroke-dashoffset="3.9"/></clipPath><filter height="1" y="0" width="1" x="0" id="a" color-interpolation-filters="sRGB"><feGaussianBlur stdDeviation=".03"/></filter><filter id="c" x="-.01" width="1.01" y="-.01" height="1.02" color-interpolation-filters="sRGB"><feGaussianBlur stdDeviation=".09"/></filter></defs><rect x="321.06" y=".5" width="462" height="531" rx="5.42" fill="#fff" stroke="#3f3d56" stroke-miterlimit="10" opacity=".9"/><rect x="366.56" y="123.5" width="361" height="12" rx="5.42" fill="#f2f2f2"/><rect x="367.06" y="161.5" width="361" height="12" rx="5.42" fill="#f2f2f2"/><rect x="367.56" y="199.5" width="361" height="12" rx="5.42" fill="#f2f2f2"/><rect x="371.56" y="118.5" width="361" height="12" rx="5.42" fill="none" stroke="#3f3d56" stroke-miterlimit="10"/><rect x="372.06" y="156.5" width="361" height="12" rx="5.42" fill="none" stroke="#3f3d56" stroke-miterlimit="10"/><rect x="372.56" y="194.5" width="361" height="12" rx="5.42" fill="none" stroke="#3f3d56" stroke-miterlimit="10"/><path d="M154.19 69.6s20.2 37.99 16.97 58.2-6.47 38 0 47.7-34.76-1.62-34.76-1.62v-56.6z" fill="#a40"/><path d="M197.44 171.85s-48.91 54.57-64.27 40.83-29.5-46.48-18.2-57c6.12-5.67 6.57-16.53 5.7-25.32a85.24 85.24 0 00-2.46-13.48s24.25-7.27 25.06 7.28a11.09 11.09 0 001.32 4.89c4.63 8.22 19.7 4 19.7 4z" fill="#fbbebe"/><path d="M161.06 135.48l3.23-2.43a96.75 96.75 0 0138 5.66c19.4 7.28 53.35 13.74 63.05 11.32s33.15-7.28 33.15-7.28 25.86-10.5 31.52 2.43-34.76 12.93-34.76 12.93-28.7 11.72-48.9 10.1-46.49 7.69-58.62-2.01-26.67-30.72-26.67-30.72zM64.86 444.29H43.03l-8.08 16.16 10.5 11.32s20.22-2.42 25.87-8.89-6.46-18.6-6.46-18.6z" fill="#fbbebe"/><path d="M61.5 444.29s9.02-4.05 3.36-8.9-10.51-11.31-19.4-4.85S-7.1 470.16.99 481.47s10.51 8.9 14.55 6.47 16.98-12.13 27.49-12.13 6.47-13.74 2.43-17.78 12.7-13.74 16.05-13.74z" fill="#3f3d56"/><path d="M145.7 547.76l-8.9 15.36 8.9 9.7h25.06s-8.09-16.17-4.85-23.44-20.21-1.62-20.21-1.62z" fill="#fbbebe"/><path d="M170.76 559.08s-8.9 9.7-14.55 8.08-15.5-10.78-15.5-10.78-14.41 14.02-7.95 20.48 32.34 18.6 39.61 23.45 31.53 1.62 30.72-4.04-12.93-12.13-18.59-19.4-13.74-17.79-13.74-17.79z" fill="#3f3d56"/><path d="M213.6 293.92s17.79 55.78-6.46 121.26c0 0-21.83 96.2-29.91 115.6s-8.09 27.5-8.09 27.5-30.72.8-28.3-5.67c0 0 10.52-31.52 10.52-43.65s16.97-77.6 16.97-77.6L174 291.5z" fill="#3f3d56"/><path d="M213.6 293.92s17.79 55.78-6.46 121.26c0 0-21.83 96.2-29.91 115.6s-8.09 27.5-8.09 27.5-30.72.8-28.3-5.67c0 0 10.52-31.52 10.52-43.65s16.97-77.6 16.97-77.6L174 291.5z" opacity=".1"/><path d="M209.56 297.97s0 25.86-16.98 37.18c0 0 12.94 90.54-3.23 107.52s-42.84 9.7-42.84 9.7-44.47 2.43-77.61 15.36c0 0-25.87-7.28-4.85-25.87 0 0 25.87-6.47 33.95-12.12s45.27-16.98 54.97-12.13c0 0-.8-13.74-4.04-23.44-2.91-8.75-8.08-35.57-8.08-35.57s-22.64-42.85 0-65.48 68.71 4.85 68.71 4.85z" fill="#3f3d56"/><path d="M144.59 129.05a29.98 29.98 0 01-23.92 1.3 85.24 85.24 0 00-2.46-13.47s24.25-7.27 25.06 7.28a11.09 11.09 0 001.32 4.89z" opacity=".1"/><circle cx="131.15" cy="99.91" r="29.91" fill="#fbbebe"/><path d="M129.53 211.47s33.95 24.25 18.6 50.12S137.6 302 137.6 302s29.1 0 38.8 6.46 40.43-4.85 40.43-4.85 4.85-32.33-1.62-47.7-9.7-39.6-7.28-44.45 8.9-27.49-6.46-40.42l-8.75-4.7s5.51 23.29-31.67 8.74c0 0-8.09 47.7-31.53 36.38z" fill="#ca313c"/><path fill="#ca313c" d="M161.48 133.65l.84.88 30.64 32.09.94.98.06.19.61 1.91 1.23 3.88-4.82-5.36-29.72-32.9-1.31-1.44 1.53-.23zM163.62 177.55s-25.2-21.86-42.98-16.2 8.62 53.75 14 54.36l2.17-.2s-33.15-40.42-14.56-52.55c0 0 23.45 2.43 41.23 16.98z"/><path d="M148.12 172.66l59.02 18.6 97.81 5.66s28.3.8 23.45 13.74-30.72 3.23-30.72 3.23l-84.08 1.62s-69.52-7.28-75.18-11.32 3.24-33.95 9.7-31.53z" fill="#fbbebe"/><path d="M125.49 111.22c3.29-3.7 6.16-11.6 8.2-18.45a13.54 13.54 0 0115.14-9.54c5.79.94 11.9 1.24 13.84-1.1 4.05-4.86-.8-30.73-32.33-25.07C98.8 62.72 78.6 49.8 78.6 80.51c0 30.71 19.4 39.6 5.66 70.33C70.52 181.56 43.84 184.79 59.2 205c15.36 20.2 55.78 25.87 58.2 18.6 2.43-7.28-9.7-35.58-1.61-46.9 8.08-11.31 21.82-23.44 14.14-37.59-4.04-7.27-10.91-20.61-4.44-27.89z" fill="#a40"/><path fill="none" stroke="#3f3d56" stroke-miterlimit="10" d="M26.56 603h316"/><path d="M758.78 165.43a20.81 20.81 0 102.77-39.91c.62 13.59 1.9 13.22-4.55 1.53a20.73 20.73 0 00-11.88 17.35 20.8 20.8 0 0013.66 21.03z" fill="#57b894"/><path d="M783.85 289.68c-1.78-9.11 5.97-17.19 13.63-22.44s16.6-10.4 19.21-19.32c3.76-12.8-7.43-24.53-16.13-34.64a125.3 125.3 0 01-16.53-24.55c-1.8-3.54-3.47-7.23-3.95-11.17-.68-5.68 1.14-11.32 2.98-16.74q9.17-27.05 19.62-53.65" fill="none" stroke="#3f3d56" stroke-miterlimit="10"/><path d="M759.63 162.68a20.81 20.81 0 102.78-39.92l.52 10.71-5.07-9.18a20.73 20.73 0 00-10.69 11.73 20.4 20.4 0 00-1.2 5.63 20.8 20.8 0 0013.66 21.03z" fill="none" stroke="#3f3d56" stroke-miterlimit="10"/><path d="M781.31 103.47a20.79 20.79 0 0114.98-13.2c2.13 14.28 1.35 11.4 4.9-.5a20.81 20.81 0 11-19.88 13.7z" fill="#57b894"/><path d="M782.45 99.8a20.79 20.79 0 0114.98-13.2l1.72 10.18 3.17-10.7a20.81 20.81 0 11-19.87 13.72z" fill="none" stroke="#3f3d56" stroke-miterlimit="10"/><path d="M796.9 213.49a20.81 20.81 0 0018.42-37.02c-3.33 13.11-2.57 7.45-4.17-2.09a20.81 20.81 0 10-14.25 39.1z" fill="#57b894"/><path d="M797.9 209.76a20.81 20.81 0 0018.41-37.02l-2.44 8.22-1.73-10.3a.36.36 0 00-.05-.02 20.81 20.81 0 10-14.2 39.12z" fill="none" stroke="#3f3d56" stroke-miterlimit="10"/><path d="M775.24 248.05a20.8 20.8 0 104-16.3l9.28 13.96-12.67-7.4a20.62 20.62 0 00-.61 9.74z" fill="#57b894"/><path d="M776.1 245.3a20.8 20.8 0 104-16.3c8.87 13.64 12.42 15.79-3.4 6.55-.97 3.15-1.19 6.5-.6 9.74z" stroke-miterlimit="10" fill="none" stroke="#3f3d56"/><rect rx="5.42" height="12" width="361" y="259.5" x="366.56" fill="#f2f2f2"/><rect rx="5.42" height="12" width="361" y="297.5" x="367.06" fill="#f2f2f2"/><rect stroke-miterlimit="10" rx="5.42" height="12" width="361" y="254.5" x="371.56" fill="none" stroke="#3f3d56"/><rect stroke-miterlimit="10" rx="5.42" height="12" width="361" y="292.5" x="372.06" fill="none" stroke="#3f3d56"/><path d="M128.87 415.27c1.1 6.16 1.5 11.08 1.02 16.27-6.83 4.49 4.28-.9.85 4.8-4.38 2.35-4.21 2.45-.2 4.44-.93 4.3-10.7 4.46-2.45 4.57 7.61 2-5.91 4.53-2.25 5.56-11.12 2.69 4.92.54 6.1 4.36-3.37 1.87-3.95.89-5.47 2.14-4.63-1.57-8.7 1.28-1.82 1.38 3.7.72 11.65 2.8 7.14 4.06-.91 2.37-3.92 0-3.05 2.11-5.54 0-6.62-2.39-11.36-1.37 4.36 3.98 13.68 2.4 15.7 7.54-6.23 3.27-14.07.16-20.22.22.14 5.18 7.76 4.29 11.37 5.63 2.27 1.5 11.34 2.34 9.46 4.77-4.56 3.91-11.03 1.7-14.32 1.86-3.01-1.12-3.62-1.81-5.04-.43-.08-5.9-8.62-1.98-5.75 1.2.68 6.15.76 1.71 2.72 1.53.97 1.76 2.7-2.31 4.31.76 2.74-1.22 4.22.08 6.84-.61-2.3 4.6 5.84-.26 7.08 3.19 7.68.8-.05 6.14-2.32 6.35-.33.24-5.71 2.5-4.79-.65-4.17 4.13-4-6.37-6.09.5-2.96-3.02-1.82-2.1-3.9-1.07-1.42-2.43-6 .49-6.62-5.13-2.7 1.82 1.74-7.98-2.55-9.86-4.43-.55-5.27-4.96-7.52-7.49 3.23-1.6-7.1-5.08-2-5.75-4.25-2.1-3.21-12.58 1.25-5.05 5.06 2.5 4.07 8.22 8.49 8.9 1.02 3.23 4.22 3.8 5.92 7.26 4.52-7.25-3.9-7.14-5.66-11.94 5.32 1.35-5.43-1.65-3.91-5.18-2.7-3.55-.86-9.61 2.95-3.93 2.15 3.65 14.75 11.92 8.89 4.09-.36 3.9-2.9-3.7-5.1-4.06-5.14-4.26-.85-8.28 3-3.11 2.22 1.44 8.82 6.74 4.19.83-2.16-3.7-6.8-5.52-6.57-9.46 3.99.51 13.75 7.35 6.15-.46-4.88-5.96 7.44-.94 2.46-7.42 2.47-1.33.98-4.97 4.24-5.5-1.96-4.36 3.62-1.78 3.36-5.71 1.52-3.52 3.7-5.2 5.47-10.14zm-45.92 49.8c5.53 2.68 8.91 6.68 9.52 11.95 1.04 2.06 1.67-3.93 2.4 1.31-.6 2.09 3.77-1.78 2.38 3.13.34.93 3.72-2.3 1.98 2.7 2.45-1.35 1.7 3.38 4.5 5.4.52 2.47.98 9.9 1.06 9.63 1.68-5.15 6.45-3.42 4.26 1.26 2.6-4.78 9.02-3.29 3.71 1.6 2.87-2.35 6.97-4.52 5.06.87 7.13-7.45 1.13 3.7 3.9.74 3.69-3.53 2.23 1.83 6.55.58-3.67 4.38 4.87.9 4.34 6.54 3.74 3.38-6.75 1.7-7.46 1.91-3.1 1.65-5.94-9-4.18.14-2.88 3.17-2.98-8.44-4.67-1.3-2.75.45-3.53-8.62-3.37-.86-4.8 2.5-3.2-10.63-5.25-2.2-3.51 1.61-3.96-10.4-4.22-.93-2.3 2.28-3.96-8.48-5.89-.51-.46 1.44-5.03 8.89-2.84 6.54 1.81-3.07 9.61-8.46 5.95-1.21-7.57 6.7 10.18-4.11 3.41 3.63-5.3 5.07 5.9-3.93 4.98 1.15-8.78 5.8 9.2-1.63 1.84 4.17-3.65 2.69 11.1-3 4.5 1.6-5.46 4.16 2.28.2 4.2 2.44-7.23 4.5 6.93-1.48 3 4.14 3.81 1.94 7.69 11.45-.05 6.07-1.23 1.82-3.66-3.66-3.88.11-2.77-3.03-1.58-6.02-2.98-.86-2.46-2.52-2.62-7.28-3.61-1.16-3.34.7-3.45-12.17-3.7-5.48-1.75 10.2-3.82-8.97-3.98-1.91-3.16 9.42-3.58-12.71-4.14-1.52-3.6 6.3-2.88-9.15-3.8-5.23-.47 4.5-4.64 5.76-5.82 1.77-1.68 2.98-7.04 10.02-.8 7.54-1.06 2.76-5.68 9.83-.4 4.54 2.88-3.02 6.2-2.87 4.77-.67-2.3 3.01-5.7 6.46-.22 2.53 6.14-4.47 6.58 1.37.83 3.77 2.77-.49 13.72-3.53 6.99.58-8.04 3.61 13.82-.83 3.45 4.58-4.2 1.6 11.42-1.09 3.82 3.01 3.21.65 9.34-.05 2.89 2.55 1.76.94 9.54-.84 5.13 2.3 5.18.49 10.6 7.37 10.6 11.47-4.84-1-9.1-2.57-11.26-1.4-1.9-3.88-.81-2.08-2.5-.36-3.84-3.53-1.16-5.9-5.23-1.9-3.21-2.59-1.36-7.92-3.66-1.72-2.5 2.03-4.8-5.85-4.13-8.92-.47-.57-.93 6.39-1.92 6.4-4.24-3.34-1.7-15.5-4.75-5.08-4.46 3.86-1.99-10.63-3.33-7.12-.32 3.93-4.05 9-4.26 1.6-.06-3.57-.16-9.9-1.23-2.8-3.67 10.37-3.23-11.98-5.75-2.6-1 3.6-9.05 10.53-1.43 8.2.67 3.61-5.25 10.42 1.2 3.88 4.62-4.38 9.17-2.83 5.05 2.33-8.86 8.39 8.54-7.24 5.7 2.7 8.63-5.24 1.31 7.56-.11 7.9 3.35-1.78 14.49-7.66 8.19.55-1.4 1.66-7.4 6.72-2.34 3.31 3.55-3.53 13.63-4.2 6.03 2.03-8.46 7.88 12.97-7.36 4.31 2.73-7.48 7.28 8.82-4.51 4.08 2.6-6.06 5.14 9.02-2.86 2.35 3.43-5.56 3.37 11.09-.97 2.83 1.1-2.7 5.82 1.46 1.61 5.18 2.39-5.18 5.13 5.82.17 1.4 4.64 1.07-.75 6.49 4.12 4.44 5.2-3.49.4-9.19-1.23-9.97-2.27-.66 6.16-4.26-7.77-3.9.9-3.19-1.8-3.6-7.32-3.95-.87-.5 2.31-4.5-11.15-3.75-1.65-3.3 2.08-3.55-12.6-4.7-3.03-2.89 8.93-4.18-14.14-5.23-2.65-3.32 5.63-4.04-6.43-3.77-9.74-1.5 4.01-.83 10.79-6.15 11.1-.2 2.98-5.95 11.36-.2 5.67 3.28-5.42 7.7-2.3 3.8 2.48-6.9 9.21 10.18-8.58 4.52 2.59-6.32 8.38 4.4-2.22 6.15 1.04-2.36 3.26-3.87 6.41 1.07 2.7 7.94-2.73-4.83 7.45 2.12 3.36 4.57-3 4.32.31 2.24 2.7 4.15-3.95 2.66 2.83 7-.72 1.49 4.34 5.47 4.35 8.8 8.08-4.2 2.9-11.82 1.99-13.92 1.1-1.2 3.6-3.21-3.72-4.16 1.91-3.11-.26-2.39-10.6-3.47-3.29-3.64 9.46-4.19-14.59-4.87-1.99-.67 10.44-5.05-2.16-4.9-6.55-.22 1.33.07 8.61-3.32 10.9-2.4-3-.86-12.12-2.82-12.01 1.37 4.52-3.6 16.6-6.08 6.57-1.15-2.98 1.66-17.9-1.36-8.29.62 5.12-6.64 17.21-7.5 6.28.52-3.55 4.74-13.33 1.68-13.68.32 4.31-3.74 20.96-8.52 12.4-1.37-5.24 3.25-12.92 2.4-16.32-2.68 4.08-3.95 18.75-10.07 14.35-2.27-7.68 4.7-14.47 2.79-20.95-4.55.91-3.39 14.94-11.75 14.72-2.84-2.19 2.11-12.27-3.17-5.4-2.2 2.3-9.74 13.11-9.8 9.41 1.09-4.13 12.06-9.5 5.49-10.7.53-3.06 4.87-8.68-.19-3.6-7.19 4.56-2.55-3.03-1.52-4.55-3.02 4.45-11.24 3.86-5.5-1.8 6.11-6.3-10.6 6.87-4.82-2.16 4.43-4.1-7.67 2.5-3.46-2.89 4.26-4.89-10.4 4.85-4.18-1.7 3.18-5.2 2.85-2.58-2.28-1.92-3.87.44-3.72-4.94-6.5-5.59-2.32-3.42-5.34-7.83-.35-6.52 4.04-1.72 6.65 4.84 8.1 1.07.1 5.66 3.95-2.38 4.07 4.55 1.4.02 1.6-6.3 2.6-.53 1.35 6.34 2.09-7.91 3.92.84.08 6.36 2.12-7.2 3.76.8.13 9.15 3.14-7.52 4.31 2.06.13 5.62.14 7.18 1.48.84 3.91-6.73 2.05 13.5 4.04 4.12 1.9-9.34 3.93 2.06 3.04 4.87.17-3.68 6.26-10.13 4.91-2.68-.52 3.74-2.61 9.86 1.77 3.43 4.3-3.4 6.7-12.28 6.18-15.18-6.17 5.55-4.45-2.26-1.8-5.23-2.76 2.8-10.95 5.1-5.57-1.2 5.83-7.66-11.37 6.4-4.62-3.05 5.69-6.15-9.79 6.18-3.86-1.91 5.96-6.04-8.67 3.78-3.93-2.56 6.05-6.02-9.1 3.68-3.4-3.22 3.38-2.02-10.09 3.3-3.37-1.57-.28-1.89-5.15 1.16-2.6-2.52-2.1.58-10.36-7.35-3.21-6.52 2.34 1.45 3.16 1.61 5.9.13 1.59 8.16 7.98-7.64 7.36 2.59 2.27 5.4 0-8.4 3.8-.6.75 3.14 4.54-4.34 4.62 2.3 1.19 6.33 1.16 4.84 1.5-.72 2.8-4.86 3.79 13.34 4.13 2.09 4.15-7.78 1.67 13.55 4.97 2.44 3.15-1.77 1.47 12.03 2.75 7 1.57-8.7 3.94 2.08 3 4.14 2.78-6.47 3.9-.12 3.05 3.1 5.3-4.46 4.54-10.6 8.2-13.79-.78 2.72 3.62-1.84-.4-1.22-3.13 3.7-10.42 1.5-3.55-1.45 1.63.67-2.27 4.3 1.2.6-.16-3.5-12.11.58-4.83-4.92 1.82-1.55-10.71 2.23-4.05-3.36 3.4-3.14-10.12 1.8-4.46-2.08 3.9-3.14 3.84-4.48-1.64-2.22-8.56 1.17 7.52-7.07.7-5.06-3.02 1.26-6.2-1.32-2.05-3.38-4.89 1.78-5.58-3.21-.77-2.8-3.38.15-6.66-.95-4.95-3.08-2.85-4.24-4.36-5.62-5.81-10.25 5.71.48 8.92 6.01 12.94 5.76-.5 4.8 4.69-1.85 3.54 5.24.51-1.83 4.44-3.68 3.77 1.58-2.19 7.58 3.38-5.2 3.04 2.5-.5 5.94-.47 3.25 2.07.24 1.49 3.99-.34 9.28 3.29 3.23 2.93 2.32-1.32 11.4 3 4.4 5.17.39-2.6 12.9 3.1 5.08 2.5-.71 1.63 5.39 4.2-.07 1.85-3.24 4.2-5.8-.62-4.1 4-4.94-8.7-.3-2.1-4.96 5.95-3.14-5.57 1.66-4.77-2.08 6.73-4.34.45-.74-3.33-2.83 2.03-2.69 6.68-3.86-.3-3.03-1.74-1.35 3.03-5.01-2.6-3.31-5.36 1.36 3.6-3.29.79-3.19-2.9.48-8.6-3.48-4.15-5.6-4.04.13-3.55-1.56-2.05-3.71-5.29.58-4.72-9.97.2-2.66 4.25 1.29 5.28 3.77 8.3 4.66.39 3.67 0 3.78 1.7.73 2.52 2.95-.26 5.68 3.95 2.95 1.9 3.11.05 5.7 2.76 2.32 1.72 3.18-.4 8.3 3.2 3.05 1.17 2.73-1.65 8.32 2.35 4.08-1.08 6.86 4.34 7.26 6.19.33 1.23-3.82 7.38-10.64-.02-7.17-4.47.42 5.62-6.3-1.61-2.8-6.05 1.98 3.89-5.87-3.23-2.18-2.33-2.16 5.44-5.3-1.63-2.7-1.49-1.35.46-3.66-4.14-3.38 2.9-4.04-5.85-1.7-1.64-5.8-5.68-.39-6.57-9.31-9.1-13.69.85-3.8 7.37 2.45 9.11 3.65 1.51.63 4.17 1.63 3.99 3.86 3.13-4.68.9 8.76 4.33 2.31.74 3.7.24 5.22 2.91 2.37 1.86 2.58-1.32 8.58 2.99 3.93 1.04 2.53-.51 7.07 2.89 3.62-.17 11.68 10.15-9.21 1.56-3.3-3.5-1.26 2.48-4.93-3.27-3.8-.57-2.44 2.26-8.13-1.98-2.8-2.2.11 2.3-4.7-2.91-3.1-.67-1.12 5.15-6.63-.1-3.75-3.25.89.26-4.15-4.15-4.12.82-3.21-6.16-8.02-2.5-12.54zm-1.97 25.51c-1.89 1.81 2.99 2.2 0 0zm2.33 1.25c-2.28 3.48 2.19 1.61 0 0zm-48.43 5.67c.15.09-.48.22 0 0zm10.57 14.24c2.27 1.44.2 1.86 0 0zm-.1.14c.28.46.05 1.74 0 0zm48.11 4.23c.5 2.67 5.42 1.13 0 0zm-70.8 9.59c.32.24-.1.05 0 0zm-3.42 3.45c1.65.14-.07.82 0 0zm67.3 2.13c-3.88 1.54-2.21 10.21-1 2.66.3-.62 2.2-2.03 1-2.66zm-66.73 17.69c.14.33.11.03 0 0zM2.85 551.6l.28.24zm102.54.14c-1.08 2.97 1.33 2.38 0 0zm-88 2.39c.2.26.13.34 0 0zm-17.3.2c.25.24-.73 1.2 0 0zm15.45.96c.07 0 .01.18 0 0zm53.9.27c-5.26 6.28-8.94 13.83-7.85 22.22.97 11.47 2.89-6.6 6.38-9.11 5.43 2.5-.63 12.72 1 17.4 2.6-3.06 2.42-12.24 7.82-10.65 1.84 3.98-3.5 12.8-1.33 13.92 6.56-6.56 3.99-14.5 3.9-22.81.02-7.26-1.2 4.06-2.25 5.82-4.84.1-2.05-18.76-4.9-8.4-3.3 9.88-3.23-7.23-2.77-8.39zm-50.75 1.97l.41.24zm68.47 1.54c-4.64 2-.3 3.88 0 0zM4.5 560.6c.2-.12.76.48 0 0zm1.9 1.54c.2.07.27.7 0 0zm.45 2.85c1.29.39-.22.06 0 0zm3.37 3.78c.28-.06.09.48 0 0zm12.5.12c-1.21 2.43 3.54 2.62 0 0zm-6.34.21c-4.66.8.38 2.35 0 0zm67.94.94c-2.43 2.67-.2 14.6.7 5.51-.18-1.7.46-4.14-.7-5.5zm-28.96 5.78c-4.64 1.94-.68 8.55 0 2.14v-2.14zm-46.06.83c-.13.38-.36-.1 0 0zm37.16 6.98c-4.5.71 3.12 1 0 0zm-1.83 1.83c-3.65 1.63 1.05 3.18 0 0zm-23.98 4.67c.9-.26 1.59 2.88 0 0zm54.43 2c-.33 2.29 4.72.94 0 0z" fill="#aad400"/><g transform="matrix(.46068 0 0 .46068 432.64 384.8)" fill="#810920" filter="url(#a)"><g transform="matrix(8.19123 0 0 8.7757 -2539.86 -1286.02)" clip-path="url(#d)" font-weight="400" font-size="23.44" font-family="aliens and cows"><path style="line-height:1.25;-inkscape-font-specification:'aliens and cows'" d="M327.65 163.2c0 .67-.3 1.2-.89 1.58-.57.39-1.39.58-2.44.58-.5 0-.97-.05-1.37-.15-.4-.1-.76-.24-1.06-.43-.29-.2-.51-.42-.67-.68a1.83 1.83 0 01-.23-.9v-15.45c0-.08.03-.14.09-.19.06-.05.14-.07.26-.07h.97c.3 0 .54.05.73.17.18.12.27.28.27.47v15.06c0 .23.09.41.25.56.16.13.41.2.76.2.33 0 .58-.07.74-.2a.69.69 0 00.26-.56c.7-2.54-.06-11.88.42-14.01.53-.25 1.16-.24 1.82-.24.35.27-.06-.05 0 0 .06.06.16.12.16.2zM333.34 150.14c.42 0 .8.05 1.13.16.34.1.63.25.88.43a1.97 1.97 0 01.75 1.58v4.6c-.32 1.95-2.67 1.5-3.46 1.51 3.15.07 3.03.3 3.2.53.17.23.26.52.26.89v4.93c0 .08-.02.14-.07.2-.05.04-.12.07-.22.07H335c-.28 0-.5-.07-.64-.2a.76.76 0 01-.2-.55v-4.45c0-.23-.07-.41-.2-.55-.13-.14-.35-.21-.65-.21h-.84v5.21c0 .22-.07.4-.22.55-.13.13-.34.2-.62.2h-.81c-.1 0-.17-.03-.22-.08a.26.26 0 01-.07-.19l-.05-13.75c-.1-1.34 1.66-.92 2.86-.88zm-.87 1.41v6.11h.84c.3 0 .5-.07.64-.21.14-.14.2-.32.2-.54v-4.6c0-.22-.07-.4-.21-.54-.14-.14-.4-.18-.63-.22-.27-.04-.84 0-.84 0zM344.6 158.18c.11 0 .2.03.25.08.05.05.08.11.08.19v4.62c0 .67-.28 1.2-.83 1.59-.54.39-1.3.58-2.28.58-.47 0-.9-.05-1.28-.15-.37-.1-.7-.25-.98-.43-.27-.2-.48-.42-.63-.68a1.94 1.94 0 01-.21-.91V152.1c0-.67.27-1.2.8-1.6a3.94 3.94 0 012.3-.57c.47 0 .89.05 1.26.15.4.1.72.25 1 .44.27.19.48.41.62.68.15.26.03 2.29.06 2.62.05.6-.06.63-1.87.9l-.13-2.62c-.01-.23-.07-.4-.23-.54-.15-.15-.38-.22-.7-.22-.32 0-.56.07-.72.22a.7.7 0 00-.23.54v10.96c0 .23.08.41.23.55.15.14.39.2.71.2.32 0 .55-.06.7-.2a.7.7 0 00.24-.55v-3.47c-.65 0-.97-.25-.97-.74v-.43c0-.08.03-.14.1-.18a.44.44 0 01.24-.07zM351.7 150.14c.1 0 .19.02.25.08.06.05.1.1.1.17l2.04 14.33c0 .08-.03.15-.11.22-.08.06-.2.1-.37.1h-.9c-.31 0-.57-.06-.78-.18-.2-.13-.3-.28-.33-.45l-.19-2.04h-1.52l-.19 2.04c-.02.17-.14.32-.35.45-.2.12-.45.18-.75.18h-.9c-.18 0-.3-.04-.4-.1-.07-.07-.1-.14-.09-.22l2.03-14.33a.3.3 0 01.11-.17.4.4 0 01.26-.08zM350 160.96h1.28l-.58-9.78zM362.67 154.66c-1.4.28-1.57-1.06-1.55-2.55 0-.23-.1-.4-.29-.54-.18-.15-.45-.22-.82-.22-.39 0-.67.07-.85.22a.64.64 0 00-.27.54c0 .68.07 1.27.2 1.77a5.3 5.3 0 001.32 2.33l.88.91c.3.3.58.63.87.97a6.46 6.46 0 011.32 2.8c.14.61.21 1.34.21 2.18 0 .33-.09.64-.27.9-.16.27-.41.5-.75.69-.32.18-.7.33-1.17.43-.44.1-.94.15-1.5.15-1.16 0-2.07-.2-2.72-.58-.64-.39-.96-.92-.96-1.6v-3.1c0-.07.04-.14.1-.19.06-.05.16-.07.29-.07h1.07c.37 0 .65.07.83.21.19.14.28.31.28.53v2.63c0 .23.1.41.27.55.2.14.48.2.85.2.38 0 .66-.06.84-.2a.68.68 0 00.27-.55c0-.81-.07-1.5-.21-2.07a5.47 5.47 0 00-1.32-2.57c-.29-.3-.57-.6-.87-.88l-.88-.88a5.53 5.53 0 01-1.32-2.53 9.2 9.2 0 01-.2-2.03c0-.34.09-.64.25-.9.18-.27.43-.5.75-.68.33-.2.72-.34 1.17-.44.45-.1.95-.15 1.52-.15 1.16 0 2.06.2 2.7.58.65.39.96.92.98 1.59.04 1 .86 2.17-1.02 2.55z"/></g></g><rect x="343.06" y="42.5" width="180" height="24" rx="5.42" fill="#ca313c"/><rect x="348.06" y="35.5" width="180" height="24" rx="5.42" fill="none" stroke="#3f3d56" stroke-miterlimit="10"/></svg>