<svg xmlns="http://www.w3.org/2000/svg" data-name="Layer 1" width="826.31" height="603.5"><defs><clipPath clipPathUnits="userSpaceOnUse" id="b"><path d="M325.65 174.48a24.26 22.65 0 01-3.06-31.84 24.26 22.65 0 0134.1-2.97 24.26 22.65 0 013.3 31.82 24.26 22.65 0 01-34.07 3.2" opacity=".66" fill="#0ff" stroke="#ffc300" stroke-width="0" stroke-dashoffset="3.9"/></clipPath><clipPath clipPathUnits="userSpaceOnUse" id="d"><path d="M324.79 174.42a24.26 22.65 0 01-3.05-31.84 24.26 22.65 0 0134.1-2.97 24.26 22.65 0 013.3 31.82 24.26 22.65 0 01-34.07 3.2" opacity=".66" fill="#0ff" stroke="#ffc300" stroke-width="0" stroke-dashoffset="3.9"/></clipPath><filter height="1" y="0" width="1" x="0" id="a" color-interpolation-filters="sRGB"><feGaussianBlur stdDeviation=".03"/></filter><filter id="c" x="-.01" width="1.01" y="-.01" height="1.02" color-interpolation-filters="sRGB"><feGaussianBlur stdDeviation=".09"/></filter></defs><rect x="321.06" y=".5" width="462" height="531" rx="5.42" fill="#fff" stroke="#3f3d56" stroke-miterlimit="10" opacity=".9"/><rect x="366.56" y="123.5" width="361" height="12" rx="5.42" fill="#f2f2f2"/><rect x="367.06" y="161.5" width="361" height="12" rx="5.42" fill="#f2f2f2"/><rect x="367.56" y="199.5" width="361" height="12" rx="5.42" fill="#f2f2f2"/><rect x="371.56" y="118.5" width="361" height="12" rx="5.42" fill="none" stroke="#3f3d56" stroke-miterlimit="10"/><rect x="372.06" y="156.5" width="361" height="12" rx="5.42" fill="none" stroke="#3f3d56" stroke-miterlimit="10"/><rect x="372.56" y="194.5" width="361" height="12" rx="5.42" fill="none" stroke="#3f3d56" stroke-miterlimit="10"/><path d="M154.19 69.6s20.2 37.99 16.97 58.2-6.47 38 0 47.7-34.76-1.62-34.76-1.62v-56.6z" fill="#a40"/><path d="M197.44 171.85s-48.91 54.57-64.27 40.83-29.5-46.48-18.2-57c6.12-5.67 6.57-16.53 5.7-25.32a85.24 85.24 0 00-2.46-13.48s24.25-7.27 25.06 7.28a11.09 11.09 0 001.32 4.89c4.63 8.22 19.7 4 19.7 4z" fill="#fbbebe"/><path d="M161.06 135.48l3.23-2.43a96.75 96.75 0 0138 5.66c19.4 7.28 53.35 13.74 63.05 11.32s33.15-7.28 33.15-7.28 25.86-10.5 31.52 2.43-34.76 12.93-34.76 12.93-28.7 11.72-48.9 10.1-46.49 7.69-58.62-2.01-26.67-30.72-26.67-30.72zM64.86 444.29H43.03l-8.08 16.16 10.5 11.32s20.22-2.42 25.87-8.89-6.46-18.6-6.46-18.6z" fill="#fbbebe"/><path d="M61.5 444.29s9.02-4.05 3.36-8.9-10.51-11.31-19.4-4.85S-7.1 470.16.99 481.47s10.51 8.9 14.55 6.47 16.98-12.13 27.49-12.13 6.47-13.74 2.43-17.78 12.7-13.74 16.05-13.74z" fill="#3f3d56"/><path d="M145.7 547.76l-8.9 15.36 8.9 9.7h25.06s-8.09-16.17-4.85-23.44-20.21-1.62-20.21-1.62z" fill="#fbbebe"/><path d="M170.76 559.08s-8.9 9.7-14.55 8.08-15.5-10.78-15.5-10.78-14.41 14.02-7.95 20.48 32.34 18.6 39.61 23.45 31.53 1.62 30.72-4.04-12.93-12.13-18.59-19.4-13.74-17.79-13.74-17.79z" fill="#3f3d56"/><path d="M213.6 293.92s17.79 55.78-6.46 121.26c0 0-21.83 96.2-29.91 115.6s-8.09 27.5-8.09 27.5-30.72.8-28.3-5.67c0 0 10.52-31.52 10.52-43.65s16.97-77.6 16.97-77.6L174 291.5z" fill="#3f3d56"/><path d="M213.6 293.92s17.79 55.78-6.46 121.26c0 0-21.83 96.2-29.91 115.6s-8.09 27.5-8.09 27.5-30.72.8-28.3-5.67c0 0 10.52-31.52 10.52-43.65s16.97-77.6 16.97-77.6L174 291.5z" opacity=".1"/><path d="M209.56 297.97s0 25.86-16.98 37.18c0 0 12.94 90.54-3.23 107.52s-42.84 9.7-42.84 9.7-44.47 2.43-77.61 15.36c0 0-25.87-7.28-4.85-25.87 0 0 25.87-6.47 33.95-12.12s45.27-16.98 54.97-12.13c0 0-.8-13.74-4.04-23.44-2.91-8.75-8.08-35.57-8.08-35.57s-22.64-42.85 0-65.48 68.71 4.85 68.71 4.85z" fill="#3f3d56"/><path d="M144.59 129.05a29.98 29.98 0 01-23.92 1.3 85.24 85.24 0 00-2.46-13.47s24.25-7.27 25.06 7.28a11.09 11.09 0 001.32 4.89z" opacity=".1"/><circle cx="131.15" cy="99.91" r="29.91" fill="#fbbebe"/><path d="M129.53 211.47s33.95 24.25 18.6 50.12S137.6 302 137.6 302s29.1 0 38.8 6.46 40.43-4.85 40.43-4.85 4.85-32.33-1.62-47.7-9.7-39.6-7.28-44.45 8.9-27.49-6.46-40.42l-8.75-4.7s5.51 23.29-31.67 8.74c0 0-8.09 47.7-31.53 36.38z" fill="#ca313c"/><path fill="#ca313c" d="M161.48 133.65l.84.88 30.64 32.09.94.98.06.19.61 1.91 1.23 3.88-4.82-5.36-29.72-32.9-1.31-1.44 1.53-.23zM163.62 177.55s-25.2-21.86-42.98-16.2 8.62 53.75 14 54.36l2.17-.2s-33.15-40.42-14.56-52.55c0 0 23.45 2.43 41.23 16.98z"/><path d="M148.12 172.66l59.02 18.6 97.81 5.66s28.3.8 23.45 13.74-30.72 3.23-30.72 3.23l-84.08 1.62s-69.52-7.28-75.18-11.32 3.24-33.95 9.7-31.53z" fill="#fbbebe"/><path d="M122.25 124.97s-3.23-6.47 3.24-13.75c3.29-3.7 6.16-11.6 8.2-18.45a13.54 13.54 0 0115.14-9.54c5.79.94 11.9 1.24 13.84-1.1 4.05-4.86-.8-30.73-32.33-25.07C98.8 62.72 78.6 49.8 78.6 80.51c0 30.71 19.4 39.6 5.66 70.33C70.52 181.56 43.84 184.79 59.2 205c15.36 20.2 55.78 25.87 58.2 18.6 2.43-7.28-9.7-35.58-1.61-46.9 8.08-11.31 21.82-23.44 17.78-30.71a1616.15 1616.15 0 01-11.32-21.02z" fill="#a40"/><path fill="none" stroke="#3f3d56" stroke-miterlimit="10" d="M26.56 603h316"/><path d="M758.78 165.43a20.81 20.81 0 102.77-39.91l.52 10.71-5.07-9.18a20.73 20.73 0 00-10.68 11.72 20.4 20.4 0 00-1.2 5.63 20.8 20.8 0 0013.66 21.03z" fill="#57b894"/><path d="M783.85 289.68c-1.78-9.11 5.97-17.19 13.63-22.44s16.6-10.4 19.21-19.32c3.76-12.8-7.43-24.53-16.13-34.64a125.3 125.3 0 01-16.53-24.55c-1.8-3.54-3.47-7.23-3.95-11.17-.68-5.68 1.14-11.32 2.98-16.74q9.17-27.05 19.62-53.65" fill="none" stroke="#3f3d56" stroke-miterlimit="10"/><path d="M759.63 162.68a20.81 20.81 0 102.78-39.92l.52 10.71-5.07-9.18a20.73 20.73 0 00-10.69 11.73 20.4 20.4 0 00-1.2 5.63 20.8 20.8 0 0013.66 21.03z" fill="none" stroke="#3f3d56" stroke-miterlimit="10"/><path d="M781.31 103.47a20.79 20.79 0 0114.98-13.2l1.71 10.19 3.18-10.7a20.81 20.81 0 11-19.87 13.71z" fill="#57b894"/><path d="M782.45 99.8a20.79 20.79 0 0114.98-13.2l1.72 10.18 3.17-10.7a20.81 20.81 0 11-19.87 13.72z" fill="none" stroke="#3f3d56" stroke-miterlimit="10"/><path d="M796.9 213.49a20.81 20.81 0 0018.42-37.02l-2.44 8.22-1.73-10.3a.36.36 0 00-.05-.03 20.81 20.81 0 10-14.2 39.13z" fill="#57b894"/><path d="M797.9 209.76a20.81 20.81 0 0018.41-37.02l-2.44 8.22-1.73-10.3a.36.36 0 00-.05-.02 20.81 20.81 0 10-14.2 39.12z" fill="none" stroke="#3f3d56" stroke-miterlimit="10"/><path d="M775.24 248.05a20.8 20.8 0 104-16.3l9.28 13.96-12.67-7.4a20.62 20.62 0 00-.61 9.74z" fill="#57b894"/><path d="M776.1 245.3a20.8 20.8 0 104-16.3l9.28 13.95-12.67-7.4a20.62 20.62 0 00-.62 9.74z" fill="none" stroke="#3f3d56" stroke-miterlimit="10"/><rect rx="5.42" height="12" width="361" y="259.5" x="366.56" fill="#f2f2f2"/><rect rx="5.42" height="12" width="361" y="297.5" x="367.06" fill="#f2f2f2"/><rect stroke-miterlimit="10" rx="5.42" height="12" width="361" y="254.5" x="371.56" fill="none" stroke="#3f3d56"/><rect stroke-miterlimit="10" rx="5.42" height="12" width="361" y="292.5" x="372.06" fill="none" stroke="#3f3d56"/><path d="M917.92 568.16c3-2.3 5.85-5 6.72-8.27a7 7 0 00-4.69-8.42c-4.3-1.34-8.9 1.09-12.4 3.55s-7.5 5.27-12.07 4.75c4.73-3.42 7-9 5.68-14a5.43 5.43 0 00-1.58-2.85c-2.39-2.1-6.73-1.2-9.59.45-9.1 5.23-11.65 15.32-11.7 24.4-.92-3.27-.14-6.68-.17-10.05-.03-3.37-1.15-7.1-4.63-8.9a16.55 16.55 0 00-7.06-1.35c-4.09-.12-8.66.2-11.45 2.66-3.47 3-2.57 8.13.45 11.47s7.62 5.44 11.85 7.75c3.23 1.76 6.5 3.8 8.47 6.59a6 6 0 01.63 1.18h25.67a73.8 73.8 0 0015.87-8.96z" fill="#c83737"/><path d="M936.59 543.08c-1.1-.69-3.24-1.04-5.45-.69-3.93.63-6.39 4.26-5.21 7.71 1.11 3.28 3.23 4.17 7.22 3.03 3.99-1.13 5.08.01 3.07 3.23-1.25 2-1.34 2.02-.71.11.4-1.2.36-2.38-.08-2.62-.46-.25-.96.71-1.18 2.28-.22 1.5-.46 2.82-.53 2.95-.07.13-4.6 1.57-10.08 3.2-5.48 1.64-12.08 4.48-14.67 6.3-2.75 1.94-5.07 2.91-5.59 2.34-1.08-1.22-1.39-.73-1.44 2.26-.03 1.7-.45 2.43-1.6 2.75-1.17.33-1.2.14-.13-.77.88-.74 1.03-1.43.37-1.8-.66-.36-1.37.3-1.84 1.74-.6 1.82-1.01 2.05-1.87 1.03-.92-1.07-1.05-.96-.76.65l.04.38c.34-.06.72-.12 1.25-.15.66-.04 1.31.07 1.96.1.13.07.25.2.39.2.77 0 1.53-.13 2.3-.2l.4.02c3.42-5.89 9.76-10.06 19.62-12.94 11.35-3.31 15.23-5.38 17.4-9.27 1.4-2.5 1.5-3.87.46-5.86-.88-1.67-1.74-2.38-2.42-2-.58.32-1.67-.07-2.43-.88-1.66-1.75-2.21-1.09-1.42 1.7.82 2.9.15 3.57-2.65 2.65-2.54-.84-3.41-2.64-1.33-2.73.66-.03 1.85-1.24 2.65-2.68 1.25-2.23 1.69-2.4 2.9-1.1.83.87 1.67 1.12 1.96.59.33-.58.05-1.12-.6-1.53zm-4.55.03c.01.04-.03.1-.15.19a68 68 0 00-2.25 1.9c-1.43 1.25-2.63 1.26-1.93 0 .22-.4 1.44-1.13 2.71-1.64.96-.38 1.57-.55 1.62-.45zm5.82 5.29c.32.13.75.59 1.47 1.45 1.58 1.89.58 2.96-1.18 1.27-.82-.79-1.3-1.78-1.06-2.2.25-.46.45-.66.77-.52zm-35.5 11.86l-1.03.46c-.07.99.4.36.82-.17l.2-.29z" fill="#500"/><path d="M128.87 415.27c.2.02.3.5.5 1.44.22 1.04.33 3.46.25 5.38-.08 2 .22 3.5.7 3.51.58.01.58.2.02.62-1 .72-1.01 1.84-.05 3.4.49.78.11 1.61-1.22 2.69l-1.91 1.55 2.2-.52c2.4-.57 2.8.29 1.38 3-.46.88-1.54 1.6-2.41 1.6-.87 0-1.58.36-1.58.81 0 .46.7.83 1.56.83 3.83 0 2.46 3.58-1.86 4.86l-2.5.75 2.96.07c1.62.04 3.17.43 3.44.87.84 1.4-2.51 4.06-4.54 3.6-1.49-.34-1.62-.25-.66.46 1.02.74.95.88-.4.9-.88.02-2.15.4-2.8.87-1.08.75-1.08.83 0 .66 1.93-.3 9.58 1.04 10 1.75.72 1.19-1.87 2.63-3.75 2.09-1.46-.43-1.6-.35-.64.35.9.67.13.77-3.01.43-2.68-.3-4.21-.15-4.21.4 0 .47.7.86 1.56.86 2.96 0 9.5 1.74 10.98 2.93 1.45 1.15 1.45 1.17-.05.63-1.2-.44-1.43-.26-1.04.8.42 1.11.07 1.27-2.06.94-2.05-.32-2.25-.24-.97.38 1.32.65 1.06.8-1.54.84-1.92.04-3.77-.5-4.75-1.38-.89-.8-1.35-.98-1.03-.42.43.75-.11.9-2.07.6-2.54-.41-2.56-.4-.64.55 1.1.53 2.19 1.01 2.4 1.06.23.05.86.38 1.41.74.55.36 1.34.44 1.74.19.4-.26.86-.1 1 .37.16.47 1.42 1 2.8 1.17 5.56.72 7.25 3.27 2.76 4.16-1 .2-2.5.58-3.35.86-.84.27-1.54.15-1.54-.28 0-.42-2.35-.67-5.22-.55-2.86.13-5.41-.1-5.66-.51-.77-1.29-2.49-.8-2.5.7 0 2.08 2 3.28 5.08 3.03 1.82-.15 2.69.13 2.69.88 0 .77.86 1.02 2.8.84 1.55-.15 2.81.08 2.81.5 0 .43.45.7 1 .6.56-.09 2.57.5 4.47 1.32l3.46 1.48-2.26 1.54c-1.24.84-2.7 1.35-3.26 1.14-.55-.2-1-.11-1 .21 0 .33-1.64.62-3.64.65-2.74.04-3.54-.22-3.23-1.05.33-.87.07-.91-1.24-.2-1.31.72-1.97.62-3.19-.52-1.46-1.35-1.54-1.35-1.54.04 0 1.2-.21 1.28-1.2.44-.65-.56-.95-1.43-.67-1.95.3-.51.23-.65-.14-.31s-1.32 0-2.11-.73c-1.36-1.26-1.5-1.2-2.3.94a26.1 26.1 0 01-1.35 3.12c-.28.47-.1.57.43.24.61-.39.94.2.98 1.72l.05 2.32.87-2.06c.75-1.76.92-1.84 1.22-.56.34 1.45.39 1.45 1.43 0 1-1.39 1.11-1.4 1.6-.1.44 1.16.8 1.23 2.1.41 1.23-.78 1.69-.76 2.23.13.47.78.84.84 1.22.2.3-.5 1.1-.9 1.76-.9.89 0 1.06.49.64 1.84-.5 1.62-.42 1.71.72.75 1.41-1.2 6.5-.54 5.72.75-.24.41.12.53.8.26 1.48-.58 3.65 1.02 3.65 2.69 0 1.23-3.7 3.14-5.5 2.83-.67-.11-.85.2-.46.83.43.73.2.86-.83.45a2.76 2.76 0 00-2.54.38c-.6.51-1.14.61-1.2.22-.04-.4-.02-1.06.05-1.48.08-.41-.42-.28-1.1.3-1.02.87-1.49.87-2.5.02-.68-.58-1.04-1.57-.8-2.2.23-.63.07-.92-.37-.65-.44.28-.8 1.04-.8 1.7 0 1.74-1.22 1.44-2.69-.67-.83-1.21-1.12-1.35-.81-.41.59 1.8-1.17 1.93-1.84.13-.37-.97-.65-1.04-1.1-.29-.91 1.52-3.1.3-4.04-2.26-.69-1.85-.98-2.04-1.66-1.05-.62.9-.7.69-.3-.85 1.42-5.42 1.4-5.82-.28-7.3-.92-.83-1.45-1.75-1.16-2.04.28-.3-.49-.54-1.72-.54-1.83 0-2.15-.29-1.8-1.64.3-1.24.01-1.65-1.2-1.65-1.11 0-1.47-.38-1.16-1.23.28-.75 0-1.23-.71-1.23-.65 0-1.18-.37-1.18-.83 0-.45.42-.82.93-.82 1.21 0 .04-1.23-1.2-1.25-.52-.01-.83-.66-.7-1.44.16-1-.32-1.44-1.6-1.48-1.7-.05-1.72-.1-.28-.69 1.43-.57 1.45-.7.22-1.4-1.45-.83-2.56-6.57-1.42-7.3.38-.23 1.6.68 2.72 2.04 1.11 1.36 2.41 2.47 2.88 2.47.47 0 .85.58.85 1.28 0 .7.37 1.06.8.78.46-.29.8.4.8 1.57 0 1.52.34 1.95 1.22 1.6.88-.35 1.07-.1.7.91-.4 1.04-.15 1.32.99 1.12 1.06-.19 1.44.16 1.28 1.16-.16 1 .14 1.28 1 .94.88-.35 1.24.03 1.24 1.34 0 1.32.34 1.68 1.27 1.32.88-.35 1.43.06 1.74 1.3.44 1.73.5 1.74 1.08.21 1.06-2.79.8-5.3-.53-5.3-.74 0-1.02-.39-.68-.95.35-.58.22-.73-.32-.39-.49.31-1.8-.25-2.93-1.25-2.28-2.03-2.84-4-.64-2.26 1.15.91 1.12.78-.12-.72-.84-1-2.26-1.84-3.14-1.84-.9 0-1.38-.24-1.09-.54.3-.3.13-1.04-.36-1.64-.5-.61-.65-1.1-.35-1.1.3 0 .02-.77-.62-1.7-1.15-1.69-.95-4.89.3-4.89.37 0 2.62 1.95 5.02 4.33 4.77 4.74 8.25 7 9.19 5.98.33-.36.15-.83-.4-1.03-.56-.2-.83-.68-.6-1.07.23-.38 0-.96-.52-1.29-.58-.37-.72-.23-.36.36.91 1.52-.75 1.1-2.21-.56-.73-.83-1.06-1.81-.73-2.19.34-.37.22-.45-.25-.18-.97.57-5.33-5.87-4.69-6.94.73-1.2 2.26-.77 4.67 1.36 1.28 1.13 2.57 2.05 2.86 2.05.28 0 1.31.76 2.28 1.68 1.27 1.22 1.75 1.36 1.75.52 0-.64-1.3-2.3-2.88-3.69-1.59-1.39-2.65-2.91-2.37-3.38.3-.5.05-.68-.58-.43-.9.35-3-2.57-3-4.2 0-.84 2.98-.28 4.56.86.94.67 2.7 1.6 3.9 2.08 2.15.83 2.13.76-.74-2.5-3.27-3.7-3.12-5.26.44-4.73 1.73.26 2.23.07 1.91-.74l-.92-2.33c-.3-.76-.04-1.23.69-1.23.82 0 1.06-.62.8-2.06-.32-1.68-.07-2.06 1.32-2.06 1.46 0 1.64-.33 1.18-2.18-.47-1.93-.33-2.13 1.17-1.73 1.37.37 1.66.11 1.52-1.31-.11-1.1.22-1.68.88-1.54.73.15.9-.3.55-1.44-.47-1.54.2-2.08 2.17-1.78.32.05.37-.46.12-1.13-.25-.68-.04-1.23.48-1.23.51 0 .7-.37.44-.82-.28-.45.02-1.58.65-2.5.58-.85.87-1.27 1.06-1.24zm-45.92 49.8c.65 0 1.71.56 2.38 1.24.66.68 1.59 1.24 2.06 1.24s.86.55.86 1.23c0 .68.45 1.14 1 1.03.58-.12.98.58.94 1.68-.05 1.25.29 1.74 1 1.46 1.07-.42 1.37.38 1.12 2.96-.07.75.25 1.6.7 1.89.52.32.64 0 .32-.86-.37-.98-.19-1.27.6-.98.64.22 1.05 1.27.93 2.37-.16 1.56-.03 1.7.6.73.7-1.05.92-1.06 1.54-.07.4.63.51 1.75.25 2.47-.43 1.17-.32 1.18 1 .07 1.4-1.15 1.46-1.08 1.07 1.03-.23 1.24-.1 2.26.27 2.26.38 0 .7-.46.7-1.03.01-.68.27-.61.79.2.42.69.57 1.89.33 2.68-.3 1-.09 1.3.72.98 1.28-.5 2.46 3.64 1.65 5.8-.26.7-.03 1.24.53 1.24.68 0 .84.84.5 2.68l-.47 2.67 1.2-2.26c1.22-2.28 3.06-2.96 3.96-1.46.26.44.1 1.55-.39 2.47-.55 1.06-.57 1.66-.06 1.66.44 0 1.19-.74 1.66-1.64.84-1.6 3.2-2.2 4.29-1.1.3.31-.25 1.42-1.21 2.48-2.19 2.38-1.02 2.53 1.42.18 2.16-2.08 3.95-1.44 2.7.95-.48.92-.52 1.6-.1 1.6.42 0 .96-.56 1.21-1.23.26-.68 1.24-1.24 2.19-1.24 1.67 0 1.68.06.33 2.17l-1.38 2.17 1.87-1.35c2.29-1.64 3.21-1.72 2.65-.21-.31.83.12 1.02 1.63.72 2.21-.43 2.65.48 1.05 2.15-.81.85-.58.94 1.2.49 1.72-.44 2.2-.27 2.2.76 0 .73.37 1.33.8 1.33.45 0 .81.55.81 1.23 0 .68.36 1.24.8 1.24.44 0 .8.32.8.72 0 1.07-3.65 1.6-5.13.75-.85-.49-1.28-.41-1.28.23 0 .71-.32.7-1.2-.06-.84-.7-1.2-.74-1.2-.1 0 1.79-1.65.9-3.24-1.75l-1.6-2.67.51 2.67c.28 1.47.18 2.67-.23 2.67-1.26 0-2.67-1.89-2.72-3.66-.05-1.59-.1-1.58-.78.17-1.01 2.58-2.33 2.3-2.9-.62-.26-1.36-.75-2.47-1.07-2.47-.33 0-.42.93-.2 2.06.27 1.48.03 2.06-.87 2.06-.7 0-1.54-.47-1.9-1.03-.7-1.13-.76-1.41-1.05-4.11-.16-1.54-.28-1.44-.7.61-.7 3.32-2.7 3.17-3.39-.25-.78-3.93-1.53-4.21-1.53-.58 0 3.06-.04 3.1-1.56 1.7a6.64 6.64 0 01-1.83-3.22c-.2-1.32-1.04-.23-3.31 4.3l-3.04 6.06 3.22-3.47c3.08-3.32 4.92-3.76 4.92-1.16 0 .67-.89 2.13-1.97 3.24-2.16 2.22-1.66 2.72.81.81 1.59-1.23 5.17-1.71 5.17-.7 0 .32-.81 1.5-1.8 2.64l-1.81 2.07 2.24-1.45c1.37-.87 2.9-1.23 3.92-.9 1.6.53 1.58.63-.64 2.58-1.67 1.47-1.87 1.87-.7 1.44 2.83-1.05 6-1.39 6-.64 0 .4-.99 1.4-2.2 2.22-1.27.85-1.52 1.23-.6.88.88-.33 2.87-.75 4.41-.93l2.81-.33-2.28 2.12-2.27 2.12 3.28-.53c3.65-.6 4.6.8 1.47 2.15-1.3.57-.69.64 2.2.26 3.59-.47 3.9-.38 2.97.77-.88 1.08-.81 1.43.4 2.16.8.47 1.2.87.88.89-.3 0 .33.93 1.4 2.04 2.77 2.83 2.66 4.92-.22 4.17-1.2-.3-2.47-1-2.8-1.52-.41-.67-.6-.6-.62.27-.02.83-.55.57-1.63-.83-1.14-1.46-1.44-1.6-1.06-.5.39 1.1.22 1.44-.57 1.17-.6-.2-1.35-1.27-1.65-2.37l-.54-2-.08 1.92c-.11 2.62-2.02 1.84-2.34-.95-.14-1.21-.61-2.2-1.05-2.2-.44 0-.58.37-.3.81.26.45.17 1.4-.22 2.11-.64 1.17-.8 1.17-1.78-.03-.6-.74-1.34-2.7-1.65-4.37l-.58-3.05-.1 2.63c-.04 1.44-.43 2.84-.85 3.1-1 .65-2.42-2.16-2.54-5.06l-.1-2.31-.51 2.47c-.8 3.88-2.9 3.18-2.9-.96 0-1.89-.33-3.74-.73-4.12-.42-.4-.5-.27-.2.28.3.52.17 1.95-.29 3.17-.68 1.84-1.02 2.04-2 1.2-.68-.57-1.23-2.48-1.26-4.4l-.06-3.4-.86 2.47c-1.42 4.09-3.82 4.76-4.62 1.3-.36-1.6-.8-1.14-3.08 3.2-2.25 4.3-2.41 4.94-1.05 4.2 3.19-1.76 3.34-.73.53 3.52-2.4 3.63-1.57 3.9 1.58.53 1.45-1.55 3.08-2.45 4.37-2.41 1.86.05 1.9.12.45.76-1.1.48-1.22.74-.4.8.79.05.3.9-1.42 2.52-2.98 2.78-2.7 3.22.54.85 2.54-1.85 6.5-3.04 6.5-1.95s-1.76 3.18-3.62 4.32c-1.47.9-1.44.93.4.42 1.1-.31 3.45-.75 5.22-.97l3.2-.42-2 1.62a16.8 16.8 0 01-3.2 2.09c-.67.26 1.04.25 3.8 0 5.54-.51 6.56.46 2.81 2.67l-2.2 1.3 2.8-.44c3.26-.51 6.11.72 3.79 1.63-2.58 1.02-1.4 1.86 1.95 1.4 2.4-.33 3.17-.2 2.76.5-.31.51-1.07.94-1.68.94-.6 0-1.3.32-1.54.72-.24.4 1.18.53 3.16.3 2.25-.25 3.6-.08 3.6.46 0 .48-.64 1.04-1.4 1.24-.78.21-.24.42 1.2.48 1.74.06 2.6.5 2.6 1.32 0 .68.56 1.24 1.25 1.24s1.06.31.83.7c-.23.38.44 1.17 1.5 1.74 1.04.58 2.07 1.65 2.28 2.39.2.74.66 2.05 1 2.91.44 1.1.35 1.4-.29 1-.5-.33-2.35-.7-4.1-.83-1.76-.14-3.78-.74-4.49-1.34-1.02-.87-1.23-.88-1.03-.03.5 2.16-1.63 1.69-2.42-.54-.75-2.1-.83-2.13-.88-.42-.06 1.62-.29 1.76-1.67 1a3.48 3.48 0 01-1.63-2.7l-.03-1.82-.98 1.79c-1.3 2.39-3.76 1.07-3.81-2.04l-.04-2.22-1.01 2.42-1 2.43-1.77-1.81c-1.22-1.25-1.8-2.88-1.85-5.3l-.09-3.5-.8 3.68-.8 3.7-1.52-1.94c-.96-1.22-1.55-3.32-1.6-5.74-.08-3.7-.1-3.73-.72-1.07-1.38 6.02-3.98 5.41-4.07-.94l-.05-4.27-1.2 3.97c-.99 3.31-1.37 3.8-2.34 2.98-.78-.66-1.2-2.77-1.25-6.44-.09-5.42-.1-5.43-.79-1.8-.38 2-1.03 3.98-1.44 4.4-1.07 1.1-3.56-4.68-2.91-6.77.7-2.28-.23-2.16-1.2.16a62.05 62.05 0 01-3.68 6.38c-1.6 2.49-2.43 4.06-1.86 3.5a4.12 4.12 0 012.5-1.04c1.96 0 1.85 2.54-.22 5.24-.91 1.2-1.3 2.17-.86 2.17.44 0 1.47-.87 2.28-1.93 2.5-3.25 8.27-5.32 8.27-2.96 0 .48-.33.66-.73.41-.4-.25-.55.23-.34 1.06.26 1-.47 2.26-2.14 3.7-1.4 1.2-2.29 2.19-1.98 2.19.3 0 1.61-.93 2.92-2.06 1.32-1.13 3.3-2.06 4.42-2.06 1.75 0 1.96.28 1.54 2.01-.48 1.96-.44 1.98 1.72.83 1.96-1.05 2.24-1.04 2.48.11.45 2.13-1.39 5.66-3.71 7.14-1.68 1.07-1.85 1.4-.73 1.4.8.02 2.77-.9 4.4-2.03 6.24-4.35 8.3-1.8 2.86 3.55l-3.9 3.83 3.76-2.25c3.83-2.3 7.88-2.98 7.88-1.33 0 .5-1.4 2.36-3.12 4.12-3.44 3.53-3.48 4.02-.12 1.57 1.22-.9 2.45-1.39 2.73-1.1.28.29.5.14.5-.34 0-1.1 3.07-1.96 3.63-1.02.24.38-.86 2.01-2.43 3.62-2.88 2.96-2.87 3.86.03 1.8 2.81-1.99 5.2-2.43 5.2-.96 0 .72-.52 1.52-1.15 1.77-.62.24-1.33.96-1.56 1.58-.34.9.15.86 2.33-.2 3.68-1.8 4.58-.63 1.58 2.04-1.64 1.46-1.9 1.94-.8 1.5 2.77-1.1 7.38-1.56 6.05-.61-.64.46-1.54.62-2 .35-.47-.27-.57-.19-.24.19.33.37.03 1.32-.66 2.11-1.19 1.35-1.09 1.37 1.8.35 3.62-1.27 4.87-.8 3.12 1.17-1.16 1.33-1.07 1.4 1.35 1.03 2.36-.35 2.5-.26 1.5.99-.98 1.2-.95 1.3.2.85 1-.39 1.2-.18.83.81-.35.94-.16 1.2.65.89.71-.28 1.5.34 2.08 1.65l.94 2.1-4.48-.2c-3.42-.14-4.77-.58-5.7-1.86-.92-1.26-1.11-1.32-.76-.26.25.78.16 1.6-.22 1.84-.9.58-2.72-1.74-2.13-2.72.26-.42-.03-.97-.64-1.2-.76-.3-1 .03-.73 1.05.7 2.78-1.36 2.7-2.51-.1l-1.12-2.73-.32 2.46-.32 2.46-1.7-3.7c-1.47-3.21-1.72-3.43-1.85-1.65-.08 1.13-.1 2.33-.06 2.67.15.97-.48.74-1.85-.67-.7-.71-1.26-2.38-1.26-3.7 0-3.28-1.22-3.07-1.46.25-.11 1.46-.52 2.98-.9 3.37-.98 1-2.52-2.23-2.7-5.66-.15-2.65-1.28-4.1-1.42-1.81-.03.56-.19 1.7-.34 2.54-.88 4.78-3.58 1-3.69-5.17l-.08-4.57-1.33 5.35c-1.17 4.7-1.54 5.32-3.13 5.15-1.24-.14-1.8.24-1.8 1.23 0 .79-.73 2.64-1.6 4.12-2.45 4.12-1.93 4.44 1.5.92 3.8-3.88 6-4.28 5.21-.93-.29 1.24-1.2 3.24-2.02 4.44-2.2 3.23-1.82 3.28 1.38.18 4.9-4.73 6.85-3.24 3.12 2.38-2.13 3.23-2.15 3.95-.03 1.78a7.46 7.46 0 013.41-1.68c1.19-.22 2.45-.6 2.81-.82 1.38-.87.58 1.71-1.08 3.53-1.94 2.12-1.03 2.58 1.39.7 1.6-1.25 4.36-1.69 4.36-.7 0 .31-.8 1.44-1.77 2.5l-1.77 1.93 2.95-1.26a23.6 23.6 0 013.38-1.26c.97 0 .32 1.95-.98 2.97-.78.6-.98 1.1-.45 1.11.52.02 1.18-.34 1.45-.8.84-1.4 2.8-.95 2.26.51-.42 1.13-.24 1.2 1.18.42 2.2-1.21 2.58-1.16 2.58.31 0 .68.58 1.24 1.29 1.24.8 0 1.11.45.84 1.19-.3.78-.06 1.04.67.75.62-.24 2.12.5 3.32 1.65l2.2 2.09-2.35.97c-3.94 1.63-9.33 1.67-10.51.08-.96-1.3-1.03-1.29-1.05.05-.04 1.83-1.52 1.88-2.2.08-.43-1.16-.61-1.08-1.18.5-.57 1.57-.87 1.7-1.9.83-.67-.57-1.17-1.63-1.1-2.36.2-2.29-.04-3.37-.8-3.37-.4 0-.56.65-.36 1.44.2.8-.16 2.18-.81 3.09-1.16 1.6-1.2 1.6-2.04-.64a20.73 20.73 0 01-1.03-4.73c-.3-4.08-1.11-2.73-1.08 1.8.06 7.6-2.91 5.69-4.28-2.75l-.7-4.38-.1 3.82c-.06 2.43-.66 4.52-1.64 5.76l-1.54 1.94-.87-2.31c-.47-1.28-.86-4.13-.86-6.33 0-5.47-1.18-5.86-1.32-.44-.13 4.79-1.33 7.85-3.1 7.85-2.53 0-3.84-6.9-2.54-13.37.38-1.9.31-3.09-.17-3.09-.44 0-1.05 1.76-1.36 3.91-.73 5.02-3.03 10.52-4.66 11.16-2.3.9-3.82-4.36-2.17-7.51.4-.76.94-2.83 1.21-4.6.28-1.76.71-4.07.97-5.13.29-1.16.12-1.94-.41-1.94-.49 0-.83.28-.76.62.25 1.13-1.02 7.15-2.26 10.7-1.48 4.25-3.6 5.72-5.47 3.8-1.58-1.61-1.01-8.5 1.2-14.5.78-2.15 1.16-4.09.82-4.3-.34-.21-1.58 2.66-2.76 6.38-2.44 7.67-2.63 8.03-5.06 9.42-2.13 1.22-2.82.4-2.78-3.33.05-6.33 1.75-13.72 3.15-13.72 1.18 0 .99-3.93-.24-4.97-1.52-1.3-1.99-.81-2.5 2.62-.84 5.62-5.55 12.22-8.7 12.22-1.58 0-2.18-2.71-1.2-5.36.87-2.33.47-3.78-.66-2.4l-5.44 6.52a301.73 301.73 0 00-5.47 6.71c-.46-.22-.92-.41-1.45-.65l.01-.01.12.02-.1-.04 2.8-3.67c2.6-3.33 5.04-6.06 5.44-6.06.4 0 .73-.36.73-.8 0-.43-.5-.6-1.12-.35-2 .79-2.32-1.4-.58-3.83 2.35-3.25 2.14-4.12-.33-1.38-1.18 1.3-2.9 2.25-4.04 2.25-1.83 0-1.92-.17-1.06-1.85a7.36 7.36 0 012.04-2.51c.6-.36 1.08-1.02 1.08-1.47 0-.45-.79-.06-1.75.86-.97.92-1.96 1.7-2.21 1.74-.25.03-1.24.21-2.22.4-2.2.42-3.01-.77-1.43-2.11.66-.56 1.2-1.4 1.2-1.86 0-.46.63-1.33 1.4-1.93.77-.6 1-1.1.5-1.12-.48-.01-1.75.66-2.8 1.48-3.09 2.43-4.72 2.8-4.72 1.04 0-.83.54-1.98 1.2-2.54 2.14-1.82 1.28-2.65-.9-.88-.37.29-.73.53-1.08.76-.42-.74-1.29-1.18-2.68-1 .32-.54.74-1.16 1.2-1.77.85-1.1 1.3-1.9 1.12-1.96l-.12.02c-2.75 1.3-4.2 2.18-4.8 3.01-.21-.21-.45-.38-.8-.39-.27-.1-.54-.18-.82-.25l-.1-.08c-.23-.18-.5-.33-.77-.46 1.76-.18 2.42-1.38 1.98-2.34.4-.27.86-.71 1.43-1.37l1.53-1.77-2.07 1.36c-.69.45-1.4.75-1.95.84a3.34 3.34 0 00-.95-.22c-.08-.04-.13-.05-.14 0l-.28-.02h-1.9c-.52-1.3-.94-2.3-1.14-2.54l-1.4-1.66-.15.55c-.4-.65-1-1.36-1.12-1.5.17.15.23.2-.03-.03l.03.03-.52-.43c0-.03-.88-.95-.21-.24-.3-.4-.56-.63-.84-.82 0-.1 0-.21-.02-.32-.04-.27-.42-1.63-.46-1.71-.15-.3-.4-.53-.6-.79-.19-.37.1.19-.12-.15-.11-.37-.1-.81-.37-1.06a2.58 2.58 0 00-.84-.47l-.45-.4-.14-.12c.47.14 1.1.11 1.87-.2.34-.13.7-.21 1.02-.4.1-.05.26-.16.4-.26v.01c.04.8.2.92.42.41.35.76 1.78.43 2.67-.43.65.96 1.46 1.43 2.28 1.15.54-.19.99.25.99.96 0 .72.38 1.3.85 1.3s.64-.34.39-.76c-.26-.42-.1-1 .35-1.28.45-.29.82.24.82 1.17 0 .94.38 1.7.85 1.7.46 0 .62-.37.35-.82-.27-.46.07-.83.76-.83.68 0 1.3.37 1.35.83l.2 1.57c.25 1.94 1.3 1.74 1.3-.25 0-1.29.34-2.03.8-1.74.44.28.8 1.42.8 2.52s.37 2 .8 2c.45 0 .8-.92.8-2.05 0-3.95 2.32-1.78 2.49 2.33.05 1.23.32.89.87-1.08.76-2.72.86-2.79 1.94-1.29.62.88 1.13 2.5 1.13 3.63 0 2.38.7 1.97 1.2-.7.85-4.52 2.79-2.7 2.9 2.71l.08 4.27.76-3.5c1.24-5.65 3.5-4.17 3.18 2.09-.12 2.42.1 3.44.68 3.07.48-.3.81-.98.75-1.51-.22-1.8.1-3.43.89-4.67 1.36-2.13 2.42.72 1.98 5.35-.22 2.26-.17 3.55.1 2.88 1.98-4.86 3.06-6.59 4.12-6.59.97 0 1.13.79.8 3.91a27.83 27.83 0 01-.99 5.35c-1 2.48-.02 1.6 4.19-3.71 3.4-4.29 4.06-5.68 4-8.28-.06-1.9.35-3.42 1.04-3.85.63-.4.9-.97.62-1.27-.3-.3-1.35.06-2.36.78-1.01.72-2.12 1.32-2.46 1.32-1.22 0-.6-3.1 1.04-5.24 1.98-2.58 1.37-2.8-1.45-.52-2.07 1.67-5.03 2.22-5.03.94 0-.4.9-2.06 1.98-3.7 1.9-2.87 1.65-4.27-.32-1.83-1.24 1.53-5.51 3.04-6.06 2.14-.23-.39.56-1.9 1.76-3.36 2.05-2.5 2.07-2.6.31-1.51-4.79 2.94-5.3 3.15-5.58 2.3-.15-.47.48-1.69 1.4-2.7 2.38-2.59 2.11-3.38-.5-1.55-3.52 2.46-6.28 1.64-3.42-1.01 2.17-2.02 2.05-3.3-.18-1.7-1.8 1.3-4.63 1.75-4.63.73 0-.3.63-1.31 1.4-2.25 1.2-1.43 1.2-1.53.07-.64-1.77 1.4-5.48 2.06-5.48.97 0-.48.54-1.08 1.2-1.34.66-.26 1.2-.82 1.2-1.24 0-.42-.75-.35-1.67.16-.92.5-1.91.65-2.2.32-.3-.32-.09-.75.46-.95 1.67-.62 1.13-1.76-.6-1.3-1.15.31-1.5.11-1.21-.69.24-.66-.57-1.7-2-2.53-2.77-1.6-3.13-3.07-.8-3.22.5-.03.96-.08 1.48-.12l.2.09.18-.12.75-.06a.6.6 0 00.31-.17c.42.68.87 1.4 1.4 2.14.24.34 2.35-2.34 2.99-2.08 1.49.59.32 3.14 1.76 2.76.53-.14 1-.3 1.44-.5 0 .01 0 .02-.02.03-.95 1.27.39-.47 1.54-.92a4.12 4.12 0 001.73-3.06c.6.56 1.12 1.38 1.16 1.9l.2 2.68c.07.9.47 1.64.9 1.64.45 0 .58-1.07.3-2.48-.4-2.04-.26-2.4.8-1.98.7.28 1.5 1.28 1.8 2.23.52 1.67.57 1.67 1.64.17 1.43-2 2.35-.99 3.35 3.71l.79 3.7.08-3.45c.05-1.9.4-3.64.77-3.88.9-.57 2.53 3.15 2.53 5.77 0 1.14.31 1.87.7 1.63.37-.24.55-1.28.37-2.31a5.02 5.02 0 01.51-3.1c1.51-2.27 2.8 1.27 2.54 6.99-.05.99.32.58.9-1.02 1.49-4 2.55-3.27 3 2.03l.4 4.75.65-3.15c.56-2.72.82-3 1.9-2.09.92.8 1.12 2 .77 4.8-.46 3.7-.45 3.71.75 1.44 1.58-2.96 3.06-2.02 2.49 1.57-.24 1.52-.3 2.77-.12 2.77s1.83-2.27 3.67-5.05c1.84-2.78 2.93-4.8 2.43-4.47-1.24.78-1.1-1.25.2-3.02 1.22-1.64 2.51-1.98 1.6-.41-.41.7-.17.66.75-.1 1.47-1.23 1.86-2.17.55-1.34-.44.28-.8.1-.8-.38 0-.51-.9-.28-2.1.52-2.48 1.66-5.12 2.03-5.12.7 0-1.29 1.7-2.9 3.07-2.9.97 0 .98.21.04 1.44-1 1.3-.97 1.33.25.35 1.89-1.51.97-3.65-1.25-2.9-2 .67-4.48.6-5.2-.15-.29-.29.35-1.25 1.41-2.13l1.93-1.6-3.33.54c-2.67.44-3.34.3-3.34-.7 0-.67.82-1.81 1.8-2.53 1.73-1.24 1.64-1.28-2.2-.86l-4 .43 3.2-3c1.77-1.65 2.49-2.65 1.6-2.23-.88.43-3 1.04-4.7 1.36-3.83.7-3.7-.68.35-3.52l2.75-1.92-2.97.47c-3.44.55-4.7-.68-2.53-2.48 1.43-1.18 1.43-1.2-.11-.79-.89.24-2.1.12-2.72-.27-1.52-.98-.26-2.78 1.6-2.28.84.22 1.52.02 1.52-.44 0-.5-.95-.66-2.25-.4-1.44.3-2.61.2-3.24-.14a11.55 11.55 0 00.04-1.4c.1-.08.21-.15.34-.23 1.3-.77 1.32-.9.16-.92a2 2 0 01-.62-.12c-.16-.49-.5-1.03-1.2-2.67-.01-.02.07.05.05.03l-.52-.4c-.26-.43-.55-.87-.8-1.32-.05-.08.12.15.18.22l-.48-.67-.2-.12c-.05-.24-.08-.48-.14-.71-.06-.25-.23-.45-.34-.67.1.19.4.74.28.57-.48-.68-.82-1.45-1.35-2.08-.08-.1-.2-.2-.32-.28-.82-2.25-.47-2.5 1.05-2.03.96.3 2.31 1.06 3.01 1.69.7.62 1.5.9 1.79.6.28-.29.74.08 1.02.82s.79 1.17 1.14.94c.35-.22.87.24 1.16 1.01.42 1.13.66 1.2 1.2.3.9-1.5 2.44-.4 2.52 1.83.03.99.24 1.34.46.77.85-2.15 2.68-1.04 2.73 1.65.05 2.42.12 2.5.78.82.4-1.02 1.09-1.85 1.54-1.85 1.11 0 1.9 3.58 1.28 5.9-.42 1.62-.3 1.56.77-.37 1.77-3.19 2.83-2.07 2.4 2.53-.36 3.72-.34 3.77.53 1.2 1.3-3.82 2.27-3.3 2.34 1.23.06 3.6.13 3.73.87 1.64 1.51-4.24 3.43-1.8 2.68 3.4-.34 2.33-.27 2.6.33 1.21a6.2 6.2 0 011.7-2.36c1.15-.73 2.52 1.21 1.97 2.77-.22.6-.62 2.08-.88 3.29l-.49 2.18 1.34-1.85c1.7-2.35 2.85-2.36 2.85-.03 0 1.58.14 1.66 1.08.62 1.59-1.78 4.98-7.96 3.7-6.76a3.82 3.82 0 01-2.14 1.03c-1.33 0-1.37-2.2-.04-2.74.55-.22-.35-.2-2 .04-3.61.53-4.02-.8-.8-2.61l2.2-1.25-3.31.49c-4.08.6-5.2-.76-2.13-2.58l2.23-1.32-2.6.44c-3.51.59-5.37-.16-4.14-1.67.5-.63 1.4-1.14 1.98-1.14.58 0 1.27-.35 1.52-.78.28-.46-.68-.58-2.36-.3-3.05.5-3.5-.09-1.64-2.19 1.07-1.2.9-1.3-1.8-1.05l-3 .29 1.9-1.69 1.9-1.69h-2.59c-1.88 0-2.46-.3-2.15-1.15.27-.7-.24-1.35-1.31-1.66-1.72-.5-1.72-.53-.2-1.72 1.53-1.2 1.53-1.22-.15-1.22-.94 0-1.93-.37-2.2-.83-.28-.45-.16-.82.26-.82.42 0 .96-.51 1.2-1.14.28-.78-.04-1.02-1.02-.76-.9.25-1.58-.16-1.85-1.12a34.4 34.4 0 00-1-2.94c-.83-2.07.61-1.78 3.14.63 1.2 1.13 2.52 1.85 2.93 1.6.41-.27.75-.05.75.48s.54.75 1.2.49c.83-.33 1.2.05 1.2 1.24 0 1.35.24 1.52 1.08.8 1.42-1.2 2.1-.38 2.24 2.7.08 1.95.2 2.1.46.7.19-1.02.66-1.86 1.04-1.86.96 0 1.81 3.06 1.2 4.31-.29.57.02.36.69-.48 1.6-2 2.9-1.07 3.03 2.19.08 2.01.19 2.18.46.72.57-3.07 2.25-1.52 2.14 1.99-.08 2.8 0 2.97.73 1.35 1.36-3.08 2.42-2.15 1.88 1.65-.38 2.63-.3 3.14.34 2.05 1.46-2.5 2.61-1.67 2.1 1.5-.38 2.44-.27 2.8.64 2.02.87-.74 1.16-.57 1.37.82.19 1.27 1.25-.21 3.87-5.4 3.56-7.04 4.85-10.06 3.38-7.92-.41.6-1.73.97-2.92.82l-2.18-.27 1.83-2c1.64-1.8 1.67-1.94.26-1.35-3.12 1.3-4.38 1.47-4.38.57 0-.5.32-.92.71-.92.4 0 .93-.57 1.19-1.26.38-1.02.18-1.09-1.14-.37-2.54 1.4-3.7 0-1.48-1.8l1.92-1.54-2.12.79c-2.46.9-3.48.3-2.19-1.3.7-.87.48-1.1-1.07-1.1-2.51 0-3.27-.78-2.14-2.19.71-.88.46-1.1-1.2-1.1-2.3 0-2.66-.76-1.13-2.33.78-.8.57-.96-1-.78-1.33.15-2-.18-2-1-.01-.69-.64-2.16-1.4-3.28-.77-1.12-1.4-2.5-1.4-3.08 0-.58-.33-1.05-.73-1.05-.41 0-1.17-1.33-1.7-2.96-1.16-3.62-.14-5.08 2.08-2.97 1.72 1.64 4.4 2.98 5.44 2.74.37-.08.87.63 1.11 1.59.3 1.18.64 1.42 1.05.74.91-1.52 2.37-.14 2.48 2.35.06 1.39.23 1.68.46.77.2-.8.7-1.44 1.1-1.44.76 0 1.06 1.66.8 4.32-.09.8.23 1.44.7 1.44s.85-.58.85-1.28c0-.72.39-1.04.88-.73.48.3.71 1.44.51 2.52-.42 2.25.59 2.65 1.38.54.85-2.28 2.14.5 1.6 3.47-.39 2.23-.32 2.33.7 1.03 1.67-2.13 2.15-1.77 2.18 1.65.02 2.52.17 2.82.85 1.63 1.08-1.9 2.33-1.06 2.33 1.55 0 2.9 1.43 1.7 3.3-2.77 1.76-4.23 1.6-4.86-.9-3.49-2.38 1.3-3.93-.15-2.32-2.18.98-1.25.97-1.36-.15-.94-1.89.73-3.64-.6-2.6-1.97.47-.6.84-1.77.83-2.61-.03-1.34-.2-1.3-1.44.4-.78 1.06-1.68 1.66-2 1.34-.3-.32-.1-1.15.45-1.84.87-1.07.7-1.26-1.09-1.26-2.5 0-2.7-.86-.5-2.27.89-.57 1.6-1.4 1.6-1.85 0-1.18-2.2-1-2.63.22-.3.81-.6.8-1.47-.04-.9-.88-.91-1.18-.02-1.74.78-.5.48-.83-1.08-1.23-1.71-.44-1.97-.79-1.24-1.69.72-.89.56-1.25-.76-1.68-1.17-.37-1.54-1-1.22-2.03.26-.84 0-1.66-.6-1.9-1.54-.6-1.79-6.35-.28-6.35zm-1.97 25.51c-.47 0-.63.37-.35.82.27.46.65.83.85.83.19 0 .35-.37.35-.83a.84.84 0 00-.85-.82zm2.33 1.25c-.24.03-.41.35-.41.84 0 1.4.25 1.51.9.44.25-.43.15-.96-.22-1.2a.4.4 0 00-.27-.08zm-48.43 5.67l.02.02c-.16.11-.26.19-.17.1l.15-.12zm10.57 14.24c.2-.05.83.92 1.01 1.18l-1.02-.78c-.06-.27-.06-.39 0-.4zm-.1.14l.03.07c.1.23.14 1 .09.76l-.13-.83zm48.11 4.23c-.44 0-.26.36.4.8.66.44 1.57.8 2 .8.45 0 .27-.36-.4-.8a4.75 4.75 0 00-2-.8zm-70.8 9.59l.1.11h-.03l-.08-.08-.02-.02.02-.01zm-3.42 3.45l.61.35-.11.04-.5-.39zm67.3 2.13c-.38-.06-.85.45-1.1 1.24-.28.92-.82 1.66-1.19 1.66-.54 0-.57 1.43-.08 3.09.16.51.86.14.77-.41a4.14 4.14 0 011.3-3.8c.68-.7.88-1.45.47-1.72a.42.42 0 00-.16-.06zm-66.73 17.69l.1.13-.1-.13zM2.85 551.6l.28.24c-.12-.03-.24-.08-.28-.24zm102.54.14c-.13-.02-.2.28-.23.88-.04.86.15 1.35.42 1.08.26-.28.3-.99.06-1.58-.1-.25-.18-.37-.25-.38zm-88 2.39l.1.18c.02.01.02.03.03.05l-.14-.21v-.02zm-17.3.2l.06.12-.05.08-.04.11-.16.25.18-.56zm15.45.96l.03.02v.05l-.03-.07zm53.9.27c-.12 0-1.86 2.54-3.86 5.63-3.62 5.58-3.66 5.72-3.93 13.57-.32 9.01.72 10.5 2.31 3.33.58-2.58 1.45-5.2 1.93-5.8.5-.6.67-1.1.4-1.1s.14-.75.9-1.66c1.26-1.51 1.48-1.55 2.34-.34.97 1.36.88 3.99-.43 11.88-.74 4.5-.46 6.9.42 3.47.25-1 .77-1.61 1.16-1.37.39.25.48-.13.22-.84-.27-.7-.04-1.84.5-2.5.55-.68.78-1.23.5-1.23-.27 0 .3-.93 1.25-2.06.96-1.13 2.22-2.06 2.8-2.06 1.56 0 1.34 5.47-.43 10.98-1.75 5.45-1 6.1 1.45 1.27a24.84 24.84 0 012.89-4.58c.78-.8.93-1.65.45-2.58-.39-.76-.72-2.86-.73-4.67 0-1.81-.09-5.15-.18-7.4l-.17-4.12-.78 3.7c-1.32 6.23-1.32 6.23-2.75 4.76-1.09-1.11-1.69-4.6-1.87-10.93-.07-2.58-1.6.29-1.62 3.04 0 1.21-.41 2.47-.9 2.78-1.59 1-2.4-1.6-2.03-6.44.2-2.6.27-4.73.16-4.73zm-50.75 1.97l.41.24a.55.55 0 01-.4-.24zm68.47 1.54c-.1-.05-.4.16-.9.6-1.4 1.18-1.54 1.65-.5 1.65.39 0 .94-.6 1.22-1.35.2-.56.28-.86.18-.9zM4.5 560.6c.09 0 .18.05.26.06l.1.08c-.12-.05-.24-.08-.36-.14zm1.9 1.54l.1.09.07.2-.17-.29zm.45 2.85c-.14-.05.3.06.4.17l-.4-.17zm3.37 3.78l.14.13v.04l-.14-.17zm12.5.12c-.16-.02-.26.1-.26.36 0 1.1.95 2.07 1.49 1.52.23-.23-.01-.87-.54-1.4-.29-.3-.52-.45-.69-.48zm-6.34.21a.66.66 0 00-.23 0 2.2 2.2 0 00-.46.13c-1.4.55-1.65 1.14-.5 1.14.42 0 .98-.36 1.25-.81.16-.26.13-.42-.06-.46zm67.94.94c-.38.18-.81 1.9-1.01 5.06-.2 3.06.02 4.32.73 4.32.69 0 1-1.57 1-5.1 0-3.07-.34-4.45-.72-4.28zm-28.96 5.78l-1.72 1.89c-1.4 1.54-1.51 2.02-.6 2.6 1.87 1.22 2.32.86 2.32-1.87zm-46.06.83v.01l-.18.1-.01-.02c.13-.08.16-.08.2-.09zm37.16 6.98c-.27 0-.6.04-.88.16-.64.27-.45.46.48.5.85.04 1.32-.16 1.06-.43-.14-.14-.38-.21-.66-.23zm-1.83 1.83a.49.49 0 00-.2 0c-.1.02-.2.06-.3.13-.45.28-.8.88-.8 1.33 0 .45.35.6.8.32.44-.28.8-.88.8-1.33 0-.26-.12-.41-.3-.45zm-23.98 4.67l.85.72.09.28-.94-1zm54.43 2c-.19.04-.22.2-.06.46.47.78 2 1.16 2 .5 0-.19-.56-.55-1.25-.82a2.2 2.2 0 00-.46-.13.7.7 0 00-.23 0z" fill="#aad400"/><path d="M895.34 549.1c-1.2 1.46-2.52 2.84-3.6 4.4a34.82 34.82 0 00-3.1 5.23 18.93 18.93 0 00-1.55 4.42c-.34 1.82-.32 3.7-.2 5.54.14 1.83.42 3.66.97 5.4.24.74 1.2 1.37.98 2.1-.09.32-.45 1.11-.82.53a9.9 9.9 0 01-1.07-2.31 24.81 24.81 0 01-1.02-5.72c-.14-1.89-.15-3.81.2-5.68.3-1.62.93-3.18 1.62-4.67.89-1.91 2-3.72 3.21-5.44 1.07-1.53 1.72-4.06 3.57-4.33.32-.05 1.19-.03.8.54zM863.42 552.76c1.12-1.58 3.97-1.16 5.78-.48 1.55.58 2.6 2.13 3.46 3.55.88 1.48 1.16 3.26 1.57 4.94.4 1.67.44 3.42.88 5.08.43 1.6.76 3.29 1.7 4.65.5.73 1.9.87 2 1.76.03.32-.57.79-.57.79s-1.7-1.2-2.27-2.05c-1-1.5-1.37-3.34-1.83-5.07-.42-1.6-.46-3.3-.85-4.9-.39-1.6-.67-3.28-1.47-4.71-.67-1.2-1.45-2.57-2.72-3.08-1.69-.68-3.97 1.52-5.45.46-.26-.19-.42-.68-.23-.94z" fill="#fff" fill-rule="evenodd"/><g transform="matrix(.46068 0 0 .46068 432.64 384.8)" fill="#810920" filter="url(#a)"><g transform="matrix(8.19123 0 0 8.7757 -2539.86 -1286.02)" clip-path="url(#d)" font-weight="400" font-size="23.44" font-family="aliens and cows"><path style="line-height:1.25;-inkscape-font-specification:'aliens and cows'" d="M327.65 163.2c0 .67-.3 1.2-.89 1.58-.57.39-1.39.58-2.44.58-.5 0-.97-.05-1.37-.15-.4-.1-.76-.24-1.06-.43-.29-.2-.51-.42-.67-.68a1.83 1.83 0 01-.23-.9v-15.45c0-.08.03-.14.09-.19.06-.05.14-.07.26-.07h.97c.3 0 .54.05.73.17.18.12.27.28.27.47v15.06c0 .23.09.41.25.56.16.13.41.2.76.2.33 0 .58-.07.74-.2a.69.69 0 00.26-.56c.7-2.54-.06-11.88.42-14.01.53-.25 1.16-.24 1.82-.24.35.27-.06-.05 0 0 .06.06.16.12.16.2zM333.34 150.14c.42 0 .8.05 1.13.16.34.1.63.25.88.43a1.97 1.97 0 01.75 1.58v4.6c-.32 1.95-2.67 1.5-3.46 1.51 3.15.07 3.03.3 3.2.53.17.23.26.52.26.89v4.93c0 .08-.02.14-.07.2-.05.04-.12.07-.22.07H335c-.28 0-.5-.07-.64-.2a.76.76 0 01-.2-.55v-4.45c0-.23-.07-.41-.2-.55-.13-.14-.35-.21-.65-.21h-.84v5.21c0 .22-.07.4-.22.55-.13.13-.34.2-.62.2h-.81c-.1 0-.17-.03-.22-.08a.26.26 0 01-.07-.19l-.05-13.75c-.1-1.34 1.66-.92 2.86-.88zm-.87 1.41v6.11h.84c.3 0 .5-.07.64-.21.14-.14.2-.32.2-.54v-4.6c0-.22-.07-.4-.21-.54-.14-.14-.4-.18-.63-.22-.27-.04-.84 0-.84 0zM344.6 158.18c.11 0 .2.03.25.08.05.05.08.11.08.19v4.62c0 .67-.28 1.2-.83 1.59-.54.39-1.3.58-2.28.58-.47 0-.9-.05-1.28-.15-.37-.1-.7-.25-.98-.43-.27-.2-.48-.42-.63-.68a1.94 1.94 0 01-.21-.91V152.1c0-.67.27-1.2.8-1.6a3.94 3.94 0 012.3-.57c.47 0 .89.05 1.26.15.4.1.72.25 1 .44.27.19.48.41.62.68.15.26.03 2.29.06 2.62.05.6-.06.63-1.87.9l-.13-2.62c-.01-.23-.07-.4-.23-.54-.15-.15-.38-.22-.7-.22-.32 0-.56.07-.72.22a.7.7 0 00-.23.54v10.96c0 .23.08.41.23.55.15.14.39.2.71.2.32 0 .55-.06.7-.2a.7.7 0 00.24-.55v-3.47c-.65 0-.97-.25-.97-.74v-.43c0-.08.03-.14.1-.18a.44.44 0 01.24-.07zM351.7 150.14c.1 0 .19.02.25.08.06.05.1.1.1.17l2.04 14.33c0 .08-.03.15-.11.22-.08.06-.2.1-.37.1h-.9c-.31 0-.57-.06-.78-.18-.2-.13-.3-.28-.33-.45l-.19-2.04h-1.52l-.19 2.04c-.02.17-.14.32-.35.45-.2.12-.45.18-.75.18h-.9c-.18 0-.3-.04-.4-.1-.07-.07-.1-.14-.09-.22l2.03-14.33a.3.3 0 01.11-.17.4.4 0 01.26-.08zM350 160.96h1.28l-.58-9.78zM362.67 154.66c-1.4.28-1.57-1.06-1.55-2.55 0-.23-.1-.4-.29-.54-.18-.15-.45-.22-.82-.22-.39 0-.67.07-.85.22a.64.64 0 00-.27.54c0 .68.07 1.27.2 1.77a5.3 5.3 0 001.32 2.33l.88.91c.3.3.58.63.87.97a6.46 6.46 0 011.32 2.8c.14.61.21 1.34.21 2.18 0 .33-.09.64-.27.9-.16.27-.41.5-.75.69-.32.18-.7.33-1.17.43-.44.1-.94.15-1.5.15-1.16 0-2.07-.2-2.72-.58-.64-.39-.96-.92-.96-1.6v-3.1c0-.07.04-.14.1-.19.06-.05.16-.07.29-.07h1.07c.37 0 .65.07.83.21.19.14.28.31.28.53v2.63c0 .23.1.41.27.55.2.14.48.2.85.2.38 0 .66-.06.84-.2a.68.68 0 00.27-.55c0-.81-.07-1.5-.21-2.07a5.47 5.47 0 00-1.32-2.57c-.29-.3-.57-.6-.87-.88l-.88-.88a5.53 5.53 0 01-1.32-2.53 9.2 9.2 0 01-.2-2.03c0-.34.09-.64.25-.9.18-.27.43-.5.75-.68.33-.2.72-.34 1.17-.44.45-.1.95-.15 1.52-.15 1.16 0 2.06.2 2.7.58.65.39.96.92.98 1.59.04 1 .86 2.17-1.02 2.55z"/></g></g><rect x="343.06" y="42.5" width="180" height="24" rx="5.42" fill="#ca313c"/><rect x="348.06" y="35.5" width="180" height="24" rx="5.42" fill="none" stroke="#3f3d56" stroke-miterlimit="10"/></svg>