<svg xmlns="http://www.w3.org/2000/svg" width="1236.6" height="477.2" viewBox="0 0 327.2 126.3"><path opacity=".5" fill="#810920" fill-rule="evenodd" stroke="#810920" stroke-width=".1" stroke-linejoin="round" paint-order="stroke fill markers" d="M-.8-.7h329.6v129.3H-.8z"/><path d="M118.6-44.4c-.1 0-.3.3-.5.9l-.1.1 1.5.4-.1-.2c-.4-.9-.6-1.3-.8-1.2zm-2.2.3l-.3.1-.1.4h1c-.2-.3-.4-.5-.6-.5zm4.5.2c-.3 0-.5.2-.6.9l1.2-.1c-.2-.5-.4-.8-.6-.8zm80 33.3h-.5l-.5.7h.7l.4-.7zm-76.5 4c-.6 0-1.2.2-1.7.4h.4l.6-.2c.3 0 .5-.2.7-.3zm-17.1 0l-.1.1c-.5.8-.5 1.2 0 1.4.3-.4.7-.8 1.4-1l-1.3-.5zm199.5 2.3l-2 .4v.2l2.1-.5h.1l-.2-.1zm2 .5c-1.3.2-2.6.2-3.9.2v.1H310.2v-.1l-1.4-.2zm10.8.2l.3.1H322.8l.1-.1h-3.2-.1zm-7.4 0l-.4.1h-.2H312.1zm-104.4.2l-1 .6h.6c.3-.3.5-.5.4-.6zm123.4.3zm.6 0v.1h.1V-3zm-.8.4zm.7.2v.3h.1v-.2zm-97.4.3c-2.7.9-1.1 1-2.5.8-.4 0 0 0 .1-.2l.7-.5-1.9 1h.3-.3l-.9.3c.6.5.4.7-.9 1.4-1.5.8-1.6.8-1.6-.6v-.3c-.6.3-1.2.5-1.8.5v.2c.1.3-.2.5-.7.4-.4 0-.6-.3-.5-.6h-6.1c2.2 1.2 2.8 2.2.4 1.2-1.4-.7-1.9-.6-1.7.3 0 .7 1 1.3 2.7 1.6 1.5.2 2.6.7 2.6 1.1 0 .4.8.8 2 1 2.2.3 6 2.4 5.9 3.3 0 .3-2-.1-4.4-.9-2.8-.9-5-1.2-6.3-.9-2.2.6-2.5 1.2-1.4 2.8 1 1.4 8.5 4 8.1 2.9-.2-.7.2-.6 1.2.2.9.6 1.6 1 1.6.7 0-.2.5.1 1.2.7 2 2 1 2.3-4.1 1-5.7-1.5-9.6-1.5-9.3.1 0 .6-.4.9-1.3.6-.8-.1-1.5-.5-1.5-.8.1-.6-7.7-2-8.6-1.6-.4.2-.9 0-1-.6-.3-.6-.9-.6-1.7.1-1.2 1-1.4 1-1.2-.1.2-2-3.2-.6-3.4 1.4l-.3 1.5-.3-1.7c-.4-2.3-.5-8.2 0-7 .5 1.4 2.3 2.4 2.7 1.4.2-.6.6-.4 1.4.6.5.8.8 1 .7.4-.2-.5 0-1.1.3-1.3.4-.2.7 0 .6.3 0 .4.8 1 1.8 1.1 1 .2 2 .2 2 0 0-.3 1-.2 2.2.1 1.2.4 2 .3 1.8-.2-.2-.6.1-.6.7-.2.5.4 1 .4 1 0 .1-.4.7-.6 1.3-.5 1 .3 3.5-2.1 3.7-3.5 0-.5-6.6-1.5-12.6-2-1.6 0-3.6-.3-4.5-.4-.9-.1-2 .5-2.5 1.4-.9 1.6-.9 1.6-1-1-.1-1.3-.4-2.5-.7-2.6-.3 0-.8-1-1.1-1.9l-.2-.5h-1.3l.3.4c.6.7.6.8-.4.6-.6-.1-.8-.4-.8-1h-4.5c-.7.4-1.5.8-2.4 1 .5.4 1.7 1 3 1.3 4.9 1.2 5.4 1.2 5.1.4-.4-1.2 1.8.5 2.2 1.7.2.5.3 1.5.2 2.3 0 1.2-.5 1.2-3.3.2L189.5 4c-.7-.6-4.7-1.5-5.3-1.3-.3.1-2 0-3.5-.3-4.8-.8-5-.8-5.1 0 0 .4.4 1 1 1.5l3 2.4c1.2 1 2.9 2 3.8 2.1 1 .2 1.7.7 1.7 1.1 0 .4.5.4 1.2.1 1.1-.4 1.3-.3 1.2.7-.1 1.4.9 1.8 1.5.6.3-.7.5-.6 1 .3.3 1.1.6 1.2 1.9.2 1.3-1 1.4-1 1 0-.5 1-.4 1.2.6 1 .7-.1 1.5-.5 2-.7.5-.4.8 1 1 4 .3 4.3-.2 6.8-.6 3.4-.3-2-1.4-2.5-1.6-.7 0 1.1-.3 1-1.2-.7-1.2-2.1-2.5-2.2-2.1-.2.2.9 0 1-.7.5-.5-.4-1-1-.9-1.4 0-.3-.3-.8-.9-.9-1.2-.3-1.3 1 0 2.3.9 1 .9 1-.2.8-.6-.1-1.2-.7-1.3-1.4-.1-.6-.6-1.5-1.1-1.9-.7-.5-1-.2-.8 1 .2 2-.5 2-1.5 0-.7-1.4-9.7-7.4-12-8-1-.2-1.2-.4-.6-.8 1.6-.8 0-1.6-1.8-1-2.1.9-3 0-1.2-1 1.1-.8 1.1-.8-.1-1.1-.7-.2-1.8 0-2.3.6-1.2 1.4-1.6.5-.5-1.3.8-1.2.7-1.4-.3-1.7-.6-.1-1.7.1-2.5.6-2 1.3-2.5.9-.8-.7.7-.8 1.3-1.7 1.1-2-.2-.9-3.2-.2-4.9 1-2 1.4-2 .7 0-1l.9-1h-2.3c0 .3 0 .3-.1 0h-1.1l-.2.2c-.7.5-1 .7-.7-.1h-2.5l-1.1-.1c-1 0-2.4-.2-2 .5h-.8l-.4-.1h-.3l.4 3c.5 3.8 2.2 4.9 2.6 1.7.1-1.2.4-2.3.7-2.6.3-.2.4.4.3 1.3-.2 2.4.6 5 1.7 5.3.7.1 1-.4.8-2-.1-2.2-.1-2.2 1 .6 1.2 3.2 3 4.3 2.8 1.6-.2-2 .8-2 1 0 .2.9.8 2.1 1.4 2.8 1 1 1.2 1 1.3 0 .1-.8.6-2 1-2.5.6-.7.6-.6.2.7-.4 1.2-.3 2.3.3 3.5 1 2 2 1.8 1.8-.6l-.1-1.9.8 2c1 2.3 2.3 3 2 1-.4-1.6 0-1.4 1.3.6.5 1 .8 2 .6 2.5-.4 1.2 2.3 4.1 4.4 4.7 1 .3 2 .9 2.2 1.3.3.3.9.3 1.4 0 .7-.5.9-.5.8.2-.1 1.2 1.8 1.5 2 .3 0-.6.3-.3.7.6.7 1.6.8 1.6 2.3.2 1.2-1.2 1.4-1.2 1.3-.1-.2 1.9 1.4 2 2.8.2l1.1-1.5-.1 1.7c-.2 2.2 1.6 2 2.6-.3.7-1.5.7-1.5.6.3-.1 1 .2 1.8.8 2 .8.1 1-.3 1-1.8-.1-1.6 0-1.8.6-1 .5.6.7 1.8.6 2.6-.2 2.5 1.8 1.1 2.2-1.5l.3-2.4.3 2.3c.1 1.3.2 4.4.1 6.8 0 3.7-.2 4.1-.5 2.2-.5-2.5-2.4-3.7-2-1.3.2 1.1 0 1-1-.6-.6-1.1-1.4-2-1.8-1.7-.5.2-.5.6 0 1.2 1.2 1.3-.5.8-2-.6-.9-.9-1.1-.8-1.3.3 0 .8-.3 1-.4.3-.3-1.5-2.6-1.8-2.7-.3-.2 1.1-.3 1-1.3-.5-1.1-1.7-1.2-1.7-2.1-.6-.7.8-1.1 1-1.3.3-.3-.7-.6-.8-1.3-.3-.6.4-1.2.4-1.5 0-.3-.3-.8-.2-1 .2-.4.3-.8.4-1.1 0-.3-.3-1-.2-1.6.2-.5.3-2 .7-3.3.8-1.7 0-2.2-.2-2.1-1 .1-1.4-2.1-2-2.8-.8-.2.5-.2.2.1-.8.7-1.9-.7-2.6-2.1-1-.5.5-1.2.9-1.6.8-.3-.1-.2-.6.3-1.1 1.5-1.6.8-2.7-1.2-2-1.7.7-2.6-.2-1-1 .9-.4 1-2.5.2-2.7-.5 0-1.4.3-2 .8-1.1.9-1.3.9-1.2 0 0-.7.5-1.5.9-1.9 1-1 .4-2.6-1-2.2a6 6 0 00-2.3 1.6c-1.3 1.2-1.3 1.2-.6-1.7l.7-3-2.6 2.1c-1.5 1.2-2.5 1.8-2.1 1.3.7-1.2.2-4.3-.7-4.1-.3 0-1.3 1.1-2 2.4l-1.4 2.2.2-5.3.4-9.7.1-4-1 .3a130 130 0 00-.2 8c.1 1.7 0 1.8-1.3 1a7.2 7.2 0 01-1.9-1.7c-.3-.5-.1-.6.5 0 1 .6 1.1.2 1.5-4l.2-3.3h-3.2a18 18 0 00-1.4 3.5c0 .5-.4 1-.6.9-.3-.1-.3-1.9 0-4v-.4h-1.9c-1.1 0-1-.2-2 .1-.1 1.4-.3 2.2-.5 1.9L135 .2h-15.1a8 8 0 01-.3.4c-1.3 1.6-1.6 3.8-.7 4.8.6.6 1.5-.1 4-3.4.7-.8 1.4-1.4 1.8-1.3.3 0 0 .6-.6 1.2-1.3 1.4-2.3 4.6-1.8 6 .3 1 2.5 1 2.6 0 0-.2.7-1.1 1.5-2l1.3-1.6-.7 3.5c-.6 2.9-.5 3.6.2 3.8 1.3.3 4.9-3.5 4.5-4.8-.2-.5-.2-.7.1-.3.2.4 1 .1 1.5-.6.6-.8 1.3-1.3 1.6-1.2.3 0-.6 1.5-2 3.1-3.2 3.8-3.7 6.6-1.3 7.2 1.5.4 4.5-1.8 8.1-5.9.7-.8 1.5-1.2 1.8-1 .3.4-.3 1.4-1.4 2.4-3.8 3.6-5 7.7-2.7 8.3 1.4.3 6-3.4 7.2-5.8.9-2 1-1 .3 8.4a215 215 0 01-1.4 14.1c-.6 3.6-.6 3.7-1.7 2.2-.9-1.2-1-1.3 0-.8.8.7 1 .3 1.4-2.7.4-4.2-.7-7-2.4-5.8-.7.5-1.1 1.9-1.2 4.5-.2 3-.4 3.7-1 3.2a5 5 0 00-1.6-.7c-.6-.2-.6-1.5 0-4.7.4-2.6.5-5.3.2-6.4l-.5-1.9-1.7 1.4c-1 .8-2 2.6-2.4 4.6-1 4-1.7 3.7-1.5-.4.2-3.7-.9-9.3-1.9-9.6-1.5-.3-2.7 2-3.2 6.1-.5 4.3-1.3 5.6-1 2 0-3-1.7-9.6-2.6-9.4-1.2.1-2.8 4.8-2.5 7.3.1 1.2 0 2.2-.2 2.1-.3 0-.7-1.7-1-3.7-.4-4.1-2.9-8.8-4.4-8.4-.8.2-1 .9-1 2.3l.2 4.2c.1 1.2.3 2.5.5 3 .1.4 0 .5-.3.2-.3-.4-1-2.3-1.3-4.3-.4-2.4-1.1-4-2-4.5-1.7-1-2-.6-2.4 3.4-.3 3.8-1.2 4.4-1.4 1-.2-3.4-1.8-6.5-3.1-6.2-1 .2-1.1.8-1 2.8 0 1.5.4 3.2.7 3.8.3.7.3 1-.1 1-.4-.1-1-1.4-1.2-3-.5-2.5-1.7-4.8-2.7-5-.8-.3-1.5 2.5-1 4.7.2 1.4 0 2.1-.3 2-.3 0-.7-1-.8-2 0-1.1-.7-3-1.4-4-1.2-2-1.4-2-2-.9-.2.7-.3 2.4 0 3.7.2 1.3.1 2.3-.2 2.2-.2 0-.5-1-.6-2-.4-3.8-2.9-6.6-3.2-3.7l-.2 1.6-1-1.8c-1.4-2.3-3.3-3-3-1.1.3 1 0 1-.7.3-1.2-1.1-4.4-1.8-4.5-1 0 .4-.6.5-1.2.4-.6-.2-1.7 0-2.4.4-1.1.7-1 .9.5 2.3.9.8 2 1.4 2.5 1.5.8 0 .8.1 0 1s-.8 1 .2 1.3c.7.2 1.6 0 2-.5.7-.5 1-.5.8.2 0 .5-.4 1-.8 1.2-.5.3-.6.7-.1 1.4.4.7 1.1.6 2.7-.3 1.1-.8 2.2-1.1 2.4-.8.2.3 0 .5-.3.4-.8-.2-2.5 3-2 3.8.5 1 1 .8 3.5-1 3-2.4 4.2-2.2 1.6.1-2.3 2.2-2.5 2.8-.6 3.2.8.2 2.4-.5 3.5-1.5s2.3-1.6 2.6-1.3c.2.3-.2 1.1-1 1.8-1.6 1.3-2 3.4-.7 4.2.4.3 2-.7 3.6-2.1 3.3-3 3.6-2.9 1 .6-2.1 2.8-2.2 4.8-.2 4.6 1.4-.1 4.6-3.6 4.5-4.8 0-.3.4-.7.9-.8 1.3-.3 1.2 0-.9 3.3-1.4 2.1-1.6 2.9-1 3.8.9 1.5 2.3.8 4-1.9 1.8-2.6 3.4-4.4 4-4.3.2 0-.2 1.1-1 2.4a12 12 0 00-2.1 6.6c-.2 2.3 1.5 1.1 3.9-2.9 2.5-4.3 4.2-6 4-3.9-.1.7-.4 1.2-.7 1.2-.7-.2-2.6 4.9-3 8-.1 1.8 0 2.4 1 2.6 1.4.3 2.7-1 5.5-5.4 4-6.4 5.5-6.2 2.3.2-2 4-2.9 7.4-2.4 8.9.4 1 1 .9 3-.3 2.3-1.2 3-2.2 4.9-6.5 1.9-4.6 2.3-5.2 3.7-4.8 1 .2 1.3.5.6.8-.5.3-.8.6-.7.8 0 .2-.4 1.5-1 2.9-.5 1.4-1 4-1 5.7L126 48a9 9 0 001 3.3l1.1 2.1L130 52c1.1-1 1.8-2.3 2-3.9.7-7.2 1.8-12.2 2.5-12.3.5-.1 1.5.2 2.3.7 1.4.7 1.4 1 .5 2.3-1.8 2.5-2.3 4.4-1.6 6 .4 1 1 1.5 1.8 1.4 1.4-.3 3.4-3.6 3.7-5.8.1-1.1.4-1.4 1.1-.9.9.7.8 1.7-.2 8a59 59 0 01-5.2 17.8c-1.3 1.2-10.4 1.8-11.2.7-.4-.6-.7-.6-1-.2 0 .5-1.2.8-2.4.8-1.6 0-2-.2-1.7-.8.4-.4.2-.8-.3-1-.5 0-1.1.3-1.4.8-.7 1.7-17.2.5-45.4-3.4L71 62l1.8-1.9c1.6-1.5 2-1.7 2.8-.7.7 1 .8 1 .6-.1-.2-1 0-1.2 1.2-.6 1 .4 1.5.3 1.6-.3 0-.6-.4-.8-1-.7-1 .2-1 .1-.4-.4.6-.6 1.1-.4 2 .4 1.5 1.5 1.9 1.5 1.7.3-.1-.6 1.2-1.6 3.3-2.2a36 36 0 008.7-5.7c3-2.5 5.4-4.6 5.5-4.5l1.6 1.1c1 .7 1.6.9 1.6.5s-.5-1-1.2-1.4c-1.2-.6-1.2-.6.3-.4 2.4.4 2.5 1.7.4 3.5-2 1.9-2.4 3.6-1.2 6 1.3 2.4 4 2.7 5.9.6 1.6-1.8 2.3-4.5 1.2-4.7-.4-.1-.6.5-.5 1.5.2 1.3 0 1.5-1.6 1.2-1-.3-2.1-.2-2.4.2-.8 1.2-1.4-.2-.9-2.2.6-2.1 1.2-2.2 2.4-.2 1 1.8 1.6 1.8 1.4 0-.1-1 0-1.8.5-2 .4-.2.4-1-.1-2.4-.6-1.7-1.4-2.3-3.2-2.7-2.8-.7-5.3.6-11.2 5.8-5.7 5-10.5 6.6-15 5.1l-4.8-1.4c-1-.3-1.8-2-3.3-7-1.1-3.7-2.3-7-2.6-7.4-.4-.4-.2-.6.5-.5.8.2 1.1-.1 1-1-.2-.7 0-1 .2-.7.3.2 1 0 1.8-.4 1.2-.9 1.2-1-.3-.8-1.6 0-1.6 0-.2-.9.7-.5 1.3-1.3 1.3-1.7 0-.4.1-.6.4-.5.8.5 3.7-.3 5.4-1.4 1.5-1 1.6-1.2.5-1.2-.7 0-1.3-.4-1.2-.8 0-.4.6-.7 1.2-.6.6.1 1.7-.3 2.3-1 1.2-1 1.2-1 0-.9-1 .2-1 .1-.3-.8.7-.6.8-1.3.4-1.9-.3-.6-1-.4-1.8.8-.7 1-1.5 1.5-1.8 1.2-.3-.3-1.2.3-2 1.3l-1.1 1c.2-.5.2-1-.2-1-.4-.2-.7.4-.8 1.3-.2 1-.5 1.3-1.1.8-.5-.4-1-.2-1 .5 0 .6-1 1.8-1.9 2.6-1 .8-1.8 1.9-1.9 2.5 0 .6-.4.8-.7.4-.3-.3-.5-1.3-.4-2.1.1-.8-.1-1.6-.5-1.7-.4 0-.5-.6-.2-1.2.2-.5.2-1.2-.2-1.4-1-.7 1.3-3.7 6-7.8 4-3.6 4.3-4 4-6.1-.2-1.2-.3-2.4 0-2.5.2-.2 0-1.2-.6-2.2-.5-1-.6-1.5-.2-1 .4.4 1.2 0 2-1.1 1-1.4 1.1-2.1.7-3.9-.3-1.1-.3-2.5 0-3 .4-.5.3-.6-.3 0-.7.5-.7 1.1-.3 2.9.4 1.9.3 2.4-.7 3.3-1.2 1-1.3 1-2.3-1-1.2-2.7-1-3.8.8-7l.6-1h-2.3c-.4.2-.6.3-.6 0h-.6c.2.7.5 2.5.6 4.4a26 26 0 001.2 6.5c1.7 4.2 1.5 6.2-1 8.8-2.7 3-3.7 3-3-.1.4-1.8.4-2.1-.4-1.6-.5.4-.7 1-.6 1.5.2.5 0 .7-.5.4-.5-.4-.8-1.4-.8-2.3 0-2.3-1-2.5-1.2-.2 0 1 .5 2.2 1.2 2.8 1.7 1.4 1.6 2-1 4.6l-2 2.2-.7-3.5a31 31 0 01-.7-5c0-.8-.2-1.7-.5-2A41.6 41.6 0 0157-1.8h-5.7c.4 4.5 1.2 8.9 2.3 13l1.5 6c0 .1-.8-.1-1.8-.5-1-.5-2.3-.5-3-.2-1 .4-.8.6 1.4 1.2 2.8.7 5 2.3 4.9 3.6-.2 1.4-3.4-.1-6.8-3.3-1.9-1.8-4.7-4-6.2-5l-2.9-1.5-.1-6a20.8 20.8 0 00-1.1-7.3h-2c.8 1.8 1.4 3.5 1.3 4.2-.1 4-.1 5.7.2 8.1l.4 2.6-3.5.2c-2 0-3.3.5-3.1.8.2.4 1.9.7 3.6.6 5.4-.2 8.5 1 12.9 4.7 2.1 1.9 4.5 3.6 5.2 3.7 3.4.8 5.8 7 4.6 11.7l-.6 2.7-1.5-2c-1-1.4-2-1.9-3.7-2-1.7 0-2.5-.4-3-1.4-.4-.8-1.3-2-2-2.6-.6-.6-.3.2.7 1.8 1.6 2.3 2.6 3 4.8 3.6 2.6.6 2.9 1 4.3 4.4.8 2 2.6 5 4 6.7 2 2.4 2.7 3.7 3 6.8.5 3.2.4 4.2-.5 6-.9 1.9-1.4 2.1-3.3 1.7-1.3-.3-3.5-.4-4.9-.3-4.2.3-5 .1-7.2-1.8-2.3-2-3.5-4.3-5.8-10.2-1.2-3.3-2-4.2-3.6-4.8-1.5-.6-2-1.3-2.6-3.5-.6-2.7-1.5-3.8-1.7-2-.2 1.7 2.4 6 3.7 6.3 1.5.3 2.7 2.3 3.8 6.4a9.8 9.8 0 001.9 4c1.9 1.4 0 2-2.1.6-1.6-.9-2.7-1.1-3.8-.8-1.2.4-2 .2-2.8-.6-.7-.7-1.4-1-1.6-.8-.2.2.4.9 1.3 1.6 1.2.9 2 1 3.1.7 1-.4 1.9-.2 3 .6 1 .7 2.6 1.5 3.7 1.8 1 .2 2.4 1 3 1.7.8 1.1.5 1.3-2.7 1.4-2 .1-5.3.5-7.3.9l-3.6.6-2.2-2.7c-2.3-2.7-7.5-6.2-7.6-5.1 0 .3 1.2 1.3 2.6 2.2 1.5.9 2.7 1.9 2.7 2.3 0 .3.3.7.8.8.4.2 1.1.8 1.5 1.6.5 1.1.1 1.5-2.6 2.4-1.8.5-4.3 1.6-5.5 2.3-2.5 1.5-2.5 1.5-1.8 3.7.5 2 3.3 4.3 7 6 1.5.7 3.1 1.6 3.6 2.1s1.9 1.3 3.1 1.8c1.2.6 2.3 1.6 2.5 2.3.1.6 1 1.4 2 1.6 1 .2 2.2 1.2 2.7 2 .7 1.5.7 1.7-.6 2.4-.7.3-1.3 1.1-1.2 1.7.3 1.6-1 2.6-3 2.3-1.4-.3-1.4-.2-.2.4 1.7.8 4-.1 4.2-1.8.3-2.4 2.2-2.7 5.8-.9 2.8 1.4 3.5 2.1 4.2 4.4 1 3 .2 7.4-1 5.7-.4-.6-2.4-.7-5.5-.2-6.1 1-10.4.7-11.9-.7a21 21 0 01-2.5-6c-1.6-5.4-1.2-7.7 1.1-7.2 1.2.3 2.2-1 2.3-2.9 0-.5-.3-.2-.7.7-.4 1-1.3 1.5-2 1.3-.7-.1-1.5.4-1.8 1.2-.9 2.3-1.7 1.5-1.7-1.8-.1-3.9-.3-5.4-.8-5-.2.2-.2 2.7 0 5.7v5.6c-.3.2-1-.8-1.7-2.2L25.6 86l1.1 2.8c.6 1.7 1.4 2.7 2 2.6 1.5-.4 3.2 1.9 3.7 4.9.4 2.5.8 3 3.3 4 2 1 4 1.1 7 .8 2.3-.2 5.3-.2 6.7 0l2.5.6-.5 4.2c-.7 5.4-2.7 17-3.3 18.4-.4 1.1-3.6 2.6-6.2 2.9-1 0-1.4-.2-1.3-1 .1-1.8-1.2-1.9-1.8-.1-.3.8-1 1.3-1.6 1.2-.8-.2-1-.7-.7-1.5.5-1 .3-1-1-.8-.9.2-2.8 0-4.2-.4-2.3-.6-2.6-.5-2.7 1 0 1 .2 1.7.5 1.6.2 0 .3 0 .3.3h2c.5.2 1 0 1.5 0l2.2.6c.4-.2 1.6-.2 2-.2H56a92.7 92.7 0 001.9.6c.2 0 .4.2.3.2l-.3-.2h-.3l1.6.5-.2-.1-.4-.1h.2l1.4-.1H62c0-.6 2.2-.7 5.1 0H70.1c.3-.5.1-.9-.3-1-1.6-.6 2.4-.8 4.8-.4 1.2.3 2.6.1 2.9-.4.3-.5 7.2-2 15.3-3.5 18-3.2 31-5.7 32.8-6.4.7-.3 1.6-1.2 1.9-2.1.8-2.1-.7-4-4-4.8l-3.7-1.3a462 462 0 00-16.7-5.5c-24.3-7.6-39.3-13-39.2-14.2.2-1.6 2.7-3.5 4.7-3.5 1.3 0 2-.3 1.6-.7-1.3-1.4 8.8-4 24-6.3 6.7-1 17.2-3 21.5-4.1.7-.2 1.2-.6 1.3-1 0-.4-1-.3-2.5.2-1.3.5-6.7 1.6-12 2.5L85 79c-4.4.7-10 1.9-12.4 2.6-4.8 1.4-5 1.5-4.3.4.3-.5.2-.7-.4-.6-.5 0-1 .5-1 1 0 .4-.3 1-.6 1.2-.6.6-1.6-3-1.1-4a6 6 0 000-2.7c-.3-2 1.3-6.9 3.5-10.6.9-1.6 1.7-2 3-1.7C77.2 65.8 99 68 108 68.3c9.5.2 9.5.2 8.8 2.3-.5 1.6-.5 1.6.6.3.7-.7 1-1.6 1-2-.2-.3.4-.4 1.3-.2.8.2 1.7.8 1.9 1.3.2.7 0 .8-.3.3-.4-.4-.7-.2-.8.4 0 .8.3 1.1 1.2 1 .7 0 1.2.3 1.2.8s-.4.8-.8.7c-.3 0-.6.4-.7 1-.2 1.5.3 1.6 1.8.3 1.3-1.2 1.6-2.4.8-3.4-.3-.5-.2-.7.4-.5.7.1.8 0 .1-.7-.5-.6 1-1 4.3-1a80 80 0 006.9-.5c2.8-.4 4.2 1 12.2 12.8 2.1 3 4 6 4.4 6.4.9 1.3-.2 1.4-2 .2-1.8-1.4-4-1.3-4.1.2-.4 3 4.1 8.8 8.3 10.6 2.6 1 2.9 1.6 1.7 2.9-.9 1-3.9.4-3.8-.7.2-1.4-5.2-4.3-10-5.5-2.9-.7-3.6-.2-2.9 2.1.8 2.6 1 2.9 6.6 6.6 2.7 1.8 4.8 3.5 4.6 3.8-.2.3-1.6-.4-3.2-1.6-4.3-3.2-9.5-5-10.9-3.7-1.6 1.4-.8 3.8 2.3 6 2.6 1.8 7 4 8 4 .2 0 .4.4.3.9 0 .5-.7.5-1.5 0l-3.8-1.8c-1.3-.6-2.8-1.5-3.4-2-2.2-2.2-6.4-1.6-6 .7.4 1.7 4.3 5 8 6.5 1.7.7 3 1.6 2.9 2 0 .5-1 .4-2.4-.4-4.8-2.4-10.1-2.3-10.4.1-.2 1.7 2 3.4 5.6 4.4 4.1 1.1 3.7 2.2-.5 1.2-1.6-.4-3.8-.5-4.9-.3l-1.8.4 1.3 1.9c.5.7 1.2 1.3 2 1.7h15.5l-.2-.2c-2.3-4-2-4.4.9-1.3l1.7 1.6h22.5c2.4 0 2 0 3.7 1l.8.1h.1l-.7-1.1c-.7-1-1.3-2.1-1.2-2.6 0-.4.7.2 1.5 1.3 1.9 2.4 3.8 3 4 1.1 0-.8-.2-2-.5-2.6-.4-.7.7.4 2.4 2.4l1.8 2H190.3l-.1-.2-1.3-1.6 1.6.8 1.7 1h3c.1-.3.2-.6 0-1a6 6 0 00-1.6-2c-1-.8-.7-.9 1-.1 3.9 1.6 6 .2 2.9-2-1.5-1-1.4-1.1 1.3-.6 3.5.8 4 0 1.2-2-1.9-1.3-1.8-1.3 1-.3 3.4 1.2 4.4.4 2.1-1.9-1.3-1.3-1.3-1.5-.2-.8 1.7 1 4.5 1 4.7-.2 0-.4-.5-1.2-1.3-1.8-1.2-1-1.1-1 .7-.6 2 .5 3.1-1.1 1.6-2.3-.4-.3-.1-.5.6-.3 1.7.3 2.7-1 1.7-2.1-.6-.7-.6-1 .3-1.1.6-.2 1-.6 1-1-.2-.4.2-.8.8-1 .6 0 .9-.4.7-.8-.2-.3 0-1 .6-1.6a9 9 0 001.6-2.6c.7-1.8.3-2-3.6-.8-1.4.4-2.7.6-2.8.4-.1-.3.4-.6 1.1-.7 1-.1 1.5-.9 1.6-2.3.2-1 .4-1.6.5-1 .4 2 1.5 1.4 1.3-.8-.1-1.9 0-2 .7-1 1 1.4 2.2.1 1.3-1.4-.4-.6-.6-1.4-.6-1.8 0-.5.4-.3.8.3 1 1.9 1.8 1.5 1.7-1-.1-1.9 0-2.2.7-1.7 1.1.8 1.5-1.8.6-3.6-.6-1-.6-1 .3 0 1.5 2 3 .5 1.7-1.7-.8-1.6-.8-1.7.5-1.3.8.2 1.4 0 1.4-.7 0-1.2.5-1 2.3.8 1.4 1.4 1.4 1.4.1 1.2-.7-.2-1.7.1-2.2.7-.8.8-.7 1 .5 1.3 1.5.4 1.4.5-.5 1.3l-2 .8 1.8.9 1.8.8-1.8.6c-2 .6-2.6 2-1 2.4.8.1.6.5-.6 1.4-1.6 1-1.6 1.2-.4 1.5 1.2.3 1.2.4 0 1.1-1.5 1-1.7 2.6-.2 2.3 1-.1.9 0-.3.9-1 .7-1.2 1.2-.6 1.6.6.4.6.7-.1 1.4-.6.7-.6 1-.2 1.1.4.1.5.7.2 1.4-.4.7-.3 1 .1.8.5-.2.7.5.5 1.7a6 6 0 00.4 2.9c.7 1.3 3.1-2.8 2.8-4.7-.2-1 0-1.2.4-.7.9 1 1-.3.1-1.9-.5-1-.5-1 .4-.5 1.2.9 1.6-.6.6-2.4-.4-.6-.4-1 0-.8 1.9.9 2.3.4 1.3-1.5-.8-1.7-.8-1.8 0-.7 1.3 1.7 2.1 1 1.3-1.3-.5-1.6-.5-1.7.7-1 1.4 1 1.9-.5.5-1.5-.5-.4-.9-1-.8-1.4 0-.3.5-.3 1 0 .8.7.9.5.5-1-.4-1.3-.3-1.8.5-2 .5 0 .8-.6.7-1-.4-1 .2-1 1.9.4.9.7.9.9.1.8-.6-.1-1.4.2-2 .8-.9 1-.5 1.4 1.8 1.6.5.1.1.5-.9 1-2.4 1-2.4 1.7-.2 1.6 1.6 0 1.7.1.4.9-.7.4-1.5.7-1.8.6-.3 0-.6.4-.6 1-.1.8.3 1.2 1 1 .6 0 .4.2-.4.5-1.6.7-2.2 2.5-1 3 .7.1.7.2 0 .4-.5.1-.9.5-.9.9s.4.6 1 .5c1.4-.4 1 1.1-.8 2.2-.9.5-1.2.9-.8.7.5-.2.8.7.7 2.3 0 3.3 1.7 4.5 2.7 1.7.4-1.3.9-1.8 1.4-1.4 1 .7 1.3-.4.4-1.4-.3-.4-.4-1-.1-1.3.2-.3.7-.4 1 0 .7.7.8-.8.2-3-.5-1.5-.4-1.7.4-1 1 .7 1.5-.3.5-1.4-1-1-.5-1.7 1.2-1.4 1.3.2 1.5.6 1.3 2.3a5.7 5.7 0 01-1.1 3c-.7.7-.7.8 0 .5.6-.3.6.4 0 3-.5 2.8-.5 3.9.5 5.7 2 4 3.3 1.1 5.3-11.6.6-3.7.7-5.6.2-5.7-.4-.1-.5-.3-.3-.5s.8 0 1.4.4c.7.5.8 1.4.4 3.3-.3 1.4-.3 2.6 0 2.7.2 0 .3.5.3 1l-.3 4.8c-.2 2 0 3.8.4 3.8.3.1.4.4.1.6-.2.2-.2 1 .1 1.6.4.7.4 1.2.2 1.1-.3 0 0 .5.4 1.3 1.1 2 2 2 3-.2.8-1.8 1.7-13 1.1-14.6-.1-.5.1-.6.6-.2.4.3.9 2.5 1 4.9.2 5.7 2.4 12.3 4.2 12.8.4 0 .8-2.7 1-6.3.3-6.3.4-6.4.8-2.9.3 2 1.2 4.7 2 6l1.6 2.2.4-2.3c.3-1.3.2-3 0-4-.4-1.2-.3-1.8.3-2 .5-.3.5-.2.2.3s-.2.9.1 1c.4 0 .6.6.6 1.3-.2 1.2 2 3.7 2.7 3 .2-.1.1-1.2-.1-2.4-.7-2.9-.7-3 1-2.5.9.2 1 .4.5.7-.7.4-.6 1 .2 2.9.6 1.3 1.3 2.4 1.7 2.5.8.2 1-2.5.2-3.8-.5-.8-.5-1 .1-1 .4.2 1 1 1.3 2 1 2.4 3 2.9 2.7.5-.2-1.3 0-1.5.5-1 .5.6.7.5.5-.5-.3-1.2-.1-1.3.9-.3.6.6 1.1.9 1.1.7 0-.3.8.3 1.6 1.2 1 1.3 1.6 1.5 2 .9.3-.5 1-.5 1.6-.1.5.4 1 .4 1-.2.1-.5.4-.6.7-.3.6.7 4.5 0 4.6-.9 0-.3-1-1-2.4-1.7-1.3-.6-2.4-1.5-2.3-2 0-.6-.2-.6-.8 0-1.1 1-1.9.7-1.3-.6.6-1.2-.5-1.8-1.3-.7-.2.3-.8.6-1.1.5-.4-.1-.3-.5.2-1.2.5-.5.8-1.2.7-1.5-.5-.7-3.2.5-3 1.3.2.4-.3.6-1 .5-1.3-.2-1.3-.2.2-1.7 1.8-1.7 1.2-3.1-.7-1.8-1.9 1.2-2.5.9-1.8-1 .5-1 .4-1.4-.3-1.3-.5.1-.8.6-.8 1.2 0 .5-.2.6-.5.3-.4-.4-1.2-.1-2 .6-1.8 2-2.5 1.5-1-.5 1.3-1.7 1.8-4 1-4.2-.2 0-1.6 1-3 2.3-1.6 1.2-2.7 1.9-2.7 1.3 0-.5.4-.8.6-.8.3 0 1-.8 1.5-2 .6-1.3.7-2.2.3-2.3-1-.3-4.5 1.3-4.6 2 0 .5-.8 1-1.6 1.4-1.4.6-1.4.4.5-1.8 4-4.6 2-7-2.3-3.1-1.4 1.2-2.5 2-2.7 1.8 0-.2 1-1.7 2.3-3.4 1.8-2.4 2.3-3.4 1.8-4.2-.5-.8-.9-.9-1.6-.4-.5.4-1 .5-1.2.3-.2-.3-1.4.4-2.7 1.5a60 60 0 01-3.8 3c-1.2.8-1.2.7-.3-.7.5-.9 1.1-1.6 1.4-1.5.5.1 4.6-6.1 4.7-7.1 0-.3-.7-.7-1.6-1-1.3-.2-3 .8-6.5 3.9-2.7 2.3-5 4-5.2 3.6-.5-.9 3.2-6.1 6.2-8.9 3.7-3.4 3.6-6.2-.1-5.4-2.3.5-6.6 4-6.2 5 .2.5 0 .7-.2.5-.8-.5-4 1.8-4.6 3.3-.6 1.3-2 1.4-1.8.1 0-.4.4-.7.7-.6.4.1.7-.4.8-1 0-.6.4-1 .7-1 .4 0 .7-.4.8-1 0-.6.3-1.1.6-1.2.8-.2 4.9-7.9 5-9.5.2-.8-.1-1.2-.8-1-.6.1-1.3.2-1.5.1-.8-.2-4.2 2.8-3.9 3.4.3.5-.8.6-1.9.1-.2 0-.5.2-.5.6 0 .5-.7 1.4-1.4 2.1-.8.7-1.9 2.1-2.5 3.2-1.6 2.7-2.1 2.8-4.3 1-2.5-2.2-2.4-3 0-2 1.7.7 2 .6 1.8-.5-.2-.8.2-1.4 1-1.5.7 0 1.3-.7 1.4-1.3 0-.6.4-1 .8-1 .4.1.5-.1.4-.6-.2-.4.2-.8.7-1 .6-.1 1-.6.8-1-.2-.4.2-.9.8-1 .5-.1.8-.6.7-1.1-.2-.5.2-1.3.8-1.9.6-.5 1.2-1.6 1.2-2.4.3-1.8-1.7-1.7-4.1.3-1 .8-1.8 1.2-1.8 1 0-.4-.6 0-1.3.8-.8.7-1.5 1.7-1.4 2 .1 1.4-2 3.5-3 2.9-1-.5-1.2-.1-1.3 2.6l-.1 3.3-2.7-2.8c-3-3-4-4.4-3.3-4.2.3 0 1 .6 1.7 1.2.8.9 1.4 1 2 .5.5-.5.4-.8-.3-1-.6 0-1-.6-1-1 0-.5.6-.6 1.3-.2 1.6.9 2.3-.2 1-1.5-.9-1-.7-1 1-.6 1.1.2 2 0 2.1-.4 0-.4-.2-.8-.6-.9-.3 0-.4-.4-.2-.8.3-.4 1-.3 1.5 0 .7.6.9.5.7-.6-.2-.9 0-1.3.6-1.2.5.2 1-.3 1-1 .1-.6.5-1 .9-1 .4.2.6-.4.4-1-.1-1 0-1.2.8-.7 1.2 1 5.1-1.2 6.5-3.6.6-1 1.4-2 1.9-2.5s1.6-2 2.6-3.6c1-1.5 2.1-2.8 2.6-2.9.5-.1.7 0 .5.4-.2.4-.2 1 .1 1.3.4.4.2 1.3-.5 2.5a55.1 55.1 0 00-4.9 13.2c0 2.3 2.2 2.6 3.3.3.5-.9 1-1.5 1.3-1.5.3 0 .6-.4.6-1 .1-.7.5-1.1.8-1 .4 0 .6-.2.4-.7a1 1 0 01.5-1.2c.4-.2.6-.9.5-1.5-.1-.7 0-1 .3-.6.3.3.7 0 .7-.6.1-.7-.1-1.3-.5-1.4-.4 0-.5-.4-.2-.8.2-.3.8-.3 1.3 0 .5.4 1 .2 1-.5.1-.8.5-1 1-.6 1 .7 1.5 3.1.8 3.6-.6.4-.8.8-1.6 4.8-.3 1.5-.3 3 0 3.3.2.3 0 1.1-.3 1.8-.6 1-.6 1.5-.2 2 .3.3.3.9.1 1.2-.2.4-.2.7.1.8 1 .3 3.5-2.8 4.7-5.9 1.1-3 1.9-3.6 2.4-2 .2.4 0 .8-.5 1-.7 0-.7.3-.2 1.3.4.7.6 2 .4 2.8-.2 1.3-.3 1.3-.5-.5l-.3-2-.3 2.2c-.2 1.5 0 2.3.9 2.8.7.4 1.2 1 1.1 1.5 0 .4-.3.4-.6 0-.3-.3-.5 0-.3.8.6 3.3 2.8-.5 3.3-5.8.2-1.9.5-3.6.8-3.8.6-.5 1.5 1.9 1 2.6-.2.3-.1.6.2.7.4 0 .7.5.6 1 0 .4-.3.5-.6.2-.4-.4-.5 0-.4.6.2.8.6 1.2 1 1 .6-.3.5 0 0 .6-1.4 1.4.1 5.2 1.6 4.2 1.2-.9 1.5-2.8.4-3-.5-.2-.4-.4.3-.7.6-.4 1-1.5 1.1-3.1.1-2.6.2-2.6.7-.5a9 9 0 01.3 2.6c-.1.4.1.7.4.7.4.1.4.7.1 1.4-.4.8-.3 1 .2.8.5-.2.7 0 .4.6-.3.6 0 1.4.4 1.8 1.2.9 2-.6 2-4.1 0-1.7.3-2.6.8-2.5.4.1.5.7.2 1.3-.3.6-.2 1 .3.7.8-.4 1.4 2 .8 2.8-.2.3 0 1.2.6 1.9.8 1.1.9 1.1.6 0-.2-.7 0-.5.5.5.8 1.7.8 1.7.8-1.4 0-2.6.2-3.5 1.1-4.1 1.1-.8 1.1-.8.3.6-.8 1.3-.7 1.7.3 2.3.6.4 1 1.2.7 1.8-.3.5-.1 1.3.2 1.7.5.5.6.4.4-.4-.2-.7 0-.5.5.5.8 1.7.8 1.7 1 0 .2-1.5.4-1.6 1-.8.4.6 1 .9 1.2.6.2-.2.4 0 .3.5 0 .5.2 1 .6 1.1.4 0 .6-.4.5-1.2-.2-1-.1-1.1.4-.4.4.5 1.4 1 2.3 1 1 0 3 .4 4.5.7 1.9.4 3 .3 3-.4 0-.5-.2-1-.6-1-.4 0 0-.2.8-.4.8-.3 1.5-.8 1.6-1.1 0-.6-.3-.9-2-1.4-.4-.2-.9-.6-1-1.1-.3-.5-1-.5-1.7 0-1 .8-1.1.8-.6-.4.7-1.6-.5-1.9-2.3-.5-1.4 1-1.4 1-.4-.1 1.3-1.5.7-2.6-.9-1.5-1 .7-1.1.7-.7-.4.3-.6.4-1.4.3-1.7-.6-.9-3 1.3-2.6 2.4.2.6 0 .5-.4-.2-.6-1-.6-1.3.2-2.1.6-.7.8-1.4.4-2-.3-.6-.8-.6-1.4 0-.6.6-1.3 1-1.6 1-.4-.1-.1-.7.5-1.4 2.7-2.6.6-3.3-2.8-1-1.6 1.1-1.9 1.2-1 .2.8-.7 1.4-2 1.3-2.8 0-1.3-.3-1.3-2 .2-1.2 1-1.9 2.2-1.7 2.8.3.9.2.8-.4 0-.5-1-.5-1.4.1-2 1.2-1 1.5-4.3.4-4.5-.5-.1-1.9.8-3 2a12.6 12.6 0 01-2.6 2.2c-.1 0 .4-1.3 1.3-2.8 3.2-5.8 1.7-8.2-2.3-3.8-3.8 4.3-6 4-2.5-.2 2.5-3 3.2-6 1.5-6.3-1.4-.4-3.9 1-6.8 3.9-2.3 2.3-3 1.8-1.2-.7 1.6-2 3.2-6.2 2.7-7-.3-.5-2.3.7-4.6 2.6a47.1 47.1 0 01-4.3 3.4c-.3 0 1.8-4.7 2.3-5 .6-.4 2.3-4 2.4-5.1 0-.4-.4-.8-1-1-1.4-.3-4.3 2-6.6 5.3-.9 1.3-1.9 2.3-2.2 2.2-.5-.1-.4-.4 0-1 1.2-1.3 5.7-8.8 5.8-9.6.1-1.6-2.5-1.2-3.7.4-2.8 3.6-6.3 6.8-7.2 6.6-.7-.1-.1-1.1 1.7-3 2.7-3 4.5-6.3 4.1-7.5 0-.3.8-1 2-1.6 1.2-.5 3-1.6 3.9-2.4 2.6-2 3-1.5.8 1.3s-2.4 4-1.2 5c1 .8 7-4.2 7.8-6.5.3-.8.8-1.3 1.2-1.2 1 .3-.5 4-2.5 6-1.8 2-2.3 4.8-1 5.7.5.3 2.4-.8 4.3-2.6 2.3-2 3.5-2.6 3.4-1.8 0 .7-.6 1.9-1.1 2.6-.6.7-1.4 2.3-1.8 3.5-.4 1.2-1 2.4-1.3 2.5-.3.2-.4.8-.2 1.5.7 2 4.7 0 7.1-3.5 1.2-1.6 2.4-3 2.7-2.9.8.2.9-.1-1.4 4.7-2.2 4.5-2.4 7.1-.6 7.6 1.2.2 3.4-2.1 5.3-6l1.3-2.4-.8 5c-1 6.3-.6 7.9 1.6 5.4.8-1 1.8-2.6 2.1-3.5 1-3.3 1.6-1.5.5 1.9-.7 2.4-.8 3.7-.4 4.4.8 1.4 3.2-.6 4-3.3 1-3.2 1.6-2.5 1 1-.2 1.8-.1 3.2.2 3.3.4 0 .4.5.1.8-.5.8-.2 1 1.2.6.6-.1 1.2-1.1 1.3-2.5.2-2.1 1.3-3 1.3-1v2.8c0 1 .1 1.9.4 2 .2 0 .7 0 1 .2.4 0 .8-1.1 1-2.6.2-1.5.6-2.7 1-2.6.2.1.3.6 0 1.1-.6 1.5.3 5.4 1.4 5.6.7.2 1-.6 1.4-2.6.2-1.6.4-2.3.5-1.5 0 .8.4 1.3.8 1.1.3-.1.3.2 0 .8-.6 1.5 1.3 3 2.2 1.7.4-.5.5-1.3.4-1.8-.2-.5 0-.5.2 0 .3.3.4 1 .4 1.6 0 .5.3 1 .8 1.1.5.1 1-.3.9-1 0-.9 0-.9.9.3.7 1 1 1.2 1.3.4.3-.7.6-.7 1.2.2.6.8.8.9.9.2 0-.5.4-.8.8-.6 1.1.6 3.7 0 3.8-.8 0-.8-5.4-3.7-6.3-3.2-.4.1-.4-.2-.1-1 .7-1.5-.5-1.8-2.6-.6l-1.6 1 1.3-1.8c1.5-2 1-2.5-1.4-1.2l-1.6 1 1.3-1.8c1.6-2.2 1.3-2.3-2.3-1l-2.7 1 1.7-2c.9-1.2 1.5-2.4 1.3-2.7-.3-.6-3 .4-5 2-.8.7-1.5 1-1.4.5 0-.4.8-1.4 1.8-2.2 1.5-1.3 2.6-3.4 1.8-3.6-.7-.2-4.4 1.6-5.2 2.4-.5.5-1.2.9-1.5.8-.3 0 .5-1.3 1.8-2.8 1.3-1.4 2.3-2.8 2.1-3-.3-.5-3.7.6-5.9 2-1.7 1-1.7.9.3-1.2 1-1.2 2-2.5 2-3 .2-1.3-3-1.4-4.7 0-.9.8-2 1.4-2.5 1.4s.1-.8 1.4-1.7c2.9-2.2 3.3-4.5.8-4.4-1 .1-2.5.7-3.4 1.3-2.2 1.5-3.5 1.2-1.5-.4.8-.7 1.8-1.2 2-1 .4 0 1.1-1 1.7-2.1.6-1.2 1.4-2.3 1.9-2.6.4-.2 1.6-1.8 2.5-3.5l1.7-3.2-.7 3.4c-1.5 7.6-1.6 8-.2 8.3.9.2 1.9-.8 3.4-3.5 1.6-2.7 2.2-3.4 2.4-2.4.2.7-.2 2.4-.7 3.6-1.4 3.4-1.5 5.2-.1 5.5 1 .2 1.5-.3 3.7-4.7.8-1.6.9-1.5.5 1.7-.8 5.8-.8 7 .2 7.2 1 .2 2.5-1.8 2.7-4.1.1-.9.5-1.5.8-1.5.4.1.5 1.4.4 2.8-.2 1.4 0 3.2.5 3.8 1 1.4 1 1.4 2.3-1.4.8-2 .9-2 .7-.4 0 1 .3 2.4.7 3.2.7 1.2 1 1.1 1.8-.6l1-2V52c.2 2.2.3 2.2.8.7.3-.9 1-1.6 1.3-1.5.4.1.6.6.3 1.2-.2.5 0 1 .5 1.1.4.1.7 0 .6-.4-.1-.4 0-.8.4-1 .3-.2.8 0 1 .5 0 .5 1.5 1 3 1.3 1.6.2 3 .7 3.1 1 .2.5 1.1 1 2.2 1.1l2 .4-1.3-1.7c-.8-1-1.6-1.6-1.9-1.4-.3.1-.5-.2-.4-.8 0-.6-.2-.5-.7.2-.9 1.3-1.3 1.4-2.4.1-.7-.7-.6-1.2 0-2.3.8-1.3.8-1.6 0-1.7-.6-.2-.9.1-.7.8.2.6.2.8 0 .4-.3-.4-1-.4-1.5 0-.8.5-.8.4-.3-.7.3-.8.9-1.6 1.3-1.8 1.2-.7 0-1.6-1.4-1-1.1.5-1.3.4-.9-.5.6-1.3.2-1.5-1.8-.8-1.4.6-1.4.6-.2-.7 1.5-1.5 1.7-2.2.6-2.5-1.2-.2-3.4 2-2.9 3 .2.5.2.5-.1 0-.7-.9-.5-4.7.2-4 .2.3.6.2.9-.2.8-1.2-1.3-1.1-3.2.1-2.4 1.6-2.8 1-.8-1.3 1.9-2.2.9-2.5-2.5-1l-2.4 1.3 1.7-2c2.3-2.6 1.3-4-1.7-2.5s-3.7 1.3-2-.4c1.7-1.6 2.3-4.2 1.1-4.4-.4-.1-1.8.4-3 1.3-3.2 2.3-3.8 1.4-1-1.5 1.5-1.4 2.7-3 2.8-3.4 0-.5.3-.7.5-.3.5 1 2.2-.6 2.4-2.3 0-1 .3-1.3.5-1 .2.4.2 1.9 0 3.3-.4 1.6-.3 2.7.2 2.8.3.1.5.5.2.9-.3.3-.2.7.1.8.3 0 .9-1 1.2-2.2.8-2.8 2.4-2.1 1.8.8-.3 1-.1 2.6.3 3.3.6 1 .9 1 1.8-1.2.6-1.3 1-2.9.7-3.4-.2-.7.1-.6 1 .3 1 1 1 1.4.4 2.1-.7.7-.7 1-.2 1.1.4.1.6.5.4.8-.3.4-.4 1.2-.2 2 .2 1 .3 1.1 1.2.4.5-.5 1-1.5 1.1-2.1.1-.7.5-1.2.8-1 .3 0 .6.7.5 1.5-.1.7.1 2.1.6 3 .7 1.8.7 1.8 1 0a23.4 23.4 0 011-3.9c0-.4.4-.7.8-.6.3.1.5.6.4 1.1-.2.5 0 2 .3 3.3l.7 2.4.7-1.6c.6-1.4.8-1.4 1.1-.5.3.7.3 1.6 0 2-.2.3-.1.4.3.2s.8.1 1 .7c.1.6.2.2 0-.8 0-1.4.1-1.8.7-1.4.4.3.7 1 .5 1.5-.1.5 0 .7.4.6.3-.2.7.1.8.7.2.6.4.3.5-.6.2-1.6.3-1.6 1.7-.3.6.5 1 .9 1.6 1 0-.5 0-1.1.2-1.6 0-.3 0-.5.2-.8v-.8-.5c-.2-.1-.5-.2-.7-.1-.6.1-.7-.2-.4-1 .6-1.2.3-1.4-1.5-.6-1.2.5-1.4.4-.9-.7.4-1 .3-1.1-.7-1-1.5.2-1.7-1.1-.3-1.6 1.2-.4-2.2-.4-3.7 0-1.3.3-1.3.2 0-1.1 1.9-2 1.3-2.7-1.3-1.8-2 .7-2.1.7-1.6-.4.3-.8.2-1-.5-.9-.7.2-.9 0-.6-.4.3-.4 1-.5 1.4-.3.6.3 1.2 0 1.4-.4.5-1.2-.9-1.5-3-.5-2.5 1-3 .7-1.2-1 2.4-2.3 1.5-3.7-1.6-2.5-3.5 1.3-3.9 1.1-1.9-.8 2.4-2.3 1.5-3-2.2-1.8l-3.1 1 1.6-1.5c3.1-3 1.5-4.8-2.2-2.6-2.3 1.3-2.5.8-.4-1.5 1.7-2 1.5-3.4-.4-3.1-1.9.3-1.4-.4 1.6-2 3.2-1.7 3.7-1.7 2.6.1a8 8 0 00-1 2.8c-.1 1.2 0 1.2.6.3.5-.6.7-.6.7 0-.2 1.6 1.7.6 2.7-1.6.6-1.1 1.3-2 1.6-2 .7.2.6 1.3-.5 3.4-.8 1.3-.8 2-.2 3 .6 1.3 1 1.1 2.4-1l1.7-2.6-.8 4c-.8 3.7-.8 4.1.3 4.1.7 0 1.5-1 2.1-2.5l1-2.6-.2 3c0 1.9.3 3 .8 3.1.5.1 1-.1 1-.5 0-.5.4-.7.8-.6.4 0 .6.3.3.5-.2.3 0 1 .5 1.8s.6 1 .2.6c-.6-.5-.7-.4-.5.4.3.9.6.9 1.3 0 .9-1 1-1 1.6.4.7 1.3.6 1.4-.1.6-.8-.8-.8-.7-.1.7.7 1.5.8 1.5 1.5-.1s.8-1.6 1.3 0c.3.8.6 1.4 1 1.8V26v-1.4-.1c-.3-.6-.3-1-.2-1.6v-1-1.3-.3l-1.4.2c-1 .2-.8-.1.6-1l.8-.6V18v-1.5a4 4 0 00-2.3.6c-2.1 1.3-2.7.7-.9-1 2-1.9 1.1-2.4-2-1.2l-2.1.8 1.3-1.4c2-2 1.4-3.4-.8-1.9-2 1.4-3.3 1-1.4-.3 1-.7 1.7-2.8 1-3l-2.5.7-2.2.8 1.6-1.5c3-2.9 1.7-3.9-2.2-1.7-1.5.8-2.8 1-3.5.5-1-.7-1-.9.7-1.7 3-1.6 7.7-3.5 8.3-3.4.4.1.5 1.3.3 2.7-.3 1.6-.1 2.5.4 2.5s.8.4.7 1c0 .5.4.3.9-.5.5-.7 1.3-1.4 1.8-1.4.7 0 .8.2 0 1-.6.7-.6 1.1.2 2.2s.9 1.1.7 0c-.2-.8.1-1.2 1-1l1 .7V8.8 7c-.3-.6-.3-1-.2-1.6l-.1-.2-.2-.4c-.2-.6-.1-.5-.1-1.1V3c-1 0-1.8-.1-1.5-.4.2-.2.2-.9-.1-1.6-.3-.6-.3-1 .3-1.3a4 4 0 01-1-.1c-.1 0 0 0 0 0h-.8c-1.9.8-2.2.8-1.4 0H319.6c-.5 0-.4 0-.8-.2H317a4 4 0 01-.6 0c-.5.5-.3.7.8 1 1.2.2 1.2.4.4.9-.8.5-.8.6.4.5.8 0 1.3.3 1 .6-.2.3-.7.6-1 .5-.4-.1-2.3.7-4.4 1.7-3.8 2-4.8 2-2 0 .9-.7 1.3-1.3.9-1.4-.5-.1-.5-.8-.2-1.7.4-1.4.3-1.6-1-1.4-1.3 0-1.5 0-.8-.5h-5.3c.4 1.3.5 3.5.1 4.8-.6 1.7-.5 1.8 1.1 1.2 1.8-.5 2.8 0 2 1.2-.3.4-2.5 1.7-4.9 2.9-3 1.5-4.4 1.9-4.3 1.1 0-.7-.3-1-1-.9-1.1.3-1.1.2 0-1 1.7-1.6 1.8-2.3.5-2.6-.8-.2-.9-.4-.2-1.2 1-1 .2-2.2-1.4-1.8-1 .2-1 0-.2-1.2.4-.7.8-1.8 1-2.5h-1l-.3.2h-4.3c-.5 0-1 0-1.3-.2h-3.2c0 .2.4.4.9.7 1.5 1 1.6 2 .2 2.4-.6.1-1 .6-1.1 1 0 .4.4.7 1 .5.7-.1 1 0 .6.6-.4.4-.2.9.2 1 .6.1.4.5-.4 1-1 .7-1.8 2.4-1.1 2.6l1.3.9c1 .7 1 .6.3-.9-.7-1.6-.7-1.6.6-.4 1 1 1.6 1.2 2.3.6.6-.4 1-.5 1-.2 0 .2-1.3 1.1-2.8 2-2.5 1.3-2.7 1.5-1.7 2.6 1.2 1.4 5.1 2.5 4.7 1.2-.2-.4 0-.5.3-.1.4.4 1.3.5 2 .1 1.3-.4 1.4-.7.8-2-.6-1.3-.6-1.4.3-.2.9 1.2 1.2 1.2 2.5.3.9-.6 0 .3-2 2-3.5 3.1-6.2 7.2-5.5 8.3.4.8 4.9-1 5.4-2 .3-.6.8-1 1.2-1 .3.1.4.6.1 1-.3.4-.6 1.8-.7 3-.2 1.6-.5 2.2-1.3 2-.7-.2-2.3.5-3.8 1.5-1.4 1-3 1.7-3.3 1.6-.4-.1.3-.9 1.6-1.7 2.7-1.9 3-3.3.7-3.7-2.6-.4-2.6-.4-4.2 1-2.4 2.2-2.2.5.2-2 1.7-1.8 2.2-2.7 1.8-3.5-.4-.9-.1-1.4 1.2-2.1 1-.5 1.7-1.2 1.5-1.4-.2-.3-3 1-6.3 2.8-8.7 4.7-8 4.5-7.3 1.9.4-1.5.4-2.6 0-3-.4-.3 0-.2 1 .3 1.3.6 1.6.5 1.3-.3-.3-.9-.2-.9.5 0 .6.8 1.3 1 3 .5 3.1-.8 2.2-2.3-1.6-2.6-1.7-.1-3.1-.4-3.1-.6 0-.3 1.1-1 2.4-1.5 3.3-1.6 3.2-2.8-.3-3.3l-2.8-.4 2.8-1.6c4-2.2 2.8-4-2-3-1 .2-.8 0 .6-1 3.3-2.2 2.4-4.9-1-3-2 1.2-1.8.5.4-1.4l1.1-1.2-.7.2a4 4 0 01-.3.1H273c-.2.2-.4.3-.9.2H269.4l.7.8c1.2 1 1.2 1.3.3 1-.8 0-1 .3-1 1.1.2.8 0 1-.2.7-.3-.3-.6-.3-.7.2 0 .4 1.2 1.6 2.8 2.6 2.5 1.6 2.6 1.8 1 1.4-1.1-.2-2.6 0-3.3.4-.8.4-2.3 1-3.4 1.1l-3.2.7c-.8.2 0-.8 1.7-2.2 1.6-1.3 3-2.9 3-3.4.2-1.2-2-1.6-4.5-.6l-2.2.8 2.7-2.2c1.2-1 2.1-2 2.5-2.7l-.7-.3h.3l-.8-.1h-3.8a2 2 0 01-.4.1l-.7.1a6 6 0 00-1.1 0h-.4l-1.1.2h-.7-.1-.1c-.3.1-.4.2-.9.2h-.2c-.5.3-1 .1-1.6.1h-.2-.1c-.3.2-.4.2-1 .3.4.1.6.4.4.7-.2.3 0 .7.6.8.6.1.9-.1.7-.6-.1-.5 0-.8.3-.7.4 0 .7.6.8 1.1.1.9.4 1 1.2.3 1-.7 1.8-.2 1.7 1.3 0 .5-1.6.5-3.8 0-4-1-5-.6-4.2 1.3.4.6.4 1.4.2 1.6-.8.6 2.7 2.2 5.3 2.4 1.4 0 2.5.4 2.4.7 0 1-1.3 1-4.8.4-1.7-.3-3.5-.3-4-.1-1.4.6-1.8 2.6-.8 3.4.5.4.8.3.6-.2-.2-.5 0-.8.4-.7.3 0 .6.6.5 1.2-.1.9.6 1.3 2.7 1.6 1.5.3 2.6.7 2.4 1-.7 1 .7 1 1.7-.1.5-.5 1.2-1 1.5-.8.4 0 .5.3.2.5-.2.3-.2.9 0 1.4.4.7-.4.9-2.3.6-4-.6-7.6.1-8 1.6-.3 1 0 1.3.6 1.1.5 0 1 .4 1.2 1.2.2 1.2 1 1.5 5.4 2.3 5.8 1 7.3 2.8 2.5 3-3.5 0-9.2 2.5-9 3.8 0 .5 1.3 1.4 2.8 1.8 1.9.7 2.5.6 2.3-.1-.3-.7 0-.8.8-.3.6.4 2.2.4 3.6-.1 4.1-1.6 2.7.6-2 3-10 5-10.6 5.2-10.5 3.5.3-2-1-2.3-5.8-1.3-2.1.4-4.2.5-4.5.2-.7-.4 5.6-1.8 8-1.7.8 0 3.6-2.5 3.7-3.4 0-.9-7.4-2.2-10.7-2-1.3.2-1.4 0-.6-.4.5-.3 2.1-.5 3.6-.5 2.8.1 7.2-2.3 6.7-3.7-.3-1-7.4-2.2-10-1.8-.7 0-.4-.1.7-.5s3.2-.8 4.6-1c3.5-.2 5.3-1.4 5-3.1-.2-1-1-1.5-3-2a20 20 0 00-9.4.5c-.8.4-.9.2-.5-.7.3-.6.2-1.3-.2-1.6-.3-.3.3-.2 1.5.1 4.8 1.5 12.7-1.7 11.3-4.6-.3-.6-1.4-1.4-2.5-1.6-2.2-.5-8 .2-9.4 1.2-.5.3-1 .3-1.2 0-.3-.5 5.4-2.5 6.5-2.2 1 .2 3.4-2.3 3.6-3.5 0-.8-.5-1.3-1.6-1.5-2.3-.5-7.5.8-7 1.7.2.4 0 .4-.6 0-1.6-1.2-1.2-1.8 1.4-2.4 1.3-.3 2.3-.9 2.4-1.3 0-.3.3-.4.6 0 .6.6 1.9-.3 2.5-1.5h-3.4l-.6-.3-1.2-.4-.3-.1h-1c.2-.2.4-.1.5-.3l-.2-.2zm-37 .5c.4.4.5.4.5 0zm1.2 0c.2 1 .4 1.4.5 1 0-.5 1.2-.9 2.5-.9h1.2-3.1zm52.2 0v0zM33-1.7L33-.5c-.4 2.4.8 4.3 3.5 5.5 1.7.8 2.2.8 1.6 0a4.8 4.8 0 00-2.2-1.3c-1.5-.3-2.3-1.7-2.5-4.2L33-1.7zm115 .7c.1 0 0 .1 0 .1l-.7.2.8-.3zm88 0c.2 0 .4.1.5.3.2.2-.2.5-.7.7-1.2.2-1.4-.3-.3-.8l.5-.1zm82.2.2l.3.2h.1l-.4-.2zm-133.8.3h-1.2c.7.4 1 .3 1.2 0zm42.9.2zM115 .1h-.4c-.7 1.5 0 2.2 2 1.5.7-.3 1.6-.8 2.2-1.4h-4s.3-.1.2 0zm100 .1l.2.8c.2 1.2.3 1.2.9.4.3-.4.4-.8.3-1.2zm16.8.4l.2.4c0 .6 0 1.3-.2 1.5-.3.2-.4-.3-.3-1.1l.3-.8zm-1.8 2l.2.2c.4.5 0 1.9-.6 1.8V3.4c0-.5.2-.7.4-.7zm-41.7 3l.4.1.5 1c0 .2-.3.3-.7.2-.3-.1-.5-.5-.5-1 0-.3.2-.4.3-.4zm-47.5 0l.4.1.5 1c0 .2-.3.3-.6.2-.4 0-.6-.5-.6-1 0-.3.2-.4.3-.4zm110.5.2h.6c.7.3.9.5.3.6-.4.2-1 0-1.2-.3 0-.2 0-.3.3-.3zm-52 0c.7.1 1.5.5 1.7 1 .2.4.1.5 0 .2-.2-.2-1-.2-1.6 0-.7.4-1 .2-1-.5 0-.4.5-.6 1-.6zm33.1.5c.1 0 .2.1.2.4.1.6 0 1.3-.2 1.5-.2.2-.3-.3-.2-1.1 0-.5.2-.8.2-.8zM195.7 8l.2.5c0 .6 0 1.2-.3 1.4-.2.2-.3-.3-.2-1l.3-.9zm-28.4.7h.5c.8.2 1 .5.5 1-.4.3-.9.2-1.2-.4-.3-.4-.2-.6.2-.6zm53.5.3h.6c.7.3.8.5.3.6-.5.2-1 0-1.2-.3 0-.2 0-.3.3-.3zm4.3.4l.4.2c.3.3.5.7.5 1 0 .1-.3.2-.7.1-.3 0-.6-.5-.5-1 0-.2.2-.4.3-.3zm102.3 1.4l.3.9.4.6.2-.8v-.1c-.1.1-.3 0-.5-.2l-.4-.4zm-57.8.3c.7 0 1.5.4 3 1 3.2 1.4 3.3 1.5 1.5 1.6-1 0-3.2.5-4.6 1-1.5.4-3.4.9-4.3 1-.9.1-2 .5-2.5.8-.5.3-1 .4-1.2.1-.1-.2.9-1 2.3-1.6a16 16 0 004-2.8c.8-.7 1.2-1 1.8-1zm.5 4.8h.6c.8.3 1.3.7 1 1-.2.4.5.8 1.5 1 2.6.7 2.4 1.9-.2 2-1.2 0-2.6.4-3.3.9a15 15 0 01-4.6 1.6c-2 .4-3.6.6-3.7.5a20 20 0 014-2.8c2.3-1.3 4-3 4-3.5-.1-.4.1-.7.7-.7zm4.4.1l.6.1c.8.2.9.4.4.6-.5 0-1 0-1.2-.4-.1-.2 0-.3.2-.3zm-77.1.3l1.3 1.5c1.2 1.4 1.5 1.5 2 .6.6-.7.9-.7 1.4.2.8 1.4 1.9 1.8 1.4.5-.2-.6.3-.6 1.3 0s1.6.6 1.6 0c.1-.7.4-.7.8-.1 2 2.4 13.2 2.4 12.4-.1-.4-1 1.3-.7 1.8.3.6 1 7.8 2.8 7.9 2 0-.9 2.7.7 3.1 1.9.8 2 .2 3-1 2.1a41.4 41.4 0 00-14-2.9c-.3.3-.1 1.2.6 2 1 1.3 1 1.6.1 2.2-.9.6-1 .5-.9-.6.2-1.3 0-1.3-1.1-.4-1.4 1.2-2.5 1.2-1.7.2.6-1-.5-1.1-1.5-.2-1 1-3.6.6-4-.6-.2-.6-.7-.6-1.5-.1-.6.4-1.2.5-1.4.2-.2-.3-1-.1-1.7.4-.7.6-1.2.7-1.2.1.2-1.4-1.7-1.4-2 0 0 .8-.2 1-.3.3-.2-.5-.7-1-1.2-1.2-.7-.2-1 .4-1 2.1 0 1.4 0 2.2-.2 1.9-.2-.3-.5-3.2-.7-6.4zM38.4 18c-.3 0-.3.2-.1.4.6.7.6 1.2-.1 2.4-.5.8-1.2 1.4-1.6 1.3-.4-.1-.6.1-.3.5.2.4 1.1-.1 2-1.1 1-1.2 2.2-1.7 3.3-1.4 1.7.4 6-.8 5.6-1.6-.1-.2-1.2 0-2.4.4a6 6 0 01-4.7-.3 6 6 0 00-1.8-.6zm238 .3c.4 0 1 .4 1.3 1.2.6 1.4.6 1.4-.2.4-.5-.7-1.1-1-1.4-.8-.2.2-.4.2-.4 0 0-.6.3-.8.7-.8zm-92.6 1h.2c.3 0 .4.4.2.8-.3.3-.6.6-.8.6l-.2-.8c0-.4.3-.7.6-.7zm99.1 2.9c.5 0 .6.2.3.8-.3.6-.7 1-1 1-1-.3-.5-1.6.5-1.8h.2zm-248.8.1c-.2 0-.5.3-.7.6-1 1.5-1 1.7.2.9.6-.5 1-1 .8-1.3l-.2-.2zm115 .2l.4 1.4c1 4.5 1.7 6.4 2.5 6.5.6.2.9-.7 1-2.5l.2-2.8.8 3.4c1 4.3 2.2 6.3 3 4.7.2-.6.4-1.7.3-2.5-.1-.8.2-.4.7 1 1.3 3.4 2.5 4.1 2.3 1.3-.1-2.1 0-2.2.7-.5.4 1 .7 2.2.6 2.7 0 .6.3 1.1.9 1.3.5 0 1-.4 1-1.1.2-1.2.3-1.2.9.3.4 1 1 1.4 1.5 1.2.5-.2 1 0 1.3.7.2.7 1.6 1.3 4 1.8 4.2.9 5.1.6 3.8-1.3-1-1.3-.8-1.4 1.2-.5 1.3.5 2.6.6 3 .1.7-.5 1-.3 1.4.9.4 1.2.7 1.4 1.5.8.5-.4 1-1.2 1-1.7.1-.6.5-1.2.8-1.4.4-.1.5.7.3 1.8-.4 2.5.8 3.6 1.7 1.4.5-1.4.7-1.5 1-.3.6 1.7 2.4 1.5 2.6-.2 0-1 .2-1 .8.4.8 2 2.1 1.5 2.4-.9.2-1.5.3-1.4 1 .7.5 2 .9 2.3 1.7 1.7.5-.3 1-1.6 1.2-2.6.1-1.1.3-1.8.5-1.5.2.2 0 3.8-.2 7.8-.5 6.9-.5 7.2-1.2 5-.7-2.1-.9-2.2-6-3.2-2.8-.5-6.5-.7-8.2-.5-1.7.3-3.2.3-3.3 0-.2-.2-1.2 0-2.4.4-1.4.6-2 1.3-1.9 2 .2.8 0 1-.4.6-.3-.4-1-.2-1.3.3-.5.7-.6.6-.5-.4.2-1.6 0-1.8-2-1-1.2.5-1.3.4-.9-.6.8-1.6 0-2.2-2.2-1.4-1.7.7-1.8.6-1.3-.7.5-1.1.3-1.4-.8-1.4-.7 0-1.8.3-2.3.7-.7.5-.8.3-.4-.9.6-1.8-.9-2.5-2.3-1-.5.6-1.2 1-1.5.9-.4-.1-.1-.7.5-1.4.7-.6 1.3-1.6 1.3-2 .2-1.5-2.2-1.7-3.8-.3-1.8 1.6-2 1.5-1.5-.7.7-2.7-.9-3.7-3-2l-1.7 1.5-.2-2.1c-.4-4.6-2.7-5-4-.6-.7 2-.7 1-.2-4 .7-6.4.7-6.5 1.7-5 1.3 2 2.1 1 2-2.4v-2zm131.7 1.1c.2 0-.4 1-1.4 1.9a15 15 0 00-3 4.8c-1.1 3-2.3 4-7.6 6.6-1.6.8-.9-.2 1.6-2.3 1.3-1.2 2.7-2.9 3-3.9.7-1.6.6-1.7-1.4-1.7-1.2 0-2-.1-1.7-.3.7-.6 10.2-5.2 10.5-5zm-10.6 0l.2.2c.2.3 1.7.4 3.4.1 1.6-.2 3-.2 3.2 0 .1.2-13.8 6.5-15.6 7-.8.2-.3-2 .6-2.7.5-.4 1.9-1 3-1.4 1.2-.5 2.9-1.4 3.7-2.2.6-.6 1.2-1 1.5-1zm21.4 2l-.8.8c-.7.7-1.4 1-1.5.7-.1-.2.4-.7 1.2-1.1l1.1-.5zm-10.7.7c.3 0 .4.2.4.6 0 .4-.4.7-.7.6-.4 0-.7-.3-.6-.4 0-.2.3-.5.7-.7h.2zm28.1.1l.7.5c.6.4.9 1 .7 1.1-.3.2-.7-.2-1.1-.8-.3-.5-.4-.7-.3-.8zm-24.7.5c.3 0 0 1.7-1.4 4.8-.7 1.8-1.2 4-1.1 5 .2 1.2 0 1.5-1.1 1.2-.8-.2-2.7.4-4.2 1.2l-3.7 2c-1.7.8-.7-.3 1.7-2 1.3-1 3.8-4 5.6-6.7 2.3-3.7 3.8-5.6 4.2-5.5zm3.8.3l.1.3c0 .4-.5 1.2-1.1 1.6-1.3 1-1.3.4.1-1.2.4-.5.7-.7.9-.7zm-65.4.7c.7 0 1.7.3 3.3.9 6.4 2 6.9 2.3 7 3.1 0 .5-1.4.4-3.7-.1a42 42 0 00-7-1.1c-1.8 0-3.4-.3-3.5-.6-.2-.2.2-.3.7-.2.6.2 1.4-.3 1.9-1 .3-.6.6-1 1.3-1zm46.3 1.3c.5 0-3.8 3.3-5.3 4-.8.3-1.1.3-1-.3 0-.7 3.2-2.6 6.1-3.7h.2zm-67.6.5l1 1.2c1.3 2 2.7 2.5 2.4.8-.2-1 0-1 1 0s1.2 1 1.6.4c.2-.6.9-.6 1.8-.1 1 .5 1.5.5 1.6-.1 0-.8.3-.7.9.1.5.7 1 .9 1.2.4.3-.3.9-.4 1.3 0 .4.3 1 .3 1.3 0 .2-.5 1.3 0 2.8 1 2.4 1.6 5.2 2.3 6.8 1.5.4-.2.7 0 .7.6-.2 1.1 5 2.7 6 1.8.9-.8 2 0 2.1 1.5.2 1.5-.2 1.5-6.2.2-8.3-2-12.4-1.8-12.6.2-.2 2 5.5 5 11.3 6 1.2.3 2 .8 2 1.2 0 .4-.3.7-.7.6-.3-.1-3.2.7-6.4 1.7a301.4 301.4 0 01-24.3 7c-.2 0 0-2.2.3-4.7.4-3.2.9-4.5 1.3-4.1.4.3 1 .1 1.1-.4.3-.6.6-.4 1 .5.4 1 .7 1.1 1.2.4.5-.7.8-.6 1.3.5.8 1.7 2 1.3 1.7-.6-.2-1.1 0-1.1.5.2.9 2 1.5 2.1 1.6.6.1-.6.5-1.1.8-1 .3 0 .6.6.5 1.3 0 .6.1 1.2.5 1.3.3 0 .7-.4.7-1 .2-1.4 1.2-1.3 1.5.1.2.8.4.8 1 0 .8-.8.9-.8 1.3.4.4.8.7 1 1.1.6.3-.4 1.8-.9 3.2-1 2.6-.4 4.9-1.8 4.3-2.8-.1-.2-1.2-.7-2.3-1.1-1.2-.4-2.3-1.1-2.5-1.6-.2-.4-.9-.4-1.6 0-1 .8-1.1.8-.6-.3.7-1.6 0-1.8-1.6-.5-1.2 1-1.2 1-1.1-.4.1-1.3.1-1.3-1.3-.3-1.2 1-1.3 1-1.2-.1.2-1.6-1-2-1.7-.5-.2.6-.7 1-1 1-.4-.2-.4-.5-.2-.9.9-1.2-.8-2-1.8-.7-1 1.1-1 1.1-1-.2.2-1.8-.8-2-1.8-.2-1 1.6-2.5 1.6-1.7 0 .3-.8.2-1.2-.3-1-.4 0-1 .9-1.4 1.9-.4 1.3-.6.5-.5-3l-.1-6.6c-.2-1.8.9-2.3 1.5-.6.5 1.5 2 1.4 1.8-.2-.1-.7-.2-1 0-1zm-128.1.7c.3 0 .6.2.8.4.6.6.3.8-.9.8-1.9 0-2 0-.7-1a1.2 1.2 0 01.8-.2zm-13.1 6.7c.2 0 .5.7 1 2.3.9 3.1.7 4.4-.4 3-1-1-1.4-3.3-1-4.8l.3-.5zm267.8.4zm0 0v.1c0 .2.1.3.3.4l.1-.1v-.3h-.4zm.4.4h.1c.1 0 .2 0 .3-.2l-.4.2zm0 0h-.1l.1.1zm-.5-.3zm-183.9 2c.1 0 .2 0 .2.4.1.6 0 1.2-.2 1.5-.2.2-.3-.3-.2-1.1 0-.5.2-.8.2-.8zm98.4 2.8l-1.3 2.2c-.7 1.1-1.6 2.2-2 2.3-.5.1-1.6-.3-2.3-.9-1.4-1-1.3-1 2-2.3zm-81.7.8c.1 0 0 .3-.6.9l-1.2 1c-.6 0-.2-.6 1-1.4l.8-.5zm-56 2c.2 0 .6.5.7 1.4.4 1.8.3 2-.3 1.9-.3-.1-.7-1-.7-1.8-.1-1 0-1.5.3-1.5zm202.2.6l.6.4c.6.5 1 1 .7 1.2-.2.2-.7-.2-1-.8-.4-.5-.5-.8-.3-.8zm-159.6.6v1c-.1 2.5 2 7.2 3.1 6.6.4-.2.8-1.8.9-3.7 0-1.8.2-2.6.2-1.7.4 3.9 1.1 6.2 2 6.4.7.2 1-.4.9-2.6 0-3.4.5-2.8 1.1 1 .6 3.5 2 3.8 2.5.5.3-3.3 1.1-3 1 .2 0 1.8.3 2.8 1 3.1 1 .5 1.2.2 1-1.7 0-2 0-2 .9 1 1 3.5 2.3 3.7 2.1.3l-.1-2.1.9 2.4c.5 1.3 1.2 2.4 1.6 2.5.4.1.7-.7.7-2 0-2.1 0-2.1.5-.3.5 2 2.2 3 2.3 1.6 0-.3.6-.3 1.3 0l1.2.8-1.4 1c-1.5 1.1-29.4 5.9-31.5 5.4-.7-.2-.3-2.6 1.3-7.7.7-2.2 1.5-5.8 1.8-8 .4-3.6.5-3.7 1-1.7 1 3.3 2.3 3 3.2-.4l.5-1.9zm89 1.2c.2 0 .4 0 .7.3.5.3 1.3.8 1.8.9.7.1.4.9-1.1 2.7a28.7 28.7 0 01-2.6 2.8c-.2.1-1 1.7-1.6 3.5-1 2.5-1.7 3.3-3.5 3.9-1.3.3-2.6.5-2.9.4-.2-.1-.5.2-.5.8 0 .6-.6 1-1.2.7-.8-.2-1.1.1-1 1.2 0 1.4-.1 1.4-.9.3-1-1.4-1.2-.9-.5 1.4.2 1 .2 1.8-.2 2-.3 0-.7-.3-.8-1-.1-.7-.5-1.3-1-1.4-.4-.1-.4.3 0 1.5.5 2-.2 2.1-1.4.3-.6-1-.7-.7-.5 1 .1 1.8 0 2.1-.7 1.6-.5-.4-1-.3-1 .1 0 .5.2 1 .6 1.4.5.3.3.5-.3.4-1.3-.3-1.5.5-.6 2.3.4.6-.3.3-1.4-.9l-3.9-4c-2-2-2.5-4-.5-2 1.5 1.5 2.8.9 1.9-1-.6-1.2-.5-1.2.7-.4 1.2.7 1.4.7 1.2-.4-.1-.9.1-1.3.7-1.2.5.2 1-.4 1-1.3.2-1 .5-1.4.8-1 .3.3.7.2 1-.2.3-.3.1-.7-.3-.9-.5-.1-.4-.5.4-1 .7-.4 1.2-1.2 1-1.6-.1-.5.2-1 .7-1 .6-.2.8-1 .7-2.1 0-1.2 0-1.6.5-1.1.4.4 1-.4 1.7-2.3.9-2.2 1.7-3.1 3.8-4 1.4-.5 2.7-.8 2.8-.6.1.2-1 2-2.4 4-2.9 4-3.5 6.3-2 6.7 1 .2 6.5-4 6.6-5.2.1-.9 2-2.3 2.4-1.7.2.3.4-.2.5-1.1.2-1.2.5-1.5.9-1s.6.2.4-.8v-1zm75.2 0v1c0 .7-.3 1.2-.7 1.1-.8-.1-.7-.2.2-1.5l.5-.6zM274.1 50v.3c0 .4-.4 1.2-.8 1.8-.4.5-.7.7-.6.2 0-.4.4-1.2.8-1.8l.6-.5zm6.2 0l.6.1c.5.2.7.5.5.8-.2.4-.6.4-1 0-.5-.6-.6-.9-.1-.8zm-32.7.4c.2 0 .4.2.5.4.1.5-.3.9-1 1-1.6 0-1.6-.2-.3-1.1l.8-.3zm70 .2c-.2 0-.5.2-.5.6 0 .4.1 1 .5 1.3.3.4.6 0 .7-.6 0-.6-.2-1.3-.5-1.3h-.2zm-97 .2c.1 0 .3 0 .2.2 0 .4-.8.7-1.7.8-.8 0-1.6.6-1.7 1.2 0 .7-.4.9-.7.5-.3-.3-.6.1-.7 1-.2 1.1-.5 1.4-1.2.8-.8-.6-.9-.4-.4 1.2.6 2-.1 2.2-1.2.4-.5-.8-.6-.8-.7.3-.1.7 0 1.3.4 1.4.3 0 .4.6.1 1.3-.4.9-.6.8-1.1-.5-.4-.9-1-1.4-1.2-1.1-.3.2-.2 1 .1 1.8.6 1.1.5 1.3-.4 1.1-.7-.2-1 .2-.8 1 .1.8-.2 1.2-.8 1-1-.2-1 0 0 1.6.5 1 .8 1.9.6 2-.2 0-2.7-2.1-5.7-4.8l-5.4-5 6.8-1.8c3.7-1 8.8-2.5 11.3-3.4 1.8-.6 3.4-1 4.1-1zm-39.3 2.8c.4 0 .7.6.8 1.2.2.7.6.6 1.5-.3 1-1.2 1.2-1.2 1.6.3.5 1.5.6 1.5 2.2.2 1.4-1.2 1.7-1.2 1.6-.1-.2 1.6 1.6 2 2.2.6.7-1.4 1.5-1.2 1.3.3 0 .6-.9 1.3-1.8 1.5l-6.5 1.3c-2.6.6-5 .8-5.5.5-.5-.4-.4-.5.3-.4 1.4.2 3.3-1.8 2.3-2.5-.8-.6-.8-2.5-.1-2.6zm-75.3.8c.2 0-.1.3-.8.8-.7.5-1.5.9-1.8.8-1-.2-.5-1 .7-1.2a38.3 38.3 0 002-.4zm145 1.2h.1c.4.1.5.5.3.8-.2.4-.2.9.2 1.2.3.3.2.4-.2.2-.9-.5-1.2-2.2-.5-2.2zm-124 .8c-.3 0-.6 0-.8.2-1.2.8-1.6 2.8-.6 3 .3.1.6-.2.7-.7.1-1.2 1.6 0 1.5 1.3-.1.6 0 1.6.2 2.2.3.7.1 1-.4.7-1-.6-1.2 1.7-.1 2.4.5.3.7.2.5-.1-.2-.4.1-1.1.7-1.7.6-.5 1-1.5.8-2.1v-2.3c.1-1.4-1.4-2.9-2.6-2.9zm63.8 2.7l1.5.3c1 .2 1.9.7 1.8 1 0 .4-.9.3-1.9-.1-1-.4-1.8-1-1.8-1 0-.2.1-.2.4-.2zm-1.7.7h.5c.1.3-.1.5-.6.4-.5-.1-.3.5.5 1.3L191 63l-2.4-.6c-1.3-.3-2.4-.1-2.4.3s.2.8.5 1c.4 0 .6.4.5 1 0 .4-.4.5-1 .1-1-.8-2.8-.5-2.9.5 0 .4.2.6.6.5.3-.2.7 0 .9.5.2.5-.4.7-1.5.5-2.3-.6-3 0-1.8 1.7 1 1.1.8 1.2-.8.8-1.5-.3-1.7-.1-1.5 1.4.2 1 0 1.5-.3 1.1-.3-.3-.8-.1-1 .5-.7 1.4 2.3 3.1 3.2 1.8.6-.8.8-.7 1.2.4.4 1 .5 1 .7-.4.2-2.1 1.3-2.1 1.5 0 0 .7.3.4.4-1 .3-2 .4-2.1 1.1-.5.7 1.7.8 1.7 1-.5.2-1.8.4-2 1-1.1 1 1.3 2-.2 1.6-2.5-.2-1.4-.1-1.4.6.1 1 2.2 1.5 2 1.8-.4.2-1.8.3-1.9.7-.6.8 2.4 1.7 2 2.1-1.1.2-1.6.5-2.3.5-1.5.2 1.7 1.8 3 2.4 1.7.2-.5.2-2 0-3.3-.5-2.3-.5-2.4.5-.8.6.8 1.4 1.6 1.8 1.7 1 .3 1.1-1.5.3-3-1-1.6-.3-1.2 4.1 2.6 2.2 1.9 3.7 3.5 3.2 3.6-.4 0-.9.7-1 1.3 0 .6-.3.9-.6.5-.3-.3-1.1-.4-1.7-.1-1 .4-1 .7.5 2.1l1.7 1.7-2.6-.6c-3-.7-3.6.2-1.2 2 1.5 1 1.5 1.1-1 .6-3-.6-3.6.1-1.5 2l1.3 1-1.4-.2c-1.8-.3-3.4 0-3.5 1 0 .3.3.7.8.8.5.1 1 .7 1.2 1.2.2.6-.4.6-1.7.2-1.2-.5-2-1.2-2-1.8v-2.5c.2-2.3-1-2.2-2.5.2-.8 1.2-1.6 1.8-2.1 1.4-.6-.4-.8 0-.7 1 .2 1.8-.7 2.2-1 .4-.1-.5-.4-.8-.7-.6-.3.2-.3 1.2 0 2.2.3 1 .3 1.7 0 1.7-.4-.1-.7-.7-.8-1.4-.2-.7-.6-1.3-1-1.4-.8-.2-.7 3.5.2 5.4.6 1.3.5 1.3-.5-.1-.6-1-1.3-1.7-1.5-1.8-.8-.2-.8 2.6 0 4.6 1 2.4 0 2.3-1.3-.1-1.7-3.3-2.6-.7-1.1 3.1 1 2.9.5 3-1.2.2-.7-1-1.6-1.9-2-1.8-.6.1-.5.6 1.2 5.8.6 1.9.6 1.8-1.1-.6-1-1.4-2-2.4-2.4-2.3-.7.4 0 4.8 1 6.2 1.6 2.4.5 2.4-1.4 0a12.8 12.8 0 00-2.6-2.5c-1-.3-.9 2.7.1 5 1.5 3.1 1.2 3.7-.5 1.3-1.5-2-3.7-3.1-3.9-2 0 .4.3 1.6.8 2.7.4 1 .6 2.2.3 2.4-.3.2-.7-.2-.9-.8-.3-.8-1.4-1.5-2.8-1.7-2-.4-3-1.3-5.9-5.4-3.6-5-4.1-6-2.3-4.7.5.5 2.3 1.3 4 2 2.3.8 2.9.8 3-.2 0-1-1.1-2.3-4.6-5.1-.5-.4.5-.2 2.2.4 3.5 1.3 5.8.7 4.3-1a5 5 0 00-3.5-1.6c-.4 0-.9-.5-1-1-.3-.7.5-.7 2.4-.1 4.7 1.4 6-.5 1.9-2.7l-2.6-1.4 3.3.7c4.1.8 5.7-.7 2.4-2.3-2-1-2.3-1.7-.5-1.3.9.2 2.2 0 3-.5 1.2-.7 1.1-.8-.8-2-1.5-1-1.7-1.3-.8-1.1 3.2.6 5-1.3 2-2-.8-.2-1.5-.7-1.4-1.1 0-.4.8-.6 1.6-.4.8.2 1.7 0 2-.4.3-.4-.3-.8-1.2-1-1.6-.4-1.6-1.4 0-1.4l1.1.1c.4 0 .7-.5.8-1.1 0-.7-.2-1-.5-.9-.4.2-.7 0-.6-.5 0-.4.6-.7 1.3-.5.8.2 1.2-.1 1-.6-.1-.5-.6-.7-1-.6-.3.2-.5 0-.5-.5.1-.4.6-.7 1.1-.6.6.2 1-.2.9-.7-.3-1.5 1.3-2.6 3.5-2.6 1 0 3.3-.3 5-.8a13.6 13.6 0 013-.5zm42.9 2.8c.2 0 .4.2.3.5 0 .5-.3.8-.7.7-.3-.1-.6-.3-.6-.5s.4-.5.7-.7h.3zM49.6 63c2.1 0 3.2.5 6.2 2.6 4 2.7 4.7 3.6 4.6 5.9 0 1.4-1 1.3-13.3-1.5a28.2 28.2 0 01-9.4-3.1c-.7-.7-1.3-1.5-1.3-1.8a40.9 40.9 0 0113.2-2zm120.7 0c.1 0 .4.5.5 1.4.2.7 0 1-.3.7a2 2 0 01-.5-1.4c0-.4.2-.6.3-.6zm-113.8.2c3.1 0 6.4.4 6.4.6l-1 2c-.9 1.7-1 1.7-3 .2-1.2-1-2.7-2-3.4-2.2-.9-.5-.5-.6 1-.6zm112.1.4c.2 0 .2 0 0 .2-.3.3-.2 1.6.2 2.8l.9 2.3-1.2-1.8c-1.4-2-1.4-2.9-.2-3.4l.3-.1zm-4.8 1.2h.4c.8.2 1.5 1.7 2.4 5.7.1.4-.5-.2-1.3-1.3a8.5 8.5 0 00-2.1-2.3c-1-.2-.8 2 .3 4.4 1 2.4.3 3-.8.7-.4-.7-1.2-1.5-1.8-1.6-1.3-.3-1.2 1.3.3 4.7.5 1.2.9 2.5.8 3 0 .5-.4.2-.8-.7-.4-.8-1-1.6-1.3-1.7-.4 0-1-.7-1.3-1.5-.9-1.7-1.8-1.2-1.8 1l.1 2.2c0 .3.5 1.4 1 2.5.7 1 .9 2 .6 1.8-.4 0-.8-.6-1-1.3-.3-.6-1-1.7-1.7-2.4-1.2-1.1-1.4-1-1.6.7 0 1.1.5 3 1.3 4.3 1.8 2.9 1.2 3-1 0-1.7-2-3.4-2.1-3 0 0 .6 0 1-.4 1a33.8 33.8 0 00-4.5-7.2 183 183 0 00-5.5-7.2l-1.3-1.5 2-.4c1-.3 3.2-.6 4.8-.6 1.6 0 6-.7 9.7-1.4 3.3-.5 6.4-1 7.5-1zm92.9.5l.2.4c0 .6 0 1.2-.2 1.4-.3.3-.4-.2-.3-1l.3-.8zm-222.9.4c1.2 0 1.8.4 2.4 1.3.7 1 2.4 2 4.9 2.8 2 .7 4 1.6 4.4 2.1.8 1 5 1.7 7.4 1.2 1.8-.5 5.5.9 6.6 2.4.4.6.6 1.6.3 2.3a3 3 0 00.3 2.4c.5.7.7 1.9.6 2.8-.1 1.3-.3 1.4-.6.4-.3-.7-.3-1.5 0-1.8.1-.3-.2-.5-.7-.3-.9.2-1 .5-.2 2.4.7 1.8.7 2.2-.2 2.6-1.8 1-2.4.2-3-4.4-.9-5.5-2-5.8-2.3-.7-.2 2.1-.6 3.7-1 3.6a74 74 0 01-12.3-6.2c-.3-.5 0-.7.7-.5 1 .2.9 0-.4-1.3-2.1-2-2.5-2-1.8-.5.8 1.5.2 2-1.4 1.2-.7-.5-1-1.1-.7-1.8.4-.9.3-1-.5-.4s-1.8.3-4.5-1.3a11.7 11.7 0 01-3.8-3c-.2-.6-.4-.7-.6-.2-.3.5-.8.3-1.7-.5-1.2-1.3-1-1.4 2.6-2.9a20 20 0 015.5-1.7zm208 2.2h.3c.3.1.6.5.5 1 0 .4-.3.5-.7.2l-.5-1 .4-.2zm-72 3h.3c.4.1.3.5-.2 1-.5.4-1 .5-1.1.2-.3-.5.3-1.2 1-1.2zm41.1 0a24 24 0 014 3.8c1.8 2 2.8 3.4 2.2 3.3-.6-.2-1.2 0-1.2.5 0 .4.4.9 1 1 .6.3 0 .5-1.2.7-2 .2-2.2.3-1.3 1.5 1 1.3 1 1.3-.4 1.3-1.7-.1-2.6 1.6-1 2 1 .3 1 .4-.3.7-2 .5-2.6 1.8-1 2.2 1.4.3 1.3.4-.5 1.2l-2 .8 1.4 1c1.4.8 1.4.8.2.6-.7-.1-1.7.2-2.2.8-.8.8-.7 1 .5 1.3 1.2.3 1.3.5.5.9-1.5.7-2.5 9-1.1 9.4.6.1.7.3.2.5-.5 0-1 .7-1 1.4-.2 1.2-.3 1.1-.7-.3-.7-2.2-1.8-.6-1.7 2.5.1 1.3-.1 2.2-.5 2-.4 0-.4-.7-.2-1.5.6-1.7-.6-3.2-1.5-2-.4.6-.6 1.8-.5 2.7.1 1.5.1 1.5-.6 0-1.2-2.5-2.3-1.5-2.2 2v2.9l-1.1-3c-1.8-4.4-2.8-4.8-2.7-1 .1 1.7.3 3.9.6 4.8.2 1-.5 0-1.6-2l-1.9-3.6-.1 4c0 3.8-.1 3.8-.9 2-.4-1.1-1.2-2.1-1.7-2.2-.8-.2-1 .4-1 3l.1 3.4-1-2.2c-.5-1.2-1.2-2-1.4-1.7-.7.5-1 3-.7 5 .3 2.3-1.4 2.8-2.3.7-.7-1.4-.6-1.4.2-.2.9 1.1 1 1.1 1.1.2.2-1.3-.8-3.2-1.8-3.5-1-.2-1 2.4 0 5.1.4 1.3.5 2.2.1 2.1-.3 0-.5.3-.3.7.4 1.4-.2.9-1-.7-.5-1-.5-1.3 0-.8 1 1.2 1-.1-.1-1.6-1.2-1.6-2.8-2-2.3-.7a37.8 37.8 0 01-6.6-7.6c0-.2 1 0 2 .6 2.8 1.2 3.6 0 1.6-2.1-1.6-1.6-1.6-1.6 1.1-.5 2.1.8 3 .8 3.8 0 .8-.8.6-1-1.4-2.1l-2.3-1.2 3.6.5c4 .5 4.7-.4 1.9-2.6-1.2-.8-1.5-1.2-.7-1 4.3 1.2 7.1.6 5.6-1.2-.5-.6-1.5-1-2.3-1-.8 0-1.6-.4-1.7-.9-.2-.4.4-.5 1.3-.3 2 .4 5-.5 4.6-1.4-.1-.5-1.4-1.1-2.8-1.5L185 99h3c3.6-.2 4.5-1 3.1-2.7-1-1.3-1-1.3.3-1.5.8-.1 1.6-.7 2-1.4.3-.9 0-1.1-1.5-1-1.1 0-1.9-.4-1.9-.8s.7-.7 1.4-.6l2 .3c.5 0 1.2-.3 1.7-.9.7-.7.9-.7.8 0-.1 1.8 1.3.5 1.5-1.2.2-1.7.2-1.7 1 0 .7 1.7.8 1.6.8-.9 0-2.7 0-2.7 1-.7 1 2.4 1.9 1.5 1.7-1.7 0-2.2 0-2.2.4-.3.9 2.9 1.6 2.5 2-1.2.4-3.1.5-3.2 1-1.2.8 2.5 1.9 1.4 1.6-1.8 0-1.8 0-1.9.4-.6.8 2.4 1.9 2 1.8-.6 0-2.2 0-2.3 1-1 1.4 2.2 2 .6 1.1-2.7-.4-1.7-.4-2.3 0-1.6 1 1.5 1.7 1.7 1.8.3.1-.6-.4-1.8-1-2.7-1-1-1.2-1.5-1-1.4zm57.3.8l.4.6c.4.7.5 1.3.3 1.5-.2.2-.5-.3-.7-1.1v-1zM44.5 73.4c-.2 0-.5.2-.8.6-1 1.4-.9 1.7.3.8.6-.4 1-1 .8-1.3l-.2-.1h-.1zm5 .3l-.7.4c-.6.4-1.2.5-1.4.2-.2-.3-.8-.3-1.4.2-1.3.8-1.5 1.6-.4 1a4 4 0 012-.1c.8 0 1.5-.3 1.8-1 .2-.4.2-.7 0-.7zm231.9.5c.1 0 .1.4-.1.9-.3.6-.6 1-.8 1-.5 0 0-1.5.6-1.8h.2zm-54.3.6c-.3 0-.6.2-.6.6 0 .4 0 .8.2.8.1 0 .5-.2.7-.6.3-.4.2-.7-.2-.8h-.1zm-32.7 6.1c.2 0 .6.3 1 .8.6.9.5 1.2-.3 2-.5.4-1 .8-1.2.8-.3-.1 0-3.2.4-3.5h.1zm-153.6.6h.3c1.4.2 1.5.6.2.9-.6.1-1.1 0-1.2-.4-.1-.3.2-.6.7-.5zm2.5 1.1h.3c.6.2 1.2.7 1.3 1 .2.5 2.3 1.8 4.7 2.9 4.3 1.9 5.9 3.5 5.6 5.8 0 .8-.5.6-1.5-.8-.8-1-2.8-2.4-4.4-3.1-2.7-1.1-7.3-5.6-6-5.8zm254.1.2l-1 .3c-1.3 1-.9 1.5 1 1.1 1-.2 1.3-.6.8-1a1 1 0 00-.8-.4zm-53.1 1.6l.4.6c.4.7.5 1.3.3 1.5-.2.2-.5-.3-.7-1.1v-1zm-52.7 1.3l.7.8 1.3 1.6c.1.2-.2.2-.8 0-.5 0-1-.7-1.2-1.5v-.9zm37.8 1.6c.4 0 .6.4.5 1.2 0 .6-.4.8-.9.5-.9-.7-.9-.8-.2-1.4l.6-.3zm-75 .6c.4.1.8.6 1 1 .1.5 0 .9-.4.8-.3-.1-.7-.6-.9-1-.1-.4 0-.7.2-.8zm2 2.4l.2.4c0 .6 0 1.2-.2 1.5-.3.2-.4-.3-.3-1.1l.3-.8zM63.7 93c1.2 0 3 .8 6.3 2 5.2 2.1 25 8.8 35.2 12 3.4 1 9.4 3 13.2 4.4 6.8 2.4 7 2.5 4.8 3.1a534 534 0 01-40.7 7c-.9.5-2.7.8-4 .7-1.3-.1-2.8 0-3.3.4a44 44 0 01-11.7 1.5c-.8 0-2.5.2-3.8.7-1.3.4-2.7.5-3 .2-.3-.3-.7-.2-1 .1-.2.4-1 .6-1.7.5-1-.3-1.1-.8-.8-3.2.6-4.1 2-9.6 2.5-10.5.3-.4 1-2.4 1.3-4.4.9-4.7 1.2-5.7 3.6-10.8 1.2-2.6 1.7-3.7 3.1-3.7zm174.5 2.2c.5 0 .8.7.6 1.7 0 .6-.5.8-1 .6-1.3-.5-1.4-1-.4-2l.8-.3zM159 98.1c.3 0 .7.4 1.3 1.5l1.3 2-2-.5c-2-.5-2.3-1-1.2-2.6.2-.3.4-.4.6-.4zm77.5.7h.4c.8.1 1.4.7 1.4 1.2 0 .6-.6.8-1 .5l-1.5-.6c-1-.4-.4-1 .7-1.1zm16.8.4c.1 0 0 .2-.6.8-.6.7-1.1 1.2-1.2 1.1-.6 0-.2-.6 1-1.4l.8-.5zm4.2 3.3l-.7.9c-.5.6-1.2.9-1.5.6-.3-.3-.5-.8-.4-1 0-.3.2-.3.4 0 .2.4.8.4 1.4 0l.8-.5zm-101 4.3c.9 0 2.7.3 5.2 1 6 1.7 6 1.7 9.9 6.2 2.1 2.5 3.9 4.6 3.9 4.8l-3.6-1c-3.7-1.3-5.7-1-5.1.8.2.5 1 1.1 2 1.3 2 .6 4.1 2.5 2.1 2.1-4.8-.9-7.5-1-8.5 0-1.2 1-1.3 1 3.3 3.4l2.8 1.4-3.2-.5a159 159 0 01-5.6-1.2c-1.4-.3-3-.4-3.7-.1-.7.3-1.3 0-1.9-1a23 23 0 00-3.1-3.5c-3.4-3.3-2.9-3.9 1-1.2 4 2.7 8.2 3.9 8.4 2.4 0-.6-.5-2-1.3-3-.7-1.2-1.4-2-1.4-1.7 0 .3-.4 0-.9-.7-.4-.6-1.3-1-1.8-.9-.6.1-.9 0-.7-.4.3-.3-.1-.9-.9-1.3-2.5-1.5-.6-1.3 2.7.2 5.9 2.7 7.9 3.2 9 2.5 1-.6 1-.8 0-2.3-.6-.9-1.2-1.4-1.2-1.2 0 .3-.4 0-.8-.5-.4-.6-2.3-2-4.2-3-3.3-1.7-4-2.6-2.5-2.6zm108 .7v.4c0 .5-.3 1.1-.7 1.3-.9.4-.8.1.1-1.2l.5-.5zm6.5 1c.3 0 .4.5.3 1.2-.2.8-.5 1.2-.7 1-.7-.7-.5-1.8.3-2.2h.1zm-6.3 2.1h.2c.4.1.6.6.5 1 0 .5-.3.5-.6.2s-.6-.8-.6-1c0-.1.2-.2.5-.2zm3.7 1h.6c.5.1.9.6.8 1 0 .4-.5.4-1 0-.4-.3-.8-.8-.8-1h.4zm7 5c-.2 0-.2 0-.3.3 0 .5-.3.7-.7.3-.3-.3-.6-.2-.6.3-.1 1 1.5 2.4 2.1 1.8.2-.2.2-1-.1-1.9-.2-.6-.4-.9-.5-.9zm-128.5.9c.2 0 .2.3 0 .8-.3.7-.6 1.1-.8 1.1-.5-.1 0-1.5.6-1.8h.1l.1-.1zm74.8 1.5h-.5c-.7.3-1.7.5-2.4.5-.8.1-1.1.7-1 1.6 0 1-.2 1.3-.7.9-.5-.4-.8-1-.8-1.4 0-.4-.2-.6-.6-.4-.3.2-.7 1-.8 2-.2 1.6-.2 1.6-1 0-.7-1.8-.7-1.8-1.3-.2-.4 1-.9 1.4-1.4 1-.6-.5-1 0-1.1 1.8l-.3 2.5-1-2-1.2-2.2v3c-.1 2.6-.2 2.7-1 1.5-1.4-2.2-2-1.9-1.9 1.2v.7h11.6c.1-.3 0-.8-.2-1.4-.5-1-.3-1.1.7-.9.9.2 1.2 0 1-1 0-.6.2-1.1.6-1 .4 0 .6-.2.4-.6-.1-.5.5-1.6 1.5-2.6 1.9-1.8 2.4-3 1.4-3zm-19.3 7.7c-.5 0-.8 1-1 2.8h2.4v-.1c0-.6-.2-1.5-.6-2.1-.3-.4-.5-.6-.8-.6zm-144.7 1.8c.2 0 .8.2 0 0zm118.7.4l1.1.6-.2-.4H177.2l-.8-.2zm23 .2l-.4.4h1l-.5-.4zm-65.3.3l1.3.6h1l-.9-.6zm51.1.8c.2 0 .3.2.4.3h.3l-.5-.3h-.2zm-213 22c-.2 0-.2 0 .1.2.6.3 1.6.6 2.2.5.7 0 .2-.3-1-.6a5 5 0 00-1.3-.2z" fill="#500" fill-opacity=".2"/><path d="M-.8-.7V.5l.2.6c.3 1 0 1.9 0 2.8l.4.7.1 1.4s0 0 0 0l.2.3.2 1.5-.1 1.6v.1c.4 1 .5 1.8.4 2.8l.3.5.1 1.5v1.2c-.3-2-1-2-1.8-1.2v114.2h28l.2-.1c.5-.8 1.5-1 2.4-1l1.6.2H33c1.4.2 1.2.2 2.2.5 0 0 0 0 0 0s0 0 0 0c.4-.2 1.6-.2 2-.2H56a92.7 92.7 0 001.9.6s0 0 0 0H57.8 110c2.8-1 6-1.7 10-1.7h4.8l2.2.6c.6 0 2.1-.2 2.3-.1l1.6.6a22.6 22.6 0 013.7 0H172.7c2 0 2.1 0 3.2.6h153V41.1c-.8.5-1.5.7-1.5-.5h0c0-.6 0-1.3.2-1.8 0-.3 0-.5.2-.8v-.8c0-.5 0-.7.2-1.1V35v-.2-1c0-.7 0-.7.8-.5v-3.5s0 0 0 0v-.6h-.1l-.2-.7-.4-1.5v-1-1.4-.1c-.2-.6-.2-1-.1-1.6v-1V19.5 18v-4c0-1.3.1-2.1.3-2.6l-.1-.3c-.3-.6-.2-.6-.2-1.2V9 6.8s0 0 0 0c-.3-.6-.3-1-.2-1.6l-.1-.2s0 0 0 0l-.2-.4c-.2-.6-.1-.5-.1-1.1v-.9-1.2V.4v-.8h-.2l-.6.1H325h.1-5.5c-.5 0-.4 0-.8-.2H317a4 4 0 01-.6 0l-1.4.2H302c.3 0 .4-.2.5-.4h-.5v.4s0 0 0 0H296.8l-.3.2h-4.3c-.5 0-1 0-1.3-.2 0 0 0 0 0 0h-2.2c-.4 0-1 0-1.3-.2h.1-.6v-.1l-.7-.1h-5.8-7.4c-.2.2-.4.3-.9.2H268s-.3 0-.2-.1c0 0 0 0 0 0h-.6l-.4-.1h-11.6l-.2.2c-.5.2-1 0-1.6 0h-.2-.1c-.3.2-.4.3-1 .3h-.7s0 0 0 0h-.3s0 0 0 0c-.6 0-.7 0-.6-.5h-21.2c-.6.3.6 0-2 .4-.6.3-1.2.6-2 .5H215a6 6 0 01-3.5-1H186c-1 .3-2.1.4-3.7.4H169c.1.6-.3 1-1.8.7-.5 0-.9 0-1.3-.2l-.3-.2h-.3a6 6 0 01-2.7-.5l-1.2.1-1.4-.1a3 3 0 01-.3-.1h-11v.2h-.8l-.4-.1-1.4.4h-8.3c-1.3-.1-.8-.3-2.8.4h-20.1s.3-.1.2 0h-3l-1.3-.2-1.4-.4h-5.8c-1.7 0-3.2-.1-4.6-.3H78.4c0 .9 0 .7 0 0zm302.6.4v-.4h-.4c0 .2.2.4.4.4zm-244 128.8h-.3H57.8s0 0 0 0zM147.7-.7h-.3.4zm170.6 0l.3.1h.1l-.4-.1zM228-.5s0 0 0 0l-.6.2h.3l.3-.2zM-.8 5h.1s0 0 0 0 0 0 0 0zm329 30.9h-.1s0 0 0 0zm-.2 1.7s0 0 0 0 0 0 0 0 0 0 0 0 0 0 0 0zm0 0s0 0 0 0v.1c0 .2.1.3.3.4 0 0 0 0 0 0l.1-.1v-.3s0 0 0 0h-.4zm.4.4s0 0 0 0h.1c.1 0 .2 0 .3-.2 0 0 0 0 0 0h0l-.4.2zm0 0s0 0 0 0h-.1l.1.1s0 0 0 0 0 0 0 0zm-.5-.3s0 0 0 0 0 0 0 0 0 0 0 0 0 0 0 0zm-200.7 89.8a124.6 124.6 0 003.4.7l-.5-.2h-.1s0 0 0 0c-1-.3-1.5-.4-2.7-.5h-.1zm4 .6l1 .4h1.5l-2.5-.4z" opacity=".4" fill="none" stroke="#000" stroke-width=".026458" stroke-linejoin="round" paint-order="stroke fill markers"/><path d="M-.8-.7V.5l.2.6c.3 1 0 1.9 0 2.8l.4.7.1 1.4s0 0 0 0l.2.3.2 1.5-.1 1.6v.1c.4 1 .5 1.8.4 2.8l.3.5.1 1.5v1.2c-.3-2-1-2-1.8-1.2v114.2h28l.2-.1c.5-.8 1.5-1 2.4-1l1.6.2H33c1.4.2 1.2.2 2.2.5 0 0 0 0 0 0s0 0 0 0c.4-.2 1.6-.2 2-.2H56a92.7 92.7 0 001.9.6s0 0 0 0H57.8 110c2.8-1 6-1.7 10-1.7h4.8l2.2.6c.6 0 2.1-.2 2.3-.1l1.6.6a22.6 22.6 0 013.7 0H172.7c2 0 2.1 0 3.2.6h153V41.1c-.8.5-1.5.7-1.5-.5h0c0-.6 0-1.3.2-1.8 0-.3 0-.5.2-.8v-.8c0-.5 0-.7.2-1.1V35v-.2-1c0-.7 0-.7.8-.5v-3.5s0 0 0 0v-.6h-.1l-.2-.7-.4-1.5v-1-1.4-.1c-.2-.6-.2-1-.1-1.6v-1V19.5 18v-4c0-1.3.1-2.1.3-2.6l-.1-.3c-.3-.6-.2-.6-.2-1.2V9 6.8s0 0 0 0c-.3-.6-.3-1-.2-1.6l-.1-.2s0 0 0 0l-.2-.4c-.2-.6-.1-.5-.1-1.1v-.9-1.2V.4v-.8h-.2l-.6.1H325h.1-5.5c-.5 0-.4 0-.8-.2H317a4 4 0 01-.6 0l-1.4.2H302c.3 0 .4-.2.5-.4h-.5v.4s0 0 0 0H296.8l-.3.2h-4.3c-.5 0-1 0-1.3-.2 0 0 0 0 0 0h-2.2c-.4 0-1 0-1.3-.2h.1-.6v-.1l-.7-.1h-5.8-7.4c-.2.2-.4.3-.9.2H268s-.3 0-.2-.1c0 0 0 0 0 0h-.6l-.4-.1h-11.6l-.2.2c-.5.2-1 0-1.6 0h-.2-.1c-.3.2-.4.3-1 .3h-.7s0 0 0 0h-.3s0 0 0 0c-.6 0-.7 0-.6-.5h-21.2c-.6.3.6 0-2 .4-.6.3-1.2.6-2 .5H215a6 6 0 01-3.5-1H186c-1 .3-2.1.4-3.7.4H169c.1.6-.3 1-1.8.7-.5 0-.9 0-1.3-.2l-.3-.2h-.3a6 6 0 01-2.7-.5l-1.2.1-1.4-.1a3 3 0 01-.3-.1h-11v.2h-.8l-.4-.1-1.4.4h-8.3c-1.3-.1-.8-.3-2.8.4h-20.1s.3-.1.2 0h-3l-1.3-.2-1.4-.4h-5.8c-1.7 0-3.2-.1-4.6-.3H78.4c0 .9 0 .7 0 0zm302.6.4v-.4h-.4c0 .2.2.4.4.4zm-244 128.8h-.3H57.8s0 0 0 0zM147.7-.7h-.3.4zm170.6 0l.3.1h.1l-.4-.1zM228-.5s0 0 0 0l-.6.2h.3l.3-.2zM-.8 5h.1s0 0 0 0 0 0 0 0zm329 30.9h-.1s0 0 0 0zm-.2 1.7s0 0 0 0 0 0 0 0 0 0 0 0 0 0 0 0zm0 0s0 0 0 0v.1c0 .2.1.3.3.4 0 0 0 0 0 0l.1-.1v-.3s0 0 0 0h-.4zm.4.4s0 0 0 0h.1c.1 0 .2 0 .3-.2 0 0 0 0 0 0h0l-.4.2zm0 0s0 0 0 0h-.1l.1.1s0 0 0 0 0 0 0 0zm-.5-.3s0 0 0 0 0 0 0 0 0 0 0 0 0 0 0 0zm-200.7 89.8a124.6 124.6 0 003.4.7l-.5-.2h-.1s0 0 0 0c-1-.3-1.5-.4-2.7-.5h-.1zm4 .6l1 .4h1.5l-2.5-.4z" opacity=".4" fill="none" stroke="#000" stroke-width=".026458" stroke-linejoin="round" paint-order="stroke fill markers"/><path d="M-.8-.7V.5l.2.6c.3 1 0 1.9 0 2.8l.4.7.1 1.4s0 0 0 0l.2.3.2 1.5-.1 1.6v.1c.4 1 .5 1.8.4 2.8l.3.5.1 1.5v1.2c-.3-2-1-2-1.8-1.2v114.2h28l.2-.1c.5-.8 1.5-1 2.4-1l1.6.2H33c1.4.2 1.2.2 2.2.5 0 0 0 0 0 0s0 0 0 0c.4-.2 1.6-.2 2-.2H56a92.7 92.7 0 001.9.6s0 0 0 0H57.8 110c2.8-1 6-1.7 10-1.7h4.8l2.2.6c.6 0 2.1-.2 2.3-.1l1.6.6a22.6 22.6 0 013.7 0H172.7c2 0 2.1 0 3.2.6h153V41.1c-.8.5-1.5.7-1.5-.5h0c0-.6 0-1.3.2-1.8 0-.3 0-.5.2-.8v-.8c0-.5 0-.7.2-1.1V35v-.2-1c0-.7 0-.7.8-.5v-3.5s0 0 0 0v-.6h-.1l-.2-.7-.4-1.5v-1-1.4-.1c-.2-.6-.2-1-.1-1.6v-1V19.5 18v-4c0-1.3.1-2.1.3-2.6l-.1-.3c-.3-.6-.2-.6-.2-1.2V9 6.8s0 0 0 0c-.3-.6-.3-1-.2-1.6l-.1-.2s0 0 0 0l-.2-.4c-.2-.6-.1-.5-.1-1.1v-.9-1.2V.4v-.8h-.2l-.6.1H325h.1-5.5c-.5 0-.4 0-.8-.2H317a4 4 0 01-.6 0l-1.4.2H302c.3 0 .4-.2.5-.4h-.5v.4s0 0 0 0H296.8l-.3.2h-4.3c-.5 0-1 0-1.3-.2 0 0 0 0 0 0h-2.2c-.4 0-1 0-1.3-.2h.1-.6v-.1l-.7-.1h-5.8-7.4c-.2.2-.4.3-.9.2H268s-.3 0-.2-.1c0 0 0 0 0 0h-.6l-.4-.1h-11.6l-.2.2c-.5.2-1 0-1.6 0h-.2-.1c-.3.2-.4.3-1 .3h-.7s0 0 0 0h-.3s0 0 0 0c-.6 0-.7 0-.6-.5h-21.2c-.6.3.6 0-2 .4-.6.3-1.2.6-2 .5H215a6 6 0 01-3.5-1H186c-1 .3-2.1.4-3.7.4H169c.1.6-.3 1-1.8.7-.5 0-.9 0-1.3-.2l-.3-.2h-.3a6 6 0 01-2.7-.5l-1.2.1-1.4-.1a3 3 0 01-.3-.1h-11v.2h-.8l-.4-.1-1.4.4h-8.3c-1.3-.1-.8-.3-2.8.4h-20.1s.3-.1.2 0h-3l-1.3-.2-1.4-.4h-5.8c-1.7 0-3.2-.1-4.6-.3H78.4c0 .9 0 .7 0 0zm302.6.4v-.4h-.4c0 .2.2.4.4.4zm-244 128.8h-.3H57.8s0 0 0 0zM147.7-.7h-.3.4zm170.6 0l.3.1h.1l-.4-.1zM228-.5s0 0 0 0l-.6.2h.3l.3-.2zM-.8 5h.1s0 0 0 0 0 0 0 0zm329 30.9h-.1s0 0 0 0zm-.2 1.7s0 0 0 0 0 0 0 0 0 0 0 0 0 0 0 0zm0 0s0 0 0 0v.1c0 .2.1.3.3.4 0 0 0 0 0 0l.1-.1v-.3s0 0 0 0h-.4zm.4.4s0 0 0 0h.1c.1 0 .2 0 .3-.2 0 0 0 0 0 0h0l-.4.2zm0 0s0 0 0 0h-.1l.1.1s0 0 0 0 0 0 0 0zm-.5-.3s0 0 0 0 0 0 0 0 0 0 0 0 0 0 0 0zm-200.7 89.8a124.6 124.6 0 003.4.7l-.5-.2h-.1s0 0 0 0c-1-.3-1.5-.4-2.7-.5h-.1zm4 .6l1 .4h1.5l-2.5-.4z" opacity=".4" fill="none" stroke="#000" stroke-width=".026458" stroke-linejoin="round" paint-order="stroke fill markers"/></svg>