<?xml version="1.0" encoding="UTF-8" standalone="no"?>
<!-- Generator: Adobe Illustrator 17.1.0, SVG Export Plug-In . SVG Version: 6.00 Build 0)  -->

<svg
   xmlns:dc="http://purl.org/dc/elements/1.1/"
   xmlns:cc="http://creativecommons.org/ns#"
   xmlns:rdf="http://www.w3.org/1999/02/22-rdf-syntax-ns#"
   xmlns:svg="http://www.w3.org/2000/svg"
   xmlns="http://www.w3.org/2000/svg"
   xmlns:sodipodi="http://sodipodi.sourceforge.net/DTD/sodipodi-0.dtd"
   xmlns:inkscape="http://www.inkscape.org/namespaces/inkscape"
   version="1.1"
   id="Capa_1"
   x="0px"
   y="0px"
   viewBox="0 0 180 59.999999"
   xml:space="preserve"
   sodipodi:docname="moon-sun.svg"
   width="180"
   height="60"
   inkscape:version="0.92.3 (2405546, 2018-03-11)"><metadata
   id="metadata17"><rdf:RDF><cc:Work
       rdf:about=""><dc:format>image/svg+xml</dc:format><dc:type
         rdf:resource="http://purl.org/dc/dcmitype/StillImage" /><dc:title /></cc:Work></rdf:RDF></metadata><defs
   id="defs15" /><sodipodi:namedview
   pagecolor="#ffffff"
   bordercolor="#666666"
   borderopacity="1"
   objecttolerance="10"
   gridtolerance="10"
   guidetolerance="10"
   inkscape:pageopacity="0"
   inkscape:pageshadow="2"
   inkscape:window-width="1366"
   inkscape:window-height="706"
   id="namedview13"
   showgrid="false"
   fit-margin-top="0"
   fit-margin-left="0"
   fit-margin-right="0"
   fit-margin-bottom="0"
   inkscape:zoom="7.5563524"
   inkscape:cx="135.34935"
   inkscape:cy="30.197149"
   inkscape:window-x="-8"
   inkscape:window-y="-8"
   inkscape:window-maximized="1"
   inkscape:current-layer="Capa_1"
   showguides="true"
   inkscape:guide-bbox="true"><sodipodi:guide
     position="159.60081,21.968271"
     orientation="0,1"
     id="guide837"
     inkscape:locked="false" /><sodipodi:guide
     position="147.29329,14.424949"
     orientation="0,1"
     id="guide839"
     inkscape:locked="false" /></sodipodi:namedview>
<path
   style="fill:#ffd93b;stroke-width:0.12007301"
   d="m 17.636323,45.08981 c 15.161858,0 27.45157,-12.29163 27.45157,-27.45349 C 45.087893,10.918 42.667222,4.77218 38.661586,0 51.037751,3.97298 60,15.5653 60,29.26131 60,46.23867 46.238673,60 29.261311,60 15.565304,60 3.9729756,51.03775 0,38.66159 c 4.7721815,4.00755 10.919919,6.42822 17.636323,6.42822 z"
   id="path2"
   inkscape:connector-curvature="0" />
<path
   style="fill:#f4c534;stroke-width:0.12007301"
   d="m 48.259742,5.13528 c 4.1113,5.22366 6.581922,11.79982 6.581922,18.96577 0,16.97737 -13.761327,30.73869 -30.738689,30.73869 -7.165957,0 -13.742116,-2.47062 -18.9657716,-6.58192 C 10.762384,55.3988 19.467196,60 29.263232,60 46.240594,60 60.001921,46.23867 60.001921,29.26131 c 0,-9.79604 -4.601197,-18.49893 -11.742179,-24.12603 z"
   id="path4"
   inkscape:connector-curvature="0" />
<g
   id="g10"
   transform="matrix(0.120073,0,0,0.120073,0,-9.6e-4)">
	<polygon
   style="fill:#ffd83b"
   points="85.44,203.56 42.768,161.96 101.744,153.4 128.128,99.944 154.496,153.4 213.472,161.96 170.8,203.56 180.864,262.296 128.128,234.568 75.376,262.296 "
   id="polygon6" />
	<polygon
   style="fill:#ffd83b"
   points="254.752,136.552 232.624,114.984 263.2,110.552 276.864,82.84 290.528,110.552 321.104,114.984 298.976,136.552 304.208,166.984 276.864,152.616 249.52,166.984 "
   id="polygon8" />
</g><g
   id="g34"
   transform="translate(119.163,0.178)"><path
     style="fill:#f09d4b;fill-opacity:1;stroke-width:1.11431313"
     d="m 29.203658,-0.669896 c -0.593769,0 -1.075658,0.5171544 -1.075658,1.15436209 V 7.4106379 c 0,0.6372077 0.481889,1.1543621 1.075658,1.1543621 0.593747,0 1.075636,-0.5171544 1.075636,-1.1543621 V 0.48446609 c 0,-0.63720769 -0.481889,-1.15436209 -1.075636,-1.15436209 z"
     id="path2-4"
     inkscape:connector-curvature="0" /><path
     style="fill:#f09d4b;fill-opacity:1;stroke-width:1.07565641"
     d="m 29.199161,51.594761 c -0.593769,0 -1.075655,0.481889 -1.075655,1.075658 v 6.453923 c 0,0.593769 0.481886,1.075658 1.075655,1.075658 0.593749,0 1.075658,-0.481889 1.075658,-1.075658 v -6.453923 c 0,-0.593769 -0.481909,-1.075658 -1.075658,-1.075658 z"
     id="path4-6"
     inkscape:connector-curvature="0" /><path
     style="fill:#f09d4b;fill-opacity:1;stroke-width:1.17387402"
     d="m 59.705994,29.258088 h -7.162275 c -0.658943,0 -1.193719,0.517172 -1.193719,1.154374 0,0.637205 0.534776,1.154351 1.193719,1.154351 h 7.162275 c 0.658943,0 1.193722,-0.517146 1.193722,-1.154351 0,-0.637202 -0.534779,-1.154374 -1.193722,-1.154374 z"
     id="path6"
     inkscape:connector-curvature="0" /><path
     style="fill:#f09d4b;fill-opacity:1;stroke-width:1.18670404"
     d="m 6.6856069,30.412462 c 0,-0.637202 -0.5465379,-1.154374 -1.2199513,-1.154374 h -7.3197048 c -0.6734128,0 -1.2199508,0.517172 -1.2199508,1.154374 0,0.637205 0.546538,1.154351 1.2199508,1.154351 h 7.3197048 c 0.6734134,0 1.2199513,-0.517146 1.2199513,-1.154351 z"
     id="path8"
     inkscape:connector-curvature="0" /><path
     style="fill:#f09d4b;fill-opacity:1;stroke-width:1.11721158"
     d="m 46.108487,14.799 c 0.286001,0 0.572025,-0.109472 0.789866,-0.327332 l 6.408331,-6.4083281 c 0.436823,-0.4368288 0.436823,-1.1429058 0,-1.5797348 -0.436823,-0.436831 -1.142909,-0.436831 -1.579733,0 l -6.408333,6.4083279 c -0.436824,0.436826 -0.436824,1.142909 0,1.579735 0.217863,0.218963 0.503864,0.327332 0.789869,0.327332 z"
     id="path10"
     inkscape:connector-curvature="0" /><path
     style="fill:#f09d4b;fill-opacity:1;stroke-width:1.11721158"
     d="m 11.67194,45.838606 -6.4083167,6.408308 c -0.436831,0.436845 -0.436831,1.142909 0,1.579733 0.2178548,0.217859 0.5038619,0.327353 0.7898686,0.327353 0.2860045,0 0.5720117,-0.109494 0.7898665,-0.327353 l 6.4083176,-6.408309 c 0.436845,-0.436827 0.436845,-1.142909 0,-1.579732 -0.436826,-0.436827 -1.14291,-0.436827 -1.579736,0 z"
     id="path12"
     inkscape:connector-curvature="0" /><path
     style="fill:#f09d4b;fill-opacity:1;stroke-width:1.11721158"
     d="m 46.498353,45.838606 c -0.436826,-0.436827 -1.142908,-0.436827 -1.579735,0 -0.436824,0.436823 -0.436824,1.142905 0,1.579732 l 6.408333,6.408309 c 0.217861,0.217859 0.503865,0.327353 0.789867,0.327353 0.286001,0 0.572003,-0.109494 0.789866,-0.327353 0.436823,-0.436824 0.436823,-1.142888 0,-1.579733 z"
     id="path14"
     inkscape:connector-curvature="0" /><path
     style="fill:#f09d4b;fill-opacity:1;stroke-width:1.11721134"
     d="m 6.9433555,6.1836511 c -0.4368289,-0.436831 -1.1429061,-0.436831 -1.5797351,0 -0.4368309,0.4368289 -0.4368309,1.142906 0,1.5797348 l 6.4083166,6.4083291 c 0.217866,0.217858 0.503866,0.327331 0.789867,0.327331 0.286004,0 0.572028,-0.109469 0.78987,-0.327331 0.436845,-0.436825 0.436845,-1.14291 0,-1.579736 z"
     id="path16"
     inkscape:connector-curvature="0" /><path
     style="fill:#f09d4b;fill-opacity:1;stroke-width:1.18749964"
     d="m 2.857812,21.044457 3.409848,1.292696 c 0.1508123,0.05643 0.3065306,0.084 0.4585696,0.084 0.4855456,0 0.9453418,-0.271427 1.1378431,-0.719959 0.2538041,-0.588853 -0.050301,-1.259355 -0.6780474,-1.497428 L 3.7749507,18.911028 c -0.6290001,-0.238054 -1.342605,0.04599 -1.5964117,0.636016 -0.2525804,0.587688 0.050269,1.258188 0.679273,1.497419 z"
     id="path24"
     inkscape:connector-curvature="0" /><path
     style="fill:#f09d4b;fill-opacity:1;stroke-width:1.23110783"
     d="m 20.137589,9.3495468 c 0.160061,0 0.323781,-0.032007 0.480142,-0.098492 0.6254,-0.2659175 0.918408,-0.98858 0.652496,-1.6139831 L 19.827355,4.2367515 C 19.562678,3.6101174 18.839998,3.317113 18.213364,3.5842644 c -0.6254,0.2659195 -0.918407,0.9885801 -0.652473,1.6139828 l 1.442849,3.4003231 c 0.198215,0.4690525 0.654962,0.7509765 1.133849,0.7509765 z"
     id="path28"
     inkscape:connector-curvature="0" /><path
     inkscape:connector-curvature="0"
     id="path866"
     d="m 55.458638,21.044457 -3.409828,1.292696 c -0.150834,0.05643 -0.306539,0.084 -0.458581,0.084 -0.485548,0 -0.945337,-0.271427 -1.137838,-0.719959 -0.253812,-0.588848 0.05033,-1.259349 0.678051,-1.497423 l 3.411059,-1.292715 c 0.629007,-0.238057 1.342604,0.04599 1.596416,0.636014 0.252583,0.587687 -0.05032,1.258188 -0.679279,1.497419 z"
     style="fill:#f09d4b;fill-opacity:1;stroke-width:1.18749964" /><path
     inkscape:connector-curvature="0"
     id="path868"
     d="m 3.3573231,39.417414 3.409848,-1.292696 c 0.1508123,-0.05643 0.3065306,-0.084 0.4585696,-0.084 0.4855456,0 0.9453418,0.271425 1.1378431,0.719957 0.2538041,0.588851 -0.050301,1.259372 -0.6780474,1.497426 l -3.4110746,1.292732 c -0.6290001,0.238062 -1.342605,-0.04602 -1.5964117,-0.636008 -0.2525804,-0.587691 0.050269,-1.258188 0.679273,-1.497419 z"
     style="fill:#f09d4b;fill-opacity:1;stroke-width:1.18749964" /><path
     style="fill:#f09d4b;fill-opacity:1;stroke-width:1.18749964"
     d="M 54.758818,39.11743 51.34899,37.824734 c -0.150834,-0.05643 -0.306539,-0.084 -0.458581,-0.084 -0.485548,0 -0.945337,0.271425 -1.137838,0.719957 -0.253812,0.588851 0.05033,1.259372 0.678051,1.497426 l 3.411059,1.292714 c 0.629007,0.238057 1.342604,-0.04599 1.596416,-0.636014 0.252583,-0.58769 -0.05032,-1.258188 -0.679279,-1.497419 z"
     id="path870"
     inkscape:connector-curvature="0" /><path
     inkscape:connector-curvature="0"
     id="path872"
     d="m 37.58307,9.3495468 c -0.160038,0 -0.32378,-0.032007 -0.480142,-0.098492 C 36.477526,8.9851391 36.18452,8.2624765 36.450454,7.6370734 l 1.442847,-3.4003222 c 0.2647,-0.6266343 0.987361,-0.9196387 1.613995,-0.6524873 0.6254,0.2659195 0.918407,0.9885801 0.652473,1.6139828 L 38.71692,8.59857 c -0.198215,0.4690525 -0.654943,0.7509765 -1.13385,0.7509768 z"
     style="fill:#f09d4b;fill-opacity:1;stroke-width:1.23110783" /><path
     inkscape:connector-curvature="0"
     id="path874"
     d="m 20.637887,50.758864 c 0.160061,0 0.323781,0.03203 0.480142,0.09846 0.6254,0.265934 0.918408,0.988592 0.652496,1.613994 l -1.442872,3.400314 c -0.264677,0.626635 -0.987357,0.919641 -1.613991,0.652496 -0.6254,-0.265931 -0.918407,-0.988592 -0.652473,-1.613991 l 1.442849,-3.400315 c 0.198215,-0.469063 0.654962,-0.750987 1.133849,-0.750984 z"
     style="fill:#f09d4b;fill-opacity:1;stroke-width:1.23110783" /><path
     style="fill:#f09d4b;fill-opacity:1;stroke-width:1.23110783"
     d="m 37.982806,50.458864 c -0.160038,0 -0.32378,0.03203 -0.480142,0.09846 -0.625402,0.265934 -0.918408,0.988592 -0.652474,1.613994 l 1.442847,3.400314 c 0.2647,0.626635 0.987361,0.919641 1.613995,0.652496 0.6254,-0.265931 0.918407,-0.988592 0.652473,-1.613991 l -1.442849,-3.400291 c -0.198215,-0.469062 -0.654943,-0.750985 -1.13385,-0.750982 z"
     id="path876"
     inkscape:connector-curvature="0" /></g><circle
   style="fill:#f09d4b;fill-opacity:1;stroke:#f09d4b;stroke-width:0.69999999;stroke-miterlimit:4;stroke-dasharray:none;stroke-opacity:1"
   cx="148.16299"
   cy="30.178003"
   r="20"
   id="circle36" /><circle
   style="fill:#f0b619;fill-opacity:1"
   cx="148.16299"
   cy="30.178003"
   r="15"
   id="circle38" /></svg>