<svg data-name="Layer 1" xmlns="http://www.w3.org/2000/svg" width="1049.6" height="678.6"><defs><linearGradient id="a" x1="790.7" y1="664.4" x2="790.7" y2="175.8" gradientUnits="userSpaceOnUse"><stop offset="0" stop-color="gray" stop-opacity=".3"/><stop offset=".5" stop-color="gray" stop-opacity=".1"/><stop offset="1" stop-color="gray" stop-opacity=".1"/></linearGradient></defs><path fill="#85848b" d="M0 670.9h1049.6v7.7H0z"/><path d="M831.5 535.5c0 5.9-34.4 23-75.2 23s-72.7-17.1-72.7-23 33.1-4 74-4 74-2 74 4z" fill="#504f60"/><path d="M831.5 535.5c0 5.9-34.4 23-75.2 23s-72.7-17.1-72.7-23" opacity=".2"/><path d="M420.2 427.2c6.6.9 13.5 1.4 19.8-.6 1-.4 2.1-1 2-2a2.4 2.4 0 00-.4-1 61.8 61.8 0 01-6-11.5 1 1 0 00-.4-.5 1 1 0 00-.6 0c-3 .8-5.5 2.7-8.4 3.5a11.9 11.9 0 01-4.6.3c-1.3-.1-3.1-1.2-4.3-1 .7 4.3 2.3 8.4 2.9 12.8zM545.5 416.2c4.4-3 9-6.2 11.5-10.8a1.9 1.9 0 00.3-1 2 2 0 00-.3-.8 37.2 37.2 0 00-9.4-10.1 27.2 27.2 0 00-5.2 4.8c-1 1.1-4.1 3-4.1 4.8 0 1 1.1 2.1 1.7 3a63 63 0 015.5 10z" fill="#ca313c"/><path d="M446.1 440.6a4.5 4.5 0 01-.8 3 4 4 0 01-1.6 1c-9.3 3.2-20-.9-29.3 2.4-1.9.6-3.7 1.6-5.6 2.2a30.5 30.5 0 01-7 1.3l-9.8.6a23.7 23.7 0 01-7.5-.7 9 9 0 01-5.6-4.5 4.3 4.3 0 01-.3-3.2 3.5 3.5 0 01.6-1 8.8 8.8 0 012.2-1.7l3.4-2.2a22.9 22.9 0 015.1-2.8l4.2-1c4.8-1.4 8.4-5.2 11.8-8.8l4.7-5a4.7 4.7 0 011.6-1.3 4.5 4.5 0 012-.2 26.7 26.7 0 0112.6 4.3 16.4 16.4 0 003.2 1.8c2.7 1 6.2.3 8.7-1 1.2-.7 1-1 1.4-2.2s1.7-1.9 2.8-.8a3 3 0 01.7 1.2c1 3.3.6 6.9.6 10.3a4.5 4.5 0 00.2 1.6 9 9 0 00.9 1.5 3.4 3.4 0 01.2.4 10.2 10.2 0 01.6 4.8z" fill="#514e7f"/><path d="M446.1 440.6a4.5 4.5 0 01-.8 3 4 4 0 01-1.6 1c-9.3 3.2-20-.9-29.3 2.4-1.9.6-3.7 1.6-5.6 2.2a30.5 30.5 0 01-7 1.3l-9.8.6a23.7 23.7 0 01-7.5-.7 9 9 0 01-5.6-4.5 4.3 4.3 0 01-.3-3.2 3.5 3.5 0 01.6-1l1.3 3.2a6.5 6.5 0 004.3 3.1 10.8 10.8 0 004-.5c8.4-2 17.3-2.1 25.4-5.2 2.8-1.1 5.4-2.6 8.3-3.2s6-.5 9-.8c4.7-.4 9.3-1.8 14-2.5a10.2 10.2 0 01.6 4.8z" fill="#464353"/><path d="M566.8 415.5c-.5 3.6-2.7 6.6-5.1 9.2s-5.3 4.8-7.2 7.8c-2.4 3.7-3.5 8.2-6.6 11.3a18.1 18.1 0 01-4 2.9 28 28 0 01-5.2 2.3 38.4 38.4 0 01-14.5.8 13 13 0 01-4.6-.9 14 14 0 01-2-1.1 9.2 9.2 0 01-3-3 3 3 0 01-.3-2.2 5.1 5.1 0 011.4-2.1 33 33 0 013.6-3.2 21 21 0 004.5-4 13 13 0 001.8-4 35.5 35.5 0 001.3-7.7 24.3 24.3 0 01.5-5c.8-2.7 2.7-5 2.5-7.8a2 2 0 01.1-1.2 1.6 1.6 0 011-.5 16.3 16.3 0 014.7-1.2 5.6 5.6 0 014.4 1.8c.7.8 1.2 2 2.2 2.3a3.4 3.4 0 001.5 0c2.5-.2 5-.5 7-2a8.7 8.7 0 002.9-6.5c0-.9-.4-1.8 1-2 1 0 1.9 1 2.4 1.7 2 2.7 4 5.4 4.7 8.6a2.5 2.5 0 011-.2 3.9 3.9 0 013.1 1.6 6.3 6.3 0 01.9 4.3z" fill="#514e7f"/><path d="M566.8 415.5c-.5 3.6-2.7 6.6-5.1 9.2s-5.3 4.8-7.2 7.8c-2.4 3.7-3.5 8.2-6.6 11.3a18.1 18.1 0 01-4 2.9 28 28 0 01-5.2 2.3 38.4 38.4 0 01-14.5.8 13 13 0 01-4.6-.9 14 14 0 01-2-1.1 9.2 9.2 0 01-3-3 7.3 7.3 0 013-.8c2.2.2 3.8 2.2 5.8 2.8 3 1 6-1.2 9-1.9 1.9-.4 4-.3 5.9-1a14.7 14.7 0 004.3-2.6 22.4 22.4 0 004.7-4.5 29 29 0 002.8-5.5 78.5 78.5 0 015.5-10.7 7.5 7.5 0 011.2-1.5c.4-.4 1-.7 1.5-1 2-1.6 2.8-4 3.5-6.5a11.3 11.3 0 01.8-2.2 3.9 3.9 0 013.2 1.7 6.3 6.3 0 011 4.4z" fill="#464353"/><path d="M357 103.8a21.2 21.2 0 016 7c1.5 2.7 9.6 24 9 27 2.7-2.6 13-3 15.7-5.7 1.2-1 7.1-6.6 8-8s7.6-4 8.4-5.3c2.7-4.9-19.4-23.4-16.6-28.2a1.3 1.3 0 00.3-.8 1.2 1.2 0 00-.4-.6c-1.8-1.8-4.2-3-6.4-4.3s-4.3-3.3-4.9-5.8a21 21 0 00-5.6 3.8q-6.1 5.2-12 10.6c-1.5 1.4-4.5 3.3-5.2 5.3-.8 2.2 2.3 3.8 3.8 5z" fill="#a1616a"/><path d="M392.8 95.9a65 65 0 00-9.4 7.7 18.8 18.8 0 00-6 9.7c-.3 1.5-.3 3-.5 4.5-1 6.5-6.6 11.3-9.1 17.5a30.3 30.3 0 00-1.6 5.8 69.2 69.2 0 00-1.2 11.5c0 3.7 3.6 6.3 5 9.8s1.7 7 2.3 10.6a126 126 0 006 19.7c5 13.6 21 51.3 25.9 65 15-3.9 55.3-12.6 68.7-20.6 4.4-2.6-31-32.7-26.2-34.7a1.8 1.8 0 001.3-2.5c-4.7-20.9-19.7-38-26.4-58.3-2.4-7-6.6-13.1-9.8-19.8-2.9-6-4.4-12.8-8-18.6a11.7 11.7 0 00-2.4-3.1 15 15 0 00-2.8-1.7c-2-1-3.9-1.5-5.8-2.5z" fill="#514e7f"/><circle cx="357.9" cy="77.8" r="23.6" fill="#a1616a"/><path d="M382 88.9a8 8 0 018.8-1.3c1.6.8 3 2.5 2.7 4.3l11.7.1a23.6 23.6 0 015.6.5 8 8 0 014.6 3c.1.1.3.4.5.4a.9.9 0 00.6-.2 10.2 10.2 0 015.8-1c6.4.4 12.2 3.6 17.2 7.6a5.5 5.5 0 012 2.5c.4 1.3 0 3 1 3.9 0 11 3.8 21.3 6.3 32 .4 2 2.3 3.6 3.5 5.1a20.6 20.6 0 013.8 5.7c2.2 5.5-.8 12 1.3 17.6.9 2.4 2.6 4.3 4 6.4a16.4 16.4 0 013.4 8.2v4a24.2 24.2 0 001 5.3l2.7 9.7c1.5 5.2 3.5 10.8 8.2 13.5-11.3 2-23.1 3.8-33.9 0a17.5 17.5 0 01-4.2-2.2c-3.9-2.8-5.7-7.5-7.4-12-1.9-5-3.7-10-4.1-15.3a17.7 17.7 0 00-.7-5c-1.1-3-4-4.7-6.7-6.3a31.9 31.9 0 01-8-6.2 12.4 12.4 0 01-3.2-9.4c.2-1.6.8-3.2.9-4.9s-.7-3.5-2.3-4c-8.2-2.4-12-12.1-13.9-20.5a66 66 0 01-1-13.1l-.2-8.5a11.3 11.3 0 01-3.6-8.1 9.6 9.6 0 000-2.7 7.4 7.4 0 00-2-2.9A25.4 25.4 0 01382 89zM356.8 115.9c-.3 2.6.3 5.3-.3 8-.2 1-.6 2-1 2.9a17.2 17.2 0 001.2 11.1 62 62 0 005.6 9.8 16 16 0 011.9 3.5 17.6 17.6 0 01.7 3.9 120.8 120.8 0 002.8 15.7c1 4.4 13.8 42.7 16.8 46.3a3.8 3.8 0 002.2 1.5 4.2 4.2 0 002-.4l6-2.3a4 4 0 001.4-.7 3.6 3.6 0 00.8-2.4c.5-4.9-12.3-43.4-14-48-4.8-14-11.3-27.4-14.5-41.8-1-4-1.4-10.1-4.3-13.3-1.2-1.4-.8-.8-2.3-.1a16.4 16.4 0 00-2 1.1 7 7 0 00-3 5.2z" fill="#464353"/><path d="M375 142.3l4.9 25.5 23.5-6.1c.2-2.5-1.2-4.8-2-7-2.2-5.4-2.2-11.4-4-16.9-1.3-4.2-3.5-8-4.8-12.3-.7-2.5-1-5-1.7-7.5a54.4 54.4 0 00-2.8-7.1 44.8 44.8 0 00-5.1-9.5c-3 1.1-6.2 2.4-8 5.1a11 11 0 00-1.4 5c-.4 5.3 1.5 10.6.9 15.8a46.5 46.5 0 00.5 15z" fill="#ca313c"/><path d="M403.8 255.5c1.3 5-.6 10.3-2.2 15.2a117.9 117.9 0 00-4.8 23 19.8 19.8 0 01-1.2 5.7c-.7 1.7-2 3-2.8 4.7a23.5 23.5 0 00-1.8 14c.3 3.2.8 6.3 1.5 9.4.7 3.8 1.7 7.8.6 11.5 1.8-.4 3.1 2 3 3.9s-.7 4 .2 5.6c2.3.8 2.3 4 2.2 6.4a54.3 54.3 0 001.6 12.6q5.2 25.1 11 50.1c8.5 2.6 18.4 5.4 26.5 1.7 1.5-.6 3-1.7 3.3-3.3a5.9 5.9 0 00-.3-2.6l-3.8-14c-1-3.3-1.9-6.7-1.4-10.2.4-2.6 1.5-5.3.2-7.6-.4-.8-1-1.4-1.6-2.1-2-3-1-6.9-.8-10.4a8.2 8.2 0 00-.1-2.4 11.9 11.9 0 00-1.2-2.6 40 40 0 01-4.4-19.9 5 5 0 00-.3-2.6 8.4 8.4 0 01-.7-1 2.9 2.9 0 01.2-2 17.5 17.5 0 01-3-3 4.3 4.3 0 00.7-6.7 2.3 2.3 0 001-3.8c-.4-.4-1-.5-1.4-1-.6-.8-.1-1.8.3-2.6l2.3-4.2c1.8-3.1 2.2-7 4-10a75 75 0 006.2-14l6.7-18.6 4.6 3.9a14.3 14.3 0 013.7 4.2 18.3 18.3 0 011.2 5.1c1.7 10 8 18.8 10.3 28.8.6 2.2 1 4.5 2.2 6.4a14 14 0 011.2 1.8 9.8 9.8 0 01.5 3 14.2 14.2 0 006 10.3c2.2 1.5 5 2.5 6.2 5a9.3 9.3 0 001 2c1.1 1.4 3.4 1.5 3.9 3.2.3.9-.2 2 .3 2.8a2.6 2.6 0 001.1.8l6.5 3.3c7.3 3.6 11 12 16.4 18a39 39 0 014.9 6.5c2.3 4.2 3.4 9.4 7.3 12a11 11 0 012.8 2.1c1.3 1.7.8 4 1 6s1.6 4.4 3.5 3.8a14.2 14.2 0 000 7.6 38 38 0 0023-9.4c2-1.6 3.8-3.8 3.8-6.3a2.3 2.3 0 00-.2-1.2 3.6 3.6 0 00-1.5-1.1c-6.1-3.3-8-11-11-17.2-2.7-5.5-6.7-10.2-10-15.3-7.3-11-12.2-24.2-23.1-31.4-2.5-1.6-5.3-3-6.5-5.6-.6-1.5-.7-3.2-1.2-4.7s-1.8-3-3.5-3c1-2.2.8-4.9.8-7.3a9.2 9.2 0 00-.3-3.1 15.2 15.2 0 00-1.7-3.1 29.7 29.7 0 01-4-16c0-2.9.5-5.9-.4-8.6-.4-1.4-1.2-2.7-1.7-4a25 25 0 01-1.2-7.6l-.6-9.6a47.3 47.3 0 00-1.3-9.5c-2-7.4-4-38.7-10.8-42.2s-18.7 20.5-26.4 21a34.3 34.3 0 00-10 2c-5 1.9-9.4 5.4-13.6 9l-14.2 11.8c-3 2.5-5.4 4.9-8.8 6.6zM335.7 51.5c3.1-4.3 8.5-6.5 13.8-6.7s10.4 1.4 15.2 3.8a18.8 18.8 0 004.4 1.8c2.5.5 5.3-.2 7.5 1 3 1.6 3.6 5.7 3.4 9s-1 7.1.9 10a23.1 23.1 0 011.7 2.6c.8 1.8.3 3.8-.2 5.6-1.1-1-1.8-2.5-2.8-3.7s-2.9-2-4.2-1-1.2 2.4-1.3 3.8-.4 3.1-1.8 3.6a2.9 2.9 0 01-3-1.2c-2.3-2.8-1.3-7.2-3.6-10-1.3-1.7-3.4-2.4-4.6-4.1-1-1.3-1.2-3-2-4.4s-2.8-2.5-4-1.5a5.4 5.4 0 00-1.1 1.4 6.2 6.2 0 01-7.3 2.2 12.2 12.2 0 00-3.2-1.4 4 4 0 00-3.6 2 7.8 7.8 0 00-1 4.2c0 2 .4 4.2-.8 5.8a6 6 0 01-1.6 1.5c-1.6 1-4 1.8-5.5.5a4.2 4.2 0 01-1.2-3.8 31.4 31.4 0 011.1-4.1c1-3.1-.2-6.6.7-9.6a30.4 30.4 0 014-7.3z" fill="#464353"/><path d="M348.4 122a3.6 3.6 0 00.2 2.2 3.5 3.5 0 001.2 1.1 24.3 24.3 0 0011.1 3.7 3.4 3.4 0 011.5.4c1 .6 1 2 .7 3a8 8 0 00-.7 3.4c.3 2 2.8 3 4.8 3.3 3 .3 6.2.1 8.5-1.7a13 13 0 003.5-5.2c5.7-13.2 7.7-27.8 13.6-41a8.7 8.7 0 00.8-2.7 2.7 2.7 0 00-1-2.5c-1.1-.7-2.8-.3-3.5-1.3-.4-.6-.4-1.3-.7-1.8-.7-1.2-2.4-1-3.6-1.7-1-.5-1.6-1.6-2.7-1.8a3.3 3.3 0 00-2.7 1.2c-3.4 3.2-5.2 7.7-7 12a140 140 0 01-10.2 18.8c.4-.7-2.2-6-3.2-6.2-1.8-.4-4.1 2.8-5 4a25.2 25.2 0 00-5.6 12.8z" fill="#ca313c"/><path d="M384.7 82a4.8 4.8 0 00-3.7 2c-1 1.3-1.3 3.2-1.6 5a43.5 43.5 0 01-5.9 15.8M389.8 86a5.7 5.7 0 00-4.9 3 16.4 16.4 0 00-1.2 5 27.1 27.1 0 01-4.8 10.3" opacity=".1"/><path d="M627.4 281.6v-12.4a34.5 34.5 0 00-34.4-34.5H102.5A34.5 34.5 0 0068 269.2V292z" fill="#33323d"/><path d="M239 220.1s-1.5 86.9 14 115.5 22 152.9 22 152.9 161.4 16.7 273.9-20 351.9-51.7 351.9-51.7l-40.4-272s-199.3-12.7-312.6 41.4-308.9 34-308.9 34z" fill="#8dd070"/><path d="M239 220.1s-1.5 86.9 14 115.5 22 152.9 22 152.9 161.4 16.7 273.9-20 351.9-51.7 351.9-51.7l-40.4-272s-199.3-12.7-312.6 41.4-308.9 34-308.9 34z" opacity=".1"/><path d="M274.7 251.9s-5 71.6 7.6 94.5 13.2 125.2 13.2 125.2 145.3 6.7 248.7-28.5 320.5-58 320.5-58L840 162.8s-179.7-1.9-284.5 47.6S274.7 252 274.7 252z" fill="#8dd070"/><ellipse cx="628.3" cy="440.3" rx="37.7" ry="80.9" transform="rotate(-7.1 -366.4 1062.1)" opacity=".1"/><path d="M751.1 12.4s-193.6 49-284.9 135.3-283.5 127-283.5 127 25.4 83.2 48.8 105.6 67.8 138.8 67.8 138.8S458.1 485.5 554 416s319-157.2 319-157.2z" opacity=".2"/><path d="M179.8 262.3s25.3 83.1 48.7 105.6 67.9 138.8 67.9 138.8S455.2 473 551 403.6s319-157.2 319-157.2L748.2 0S554.6 49 463.3 135.3s-283.5 127-283.5 127z" fill="#8dd070"/><path d="M179.8 262.3s25.3 83.1 48.7 105.6 67.9 138.8 67.9 138.8S455.2 473 551 403.6s319-157.2 319-157.2L748.2 0S554.6 49 463.3 135.3s-283.5 127-283.5 127z" opacity=".1"/><path d="M223.5 281.6s17.2 69.7 36.3 87.6 51 115 51 115 140.4-38.1 228-103.3S826 227.4 826 227.4L734.3 23.3S562.7 76.6 478.1 156 223.5 281.6 223.5 281.6z" fill="#8dd070"/><ellipse cx="585.8" cy="384" rx="37.7" ry="80.9" transform="rotate(-25 276.7 515.7)" opacity=".1"/><path d="M640.7 293.8v345a29.8 29.8 0 01-29.9 29.8h-513A29.8 29.8 0 0168 638.8V259c14.7 5.5 14.7 5.5 29.8 5h513a29.8 29.8 0 0129.9 29.8z" opacity=".1"/><path d="M640.7 298.2v345a29.8 29.8 0 01-29.9 29.8h-513A29.8 29.8 0 0168 643.2V263.4c14.7 5.4 14.7 5.4 29.8 5h513a29.8 29.8 0 0129.9 29.8z" fill="#504f60"/><path d="M639.2 425.7V536h-107a55.2 55.2 0 010-110.3z" opacity=".1"/><path d="M640.7 422.8V533h-107a55.2 55.2 0 010-110.3z" fill="#33323d"/><circle cx="538.8" cy="480.9" r="21.5" opacity=".1"/><circle cx="540.3" cy="478" r="21.5" fill="#ca313c"/><path d="M826.4 421.8c.9 9.2-6.1 18.2-4 27.2.4 2 1.2 3.7 1.5 5.7.8 5.3-2.4 10.4-5.4 14.9L792.3 508a23.9 23.9 0 01-3.7 4.7c-5 4.4-12.6 4-19.1 5.3a32.6 32.6 0 00-12.8 5.7.8.8 0 00-.2 1 11 11 0 009.6 4.5c.6 1 0 2.3-1 3-1.5 1-3.4 1.2-3.7 3.5a4 4 0 00.5 2.4 7.5 7.5 0 004.6 3.2c9 2.8 18.9-2 25.7-8.7s11.6-15 18.3-21.7c3.7-3.8 7.9-7 11.7-10.6 7.5-7.2 13.4-16 19.1-24.8 1.7-2.6 3.4-5.4 4.2-8.4s.3-6.2 1.2-9.2c1-3.9 3.9-7 6.2-10.2 4.7-6.4 7.8-14.3 7.2-22.1s-5.5-15.7-13-18.4a11.5 11.5 0 00-7.2-.4c-3 1-5.3 3.4-7.4 5.8l-5 5.8a13.5 13.5 0 00-2.9 4.4 4.6 4.6 0 001 4.9" fill="#fbbebe"/><path d="M826.4 421.8c.9 9.2-6.1 18.2-4 27.2.4 2 1.2 3.7 1.5 5.7.8 5.3-2.4 10.4-5.4 14.9L792.3 508a23.9 23.9 0 01-3.7 4.7c-5 4.4-12.6 4-19.1 5.3a32.6 32.6 0 00-12.8 5.7.8.8 0 00-.2 1 11 11 0 009.6 4.5c.6 1 0 2.3-1 3-1.5 1-3.4 1.2-3.7 3.5a4 4 0 00.5 2.4 7.5 7.5 0 004.6 3.2c9 2.8 18.9-2 25.7-8.7s11.6-15 18.3-21.7c3.7-3.8 7.9-7 11.7-10.6 7.5-7.2 13.4-16 19.1-24.8 1.7-2.6 3.4-5.4 4.2-8.4s.3-6.2 1.2-9.2c1-3.9 3.9-7 6.2-10.2 4.7-6.4 7.8-14.3 7.2-22.1s-5.5-15.7-13-18.4a11.5 11.5 0 00-7.2-.4c-3 1-5.3 3.4-7.4 5.8l-5 5.8a13.5 13.5 0 00-2.9 4.4 4.6 4.6 0 001 4.9" opacity=".1"/><path d="M846.3 659a30.3 30.3 0 01-19.5 2.8c-1.1-.1-2.4-.2-3 .6-1 1.2.1 3 1.4 4a28.9 28.9 0 0013.3 5.5 88.2 88.2 0 0013.1.8c12 .2 24 .4 35.8-1.3a5 5 0 002-.5 3.7 3.7 0 001.5-2.3c.8-3-.7-6.4-3-8.5s-5.5-3.3-8.4-4.5l-10.4-4c-2.5-1-6.4-3.5-9-3.3-5 .3-9.7 8.2-13.9 10.6z" fill="#3f3d56"/><path d="M846.3 659a30.3 30.3 0 01-19.5 2.8c-1.1-.1-2.4-.2-3 .6-1 1.2.1 3 1.4 4a28.9 28.9 0 0013.3 5.5 88.2 88.2 0 0013.1.8c12 .2 24 .4 35.8-1.3a5 5 0 002-.5 3.7 3.7 0 001.5-2.3c.8-3-.7-6.4-3-8.5s-5.5-3.3-8.4-4.5l-10.4-4c-2.5-1-6.4-3.5-9-3.3-5 .3-9.7 8.2-13.9 10.6z" opacity=".1"/><path d="M853.5 520.9c-4.3 5.7-8.8 12.4-7.7 19.5.6 3.8 2.7 7.2 4.3 10.8a76 76 0 014.4 15.1c1.6 7.6 3.2 15.1 4.2 22.8 1.1 8.6-4.2 33.7-4.7 42.4 0 2-.3 4.4-1.8 5.9-.6.6-1.3 1-1.6 1.8a3.2 3.2 0 00.4 2.2c2.4 5.5 7.4 9.6 13 12s19 6.4 25 6.6a5 5 0 002.4-.3 4.6 4.6 0 001.8-2.1c4.4-8.4.2-38 .2-47.3.1-7.9 2-15.6 1.6-23.5-.3-6.2-2-12.4-2.5-18.6-1-10.3.8-20.6 2.7-30.7 1.5-7.8 3-15.6 4.8-23.3 1-4.7 2.4-9.4 5-13.5 2-3.2 4.8-6 7.1-9a40.6 40.6 0 008-29.7 78 78 0 00-16.3 4.3 50.8 50.8 0 00-14.5 9.4c-3.5 3.3-6.2 7.6-9.2 11.3q-6.4 7.8-12.6 15.7-7.1 9-14 18.2z" fill="#464353"/><path d="M853.5 520.5c-4.3 5.8-8.8 12.4-7.7 19.5.6 3.9 2.7 7.3 4.3 10.8a76 76 0 014.4 15.2c1.6 7.5 3.2 15.1 4.2 22.7 1.1 8.7-4.2 33.7-4.7 42.4 0 2.1-.3 4.4-1.8 6-.6.5-1.3 1-1.6 1.8a3.2 3.2 0 00.4 2.2c2.4 5.5 7.4 9.6 13 12s19 4.5 25 4.7a5 5 0 002.4-.3 4.5 4.5 0 001.8-2.1c4.4-8.3.2-36 .2-45.4.1-7.9 2-15.6 1.6-23.5-.3-6.2-2-12.4-2.5-18.6-1-10.3.8-20.6 2.7-30.7a449 449 0 014.8-23.3c1-4.7 2.4-9.4 5-13.5 2-3.2 4.8-6 7.1-9a40.6 40.6 0 008-29.7 78 78 0 00-16.3 4.3 51 51 0 00-14.5 9.4c-3.5 3.2-6.2 7.6-9.2 11.3q-6.4 7.8-12.6 15.7-7.1 9-14 18.1z" opacity=".1"/><circle cx="805.4" cy="369.7" r="24.3" fill="#fbbebe"/><path d="M827.2 368.7a31.4 31.4 0 0020.2 14l-1.9 6.7c-3.1 11.4-6.7 23.5-15.5 31.4 1-3.8-.3-8-2.5-11.3s-5.2-6-8.2-8.6l-14-12.1a4.2 4.2 0 01-1-1.2 3.5 3.5 0 010-2.7c1.8-5.5 6.9-9 11-12.7a38.1 38.1 0 005.6-6.4c2.8-4 4.5 0 6.3 3z" fill="#fbbebe"/><path d="M773.4 345.3l-.6-4.5c3.9 1 7.5-2.3 10-5.7s4.7-7.3 8.4-8.7c4.5-1.7 9.3 1 13.7 3.3a43.2 43.2 0 0015.6 5 10.3 10.3 0 012.6.5c2.8 1 4.2 4.5 4.6 7.7s.3 6.7 1.7 9.5c1 2.2 2.9 3.8 4 6 3 5.7 0 13.5 3.2 19.2l-7.8-7.2c-.7-.6-1.7-1.3-2.5-.7-.6.4-.6 1.3-.9 2.1-.7 2.2-3.5 2.9-5.5 2s-3.5-2.8-5-4.5c-3.5-4-7.6-7.7-12.4-9.4a15.8 15.8 0 00-13 .9c-3.6 2-6.3 6.8-10.7 7-6.1.2-8.6-11.2-11.5-15.7a5.5 5.5 0 001.6-6.8c.4-.2 4.4-.7 4.5 0z" fill="#464353"/><path d="M473.2 203.4a47.2 47.2 0 00-5.4 5.7 11.3 11.3 0 00-2.5 7.3 3.7 3.7 0 00.7 2.1 1.8 1.8 0 002 .6 2.7 2.7 0 001-.9 48.3 48.3 0 013.4-3.6c.4-.4 1-.9 1.6-.7a1.7 1.7 0 01.6.4 4.6 4.6 0 011.5 2.2c.3 1.6-.6 3-1.6 4.3s-2.2 2.3-2.6 3.8a1.7 1.7 0 000 1.3 1.9 1.9 0 00.8.6 11.2 11.2 0 009.4.7c2-.8 3.8-2.2 5.9-3a13.5 13.5 0 002.5-1 5.4 5.4 0 002.3-3.4 14.1 14.1 0 00.2-4.2 48.4 48.4 0 00-3.5-15.8 2 2 0 00-.5-.9 1.9 1.9 0 00-1-.2c-2.6-.3-6.8-1.6-9.3-.7a6.5 6.5 0 00-2.2 2c-.4.5-3.3 2.8-3.3 3.4z" fill="#a1616a"/><path d="M472.4 201.2c0-2.5-3-8.3 1.8-8.7 0-2.6-3.7-4.3-3-7 .2-1 1-1.7 1-2.6.4-2.7-4.5-4.2-3.7-6.7.3-1 1.4-1.6 1.6-2.6.6-2.3-3.6-3.3-3.7-5.7 0-.8.5-1.6.5-2.4 0-1-1-1.7-1.4-2.6-1.2-2.2-.6-5.7-3-6.8 1.6.1 2-2.1 1.5-3.5s-2-2.6-2-4a6.2 6.2 0 000-1.7c-.4-1.5-2.7-1.6-3.1-3a12.8 12.8 0 010-1.7c-.3-1.1-1.4-1.8-2.5-2.1a9.8 9.8 0 01-3.2-1.2c-.7-.5-1.5-1.4-2.3-1l-.6.7c-1 1-2.6.6-3.8-.1-3.3-2.3-5-6.4-5.7-10.4s-.7-8-1.6-12a25.6 25.6 0 00-1-3.6c-.4-1-1.6-2.5-1.7-3.5-.2-2.3 4.6-.8 6.4-.5a28.5 28.5 0 015.2 1 55.5 55.5 0 015.3 2.3c7.2 3.2 16 3.6 21.7 9 2 1.7 3.5 4 6 4.8a27.1 27.1 0 013.4.9c2.7 1.3 3.2 5 4.7 7.5a14.9 14.9 0 011.2 2.3 8.5 8.5 0 01.4 2.7l.2 7c.3 11.6.7 23.2-.6 34.8-.4 3.8-1 7.7.2 11.4l1 3a18 18 0 01.3 3.5l.2 4.5a1.4 1.4 0 01-.2 1 1.4 1.4 0 01-1.2.3c-6.3-.6-12.6-4-18.5-2" fill="#464353"/><ellipse cx="757.6" cy="535.5" rx="74" ry="10.7" fill="#504f60"/><path d="M905.7 654.2c-1.3-5.5-2.1-10.4-2.1-10.4s.3-6-2.4-10.6V620.4a38.2 38.2 0 012.8-5.8c2-3.5 0-16.4 0-16.4s-7.5-18.2-5.7-29.8-15.3-51.2-15.3-51.2a50.6 50.6 0 011.6-11.3 8.7 8.7 0 00.2-2.4v-.3c0-.1 0 0 0 0-.2-7.5-6.2-21.8-6.2-21.8l.8-27.2s3.8-16-2.5-37.5c-2.1-7.5-3.5-13.5-4.4-18.2l-.3-1.5 22.7-3.6s-7.5-31.3-12.5-36.8-9.1-22.7-9.1-22.7-2.6-22 1.6-28.5 4.9-17.6 4.9-17.6 9.7-7 10.9-10.2 3.2-10.2 3.2-13.9-1.2-7-.8-9-2.8-9.4-1.2-12.9a9.5 9.5 0 00.6-3.4 47.5 47.5 0 00-.8-9.2 26 26 0 00-9.6-5.2l-.2-.8-.6-2.2a10.7 10.7 0 00-1-.6v-4l1.5-7c3-12.5-13.6-14.4-13.6-14.4a8.8 8.8 0 00-4.7-4c-3.3-1.3-.5 18.6 1 20 1.2 1 4.8 7.1 6.5 10.2l.3.5a7 7 0 00-.7.8l.6 4.3.1.6a17.9 17.9 0 00-2.7 4.5s3 3.4 2.5 7 1 8.4 1 8.6c-.2-.2-2.3-2.5-4.5-2s-8 2.4-8 2.4-4.5.8-4 1.8-3 5.3-3 5.3l-12-11.3-.3-1a27.5 27.5 0 01-1-5 27.3 27.3 0 003.8-1.3 8.2 8.2 0 003.3-2c1.2-1.5 1.4-3.4 2-5.2.9-3.5 3-6.6 4.3-9.9a32.1 32.1 0 002.3-17.8 11.6 11.6 0 00-1.8-5.2c-2-2.7-5.5-3.7-8-5.9s-4.3-5.4-7.3-7c-2.7-1.4-6-1.3-9-.8a48.8 48.8 0 00-17 6.2c-1.7 1-3.7 2.2-5.7 1.9-1.7-.4-3-1.7-4-3a1 1 0 010-.2 1 1 0 01-.1-.2 21 21 0 00-1.9 9v2.3a2.3 2.3 0 010 .6 4.5 4.5 0 01-1.1 1.7 10.8 10.8 0 00-1 1.3l.1-.5a7.1 7.1 0 00-1.2 3.8 3.9 3.9 0 00.9 2.7 13 13 0 002 1.5 22.8 22.8 0 00-.4 4 23.1 23.1 0 0011.2 19.7l.4 1c1.6 4 2.7 8.7 2.2 13l-.1 1c-.1.3-.3.3-.5.5s-19.7.2-24.3-4-11.8 10.2-11.8 10.2-7 1.4-8.5 0-9.6-.1-9.6-.1a17.8 17.8 0 00-12.4-4.5 36.2 36.2 0 00-9-5l-.2-.1a10 10 0 00-4.4-.6s-9.7-8-12.6-12.3-16.3-20.3-16.3-20.3v-.8l-.2-2.3a8.3 8.3 0 01-1.2 0l-.3-.7a44.7 44.7 0 00-2.8-6.6s0-3 .8-3.7-.3-11.5-.3-11.5-8.8-20.4-16.6-5.2c0 0-14.8 10-2.4 21.4 0 0 5 2.4 5.7 4.3.4 1.2 2.1 4.7 3.3 7l.5 1-.2.1.2 2v.7c-2.3 1.3-3.8 2.6-3.5 3.6a21.9 21.9 0 011.5 5.3s17.1 21.5 19.4 30.7c0 0 46 27.4 61.2 29.4l-2.7 13.6a109 109 0 00-.6 11.2c.2 2.9-1.8 16.2-1.8 16.2s-2.7 19.5-4.9 22.3-1.8 14.5-1.8 14.5a98.9 98.9 0 01-3 16.6c-2.2 7.4-.6 16.6-.6 16.6s-7.7 17.6 10.7 5.7c0 0 9-.6 19.4-1v5.4c-.2 10-.2 24 .2 34.4.8 18.6 6.5 55.4 6.5 55.4v18.5a25.2 25.2 0 00-.6 5.3 34.4 34.4 0 005 18.5l1.5 12.3s3.3 8.1 3.3 13a6.8 6.8 0 010 1.2 7.9 7.9 0 00-.3 1.8c-.1 5.6 3.2 19 3.2 19s.2 13.5 2.2 14.3c1.8.7-2.3 7.8-3.5 9.8a2.8 2.8 0 010-.3l-.3.4a9.6 9.6 0 00-.6 3.4 4.9 4.9 0 002.2 4.7c3.9 2.4 6 4.3 2.7 5.1a34 34 0 00-3.6.7l-.2-.4a2.1 2.1 0 00-1.3 2.4 10 10 0 001.2 4.5c3.2 7.2 5.5 10 5.5 10l1.5-.2a7.6 7.6 0 01-.9 1.7 6.4 6.4 0 01-2.3 2 7 7 0 01-2.7 1 7.8 7.8 0 00-5.7 2.7c-2 2.6-3.3 6.2.7 9.3l14.4 5s24.9 3.2 23.5-2.3-2-10.5-2-10.5a22 22 0 00-2-9.9 12.8 12.8 0 00-1-1.5h1s1.7-12.4 4.2-14.7c.5-.6.7-1 .5-1.3.3-.7-.4-1-1.2-1.3l-.2.5a11.8 11.8 0 00-2.4-.3s-.8-6.4 1.9-8.8a2.5 2.5 0 00.5-1.9 10.3 10.3 0 00-.3-2.6 1.3 1.3 0 01-.1.2c-1.3-6-5.8-15.2-5.8-15.2s-.2-5.9 1.4-8.2-.2-32-.2-32 .6-14.2-1.2-20.8 2.2-14.5 2.2-14.5v-.5l-.2-2.3a.6.6 0 000 .2c-.4-3.8-1.2-10.7-1.8-13.8-.8-4.5.2-26 .2-26l3.7-9.2 6.4 15.8 7 21.1s3.3 4.5 3.4 9v.7a11.5 11.5 0 000 1.4 12.6 12.6 0 002 7.5s1.8 10 4.7 12.6 2.8 7.4 2.8 7.4 3.4 14.5 5 17c1.3 2.1 1.4 8 1.4 9.8v.5s.5 5.2.5 9.5v1.6a.4.4 0 000-.1 15 15 0 01-.5 3.5V583.6a36.8 36.8 0 00-1 9c0 5.2.8 11.3 3.9 15 5.5 6.2 8.9 5.5 8.9 5.5s-2.6 7.8-5.9 9.3a1.5 1.5 0 00-.3.3v-.5a3.8 3.8 0 00-1 3c-.3 3.4 1.9 9 4 11.5a6.5 6.5 0 002.6 1.6 4.3 4.3 0 01-.5.3 10.9 10.9 0 01-1 .6 5.8 5.8 0 01-1.7.4 7.7 7.7 0 00-5.7 2.8c-2 2.6-3.3 6.1.7 9.2l14.4 5s24.7 3.2 23.4-2.4z" transform="translate(-84.5 -118.2)" fill="url(#a)"/><path d="M726.3 545.3l-14-5c-3.8-3.2-2.6-6.7-.7-9.3a7.5 7.5 0 015.6-2.8 6.6 6.6 0 002.7-1 6.4 6.4 0 002.2-2 10.3 10.3 0 001.6-5.4s15.3-4.5 19.5 0a11.4 11.4 0 011.9 2.8 22.9 22.9 0 012 9.9s.8 4.8 2 10.4-22.8 2.4-22.8 2.4zM794.8 538.4l-14-5c-3.9-3.2-2.7-6.7-.7-9.3a7.4 7.4 0 015.5-2.8 5.2 5.2 0 001.6-.4 10.6 10.6 0 001.1-.6c4-2.1 3.8-7.4 3.8-7.4s15.4-4.5 19.6 0a11 11 0 011.4 2c2.7 4.6 2.4 10.6 2.4 10.6s.8 5 2 10.5-22.7 2.4-22.7 2.4z" fill="#2d293d"/><path d="M743.2 519.8a11.4 11.4 0 011.9 2.7l-23 2.7a10.3 10.3 0 001.6-5.4s15.3-4.5 19.5 0zM813.2 515v4.2c-3.6 6-21 4.6-26 1.7a10.6 10.6 0 001.1-.5c4-2.2 3.8-7.5 3.8-7.5s15.4-4.5 19.6 0a11 11 0 011.5 2z" opacity=".1"/><path d="M815.9 496.4a39.2 39.2 0 00-2.7 5.8v15.5c-4 6.4-24.3 4.3-27 .7s-5.7-12.6-2.6-14.2 5.7-9.4 5.7-9.4-3.3.8-8.6-5.5-3.7-20.1-2.7-23.5 0-14.4 0-14.4.2-7.9-1.4-10.4-4.9-17-4.9-17 0-4.9-2.7-7.4-4.5-12.5-4.5-12.5a12.8 12.8 0 01-2-8.5c.6-4.8-3.3-10.1-3.3-10.1l-6.7-21.2-6.2-15.8-3.5 9.2s-1 21.5-.2 26 2 16.4 2 16.4-4 7.8-2.2 14.5 1.1 21 1.1 21 1.8 29.5.2 31.8-1.3 8.2-1.3 8.2 8 17.2 5.4 19.6-1.7 8.8-1.7 8.8 5.5 0 3.1 2.3-4.1 14.7-4.1 14.7l-23.7 2.8s-2.1-2.8-5.2-10 .5-6.5 3.7-7.3 1.2-2.7-2.6-5-1.5-7.7-1.5-7.7 5.6-9.6 3.7-10.3-2.2-14.3-2.2-14.3-3.9-16-2.9-20.4-3.1-14.6-3.1-14.6l-1.4-12.3a33.9 33.9 0 01-4.3-23.3v-19s-5.5-36.8-6.3-55.4c-.5-11.9-.3-28.1-.2-38.2l.2-9.5 84.5-8.8s0 4 1.6 12.6c.8 4.6 2.2 10.6 4.3 18.1 6 21.5 2.3 37.6 2.3 37.6l-.7 27.2s7.4 18.1 5.8 24.4a52.1 52.1 0 00-1.6 11.4s16.7 39.7 14.9 51.2 5.5 29.7 5.5 29.7 2 13 0 16.5z" fill="#464353"/><path d="M767.6 394.5l25.7-3.5s-14.6 15-25.7 3.5zM789.6 366s.9 9-4.7 12.4c0 0 10-1.5 4.7-12.5zM788 337s-21.5 17.7-29.3 16.2S788 337 788 337zM735.7 402.8s-16.3 3.7-16.8 10.2 16.8-10.2 16.8-10.2zM739.3 484.3s-23 4.3-16.5 7.3 17.3 5.2 17.3 5.2 7.4.4-.8-12.5z" opacity=".1"/><g opacity=".1"><path d="M718.1 496.2a4.5 4.5 0 01-2-3.3l-.3.4s-2.2 5.3 1.5 7.6l1.2.8 2.2-.4c3.1-.8 1.1-2.7-2.6-5zM747.8 494.6c.7-.5.7-2 .3-4-1 1.6-1.3 4-1.3 5.7a4.9 4.9 0 011-1.6zM744.3 397.4a26.7 26.7 0 00-1.6 7.2 29 29 0 011.8-5zM797.1 387.1a9.2 9.2 0 00.2-2.1 57 57 0 00-.6 4l.4-1.9zM743.7 466.9c.4-.5.5-2.1.6-4.4a14.8 14.8 0 00-1.1 5.5 5.3 5.3 0 01.5-1.1zM748.5 503.8a77.6 77.6 0 00-2.7 12l-23.6 2.7s-2.2-2.7-5.3-10a18.1 18.1 0 01-.7-1.7c-1.4.6-2 2.1 0 6.4 3 7.2 5.2 10 5.2 10l23.7-2.8s1.7-12.3 4-14.6c1.3-1.2.5-1.7-.6-2zM717.3 468.6s.2 13.5 2.2 14.3c1-2.2 1.6-4.3.8-4.7-2-.8-2.2-14.3-2.2-14.3s-3.9-16-3-20.3-3-14.7-3-14.7l-1.4-12.3a33.9 33.9 0 01-4.3-23.3v-19s-5.5-36.7-6.3-55.3c-.5-11.9-.3-28.1-.2-38.3l.1-4.8h-.7l-.2 9.5c-.1 10.2-.3 26.4.2 38.3.8 18.6 6.3 55.3 6.3 55.3v19a34 34 0 004.3 23.3l1.4 12.3s4 10.4 3 14.7 3 20.4 3 20.4zM787 513.2a22.9 22.9 0 01-3.8-9.3c-2.4 2.2.4 10.7 3 14 2.7 3.6 23 5.7 27-.7v-3.8c-5.3 5.3-23.7 3.2-26.2-.2zM816.7 491.1a39.5 39.5 0 00-2.8 5.9v2.8l2-4a12 12 0 00.9-4.8l-.1.1zM788.2 494.2a38.7 38.7 0 001.9-4.6s-3.3.8-8.6-5.5c-3.9-4.6-4-13.2-3.5-18.8-1 3.4-2.6 17.2 2.7 23.5 3.4 4 6 5.2 7.5 5.4zM778 450.9a104.2 104.2 0 01.3 11.5 15.8 15.8 0 01.4-1.8c1-3.3 0-14.4 0-14.4s.2-7.9-1.3-10.4-4.9-17-4.9-17 0-5-2.7-7.5-4.5-12.5-4.5-12.5a12.9 12.9 0 01-2-8.4c.6-4.9-3.3-10.2-3.3-10.2l-6.7-21-6.2-16-3.6 9.3v3l2.8-7.5 6.2 15.8 6.7 21.1s3.9 5.3 3.3 10.2a12.9 12.9 0 002 8.4s1.8 10 4.5 12.5 2.7 7.5 2.7 7.5 3.4 14.4 5 17 1.3 10.3 1.3 10.3z"/></g><path d="M794.4 91l-1.5 7.2.1 3.2v2.3l-8.1.9-1-1.7c-1.6-3.1-5.1-9.3-6.2-10.3-1.6-1.2-4.2-21.1-1-20a8.5 8.5 0 014.5 4.2s16 1.8 13.2 14.3z" fill="#ffcdd3"/><path d="M793 103.7l-8.1.8-1-1.6a7.2 7.2 0 019-1.5z" opacity=".1"/><path d="M795.1 107.6l-10.7 2.5-.3-1.6-.6-4.3s4.3-5.7 10.4-1.5l.6 2.2z" fill="#ca313c"/><path d="M620.8 91.8L609.3 98l-1-2.2c-1-2.3-2.7-5.7-3.1-7-.7-1.9-5.5-4.3-5.5-4.3-12-11.5 2.3-21.3 2.3-21.3 7.6-15.3 16 5.1 16 5.1s1.2 10.8.3 11.5-.8 3.7-.8 3.7a45.1 45.1 0 012.8 6.6l.5 1.7z" fill="#ffcdd3"/><path d="M620.8 91.8L609.3 98l-1-2.2c1.6-1.3 7.4-6 9.3-5.8a13.8 13.8 0 002.7 0l.5 1.8z" opacity=".1"/><path d="M622 95.3l-13 6.4-.2-2.8-.2-2s7.5-6.3 9.7-6a11.8 11.8 0 003.4 0l.2 2.2z" fill="#ca313c"/><path d="M763 138.5s-56.2 6.3-45.7 3c7.3-2.5 10.3-7 10.9-12.3.5-4.3-.7-9-2.1-13a56.7 56.7 0 00-5-10.2s43-23.6 34.4-2.1A34.7 34.7 0 00753 114a28.8 28.8 0 001.2 10.3 30.7 30.7 0 008.9 14z" fill="#ffcdd3"/><path d="M755.5 103.9A34.7 34.7 0 00753 114c-4 3.5-8.5 3.2-14.2 3.2-4.4 0-9.2 1-12.7-1a56.7 56.7 0 00-5-10.2s43-23.6 34.4-2.1z" opacity=".1"/><circle cx="738.1" cy="95.5" r="23.3" fill="#ffcdd3"/><path d="M763 138.5s-56.2 6.3-45.7 3c7.3-2.5 10.3-7 10.9-12.3 2.8-3 8.4-5.2 12-6.4a16.8 16.8 0 0110.2-.2 14.5 14.5 0 013.7 1.8 30.7 30.7 0 009 14zM795.1 107.6l-10.7 2.5-.3-1.6a9.5 9.5 0 0110.4-3.6zM622 95.3l-13 6.4-.2-2.8a94.2 94.2 0 0113-5.8zM785.3 280.3c-21.8 3.5-52.8 8-57.7 6.4-4-1.2-17.1-1.1-28.5-.7l.2-9.5 84.5-8.8s0 4 1.5 12.6z" opacity=".1"/><path d="M807 275.2s-71.7 12.3-79.4 10-47.2.2-47.2.2c-17.8 11.9-10.4-5.7-10.4-5.7s-1.6-9.2.6-16.6a101.5 101.5 0 003-16.7s-.5-11.7 1.7-14.4 4.7-22.3 4.7-22.3 2-13.3 1.8-16.3.5-11.1.5-11.1l2.6-13.7c-14.7-2-59.3-29.3-59.3-29.3-2.1-9.2-18.7-30.7-18.7-30.7a22.6 22.6 0 00-1.4-5.3c-1.2-3.1 16.4-9.4 16.4-9.4s13.1 16 15.9 20.3 12 12.4 12 12.4a9.4 9.4 0 014.4.5h.2a34.9 34.9 0 018.8 5 17 17 0 0111.9 4.6s8-1.2 9.4.2 8.2 0 8.2 0 6.8-14.5 11.3-10.3 23.6 4 23.6 4c2.6-3.4 8.7-5.8 12.6-7a17 17 0 0110.2-.2 13 13 0 014 2l11.6 11.4s3.3-4.3 3-5.3 3.9-1.8 3.9-1.8l7.8-2.3c2.2-.6 4.1 1.7 4.3 2 0-.3-1.6-5-1-8.7s-2.4-7-2.4-7C788.5 97 804 111 804 111s1.8 9.2.2 12.7 1.6 11 1.2 13 .8 5.2.8 9-2 10.7-3.1 13.8-10.6 10.2-10.6 10.2-.6 11.1-4.7 17.6-1.5 28.5-1.5 28.5 3.9 17.2 8.8 22.7 12 36.7 12 36.7z" fill="#3f3d56"/><path d="M702.5 146.5s-2.2-6.5-4.1-7a45.2 45.2 0 01-5.7-2.5l1.2-2.5s7.4 2 8.6 4.2 0 7.8 0 7.8zM663.2 132.2c-.4 2-17.8 3.7-17.8 3.7l8.8-8.8h.2a34.9 34.9 0 018.8 5.1z" opacity=".1"/><circle cx="612.8" cy="105.4" r="1.6" fill="#575988"/><circle cx="614.8" cy="108.5" r="1.6" fill="#575988"/><circle cx="616.8" cy="111.4" r="1.6" fill="#575988"/><circle cx="618.8" cy="114.5" r="1.6" fill="#575988"/><circle cx="803.1" cy="114.3" r="1.3" fill="#575988"/><circle cx="803.4" cy="117.2" r="1.3" fill="#575988"/><circle cx="803.5" cy="120.1" r="1.3" fill="#575988"/><path d="M702.5 199.5c-.2-.2 44 55.4 78.2 23.3 0 0-54 7.3-78.2-23.3zM677.2 228.4s26.4.8 29.2 8.3v8a5 5 0 01-5 0c-2.6-1.5-18.5-9.6-24.2-5.7z" opacity=".1"/><path d="M677.7 228.4s25.3.7 27.9 8v7.5a4.8 4.8 0 01-4.7 0c-2.5-1.4-17.8-9.1-23.2-5.4z" fill="#3f3d56"/><path d="M691.6 171.1a84.9 84.9 0 0010.3 17.6 68.9 68.9 0 0016 15.5s-25.8-29.4-26.3-33zM683 140.5s4.4 19 15.7 25.4zM676.3 142.4c-.1-.3-4 15 14.6 23.5 0 0-7.9-2.6-14.6-23.5zM791.4 129.7c-.2 0 9.2 6 11.8 8.8 0 0-6.2-9.2-11.8-8.8z" opacity=".1"/><path d="M731.8 116.5a3.7 3.7 0 004 3.7c7 .4 14.5.7 21-2a8 8 0 003.2-2.1c1.1-1.5 1.4-3.4 1.8-5.2 1-3.5 3-6.6 4.3-9.9a33.1 33.1 0 002.3-17.7 12 12 0 00-1.8-5.2c-1.8-2.7-5.3-3.8-7.8-6s-4-5.3-7-7c-2.6-1.4-5.8-1.2-8.7-.7a46 46 0 00-16.4 6.1c-1.7 1-3.5 2.3-5.5 1.9-1.7-.3-3-1.8-4-3a21.7 21.7 0 00-1.7 10 4.4 4.4 0 010 1.6 4.6 4.6 0 01-1.1 1.6c-1.8 2-2.8 5.2-1.1 7.3.7.9 1.9 1.4 2.6 2.3 1.3 1.6.9 4 .9 6a3.1 3.1 0 00.5 2.1 3 3 0 002.9.7 7.8 7.8 0 013-.3 5.1 5.1 0 012.7 2c3.2 4.2 4.5 8.8 5.9 13.8z" fill="#2d293d"/><g opacity=".1"><path d="M760.8 114.3a8 8 0 01-3.2 2.1c-6.6 2.7-14 2.4-21 2a5 5 0 01-2.2-.5c-1-.6-1.5-2-1.8-3.1-1.4-5-2.7-9.6-6-13.8a5.1 5.1 0 00-2.6-2 8.2 8.2 0 00-3 .3 3 3 0 01-3-.7 3.1 3.1 0 01-.5-2c0-2.2.5-4.5-.8-6.2-.7-.9-1.9-1.4-2.6-2.3a4.6 4.6 0 01-.5-4.6c-1.2 2-1.8 4.5-.3 6.2.7.9 1.9 1.4 2.6 2.3 1.3 1.6.9 4 .9 6a3.1 3.1 0 00.5 2.1 3 3 0 002.9.7 7.8 7.8 0 013-.3 5.1 5.1 0 012.7 2c3.2 4.2 4.5 8.8 6 13.8a5 5 0 001.6 3.2 4.8 4.8 0 002.2.5c7.1.4 14.5.7 21-2a8 8 0 003.2-2.2 6.1 6.1 0 001-1.8l-.1.3zM715.5 80.4a3.4 3.4 0 00.7-1.2 4.4 4.4 0 000-1.5 21.7 21.7 0 011.1-8.5v-.1a21.5 21.5 0 00-1.8 10.1 7.2 7.2 0 010 1.2z"/></g><path d="M727.6 130.6s29 4 31.7-.5M784.1 118.6s16.2 0 19.7 6.1" opacity=".1"/><path d="M874.5 658.8a25.6 25.6 0 01-17.4 6.5c-1.7 0-4 .3-4 2a2.8 2.8 0 00.5 1.3 16 16 0 009 7c3.5 1.1 7.3 1 11 .7l10.6-.5c2-.1 4-.2 6-.5l6.3-1a82 82 0 0115.5-.7c1.3 0 3 0 3.8-1s.4-2.9 0-4.4c-.6-3 0-6.3-.5-9.4-1-5.5-5.7-9.6-10.9-11.6-4.8-1.8-13.3-4-17.8-.9-4.8 3.2-7.7 8.5-12 12.5z" fill="#3f3d56"/><path d="M885.1 476.5c1 4.5 5.3 7.9 5.4 12.5.1 3.6-2.5 6.7-4.4 9.8a65.8 65.8 0 00-4.4 10.1 154.6 154.6 0 01-13.2 26.1c-2.5 4-5.3 8.3-4.7 13a19.4 19.4 0 002.3 6.1l7.5 15a43.1 43.1 0 013.8 9.3c.7 2.9.7 5.8 1.1 8.7 1.2 9.1 5.5 18.3 3 27.2-.3.7-1 1.7-1.7 1.1 2.5 4.7 4.5 9.3 4.3 14.6-.1 2.7-1 5.6 0 8.2.5 1 1.2 2 1.2 3.2 0 .7-.3 1.4-.4 2.2-.2 2.1 1.7 3.9 3.7 4.5s4.2.6 6.3 1.3c3.9 1.1 6.7 4.5 10 6.8a21.3 21.3 0 0011.5 3.8 2.9 2.9 0 001.7-.4 2.8 2.8 0 001-2 11.4 11.4 0 00-4.2-10 4.5 4.5 0 01-1.5-1.6 3.9 3.9 0 01-.1-1.8 134.8 134.8 0 00-.5-24.6 37.4 37.4 0 01-.4-7.8c.2-2.2.9-4.3.7-6.5s-1.4-4.2-2-6.2c-1.2-3.8-.9-7.8-1-11.7-.2-6.7-1.8-13.4-3.3-20-.6-2.5-1.3-5.3-3.1-7.2-1.6-1.6-4.1-3.2-3.5-5.3a6.3 6.3 0 011.4-2.2 8.6 8.6 0 001.8-6.5 3 3 0 003.3-1.6 52.7 52.7 0 0026.4-30 9.9 9.9 0 011.2-2.6c1.1-1.6 3-2.3 4.8-3.2 5.5-2.7 9.3-7.9 12.7-13 2-2.8 4-5.9 5-9.3a30.7 30.7 0 00.6-6.8l.3-11.7a6.3 6.3 0 00-.2-2.3 5.8 5.8 0 00-1.3-1.9 22.6 22.6 0 00-12.5-6.7c-3.2-.6-6.4-.5-9.7-.7-6.2-.5-12.4-2.5-18.7-2a30 30 0 00-23.3 16.3c-1.7 3-3.4 5.7-6.9 5.8z" fill="#464353"/><path d="M830.3 400.1a13.1 13.1 0 01-.7 5.4c-.8 1.6-2.7 2.9-4.4 2.2.5-1.1-.8-2.4-2-2.3a4 4 0 00-2.9 2.4 8.8 8.8 0 00-.8 5.4c.4 2.3 1.8 4.5 1.4 6.8-.3 2-1.7 3.9-1 5.6a9 9 0 001.9 2.2 6.1 6.1 0 01-.7 8.4l19 .4c-.7 3.1.7 6.4 2.3 9.2a58 58 0 0043.2 28.2 3.8 3.8 0 00-.9 5.8c1.6 1.5 4.2 1.3 6.1.3s3.5-2.6 5.2-3.9a16 16 0 0110.7-2.9c2.4.3 4.7 1 7 1.2 7 .3 13-4.7 19.8-6.8 5-1.5 10.5-1.5 14.6-4.6 1.8-1.3 3.2-3.4 2.7-5.6a9.4 9.4 0 00-2-3.3c-2.3-3-3.7-6.8-5.4-10.2a61.3 61.3 0 00-13.7-18.4 122.3 122.3 0 00-13.6-10.2 23.1 23.1 0 00-3.6-2.3c-1.7-.7-3.5-1-5-2-2.3-1.4-3.5-3.8-5.2-5.8-3.8-4.4-9.6-6.4-14.2-9.8-3-2.4-5.8-5.4-9.5-6.5-1.8-.6-3.7-.6-5.5-1.1-4.1-1.3-7.1-5-11.1-6.4-3.2-1.1-6.7-.8-10-1.2a23.4 23.4 0 01-10.5-4 12.4 12.4 0 00-3.3-2c-5-1.5-5.5 8-6 11.2-.7 4.9-1.9 9.7-1.9 14.6z" fill="#ca313c"/><path d="M835.3 431.8c.8 9.2-6.1 18.1-4.1 27.1.4 2 1.2 3.8 1.5 5.8.9 5.3-2.3 10.4-5.4 14.8L801.1 518a24.2 24.2 0 01-3.7 4.6c-5 4.5-12.5 4-19.1 5.3a33 33 0 00-12.8 5.7.8.8 0 00-.2 1.1 11 11 0 009.5 4.5c.7 1 0 2.3-.9 3-1.4 1-3.3 1.1-3.6 3.5a4 4 0 00.5 2.4 7.5 7.5 0 004.5 3.2c9.1 2.8 19-2 25.7-8.7s11.7-15 18.3-21.8c3.7-3.7 7.9-6.9 11.7-10.5 7.6-7.2 13.5-16 19.2-24.8 1.7-2.7 3.4-5.4 4.1-8.4s.4-6.2 1.2-9.2c1-3.9 4-7 6.3-10.3 4.6-6.4 7.7-14.2 7.1-22s-5.5-15.7-13-18.4a11.6 11.6 0 00-7.2-.5c-3 1-5.3 3.5-7.4 6l-5 5.7a13.4 13.4 0 00-2.8 4.4 4.6 4.6 0 001 4.9" fill="#fbbebe"/><path d="M848.5 394c-3.4.1-7.2.5-9.6 3a13.8 13.8 0 00-2.5 3.8 38 38 0 00-4.8 15.2c-.1 4.2 1.1 8.4 1.8 12.7.5 3.5-.9 7-1.1 10.6A74 74 0 00846 434c2.7-1.5 5.2-3.2 8.1-4.2 4.1-1.3 11 1 15 3 .1-2.8-2-7.6-1.7-10.3a11.5 11.5 0 01.6-3.4 20.6 20.6 0 012-3.3A13.5 13.5 0 00869 400c-3.5-3.9-9-5.3-14.1-6a60.9 60.9 0 00-9.8-.3" fill="#ca313c"/></svg>