<svg xmlns="http://www.w3.org/2000/svg" viewBox="0 0 323.11 156.96" height="593.23" width="1221.19"><defs><clipPath id="b" clipPathUnits="userSpaceOnUse"><path d="M325.65 174.48a24.26 22.65 0 01-3.05-31.84 24.26 22.65 0 0134.1-2.97 24.26 22.65 0 013.3 31.82 24.26 22.65 0 01-34.08 3.2" opacity=".66" fill="#0ff" stroke="#ffc300" stroke-width="0" stroke-dashoffset="3.9"/></clipPath><clipPath id="d" clipPathUnits="userSpaceOnUse"><path d="M324.79 174.42a24.26 22.65 0 01-3.05-31.84 24.26 22.65 0 0134.1-2.97 24.26 22.65 0 013.3 31.82 24.26 22.65 0 01-34.07 3.2" opacity=".66" fill="#0ff" stroke="#ffc300" stroke-width="0" stroke-dashoffset="3.9"/></clipPath><filter height="1.02" y="-.01" width="1.01" x="-.01" id="c" color-interpolation-filters="sRGB"><feGaussianBlur stdDeviation=".09"/></filter><filter id="a" x="0" width="1" y="0" height="1" color-interpolation-filters="sRGB"><feGaussianBlur stdDeviation=".03"/></filter></defs><g transform="translate(-95.04 -8.5)" filter="url(#a)"><g font-weight="400" font-size="23.44" font-family="aliens and cows"><g clip-path="url(#b)" transform="matrix(8.19123 0 0 8.7757 -2545.3 -1284.98)" fill="#571b16" filter="url(#c)"><path d="M329.15 163.02c0 .67-.3 1.2-.88 1.59-.58.38-1.4.57-2.45.57-.5 0-.96-.05-1.37-.15a3.73 3.73 0 01-1.05-.42 2.25 2.25 0 01-.68-.68 1.81 1.81 0 01-.23-.9v-15.35c0-.08.03-.14.09-.2.06-.04.15-.07.26-.07h.97c.3 0 .54.06.73.18.18.11.28.27.28.46v14.97c0 .23.08.41.24.56.16.13.41.2.76.2.34 0 .58-.07.75-.2a.68.68 0 00.26-.56c.7-2.53-.07-11.81.41-13.93.53-.24 1.17-.23 1.82-.23.35.27-.06-.05 0 0s.16.12.16.2zm4.53-13.04c.41 0 .8.06 1.13.17.34.1.63.25.87.44s.43.42.55.7c.14.27.2.57.2.9v4.69c0 .37-.08.68-.26.92-.16.24.38.55-3.2.62 3.16.07 3.04.3 3.2.54.18.23.27.53.27.9v5.03a.27.27 0 01-.08.19c-.05.05-.12.08-.21.08h-.82c-.28 0-.49-.07-.64-.2a.78.78 0 01-.2-.56v-4.54a.75.75 0 00-.2-.55c-.13-.15-.34-.22-.64-.22h-.84v5.3a.75.75 0 01-.22.56c-.13.14-.34.2-.62.2h-.82c-.1 0-.17-.02-.21-.07a.27.27 0 01-.08-.2l-.04-14c-.1-1.37 1.66-.94 2.86-.9zm-.87 1.44v6.23h.84c.29 0 .5-.08.64-.22a.78.78 0 00.2-.56v-4.68a.75.75 0 00-.22-.55c-.13-.14-.4-.18-.62-.22-.28-.04-.84 0-.84 0zm11.2 6.76c.1 0 .19.03.24.08.06.05.08.11.08.19v4.59c0 .66-.27 1.2-.82 1.58-.54.38-1.3.57-2.28.57a5 5 0 01-1.28-.15 3.36 3.36 0 01-.99-.43 2.18 2.18 0 01-.63-.67 1.91 1.91 0 01-.2-.9v-10.89c0-.66.26-1.2.8-1.58a3.96 3.96 0 012.3-.57c.46 0 .88.05 1.26.15.39.1.72.24.99.44.28.18.49.4.63.67.15.26.02 2.27.05 2.6.05.6-.05.62-1.86.9l-.13-2.6c-.01-.23-.08-.41-.23-.54-.15-.15-.39-.22-.71-.22-.31 0-.55.07-.71.22a.68.68 0 00-.23.54v10.88c0 .22.08.4.23.55.15.13.38.2.7.2.32 0 .55-.07.7-.2a.7.7 0 00.25-.55v-3.45c-.65 0-.97-.24-.97-.73v-.43a.2.2 0 01.1-.18.44.44 0 01.24-.07zm6.09-8.19c.11 0 .2.03.26.08a.3.3 0 01.1.18l2.04 14.6c0 .09-.03.16-.11.23s-.2.1-.37.1h-.9c-.31 0-.57-.06-.78-.18-.2-.13-.3-.28-.33-.46l-.19-2.08h-1.52l-.19 2.08c-.02.18-.14.33-.35.46-.2.12-.45.18-.76.18h-.9c-.17 0-.3-.04-.38-.1-.08-.07-.1-.15-.1-.22l2.03-14.61a.3.3 0 01.11-.18.39.39 0 01.26-.08zm-1.68 11.03h1.28l-.58-9.97zm11.45-6.4c-1.39.28-1.56-1.06-1.54-2.55a.63.63 0 00-.29-.54c-.18-.15-.45-.22-.82-.22-.39 0-.67.07-.85.22a.64.64 0 00-.27.54c0 .68.07 1.27.2 1.76a5.28 5.28 0 001.32 2.33l.88.91c.3.3.58.63.86.97a6.46 6.46 0 011.32 2.8c.15.6.22 1.33.22 2.17 0 .34-.1.64-.27.9-.17.27-.42.5-.75.69-.32.18-.7.33-1.17.43-.45.1-.94.15-1.5.15-1.16 0-2.07-.2-2.72-.58-.64-.39-.96-.92-.96-1.59v-3.1c0-.08.03-.14.1-.19.06-.05.16-.07.28-.07H355c.37 0 .64.07.82.21a.62.62 0 01.3.53V163c0 .23.08.41.26.56.2.13.47.2.84.2.39 0 .67-.07.85-.2a.68.68 0 00.27-.56c0-.8-.07-1.5-.21-2.07a5.46 5.46 0 00-.54-1.47 4.97 4.97 0 00-.79-1.08c-.28-.32-.57-.61-.86-.89-.3-.28-.59-.58-.88-.88a5.52 5.52 0 01-.77-1.07 5.97 5.97 0 01-.56-1.45 9.18 9.18 0 01-.19-2.03c0-.34.08-.64.25-.9.18-.27.43-.5.75-.68.33-.2.72-.34 1.17-.44.45-.1.95-.15 1.52-.15 1.16 0 2.06.2 2.7.58.65.39.98.92.98 1.59.06 1 .86 2.17-1.03 2.55z" style="line-height:1.25;-inkscape-font-specification:'aliens and cows'"/></g><g clip-path="url(#d)" transform="matrix(8.19123 0 0 8.7757 -2539.86 -1284.44)" fill="#f8ae38"><path d="M329.15 163.02c0 .67-.3 1.2-.88 1.58-.58.39-1.4.58-2.45.58-.5 0-.96-.05-1.37-.15a3.74 3.74 0 01-1.05-.43 2.25 2.25 0 01-.68-.67 1.81 1.81 0 01-.23-.9v-15.35c0-.08.03-.14.09-.2.06-.04.15-.07.26-.07h.97c.3 0 .54.06.73.18.18.12.28.27.28.46v14.97c0 .23.08.41.24.56.16.13.41.2.76.2.34 0 .58-.07.75-.2a.68.68 0 00.26-.56c.7-2.53-.07-11.81.41-13.93.53-.24 1.2-.4 1.82-.23.43.12-.06-.05 0 0s.16.12.16.19l-.07 13.97zm4.53-13.04c.41 0 .8.06 1.13.17.34.1.63.25.87.44s.43.42.55.7c.14.27.2.57.2.9v4.69c-.31 1.98-2.66 1.52-3.45 1.54 3.15.07 3.03.3 3.2.54.17.23.26.53.26.9v5.03a.27.27 0 01-.08.2c-.05.04-.12.07-.21.07h-.82c-.28 0-.49-.07-.64-.2a.78.78 0 01-.2-.56v-4.54a.75.75 0 00-.2-.55c-.13-.15-.34-.22-.64-.22h-.84v5.3a.75.75 0 01-.22.56c-.13.14-.34.2-.62.2h-.82c-.1 0-.17-.02-.21-.07a.27.27 0 01-.08-.2l-.04-14c-.1-1.36 1.66-.94 2.86-.9zm-.87 1.44v6.23h.84c.29 0 .5-.08.64-.22a.78.78 0 00.2-.55v-4.68a.75.75 0 00-.22-.56c-.13-.14-.4-.18-.62-.22-.28-.04-.84 0-.84 0zm11.2 6.76c.1 0 .19.03.24.08.06.05.08.11.08.19v4.58c0 .67-.27 1.2-.82 1.58-.54.39-1.3.58-2.28.58a5 5 0 01-1.28-.15 3.36 3.36 0 01-.99-.43 2.18 2.18 0 01-.63-.67 1.91 1.91 0 01-.2-.9v-10.89c0-.67.26-1.2.8-1.58a3.96 3.96 0 012.3-.57c.46 0 .88.05 1.26.15.39.1.72.24.99.44.28.18.49.4.63.67.15.26.02 2.27.05 2.6.05.6-.05.62-1.86.9l-.13-2.6c-.01-.23-.08-.41-.23-.55-.15-.14-.39-.2-.71-.2-.31 0-.55.06-.71.2a.68.68 0 00-.23.54v10.88c0 .23.08.41.23.56.15.13.38.2.7.2.32 0 .55-.07.7-.2a.7.7 0 00.25-.56v-3.44c-.65 0-.97-.25-.97-.73v-.43c0-.08.03-.14.1-.18a.44.44 0 01.24-.07zm6.09-8.19c.11 0 .2.03.26.08a.3.3 0 01.1.18l2.04 14.6c0 .09-.03.16-.11.23s-.2.1-.37.1h-.9c-.31 0-.57-.06-.78-.18-.2-.13-.3-.28-.33-.46l-.19-2.07h-1.52l-.19 2.07c-.02.18-.14.33-.35.46-.2.12-.45.18-.76.18h-.9c-.17 0-.3-.03-.38-.1-.08-.07-.1-.14-.1-.22l2.03-14.61a.3.3 0 01.11-.18.39.39 0 01.26-.08zm-1.68 11.03h1.28l-.58-9.97zm11.45-6.4c-1.39.28-1.56-1.06-1.54-2.55a.63.63 0 00-.29-.54c-.18-.15-.45-.22-.82-.22-.39 0-.67.07-.85.22a.64.64 0 00-.27.54c0 .68.07 1.27.2 1.76a5.26 5.26 0 001.32 2.34l.88.9c.3.3.58.63.86.97a6.46 6.46 0 011.32 2.8c.15.6.22 1.33.22 2.17 0 .34-.1.64-.27.9-.17.27-.42.5-.75.69-.32.18-.7.33-1.17.43-.45.1-.94.15-1.5.15-1.16 0-2.07-.2-2.72-.58-.64-.39-.96-.92-.96-1.59v-3.1c0-.08.03-.14.1-.19.06-.05.16-.07.28-.07H355c.37 0 .64.07.82.21a.62.62 0 01.3.53V163c0 .23.08.41.26.56.2.13.47.2.84.2.39 0 .67-.07.85-.2a.68.68 0 00.27-.56c0-.8-.07-1.5-.21-2.07a5.46 5.46 0 00-.54-1.47 4.97 4.97 0 00-.79-1.08c-.28-.32-.57-.61-.86-.89-.3-.28-.59-.58-.88-.88a5.52 5.52 0 01-.77-1.07 5.97 5.97 0 01-.56-1.45 9.17 9.17 0 01-.19-2.03c0-.34.08-.64.25-.9.18-.27.43-.5.75-.68.33-.2.72-.34 1.17-.44.45-.1.95-.15 1.52-.15 1.16 0 2.06.2 2.7.58.65.39.98.92.98 1.59.06 1 .86 2.17-1.03 2.55z" style="line-height:1.25;-inkscape-font-specification:'aliens and cows'" fill="#f09d4b"/></g></g></g></svg>