<svg xmlns="http://www.w3.org/2000/svg" viewBox="0 0 323.106 156.96" height="593.233" width="1221.189"><defs><clipPath id="b" clipPathUnits="userSpaceOnUse"><path d="M325.647 174.48a24.261 22.646 0 01-3.052-31.84 24.261 22.646 0 0134.1-2.967 24.261 22.646 0 013.304 31.818 24.261 22.646 0 01-34.075 3.202" opacity=".658" fill="#0ff" stroke="#ffc300" stroke-width="0" stroke-dashoffset="3.904"/></clipPath><clipPath id="d" clipPathUnits="userSpaceOnUse"><path d="M324.79 174.417a24.261 22.646 0 01-3.053-31.84 24.261 22.646 0 0134.1-2.966 24.261 22.646 0 013.304 31.817 24.261 22.646 0 01-34.075 3.202" opacity=".658" fill="#0ff" stroke="#ffc300" stroke-width="0" stroke-dashoffset="3.904"/></clipPath><filter height="1.024" y="-.012" width="1.011" x="-.006" id="c" color-interpolation-filters="sRGB"><feGaussianBlur stdDeviation=".091"/></filter><filter id="a" x="0" width="1" y="0" height="1" color-interpolation-filters="sRGB"><feGaussianBlur stdDeviation=".026"/></filter></defs><g transform="translate(-95.043 -8.498)" filter="url(#a)"><g font-weight="400" font-size="23.436" font-family="aliens and cows"><g clip-path="url(#b)" transform="matrix(8.19123 0 0 8.7757 -2545.297 -1284.985)" fill="#571b16" filter="url(#c)"><path d="M329.148 163.024c-.003.67-.294 1.197-.883 1.582-.578.385-1.393.577-2.444.577-.508 0-.965-.05-1.37-.15a3.735 3.735 0 01-1.056-.427 2.248 2.248 0 01-.676-.678 1.814 1.814 0 01-.226-.904v-15.348c0-.076.03-.138.087-.188.058-.05.145-.076.26-.076h.97c.3 0 .544.059.728.176.185.117.278.272.278.464v14.972c0 .226.08.41.242.552.162.134.416.201.763.201.335 0 .583-.067.745-.2a.681.681 0 00.26-.553c.703-2.53-.064-11.814.415-13.932.528-.241 1.165-.23 1.82-.23.347.264-.057-.05 0 0 .059.05.157.114.156.189zM333.679 149.982c.416 0 .793.056 1.132.168.338.102.629.248.87.437.242.188.426.42.552.694.135.275.203.579.203.913v4.681c0 .378-.087.686-.261.926-.164.24.375.55-3.198.618 3.152.068 3.034.3 3.198.54.174.231.261.531.261.9v5.028a.27.27 0 01-.072.193c-.049.052-.121.077-.218.077h-.813c-.28 0-.493-.068-.638-.206a.78.78 0 01-.203-.553v-4.54c0-.23-.068-.415-.204-.552-.125-.146-.338-.219-.638-.219h-.842v5.311a.751.751 0 01-.217.553c-.136.138-.344.206-.624.206h-.813c-.097 0-.17-.026-.218-.077a.272.272 0 01-.072-.193l-.047-14.008c-.098-1.365 1.66-.937 2.862-.896zm-.87 1.44v6.225h.841c.29 0 .503-.073.638-.219a.78.78 0 00.204-.553v-4.68a.751.751 0 00-.218-.554c-.135-.145-.403-.181-.624-.218-.275-.047-.842 0-.842 0zM344.01 158.184c.108 0 .189.025.242.075.054.05.081.113.081.188v4.589c0 .668-.275 1.195-.825 1.58-.539.384-1.299.576-2.28.576-.475 0-.9-.05-1.278-.15a3.36 3.36 0 01-.987-.427 2.18 2.18 0 01-.63-.677 1.914 1.914 0 01-.21-.902v-10.882c0-.668.269-1.195.808-1.58.55-.384 1.315-.576 2.297-.576.463 0 .884.05 1.261.15.389.1.718.247.987.44.28.183.49.409.63.676.152.26.026 2.27.056 2.603.052.596-.057.617-1.867.888l-.13-2.6c-.01-.226-.075-.406-.226-.54-.15-.142-.388-.213-.711-.213-.313 0-.55.071-.712.213a.684.684 0 00-.226.54v10.88c0 .226.075.41.226.552.151.134.388.201.712.201.312 0 .544-.067.695-.2a.7.7 0 00.243-.552v-3.448c-.647 0-.97-.242-.97-.727v-.426c0-.084.032-.146.096-.188a.438.438 0 01.243-.063zM350.1 149.99c.111 0 .197.025.259.076a.302.302 0 01.11.18l2.027 14.612c.011.077-.025.15-.11.219-.075.069-.197.103-.37.103h-.902c-.307 0-.565-.06-.774-.18-.196-.13-.307-.284-.332-.464l-.184-2.073h-1.529l-.184 2.073c-.025.18-.141.335-.35.463-.197.12-.449.18-.756.18h-.902c-.172 0-.301-.034-.387-.102-.074-.069-.105-.142-.093-.22l2.027-14.61a.3.3 0 01.11-.18.388.388 0 01.259-.078zm-1.676 11.032h1.271l-.571-9.97zM359.874 154.617c-1.39.279-1.562-1.061-1.546-2.549a.63.63 0 00-.288-.542c-.18-.143-.454-.214-.825-.214-.384 0-.665.071-.845.214a.643.643 0 00-.268.542c0 .681.064 1.27.192 1.765.14.496.326.933.556 1.312.23.378.486.718.768 1.02l.882.908c.295.303.582.627.864.971.294.336.556.736.786 1.198.23.454.41.987.538 1.6.14.606.21 1.329.21 2.17 0 .335-.089.638-.268.907-.166.26-.416.487-.748.68-.32.186-.71.328-1.17.43-.448.1-.947.15-1.497.15-1.164 0-2.072-.193-2.725-.58-.64-.386-.96-.915-.96-1.588v-3.101c0-.076.033-.139.097-.19.064-.05.16-.075.288-.075h1.074c.371 0 .646.072.825.215a.619.619 0 01.288.529v2.622c0 .227.09.412.269.555.191.134.473.202.844.202.384 0 .665-.068.844-.202a.677.677 0 00.269-.555c0-.807-.07-1.496-.211-2.067a5.458 5.458 0 00-.538-1.475 4.966 4.966 0 00-.786-1.084c-.282-.311-.57-.606-.864-.883-.294-.286-.588-.58-.882-.882a5.517 5.517 0 01-.768-1.072 5.974 5.974 0 01-.556-1.45c-.128-.555-.192-1.231-.192-2.03 0-.336.083-.634.25-.895.178-.269.428-.495.748-.68.332-.194.722-.34 1.17-.442.448-.1.953-.15 1.516-.15 1.164 0 2.066.192 2.705.579.653.387.979.916.979 1.588.064.996.857 2.17-1.025 2.549z" style="line-height:1.25;-inkscape-font-specification:'aliens and cows'"/></g><g clip-path="url(#d)" transform="matrix(8.19123 0 0 8.7757 -2539.86 -1284.437)" fill="#f8ae38"><path d="M329.148 163.024c-.003.67-.294 1.196-.883 1.581-.578.385-1.393.578-2.444.578-.508 0-.965-.05-1.37-.151a3.738 3.738 0 01-1.056-.427 2.249 2.249 0 01-.676-.677 1.814 1.814 0 01-.226-.904v-15.348c0-.076.03-.138.087-.189.058-.05.145-.075.26-.075h.97c.3 0 .544.059.728.175.185.118.278.272.278.465v14.972c0 .226.08.41.242.552.162.134.416.2.763.2.335 0 .583-.066.745-.2a.681.681 0 00.26-.552c.703-2.53-.064-11.815.415-13.932.528-.242 1.19-.396 1.82-.23.432.113-.057-.05 0 0 .059.05.157.113.156.188-.03 4.658-.069 13.974-.069 13.974zM333.679 149.984c.416 0 .793.056 1.132.167.338.103.629.248.87.437.242.189.426.42.552.694.135.275.203.58.203.914v4.68c-.316 1.987-2.67 1.525-3.459 1.544 3.152.068 3.034.3 3.198.54.174.231.261.531.261.9v5.028a.271.271 0 01-.072.193c-.049.052-.121.077-.218.077h-.813c-.28 0-.493-.068-.638-.206a.78.78 0 01-.203-.553v-4.54c0-.23-.068-.415-.204-.552-.125-.146-.338-.219-.638-.219h-.842v5.311a.751.751 0 01-.217.553c-.136.137-.344.206-.624.206h-.813c-.097 0-.17-.026-.218-.077a.272.272 0 01-.072-.193l-.047-14.008c-.098-1.365 1.66-.937 2.862-.896zm-.87 1.44v6.224h.841c.29 0 .503-.073.638-.218a.78.78 0 00.204-.553v-4.681a.751.751 0 00-.218-.553c-.135-.146-.403-.182-.624-.22-.275-.046-.842 0-.842 0zM344.01 158.184c.108 0 .189.025.242.075.054.05.081.113.081.188v4.588c0 .669-.275 1.196-.825 1.58-.539.384-1.299.577-2.28.577-.475 0-.9-.05-1.278-.15a3.36 3.36 0 01-.987-.427 2.18 2.18 0 01-.63-.677 1.914 1.914 0 01-.21-.903v-10.881c0-.669.269-1.195.808-1.58.55-.384 1.315-.577 2.297-.577.463 0 .884.05 1.261.15.389.101.718.247.987.44.28.184.49.41.63.677.152.259.026 2.27.056 2.603.052.595-.057.616-1.867.887l-.13-2.6c-.01-.226-.075-.406-.226-.54-.15-.141-.388-.212-.711-.212-.313 0-.55.07-.712.213a.684.684 0 00-.226.539v10.881c0 .226.075.41.226.552.151.134.388.2.712.2.312 0 .544-.066.695-.2a.7.7 0 00.243-.552v-3.447c-.647 0-.97-.243-.97-.727v-.427c0-.083.032-.146.096-.188a.438.438 0 01.243-.062zM350.1 149.99c.111 0 .197.027.259.078a.302.302 0 01.11.18l2.027 14.611c.011.077-.025.15-.11.219-.075.069-.197.103-.37.103h-.902c-.307 0-.565-.06-.774-.18-.196-.13-.307-.284-.332-.464l-.184-2.072h-1.529l-.184 2.072c-.025.18-.141.335-.35.464-.197.12-.449.18-.756.18h-.902c-.172 0-.301-.035-.387-.103-.074-.07-.105-.142-.093-.219l2.027-14.611a.3.3 0 01.11-.18.388.388 0 01.259-.077zm-1.676 11.033h1.271l-.571-9.97zM359.874 154.617c-1.39.279-1.562-1.061-1.546-2.549a.63.63 0 00-.288-.542c-.18-.143-.454-.214-.825-.214-.384 0-.665.071-.845.214a.643.643 0 00-.268.542c0 .681.064 1.27.192 1.765.14.496.326.933.556 1.311.23.379.486.719.768 1.022l.882.907c.295.303.582.626.864.971.294.336.556.735.786 1.198.23.454.41.987.538 1.6.14.606.21 1.329.21 2.17 0 .335-.089.638-.268.907-.166.26-.416.487-.748.68-.32.185-.71.328-1.17.43-.448.1-.947.15-1.497.15-1.164 0-2.072-.193-2.725-.58-.64-.386-.96-.916-.96-1.588v-3.101c0-.076.033-.139.097-.19.064-.05.16-.075.288-.075h1.074c.371 0 .646.072.825.215a.619.619 0 01.288.529v2.622c0 .227.09.412.269.555.191.134.473.202.844.202.384 0 .665-.068.844-.202a.677.677 0 00.269-.555c0-.807-.07-1.496-.211-2.067a5.458 5.458 0 00-.538-1.475 4.966 4.966 0 00-.786-1.084c-.282-.311-.57-.606-.864-.883-.294-.286-.588-.58-.882-.882a5.518 5.518 0 01-.768-1.072 5.975 5.975 0 01-.556-1.45c-.128-.554-.192-1.231-.192-2.03 0-.336.083-.634.25-.895.178-.269.428-.495.748-.68.332-.194.722-.34 1.17-.442.448-.1.953-.15 1.516-.15 1.164 0 2.066.192 2.705.579.653.387.979.916.979 1.588.064.996.857 2.17-1.025 2.549z" style="line-height:1.25;-inkscape-font-specification:'aliens and cows'"/></g></g></g></svg>