<svg xmlns="http://www.w3.org/2000/svg" viewBox="0 0 323.32 146.05" height="552" width="1222"><defs><filter height="1" y="0" width="1" x="0" id="e" color-interpolation-filters="sRGB"><feGaussianBlur stdDeviation=".03"/></filter><filter id="c" x="-.01" width="1.01" y="-.01" height="1.02" color-interpolation-filters="sRGB"><feGaussianBlur stdDeviation=".09"/></filter><filter id="a" x="-.01" width="1.01" y="-.02" height="1.03" color-interpolation-filters="sRGB"><feGaussianBlur stdDeviation="1.01"/></filter><clipPath clipPathUnits="userSpaceOnUse" id="b"><path d="M325.65 174.48a24.26 22.65 0 01-3.06-31.84 24.26 22.65 0 0134.1-2.97 24.26 22.65 0 013.3 31.82 24.26 22.65 0 01-34.07 3.2" opacity=".66" fill="#0ff" stroke="#ffc300" stroke-width="0" stroke-dashoffset="3.9"/></clipPath><clipPath clipPathUnits="userSpaceOnUse" id="d"><path d="M324.79 174.42a24.26 22.65 0 01-3.05-31.84 24.26 22.65 0 0134.1-2.97 24.26 22.65 0 013.3 31.82 24.26 22.65 0 01-34.07 3.2" opacity=".66" fill="#0ff" stroke="#ffc300" stroke-width="0" stroke-dashoffset="3.9"/></clipPath></defs><g transform="matrix(.90266 0 0 .9029 -78.55 -5.26)" fill="#571b16" filter="url(#a)"><g clip-path="url(#d)" transform="matrix(8.19123 0 0 8.7757 -2539.86 -1286.02)" font-weight="400" font-size="23.44" font-family="aliens and cows"><path d="M327.65 163.2c0 .67-.3 1.2-.89 1.58-.57.39-1.39.58-2.44.58-1.17 0-2.54-.4-3.1-1.26a1.83 1.83 0 01-.23-.9v-15.45c0-.08.03-.14.09-.19.06-.05.14-.07.26-.07h.97c.3 0 .54.05.73.17.18.12.27.28.27.47v15.06c0 .23.09.41.25.56.16.13.41.2.76.2.54 0 .81-.24 1-.76.26-.74.12-12.46.12-13.5 0-.98 2.28-.84 2.28-.14zM333.34 150.14c1.45.06 2.73.82 2.76 2.17v4.6c-.32 1.95-2.67 1.5-3.46 1.51 3.15.07 3.03.3 3.2.53.17.23.26.52.26.89v4.93c0 .08-.02.14-.07.2-.05.04-.12.07-.22.07H335c-.57-.02-.77-.31-.84-.75v-4.45c-.26-.88-.88-.76-1.69-.76v5.21c-.04.49-.4.74-.84.75h-.81c-.1 0-.17-.03-.22-.08a.26.26 0 01-.07-.19l-.05-13.75c-.1-1.34 1.66-.92 2.86-.88zm-.87 1.41v6.11c.76.06 1.56-.07 1.69-.75v-4.6c-.25-.81-.9-.8-1.69-.76zM344.6 158.18c.23.01.27.11.33.27v4.62c0 .67-.28 1.2-.83 1.59-.54.39-1.3.58-2.28.58a4.3 4.3 0 01-2.26-.58c-.27-.2-.48-.42-.63-.68a1.92 1.92 0 01-.21-.91l.03-10.93c.08-1.64 1.77-2.16 3.11-2.17 2.98.27 2.73 1.05 2.9 3.86-.08.63-.13.73-1.87.83l-.1-2.52c-.04-1-1.83-.72-1.87 0l-.04 10.93c.03 1.02 1.84.72 1.88 0v-3.47c-.65 0-.97-.25-.97-.74-.01-.35-.01-.6.34-.68zM351.7 150.14c.21 0 .27.1.36.25l2.03 14.33c-.06.26-.27.28-.48.32-.86-.05-1.66.11-2.01-.63l-.19-2.04h-1.52l-.19 2.04c-.16.47-.66.62-1.1.63-.52-.05-1.21.15-1.39-.32l2.03-14.33c.06-.2.2-.21.37-.25zM350 160.96h1.28l-.58-9.78zM362.67 154.66c-1.43-.07-1.57-1.06-1.55-2.55 0-.23-.1-.4-.29-.54-1.81-.7-2.28.97-1.97 2.24.48 1.86 2.11 2.86 3.3 4.28 1.1 1.46 2.03 4.07 1.26 5.71-.9 1.4-2.22 1.44-3.41 1.44-1.62 0-3.66-.58-3.69-2.17v-3.1c0-.08.04-.15.1-.2.06-.05.16-.07.29-.07.63 0 1.38-.08 1.9.21.53 1.1-.53 3.02.55 3.71 2.85 1.08 1.85-2.89 1.21-4.1-1.25-1.86-3.53-3.3-3.85-5.38-.52-3.29 1.08-3.96 3.49-4.2 1.16 0 2.08.16 2.7.58 1.24.83 1.6 4.39-.04 4.14z" style="line-height:1.25;-inkscape-font-specification:'aliens and cows'"/></g></g><g transform="matrix(.90266 0 0 .9029 -73.8 -5.8)" fill="#f09d4b" filter="url(#e)"><g transform="matrix(8.19123 0 0 8.7757 -2539.86 -1286.02)" clip-path="url(#d)" font-weight="400" font-size="23.44" font-family="aliens and cows"><path style="line-height:1.25;-inkscape-font-specification:'aliens and cows'" d="M327.65 163.2c0 .67-.3 1.2-.89 1.58-.57.39-1.39.58-2.44.58-1.17 0-2.54-.4-3.1-1.26a1.83 1.83 0 01-.23-.9v-15.45c0-.08.03-.14.09-.19.06-.05.14-.07.26-.07h.97c.3 0 .54.05.73.17.18.12.27.28.27.47v15.06c0 .23.09.41.25.56.16.13.41.2.76.2.54 0 .81-.24 1-.76.26-.74.12-12.46.12-13.5 0-.98 2.28-.84 2.28-.14zM333.34 150.14c1.45.06 2.73.82 2.76 2.17v4.6c-.32 1.95-2.67 1.5-3.46 1.51 3.15.07 3.03.3 3.2.53.17.23.26.52.26.89v4.93c0 .08-.02.14-.07.2-.05.04-.12.07-.22.07H335c-.57-.02-.77-.31-.84-.75v-4.45c-.26-.88-.88-.76-1.69-.76v5.21c-.04.49-.4.74-.84.75h-.81c-.1 0-.17-.03-.22-.08a.26.26 0 01-.07-.19l-.05-13.75c-.1-1.34 1.66-.92 2.86-.88zm-.87 1.41v6.11c.76.06 1.56-.07 1.69-.75v-4.6c-.25-.81-.9-.8-1.69-.76zM344.6 158.18c.23.01.27.11.33.27v4.62c0 .67-.28 1.2-.83 1.59-.54.39-1.3.58-2.28.58a4.3 4.3 0 01-2.26-.58c-.27-.2-.48-.42-.63-.68a1.92 1.92 0 01-.21-.91l.03-10.93c.08-1.64 1.77-2.16 3.11-2.17 2.98.27 2.73 1.05 2.9 3.86-.08.63-.13.73-1.87.83l-.1-2.52c-.04-1-1.83-.72-1.87 0l-.04 10.93c.03 1.02 1.84.72 1.88 0v-3.47c-.65 0-.97-.25-.97-.74-.01-.35-.01-.6.34-.68zM351.7 150.14c.21 0 .27.1.36.25l2.03 14.33c-.06.26-.27.28-.48.32-.86-.05-1.66.11-2.01-.63l-.19-2.04h-1.52l-.19 2.04c-.16.47-.66.62-1.1.63-.52-.05-1.21.15-1.39-.32l2.03-14.33c.06-.2.2-.21.37-.25zM350 160.96h1.28l-.58-9.78zM362.67 154.66c-1.43-.07-1.57-1.06-1.55-2.55 0-.23-.1-.4-.29-.54-1.81-.7-2.28.97-1.97 2.24.48 1.86 2.11 2.86 3.3 4.28 1.1 1.46 2.03 4.07 1.26 5.71-.9 1.4-2.22 1.44-3.41 1.44-1.62 0-3.66-.58-3.69-2.17v-3.1c0-.08.04-.15.1-.2.06-.05.16-.07.29-.07.63 0 1.38-.08 1.9.21.53 1.1-.53 3.02.55 3.71 2.85 1.08 1.85-2.89 1.21-4.1-1.25-1.86-3.53-3.3-3.85-5.38-.52-3.29 1.08-3.96 3.49-4.2 1.16 0 2.08.16 2.7.58 1.24.83 1.6 4.39-.04 4.14z"/></g></g></svg>
