<?xml version="1.0" encoding="UTF-8" standalone="no"?>
<svg
   xmlns:dc="http://purl.org/dc/elements/1.1/"
   xmlns:cc="http://creativecommons.org/ns#"
   xmlns:rdf="http://www.w3.org/1999/02/22-rdf-syntax-ns#"
   xmlns:svg="http://www.w3.org/2000/svg"
   xmlns="http://www.w3.org/2000/svg"
   width="319.7171mm"
   height="160.71931mm"
   viewBox="0 0 319.7171 160.71931"
   version="1.1"
   id="svg8">
  <defs
     id="defs2">
    <clipPath
       clipPathUnits="userSpaceOnUse"
       id="clipPath4927-4">
      <path
         style="opacity:0.658147;fill:#00ffff;fill-opacity:1;stroke:#ffc300;stroke-width:0;stroke-dashoffset:3.90350008"
         id="path4929-4"
         d="m 20.776487,225.91167 a 41.58852,40.600914 0 0 1 -5.232813,-57.08403 41.58852,40.600914 0 0 1 58.452849,-5.31948 41.58852,40.600914 0 0 1 5.664863,57.04471 41.58852,40.600914 0 0 1 -58.410978,5.74113"
         transform="matrix(0.96570178,-0.25965376,0.27109461,0.96255271,0,0)" />
    </clipPath>
    <filter
       style="color-interpolation-filters:sRGB"
       id="filter2689-2-9">
      <feColorMatrix
         type="luminanceToAlpha"
         result="colormatrix1"
         id="feColorMatrix2669-2-8" />
      <feFlood
         flood-opacity="1"
         flood-color="rgb(122,4,83)"
         result="flood1"
         id="feFlood2671-119-3" />
      <feComposite
         in2="colormatrix1"
         operator="out"
         result="composite1"
         id="feComposite2673-7-5" />
      <feFlood
         flood-opacity="0.788235"
         flood-color="rgb(218,109,150)"
         result="flood2"
         id="feFlood2675-47-8" />
      <feComposite
         in2="colormatrix1"
         result="composite2"
         operator="in"
         id="feComposite2677-4-7" />
      <feComposite
         in="composite2"
         in2="composite1"
         k2="1"
         k3="1"
         operator="arithmetic"
         result="composite3"
         id="feComposite2679-27-3"
         k1="0"
         k4="0" />
      <feColorMatrix
         in="composite3"
         type="matrix"
         values="2 -1 0 0 0 0 2 -1 0 0 -1 0 2 0 0 0 0 0 1 0 "
         result="colormatrix2"
         id="feColorMatrix2681-6-8" />
      <feComposite
         in="colormatrix2"
         in2="composite3"
         operator="arithmetic"
         k2="1.48503"
         result="composite4"
         id="feComposite2683-3-1"
         k1="0"
         k3="0"
         k4="0" />
      <feBlend
         in="composite4"
         in2="composite3"
         mode="normal"
         result="blend"
         id="feBlend2685-07-5" />
      <feComposite
         in2="SourceGraphic"
         operator="in"
         id="feComposite2687-834-9"
         result="fbSourceGraphic" />
      <feColorMatrix
         result="fbSourceGraphicAlpha"
         in="fbSourceGraphic"
         values="0 0 0 -1 0 0 0 0 -1 0 0 0 0 -1 0 0 0 0 1 0"
         id="feColorMatrix4461-4-5" />
      <feColorMatrix
         id="feColorMatrix4463-10-5"
         type="luminanceToAlpha"
         result="colormatrix1"
         in="fbSourceGraphic" />
      <feFlood
         id="feFlood4465-0-0"
         flood-opacity="1"
         flood-color="rgb(13,7,15)"
         result="flood1" />
      <feComposite
         in2="colormatrix1"
         id="feComposite4467-0-4"
         operator="out"
         result="composite1" />
      <feFlood
         id="feFlood4469-32-3"
         flood-opacity="0.788235"
         flood-color="rgb(201,75,122)"
         result="flood2" />
      <feComposite
         in2="colormatrix1"
         id="feComposite4471-44-0"
         result="composite2"
         operator="in" />
      <feComposite
         in2="composite1"
         id="feComposite4473-57-4"
         in="composite2"
         k2="1"
         k3="1"
         operator="arithmetic"
         result="composite3"
         k1="0"
         k4="0" />
      <feColorMatrix
         id="feColorMatrix4475-2-2"
         in="composite3"
         type="matrix"
         values="2 -1 0 0 0 0 2 -1 0 0 -1 0 2 0 0 0 0 0 1 0 "
         result="colormatrix2" />
      <feComposite
         in2="composite3"
         id="feComposite4477-3-2"
         in="colormatrix2"
         operator="arithmetic"
         k2="1.48503"
         result="composite4"
         k1="0"
         k3="0"
         k4="0" />
      <feBlend
         in2="composite3"
         id="feBlend4479-3-5"
         in="composite4"
         mode="normal"
         result="blend" />
      <feComposite
         in2="fbSourceGraphic"
         id="feComposite4481-7-7"
         operator="in" />
    </filter>
    <clipPath
       clipPathUnits="userSpaceOnUse"
       id="clipPath4923-3">
      <path
         d="m -212.63957,401.33647 a 50.876469,50.667934 0 0 1 -6.40145,-71.23805 50.876469,50.667934 0 0 1 71.5071,-6.63845 50.876469,50.667934 0 0 1 6.92999,71.18899 50.876469,50.667934 0 0 1 -71.45587,7.16463"
         style="opacity:0.658147;fill:#00ffff;fill-opacity:1;stroke:#ffc300;stroke-width:0;stroke-dashoffset:3.90350008"
         id="path4925-4" />
    </clipPath>
    <clipPath
       clipPathUnits="userSpaceOnUse"
       id="clipPath4919-2">
      <path
         d="m 14.843858,227.45209 a 40.70015,40.533249 0 0 1 -5.1210339,-56.9889 40.70015,40.533249 0 0 1 57.2042399,-5.31062 40.70015,40.533249 0 0 1 5.543856,56.94965 40.70015,40.533249 0 0 1 -57.163263,5.73155"
         style="opacity:0.658147;fill:#00ffff;fill-opacity:1;stroke:#ffc300;stroke-width:0;stroke-dashoffset:3.90350008"
         id="path4921-8"
         transform="matrix(0.95387067,-0.30021782,0.30021915,0.95387025,0,0)" />
    </clipPath>
    <clipPath
       clipPathUnits="userSpaceOnUse"
       id="clipPath4915-1">
      <path
         d="m 325.64723,174.47949 a 24.26149,22.645655 0 0 1 -3.05266,-31.83931 24.26149,22.645655 0 0 1 34.09963,-2.96701 24.26149,22.645655 0 0 1 3.30471,31.81739 24.26149,22.645655 0 0 1 -34.0752,3.20218"
         style="opacity:0.658147;fill:#00ffff;fill-opacity:1;stroke:#ffc300;stroke-width:0;stroke-dashoffset:3.90350008"
         id="path4917-5" />
    </clipPath>
    <clipPath
       clipPathUnits="userSpaceOnUse"
       id="clipPath4911-7">
      <path
         d="m 324.78972,174.41705 a 24.26149,22.645655 0 0 1 -3.05266,-31.83931 24.26149,22.645655 0 0 1 34.09963,-2.96701 24.26149,22.645655 0 0 1 3.30471,31.81739 24.26149,22.645655 0 0 1 -34.07521,3.20218"
         style="opacity:0.658147;fill:#00ffff;fill-opacity:1;stroke:#ffc300;stroke-width:0;stroke-dashoffset:3.90350008"
         id="path4913-5" />
    </clipPath>
    <clipPath
       clipPathUnits="userSpaceOnUse"
       id="clipPath4927-4-5">
      <path
         style="opacity:0.658147;fill:#00ffff;fill-opacity:1;stroke:#ffc300;stroke-width:0;stroke-dashoffset:3.90350008"
         id="path4929-4-1"
         d="m 20.776487,225.91167 a 41.58852,40.600914 0 0 1 -5.232813,-57.08403 41.58852,40.600914 0 0 1 58.452849,-5.31948 41.58852,40.600914 0 0 1 5.664863,57.04471 41.58852,40.600914 0 0 1 -58.410978,5.74113"
         transform="matrix(0.96570178,-0.25965376,0.27109461,0.96255271,0,0)" />
    </clipPath>
    <filter
       style="color-interpolation-filters:sRGB"
       id="filter2689-2-9-0">
      <feColorMatrix
         type="luminanceToAlpha"
         result="colormatrix1"
         id="feColorMatrix2669-2-8-3" />
      <feFlood
         flood-opacity="1"
         flood-color="rgb(122,4,83)"
         result="flood1"
         id="feFlood2671-119-3-5" />
      <feComposite
         in2="colormatrix1"
         operator="out"
         result="composite1"
         id="feComposite2673-7-5-2" />
      <feFlood
         flood-opacity="0.788235"
         flood-color="rgb(218,109,150)"
         result="flood2"
         id="feFlood2675-47-8-7" />
      <feComposite
         in2="colormatrix1"
         result="composite2"
         operator="in"
         id="feComposite2677-4-7-3" />
      <feComposite
         in="composite2"
         in2="composite1"
         k2="1"
         k3="1"
         operator="arithmetic"
         result="composite3"
         id="feComposite2679-27-3-8"
         k1="0"
         k4="0" />
      <feColorMatrix
         in="composite3"
         type="matrix"
         values="2 -1 0 0 0 0 2 -1 0 0 -1 0 2 0 0 0 0 0 1 0 "
         result="colormatrix2"
         id="feColorMatrix2681-6-8-5" />
      <feComposite
         in="colormatrix2"
         in2="composite3"
         operator="arithmetic"
         k2="1.48503"
         result="composite4"
         id="feComposite2683-3-1-7"
         k1="0"
         k3="0"
         k4="0" />
      <feBlend
         in="composite4"
         in2="composite3"
         mode="normal"
         result="blend"
         id="feBlend2685-07-5-2" />
      <feComposite
         in2="SourceGraphic"
         operator="in"
         id="feComposite2687-834-9-3"
         result="fbSourceGraphic" />
      <feColorMatrix
         result="fbSourceGraphicAlpha"
         in="fbSourceGraphic"
         values="0 0 0 -1 0 0 0 0 -1 0 0 0 0 -1 0 0 0 0 1 0"
         id="feColorMatrix4461-4-5-4" />
      <feColorMatrix
         id="feColorMatrix4463-10-5-4"
         type="luminanceToAlpha"
         result="colormatrix1"
         in="fbSourceGraphic" />
      <feFlood
         id="feFlood4465-0-0-0"
         flood-opacity="1"
         flood-color="rgb(13,7,15)"
         result="flood1" />
      <feComposite
         in2="colormatrix1"
         id="feComposite4467-0-4-0"
         operator="out"
         result="composite1" />
      <feFlood
         id="feFlood4469-32-3-9"
         flood-opacity="0.788235"
         flood-color="rgb(201,75,122)"
         result="flood2" />
      <feComposite
         in2="colormatrix1"
         id="feComposite4471-44-0-9"
         result="composite2"
         operator="in" />
      <feComposite
         in2="composite1"
         id="feComposite4473-57-4-9"
         in="composite2"
         k2="1"
         k3="1"
         operator="arithmetic"
         result="composite3"
         k1="0"
         k4="0" />
      <feColorMatrix
         id="feColorMatrix4475-2-2-7"
         in="composite3"
         type="matrix"
         values="2 -1 0 0 0 0 2 -1 0 0 -1 0 2 0 0 0 0 0 1 0 "
         result="colormatrix2" />
      <feComposite
         in2="composite3"
         id="feComposite4477-3-2-7"
         in="colormatrix2"
         operator="arithmetic"
         k2="1.48503"
         result="composite4"
         k1="0"
         k3="0"
         k4="0" />
      <feBlend
         in2="composite3"
         id="feBlend4479-3-5-8"
         in="composite4"
         mode="normal"
         result="blend" />
      <feComposite
         in2="fbSourceGraphic"
         id="feComposite4481-7-7-4"
         operator="in" />
    </filter>
    <clipPath
       clipPathUnits="userSpaceOnUse"
       id="clipPath4923-3-2">
      <path
         d="m -212.63957,401.33647 a 50.876469,50.667934 0 0 1 -6.40145,-71.23805 50.876469,50.667934 0 0 1 71.5071,-6.63845 50.876469,50.667934 0 0 1 6.92999,71.18899 50.876469,50.667934 0 0 1 -71.45587,7.16463"
         style="opacity:0.658147;fill:#00ffff;fill-opacity:1;stroke:#ffc300;stroke-width:0;stroke-dashoffset:3.90350008"
         id="path4925-4-2" />
    </clipPath>
    <clipPath
       clipPathUnits="userSpaceOnUse"
       id="clipPath4919-2-9">
      <path
         d="m 14.843858,227.45209 a 40.70015,40.533249 0 0 1 -5.1210339,-56.9889 40.70015,40.533249 0 0 1 57.2042399,-5.31062 40.70015,40.533249 0 0 1 5.543856,56.94965 40.70015,40.533249 0 0 1 -57.163263,5.73155"
         style="opacity:0.658147;fill:#00ffff;fill-opacity:1;stroke:#ffc300;stroke-width:0;stroke-dashoffset:3.90350008"
         id="path4921-8-9"
         transform="matrix(0.95387067,-0.30021782,0.30021915,0.95387025,0,0)" />
    </clipPath>
    <clipPath
       clipPathUnits="userSpaceOnUse"
       id="clipPath4915-1-0">
      <path
         d="m 325.64723,174.47949 a 24.26149,22.645655 0 0 1 -3.05266,-31.83931 24.26149,22.645655 0 0 1 34.09963,-2.96701 24.26149,22.645655 0 0 1 3.30471,31.81739 24.26149,22.645655 0 0 1 -34.0752,3.20218"
         style="opacity:0.658147;fill:#00ffff;fill-opacity:1;stroke:#ffc300;stroke-width:0;stroke-dashoffset:3.90350008"
         id="path4917-5-9" />
    </clipPath>
    <filter
       style="color-interpolation-filters:sRGB"
       id="filter3479-5-0"
       x="-0.005719915"
       width="1.0114398"
       y="-0.012205861"
       height="1.0244117">
      <feGaussianBlur
         stdDeviation="0.090921971"
         id="feGaussianBlur3481-5-1" />
    </filter>
    <clipPath
       clipPathUnits="userSpaceOnUse"
       id="clipPath4911-7-3">
      <path
         d="m 324.78972,174.41705 a 24.26149,22.645655 0 0 1 -3.05266,-31.83931 24.26149,22.645655 0 0 1 34.09963,-2.96701 24.26149,22.645655 0 0 1 3.30471,31.81739 24.26149,22.645655 0 0 1 -34.07521,3.20218"
         style="opacity:0.658147;fill:#00ffff;fill-opacity:1;stroke:#ffc300;stroke-width:0;stroke-dashoffset:3.90350008"
         id="path4913-5-4" />
    </clipPath>
    <filter
       height="1.0001324"
       y="-6.6244371e-005"
       width="1.0001827"
       x="-9.1357208e-005"
       id="filter15630"
       style="color-interpolation-filters:sRGB">
      <feGaussianBlur
         id="feGaussianBlur15632"
         stdDeviation="0.025538268" />
    </filter>
  </defs>
  <metadata
     id="metadata5">
    <rdf:RDF>
      <cc:Work
         rdf:about="">
        <dc:format>image/svg+xml</dc:format>
        <dc:type
           rdf:resource="http://purl.org/dc/dcmitype/StillImage" />
        <dc:title></dc:title>
      </cc:Work>
    </rdf:RDF>
  </metadata>
  <g
     transform="translate(50.073781,-58.972915)"
     id="layer1">
    <g
       transform="translate(-145.33137,53.170012)"
       style="filter:url(#filter15630)"
       id="g15624">
      <g
         id="g2617">
        <g
           transform="matrix(8.1912339,0,0,8.7757029,-2545.2973,-1286.5729)"
           id="g2169-1-4-1-4-42-0-6-5-8-1"
           style="fill:#571b16;fill-opacity:1;filter:url(#filter3479-5-0)"
           clip-path="url(#clipPath4915-1-0)">
          <path
             id="path2116-9-5-6-3-7-5-1-7-8-3"
             style="font-style:normal;font-variant:normal;font-weight:normal;font-stretch:normal;font-size:23.43639946px;line-height:1.25;font-family:'aliens and cows';-inkscape-font-specification:'aliens and cows';fill:#571b16;fill-opacity:1;stroke:#ffc300;stroke-width:0;stroke-miterlimit:4;stroke-dasharray:none;stroke-opacity:1"
             d="m 329.23685,163.19181 c -0.003,0.67337 -0.29462,1.20364 -0.88388,1.59082 -0.57771,0.38719 -1.39226,0.58078 -2.44367,0.58078 -0.50837,0 -0.96477,-0.0505 -1.36917,-0.15151 -0.40438,-0.101 -0.75678,-0.24409 -1.05719,-0.42927 -0.28885,-0.19359 -0.51414,-0.42084 -0.6759,-0.68177 -0.15027,-0.26935 -0.22532,-0.57237 -0.22532,-0.90905 V 147.7508 c 0,-0.0758 0.0288,-0.13889 0.0867,-0.18939 0.0578,-0.0505 0.14453,-0.0757 0.25998,-0.0757 h 0.97052 c 0.30042,0 0.54305,0.0589 0.72791,0.17677 0.18486,0.11783 0.2773,0.27355 0.2773,0.46714 v 15.06225 c 0,0.22727 0.0809,0.41244 0.24264,0.55553 0.16176,0.13467 0.41594,0.20201 0.76257,0.20201 0.33505,0 0.58346,-0.0673 0.74522,-0.20201 0.17331,-0.14309 0.25996,-0.32826 0.25996,-0.55553 0.7031,-2.54519 -0.0644,-11.88576 0.41509,-14.01621 0.5274,-0.24275 1.16444,-0.23077 1.82063,-0.23077 0.34665,0.26509 -0.0577,-0.0505 0,0 0.0578,0.0505 0.156,0.1136 0.15552,0.18939 z" />
          <path
             id="path2118-6-5-7-4-1-1-6-6-2-7"
             style="font-style:normal;font-variant:normal;font-weight:normal;font-stretch:normal;font-size:23.43639946px;line-height:1.25;font-family:'aliens and cows';-inkscape-font-specification:'aliens and cows';fill:#571b16;fill-opacity:1;stroke:#ffc300;stroke-width:0;stroke-miterlimit:4;stroke-dasharray:none;stroke-opacity:1"
             d="m 333.87279,150.13967 c 0.41599,0 0.79329,0.0547 1.1319,0.16412 0.3386,0.10101 0.62883,0.2441 0.87069,0.42927 0.24186,0.18517 0.42567,0.41244 0.55143,0.68179 0.13545,0.26934 0.20316,0.56814 0.20316,0.89641 v 4.59568 c 0,0.37035 -0.087,0.67337 -0.2612,0.90904 -0.16446,0.23568 0.37469,0.54041 -3.19751,0.6066 3.15147,0.0662 3.03305,0.29403 3.19751,0.5297 0.17414,0.22726 0.2612,0.52186 0.2612,0.88379 v 4.93658 c 0,0.0758 -0.0242,0.13889 -0.0726,0.18938 -0.0484,0.0505 -0.12089,0.0757 -0.21768,0.0757 h -0.81264 c -0.28056,0 -0.49338,-0.0673 -0.6385,-0.202 -0.13544,-0.14309 -0.20317,-0.32406 -0.20317,-0.5429 v -4.45681 c 0,-0.22726 -0.0676,-0.40823 -0.20315,-0.5429 -0.12582,-0.14309 -0.33861,-0.21464 -0.63851,-0.21464 h -0.84168 v 5.21435 c 0,0.21884 -0.0726,0.39981 -0.21767,0.5429 -0.13544,0.13467 -0.34343,0.202 -0.62398,0.202 h -0.81266 c -0.0967,0 -0.16929,-0.0252 -0.21766,-0.0757 -0.0484,-0.0505 -0.0723,-0.11359 -0.0726,-0.18938 L 331.01081,151.02 c -0.0983,-1.34063 1.66015,-0.91991 2.86198,-0.88028 z m -0.8707,1.41406 v 6.11075 h 0.84168 c 0.29022,0 0.50307,-0.0715 0.63851,-0.21463 0.13544,-0.14309 0.20315,-0.32406 0.20315,-0.54291 v -4.59568 c 0,-0.21884 -0.0726,-0.39981 -0.21767,-0.5429 -0.13544,-0.14309 -0.40295,-0.17815 -0.62399,-0.21463 -0.27508,-0.0454 -0.84168,0 -0.84168,0 z" />
          <path
             id="path2120-4-8-0-7-9-0-7-9-4-5"
             style="font-style:normal;font-variant:normal;font-weight:normal;font-stretch:normal;font-size:23.43639946px;line-height:1.25;font-family:'aliens and cows';-inkscape-font-specification:'aliens and cows';fill:#571b16;fill-opacity:1;stroke:#ffc300;stroke-width:0;stroke-miterlimit:4;stroke-dasharray:none;stroke-opacity:1"
             d="m 344.07444,158.18212 c 0.10782,0 0.18871,0.0252 0.24263,0.0757 0.054,0.0505 0.0809,0.11359 0.0809,0.18938 v 4.62094 c 0,0.67337 -0.27497,1.20364 -0.82491,1.59082 -0.53918,0.38719 -1.29941,0.58078 -2.28069,0.58078 -0.47446,0 -0.90042,-0.0505 -1.27784,-0.15151 -0.37741,-0.10101 -0.70629,-0.2441 -0.98668,-0.42927 -0.26957,-0.19359 -0.47985,-0.42085 -0.63082,-0.68177 -0.14024,-0.26935 -0.21027,-0.57237 -0.21027,-0.90905 v -10.95895 c 0,-0.67337 0.26958,-1.20364 0.80876,-1.59082 0.54994,-0.38718 1.31556,-0.58077 2.29685,-0.58077 0.46368,0 0.88424,0.0505 1.26165,0.15151 0.38821,0.10099 0.71709,0.24829 0.98668,0.44188 0.28037,0.18517 0.49064,0.41244 0.63083,0.68179 0.15096,0.26093 0.0253,2.28557 0.0546,2.62156 0.0523,0.59972 -0.0564,0.62073 -1.86698,0.89398 l -0.12864,-2.61918 c -0.0104,-0.22714 -0.0755,-0.40823 -0.22646,-0.54291 -0.15096,-0.14308 -0.38819,-0.21462 -0.71169,-0.21462 -0.31271,0 -0.54996,0.0715 -0.7117,0.21462 -0.15097,0.13468 -0.22646,0.31565 -0.22646,0.54291 v 10.95895 c 0,0.22727 0.0756,0.41244 0.22646,0.55553 0.15096,0.13467 0.38819,0.20201 0.7117,0.20201 0.31272,0 0.54456,-0.0673 0.69553,-0.20201 0.16175,-0.14309 0.24262,-0.32826 0.24262,-0.55553 v -3.47202 c -0.64701,0 -0.97051,-0.24409 -0.97051,-0.73228 v -0.42926 c 0,-0.0842 0.0324,-0.1473 0.0971,-0.18939 0.0647,-0.0421 0.14545,-0.0631 0.24264,-0.0631 z" />
          <path
             id="path2122-0-8-01-73-7-3-1-2-1-6"
             style="font-style:normal;font-variant:normal;font-weight:normal;font-stretch:normal;font-size:23.43639946px;line-height:1.25;font-family:'aliens and cows';-inkscape-font-specification:'aliens and cows';fill:#571b16;fill-opacity:1;stroke:#ffc300;stroke-width:0;stroke-miterlimit:4;stroke-dasharray:none;stroke-opacity:1"
             d="m 350.10059,150.13967 c 0.11062,0 0.19654,0.0252 0.25793,0.0757 0.0615,0.0505 0.0983,0.10938 0.11045,0.17675 l 2.02668,14.32998 c 0.0118,0.0757 -0.0246,0.1473 -0.11045,0.21463 -0.0737,0.0673 -0.19646,0.10096 -0.36849,0.10096 h -0.90279 c -0.30708,0 -0.56501,-0.0589 -0.77381,-0.17675 -0.19653,-0.12625 -0.30708,-0.27776 -0.33164,-0.45453 l -0.18424,-2.03271 H 348.295 l -0.18424,2.03271 c -0.0246,0.17677 -0.14111,0.32828 -0.35005,0.45453 -0.19653,0.11783 -0.44834,0.17675 -0.75542,0.17675 h -0.90277 c -0.17196,0 -0.30093,-0.0336 -0.38692,-0.10096 -0.0737,-0.0673 -0.10435,-0.13884 -0.0922,-0.21463 l 2.02667,-14.32998 c 0.0119,-0.0673 0.0491,-0.12622 0.11062,-0.17675 0.0615,-0.0505 0.14738,-0.0757 0.25793,-0.0757 z m -1.67662,10.82008 h 1.27127 l -0.57161,-9.77796 z" />
          <path
             id="path2124-7-7-4-82-8-2-0-00-2-6"
             style="font-style:normal;font-variant:normal;font-weight:normal;font-stretch:normal;font-size:23.43639946px;line-height:1.25;font-family:'aliens and cows';-inkscape-font-specification:'aliens and cows';fill:#571b16;fill-opacity:1;stroke:#ffc300;stroke-width:0;stroke-miterlimit:4;stroke-dasharray:none;stroke-opacity:1"
             d="m 359.48601,154.66121 c -1.38989,0.27946 -1.56197,-1.06257 -1.54599,-2.55196 0,-0.22726 -0.096,-0.40823 -0.28783,-0.54291 -0.17908,-0.14308 -0.45408,-0.21462 -0.82504,-0.21462 -0.38375,0 -0.66517,0.0715 -0.84426,0.21462 -0.17908,0.13468 -0.26862,0.31565 -0.26862,0.54291 0,0.68177 0.0639,1.27097 0.19188,1.76758 0.14061,0.4966 0.32618,0.93428 0.55643,1.31305 0.23024,0.37877 0.48609,0.71965 0.76749,1.02266 0.29422,0.30302 0.58842,0.60603 0.88263,0.90904 0.29422,0.30301 0.58203,0.62707 0.86345,0.97216 0.29422,0.33669 0.55645,0.7365 0.7867,1.19943 0.23024,0.45453 0.40933,0.98901 0.53725,1.60344 0.14078,0.60603 0.21107,1.32989 0.21107,2.17159 0,0.33668 -0.0896,0.6397 -0.26864,0.90905 -0.16636,0.26093 -0.41575,0.48818 -0.74832,0.68177 -0.31979,0.18518 -0.70993,0.32827 -1.17044,0.42927 -0.44772,0.10101 -0.9466,0.15151 -1.49662,0.15151 -1.16404,0 -2.07225,-0.19359 -2.72463,-0.58078 -0.63959,-0.38718 -0.95939,-0.91745 -0.95939,-1.59082 v -3.10587 c 0,-0.0758 0.0319,-0.13889 0.096,-0.18939 0.064,-0.0505 0.15984,-0.0757 0.28782,-0.0757 h 1.0745 c 0.37096,0 0.64598,0.0715 0.82506,0.21463 0.19189,0.13468 0.28783,0.31144 0.28783,0.53028 v 2.6261 c 0,0.22727 0.0896,0.41244 0.26862,0.55553 0.19187,0.13467 0.47328,0.20201 0.84424,0.20201 0.38376,0 0.66517,-0.0673 0.84425,-0.20201 0.17909,-0.14309 0.26864,-0.32826 0.26864,-0.55553 0,-0.80803 -0.0704,-1.49822 -0.21107,-2.07058 -0.12791,-0.57236 -0.30699,-1.06476 -0.53725,-1.47719 -0.23025,-0.42085 -0.49248,-0.78278 -0.78669,-1.08579 -0.28141,-0.31143 -0.56922,-0.60603 -0.86344,-0.88379 -0.29421,-0.28618 -0.58841,-0.58077 -0.88263,-0.88378 -0.28142,-0.30302 -0.53725,-0.66075 -0.76749,-1.07318 -0.23025,-0.41243 -0.41574,-0.89641 -0.55645,-1.45193 -0.1279,-0.55552 -0.19187,-1.23309 -0.19187,-2.03271 0,-0.33668 0.0831,-0.63548 0.24942,-0.89641 0.17908,-0.26935 0.42852,-0.49662 0.74832,-0.68179 0.3326,-0.19359 0.72274,-0.34089 1.17044,-0.44188 0.44772,-0.10101 0.95298,-0.15151 1.51582,-0.15151 1.16405,0 2.06587,0.19359 2.70545,0.58077 0.65238,0.38718 0.97858,0.91745 0.97858,1.59082 0.0642,0.99739 0.85738,2.17339 -1.02519,2.55191 z" />
        </g>
        <g
           transform="matrix(8.1912339,0,0,8.7757029,-2539.8603,-1286.0249)"
           id="g2169-1-4-1-4-42-0-6-39-1-1"
           style="fill:#ffffff;fill-opacity:1"
           clip-path="url(#clipPath4911-7-3)">
          <path
             id="path2116-9-5-6-3-7-5-1-6-2-5"
             style="font-style:normal;font-variant:normal;font-weight:normal;font-stretch:normal;font-size:23.43639946px;line-height:1.25;font-family:'aliens and cows';-inkscape-font-specification:'aliens and cows';fill:#f89f38;fill-opacity:1;stroke:#ffc300;stroke-width:0;stroke-miterlimit:4;stroke-dasharray:none;stroke-opacity:1"
             d="m 329.23685,163.19181 c -0.003,0.67337 -0.29462,1.20364 -0.88388,1.59082 -0.57771,0.38719 -1.39226,0.58078 -2.44367,0.58078 -0.50837,0 -0.96477,-0.0505 -1.36917,-0.15151 -0.40438,-0.101 -0.75678,-0.24409 -1.05719,-0.42927 -0.28885,-0.19359 -0.51414,-0.42084 -0.6759,-0.68177 -0.15027,-0.26935 -0.22532,-0.57237 -0.22532,-0.90905 V 147.7508 c 0,-0.0758 0.0288,-0.13889 0.0867,-0.18939 0.0578,-0.0505 0.14453,-0.0757 0.25998,-0.0757 h 0.97052 c 0.30042,0 0.54305,0.0589 0.72791,0.17677 0.18486,0.11783 0.2773,0.27355 0.2773,0.46714 v 15.06225 c 0,0.22727 0.0809,0.41244 0.24264,0.55553 0.16176,0.13467 0.41594,0.20201 0.76257,0.20201 0.33505,0 0.58346,-0.0673 0.74522,-0.20201 0.17331,-0.14309 0.25996,-0.32826 0.25996,-0.55553 0.7031,-2.54519 -0.0644,-11.88576 0.41509,-14.01621 0.5274,-0.24275 1.18927,-0.39766 1.82063,-0.23077 0.43118,0.11398 -0.0577,-0.0505 0,0 0.0578,0.0505 0.156,0.1136 0.15552,0.18939 -0.0297,4.68581 -0.0689,14.05753 -0.0689,14.05753 z" />
          <path
             id="path2118-6-5-7-4-1-1-6-15-6-5"
             style="font-style:normal;font-variant:normal;font-weight:normal;font-stretch:normal;font-size:23.43639946px;line-height:1.25;font-family:'aliens and cows';-inkscape-font-specification:'aliens and cows';fill:#f89f38;fill-opacity:1;stroke:#ffc300;stroke-width:0;stroke-miterlimit:4;stroke-dasharray:none;stroke-opacity:1"
             d="m 333.87279,150.13967 c 0.41599,0 0.79329,0.0547 1.1319,0.16412 0.3386,0.10101 0.62883,0.2441 0.87069,0.42927 0.24186,0.18517 0.42567,0.41244 0.55143,0.68179 0.13545,0.26934 0.20316,0.56814 0.20316,0.89641 v 4.59568 c -0.31647,1.95056 -2.66956,1.49653 -3.45871,1.51564 3.15147,0.0662 3.03305,0.29403 3.19751,0.5297 0.17414,0.22726 0.2612,0.52186 0.2612,0.88379 v 4.93658 c 0,0.0758 -0.0242,0.13889 -0.0726,0.18938 -0.0484,0.0505 -0.12089,0.0757 -0.21768,0.0757 h -0.81264 c -0.28056,0 -0.49338,-0.0673 -0.6385,-0.202 -0.13544,-0.14309 -0.20317,-0.32406 -0.20317,-0.5429 v -4.45681 c 0,-0.22726 -0.0676,-0.40823 -0.20315,-0.5429 -0.12582,-0.14309 -0.33861,-0.21464 -0.63851,-0.21464 h -0.84168 v 5.21435 c 0,0.21884 -0.0726,0.39981 -0.21767,0.5429 -0.13544,0.13467 -0.34343,0.202 -0.62398,0.202 h -0.81266 c -0.0967,0 -0.16929,-0.0252 -0.21766,-0.0757 -0.0484,-0.0505 -0.0723,-0.11359 -0.0726,-0.18938 L 331.01081,151.02 c -0.0983,-1.34063 1.66015,-0.91991 2.86198,-0.88028 z m -0.8707,1.41406 v 6.11075 h 0.84168 c 0.29022,0 0.50307,-0.0715 0.63851,-0.21463 0.13544,-0.14309 0.20315,-0.32406 0.20315,-0.54291 v -4.59568 c 0,-0.21884 -0.0726,-0.39981 -0.21767,-0.5429 -0.13544,-0.14309 -0.40295,-0.17815 -0.62399,-0.21463 -0.27508,-0.0454 -0.84168,0 -0.84168,0 z" />
          <path
             id="path2120-4-8-0-7-9-0-7-3-0-5"
             style="font-style:normal;font-variant:normal;font-weight:normal;font-stretch:normal;font-size:23.43639946px;line-height:1.25;font-family:'aliens and cows';-inkscape-font-specification:'aliens and cows';fill:#f89f38;fill-opacity:1;stroke:#ffc300;stroke-width:0;stroke-miterlimit:4;stroke-dasharray:none;stroke-opacity:1"
             d="m 344.07444,158.18212 c 0.10782,0 0.18871,0.0252 0.24263,0.0757 0.054,0.0505 0.0809,0.11359 0.0809,0.18938 v 4.62094 c 0,0.67337 -0.27497,1.20364 -0.82491,1.59082 -0.53918,0.38719 -1.29941,0.58078 -2.28069,0.58078 -0.47446,0 -0.90042,-0.0505 -1.27784,-0.15151 -0.37741,-0.10101 -0.70629,-0.2441 -0.98668,-0.42927 -0.26957,-0.19359 -0.47985,-0.42085 -0.63082,-0.68177 -0.14024,-0.26935 -0.21027,-0.57237 -0.21027,-0.90905 v -10.95895 c 0,-0.67337 0.26958,-1.20364 0.80876,-1.59082 0.54994,-0.38718 1.31556,-0.58077 2.29685,-0.58077 0.46368,0 0.88424,0.0505 1.26165,0.15151 0.38821,0.10099 0.71709,0.24829 0.98668,0.44188 0.28037,0.18517 0.49064,0.41244 0.63083,0.68179 0.15096,0.26093 0.0253,2.28557 0.0546,2.62156 0.0523,0.59972 -0.0564,0.62073 -1.86698,0.89398 l -0.12864,-2.61918 c -0.0104,-0.22714 -0.0755,-0.40823 -0.22646,-0.54291 -0.15096,-0.14308 -0.38819,-0.21462 -0.71169,-0.21462 -0.31271,0 -0.54996,0.0715 -0.7117,0.21462 -0.15097,0.13468 -0.22646,0.31565 -0.22646,0.54291 v 10.95895 c 0,0.22727 0.0756,0.41244 0.22646,0.55553 0.15096,0.13467 0.38819,0.20201 0.7117,0.20201 0.31272,0 0.54456,-0.0673 0.69553,-0.20201 0.16175,-0.14309 0.24262,-0.32826 0.24262,-0.55553 v -3.47202 c -0.64701,0 -0.97051,-0.24409 -0.97051,-0.73228 v -0.42926 c 0,-0.0842 0.0324,-0.1473 0.0971,-0.18939 0.0647,-0.0421 0.14545,-0.0631 0.24264,-0.0631 z" />
          <path
             id="path2122-0-8-01-73-7-3-1-5-04-6"
             style="font-style:normal;font-variant:normal;font-weight:normal;font-stretch:normal;font-size:23.43639946px;line-height:1.25;font-family:'aliens and cows';-inkscape-font-specification:'aliens and cows';fill:#f89f38;fill-opacity:1;stroke:#ffc300;stroke-width:0;stroke-miterlimit:4;stroke-dasharray:none;stroke-opacity:1"
             d="m 350.10059,150.13967 c 0.11062,0 0.19654,0.0252 0.25793,0.0757 0.0615,0.0505 0.0983,0.10938 0.11045,0.17675 l 2.02668,14.32998 c 0.0118,0.0757 -0.0246,0.1473 -0.11045,0.21463 -0.0737,0.0673 -0.19646,0.10096 -0.36849,0.10096 h -0.90279 c -0.30708,0 -0.56501,-0.0589 -0.77381,-0.17675 -0.19653,-0.12625 -0.30708,-0.27776 -0.33164,-0.45453 l -0.18424,-2.03271 H 348.295 l -0.18424,2.03271 c -0.0246,0.17677 -0.14111,0.32828 -0.35005,0.45453 -0.19653,0.11783 -0.44834,0.17675 -0.75542,0.17675 h -0.90277 c -0.17196,0 -0.30093,-0.0336 -0.38692,-0.10096 -0.0737,-0.0673 -0.10435,-0.13884 -0.0922,-0.21463 l 2.02667,-14.32998 c 0.0119,-0.0673 0.0491,-0.12622 0.11062,-0.17675 0.0615,-0.0505 0.14738,-0.0757 0.25793,-0.0757 z m -1.67662,10.82008 h 1.27127 l -0.57161,-9.77796 z" />
          <path
             id="path2124-7-7-4-82-8-2-0-8-5-3"
             style="font-style:normal;font-variant:normal;font-weight:normal;font-stretch:normal;font-size:23.43639946px;line-height:1.25;font-family:'aliens and cows';-inkscape-font-specification:'aliens and cows';fill:#f89f38;fill-opacity:1;stroke:#ffc300;stroke-width:0;stroke-miterlimit:4;stroke-dasharray:none;stroke-opacity:1"
             d="m 359.48601,154.66121 c -1.38989,0.27946 -1.56197,-1.06257 -1.54599,-2.55196 0,-0.22726 -0.096,-0.40823 -0.28783,-0.54291 -0.17908,-0.14308 -0.45408,-0.21462 -0.82504,-0.21462 -0.38375,0 -0.66517,0.0715 -0.84426,0.21462 -0.17908,0.13468 -0.26862,0.31565 -0.26862,0.54291 0,0.68177 0.0639,1.27097 0.19188,1.76758 0.14061,0.4966 0.32618,0.93428 0.55643,1.31305 0.23024,0.37877 0.48609,0.71965 0.76749,1.02266 0.29422,0.30302 0.58842,0.60603 0.88263,0.90904 0.29422,0.30301 0.58203,0.62707 0.86345,0.97216 0.29422,0.33669 0.55645,0.7365 0.7867,1.19943 0.23024,0.45453 0.40933,0.98901 0.53725,1.60344 0.14078,0.60603 0.21107,1.32989 0.21107,2.17159 0,0.33668 -0.0896,0.6397 -0.26864,0.90905 -0.16636,0.26093 -0.41575,0.48818 -0.74832,0.68177 -0.31979,0.18518 -0.70993,0.32827 -1.17044,0.42927 -0.44772,0.10101 -0.9466,0.15151 -1.49662,0.15151 -1.16404,0 -2.07225,-0.19359 -2.72463,-0.58078 -0.63959,-0.38718 -0.95939,-0.91745 -0.95939,-1.59082 v -3.10587 c 0,-0.0758 0.0319,-0.13889 0.096,-0.18939 0.064,-0.0505 0.15984,-0.0757 0.28782,-0.0757 h 1.0745 c 0.37096,0 0.64598,0.0715 0.82506,0.21463 0.19189,0.13468 0.28783,0.31144 0.28783,0.53028 v 2.6261 c 0,0.22727 0.0896,0.41244 0.26862,0.55553 0.19187,0.13467 0.47328,0.20201 0.84424,0.20201 0.38376,0 0.66517,-0.0673 0.84425,-0.20201 0.17909,-0.14309 0.26864,-0.32826 0.26864,-0.55553 0,-0.80803 -0.0704,-1.49822 -0.21107,-2.07058 -0.12791,-0.57236 -0.30699,-1.06476 -0.53725,-1.47719 -0.23025,-0.42085 -0.49248,-0.78278 -0.78669,-1.08579 -0.28141,-0.31143 -0.56922,-0.60603 -0.86344,-0.88379 -0.29421,-0.28618 -0.58841,-0.58077 -0.88263,-0.88378 -0.28142,-0.30302 -0.53725,-0.66075 -0.76749,-1.07318 -0.23025,-0.41243 -0.41574,-0.89641 -0.55645,-1.45193 -0.1279,-0.55552 -0.19187,-1.23309 -0.19187,-2.03271 0,-0.33668 0.0831,-0.63548 0.24942,-0.89641 0.17908,-0.26935 0.42852,-0.49662 0.74832,-0.68179 0.3326,-0.19359 0.72274,-0.34089 1.17044,-0.44188 0.44772,-0.10101 0.95298,-0.15151 1.51582,-0.15151 1.16405,0 2.06587,0.19359 2.70545,0.58077 0.65238,0.38718 0.97858,0.91745 0.97858,1.59082 0.0642,0.99739 0.85738,2.17339 -1.02519,2.55191 z" />
        </g>
      </g>
    </g>
  </g>
</svg>
