<?xml version="1.0" encoding="UTF-8" standalone="no"?>
<svg
   xmlns:dc="http://purl.org/dc/elements/1.1/"
   xmlns:cc="http://creativecommons.org/ns#"
   xmlns:rdf="http://www.w3.org/1999/02/22-rdf-syntax-ns#"
   xmlns:svg="http://www.w3.org/2000/svg"
   xmlns="http://www.w3.org/2000/svg"
   xmlns:sodipodi="http://sodipodi.sourceforge.net/DTD/sodipodi-0.dtd"
   xmlns:inkscape="http://www.inkscape.org/namespaces/inkscape"
   data-name="Layer 1"
   width="900"
   height="673.00018"
   version="1.1"
   id="svg175"
   sodipodi:docname="wallet.svg"
   inkscape:version="0.92.3 (2405546, 2018-03-11)">
  <metadata
     id="metadata179">
    <rdf:RDF>
      <cc:Work
         rdf:about="">
        <dc:format>image/svg+xml</dc:format>
        <dc:type
           rdf:resource="http://purl.org/dc/dcmitype/StillImage" />
        <dc:title></dc:title>
      </cc:Work>
    </rdf:RDF>
  </metadata>
  <sodipodi:namedview
     pagecolor="#ffffff"
     bordercolor="#666666"
     borderopacity="1"
     objecttolerance="10"
     gridtolerance="10"
     guidetolerance="10"
     inkscape:pageopacity="0"
     inkscape:pageshadow="2"
     inkscape:window-width="1366"
     inkscape:window-height="706"
     id="namedview177"
     showgrid="false"
     inkscape:zoom="7.5237888"
     inkscape:cx="806.42807"
     inkscape:cy="85.910387"
     inkscape:window-x="-8"
     inkscape:window-y="-8"
     inkscape:window-maximized="1"
     inkscape:current-layer="svg175"
     fit-margin-top="0"
     fit-margin-left="0"
     fit-margin-right="0"
     fit-margin-bottom="0"
     showguides="true"
     inkscape:guide-bbox="true" />
  <defs
     id="defs9">
    <linearGradient
       id="a"
       x1="790.70001"
       y1="664.40002"
       x2="790.70001"
       y2="175.8"
       gradientUnits="userSpaceOnUse">
      <stop
         offset="0"
         stop-color="gray"
         stop-opacity=".3"
         id="stop2" />
      <stop
         offset=".5"
         stop-color="gray"
         stop-opacity=".1"
         id="stop4" />
      <stop
         offset="1"
         stop-color="gray"
         stop-opacity=".1"
         id="stop6" />
    </linearGradient>
  </defs>
  <g
     style="opacity:0.226;fill:#ff5722;stroke:none"
     transform="matrix(-0.01239101,-0.00629204,0.00629204,-0.01239101,865.49306,693.32804)"
     id="g24">
    <path
       d="m 8504,10887 c -449.6248,-666.879 -723.299,-1523.9269 -528.946,-2322.1293 41.5759,-261.2991 344.9967,-910.4627 341.7017,-267.8708 74.2185,477.8123 300.3359,1875.1881 189.3844,1569.1051 16.2766,-525.3156 247.2299,-1041.6679 30.6365,-1713.574 587.4116,406.2833 547.9947,1509.7111 292.2647,2155.315 C 8584.461,10925.302 8655.1783,10961.688 8504,10887 Z"
       id="path4"
       inkscape:connector-curvature="0"
       sodipodi:nodetypes="cccccsc"
       style="" />
    <path
       d="m 11285,9690 c -624.252,-24.1895 -1653.2706,-385.9057 -1478.9686,-1007.0534 108.3027,-385.9507 800.8456,247.4602 1134.0636,356.3996 193.765,63.3481 1145.017,249.3441 591.606,49.2272 -890.598,-322.0458 -1767.3357,-734.5778 -1572.9549,-729.7495 697.8579,17.3344 1417.5319,-20.7796 1988.1189,402.4524 265.831,197.1795 989.503,1022.2351 762.389,893.2384 C 12296.31,9419.9702 11759.646,9708.3923 11285,9690 Z"
       id="path6"
       inkscape:connector-curvature="0"
       sodipodi:nodetypes="ssssssss"
       style="" />
    <path
       d="m 6440,9513 c -685.2741,-920.1231 -627.3777,-2295.8012 -29.5088,-3212.0457 45.2084,780.9666 56.9725,1567.6346 128.0568,2346.3495 88.8284,-770.1073 65.2119,-1550.0258 164.1131,-2319.0123 394.9208,562.5333 563.9761,956.6325 342.8202,1848.3958 C 6932.6645,8524.5572 6637.989,9023.2233 6440,9513 Z"
       id="path8"
       inkscape:connector-curvature="0"
       sodipodi:nodetypes="cccccc" />
    <path
       d="M 9353,8365 C 8582.2433,7918.8454 7846.5721,7364.3463 7355.0196,6610.8217 6825.4087,5975.9033 6398.1651,5257.9576 5787.1938,4691.8492 4518.8933,3432.1861 2731.7589,2830.9751 971.32352,2754.9044 706.35704,2690.6214 -8.3450701,2748.0873 89.025556,2415.2684 1371.4937,2487.0372 3942.1474,2805.0711 5440.0409,4004.233 c 1127.48,804.9317 1795.1123,2047.3247 2690.034,3071.5361 389.76,433.696 701.0494,792.5893 1240.9287,1018.6992 0,0 460.5627,364.71 -18.0036,270.5317 z"
       id="path10"
       inkscape:connector-curvature="0"
       sodipodi:nodetypes="ccccccccc"
       style="" />
    <path
       d="m 4200,7854 c -388.3688,-562.9217 -739.7359,-1191.0134 -713.3081,-1899.2753 -29.26,-603.5915 140.3762,-1213.516 437.1221,-1737.0567 230.8123,522.2885 238.409,1533.1891 211.1453,1335.1102 42.1443,476.2564 196.6503,1902.0879 134.0802,1428.8027 33.6898,-980.8856 14.2554,-1970.2595 53.952,-2952.1944 734.8902,976.4011 856.2825,2361.6235 310.1717,3457.3098 C 4577.6844,7611.4601 4354.3097,8149.202 4200,7854 Z"
       id="path12"
       inkscape:connector-curvature="0"
       style="" />
    <path
       d="m 9219,7595 c -938.23,-53.322 1320.81,-587.6872 609.062,-428.9757 223.07,-73.5829 736.064,-240.0911 787.194,-316.0243 -566.494,76.5845 -1109.3681,279.5646 -1673.5695,376.1343 C 9177.4108,6846.4023 9634.135,6616.6092 10060,6494 c 553.389,-86.1074 1127.747,-107.9269 1681,-22.375 -455.325,242.6806 -302.124,408.4345 -976.461,849.8987 C 10291.68,7574.5276 9748.1275,7645.5916 9219,7595 Z"
       id="path14"
       inkscape:connector-curvature="0"
       sodipodi:nodetypes="cccccccc"
       style="" />
    <path
       d="M 1740,7577 C 1104.6458,6941.7002 780.64381,6033.6694 666.5948,5169.6318 648.01277,4691.4491 1143.0098,2842.2466 1085.3021,3568.036 1298.2599,4515.7374 1404.9814,5483.6064 1600,6435 1551.7417,5384.1957 1463.9789,4334.2417 1413,3283 2170.5599,4043.8605 2375.2561,5189.6888 2252.253,6220.2061 2182.8785,6799.0003 1882.4349,7094.1739 1740,7577 Z"
       id="path16"
       inkscape:connector-curvature="0"
       sodipodi:nodetypes="ccccccc"
       style="" />
    <path
       d="m 8180,5819 c -207.6594,12.3517 -1150.1749,-223.9042 -496.0386,-297.1373 446.1523,-136.3848 1875.5075,-399.2711 1737.2862,-488.3278 -658.8005,47.0809 -1304.4591,227.4007 -1962.7699,260.4881 193.5771,-508.6428 983.9292,-823.9029 1469.1821,-757.6231 838.9292,-8.8336 1207.0382,391.1713 1587.0912,321.8079 C 9890.2148,5448.0859 9060.0532,5881.4201 8180,5819 Z"
       id="path18"
       inkscape:connector-curvature="0"
       sodipodi:nodetypes="ccccccc" />
    <path
       d="m 5640,3449 c -257.0308,-3.7866 -901.9734,-103.8243 -309.9562,-219.1497 735.5455,-262.3924 1555.3176,-488.9696 2240.5038,-768.6321 -884.6304,104.6514 -1729.1986,420.4139 -2611.5034,540.751 301.1925,-474.8818 776.6425,-831.7921 1321.6365,-986.5152 C 7040.6385,1777.5683 7902.0026,1806.4599 8633,2129 8040.6475,2565.1958 7068.4646,3516.7445 5981.6471,3458.3143 5867.7325,3456.4845 5753.8806,3452.1585 5640,3449 Z"
       id="path20"
       inkscape:connector-curvature="0"
       sodipodi:nodetypes="cccccccc"
       style="" />
    <path
       d="M 1784,2199 C 1667.0153,1985.0806 1951.3552,1898.0726 2680.5145,1560.6127 3274.7292,1293.2993 3852.9838,982.69753 4377.0368,616.02628 3763.8642,778.8293 3117.0726,1041.731 2555.1284,1347.3769 c -336.3973,187.449 -341.6067,203.4875 -992.1705,297.82 -2.3975,-591.1007 1052.008,-1521.41151 2155.3222,-1496.58591 421.9898,21.82243 1114.0296,213.76649 1541.4464,-38.87772 C 5212.5727,471.26787 4333.3287,1264.1485 3648.1008,1712.7662 3130.1747,2006.6736 2374.4941,2236.8276 1784,2199 Z"
       id="path22"
       inkscape:connector-curvature="0"
       sodipodi:nodetypes="ccccccccc"
       style="" />
  </g>
  <path
     d="m 417.25,427.2 c 6.6,0.9 13.5,1.4 19.8,-0.6 1,-0.4 2.1,-1 2,-2 a 2.4,2.4 0 0 0 -0.4,-1 61.8,61.8 0 0 1 -6,-11.5 1,1 0 0 0 -0.4,-0.5 1,1 0 0 0 -0.6,0 c -3,0.8 -5.5,2.7 -8.4,3.5 a 11.9,11.9 0 0 1 -4.6,0.3 c -1.3,-0.1 -3.1,-1.2 -4.3,-1 0.7,4.3 2.3,8.4 2.9,12.8 z m 125.3,-11 c 4.4,-3 9,-6.2 11.5,-10.8 a 1.9,1.9 0 0 0 0.3,-1 2,2 0 0 0 -0.3,-0.8 37.2,37.2 0 0 0 -9.4,-10.1 27.2,27.2 0 0 0 -5.2,4.8 c -1,1.1 -4.1,3 -4.1,4.8 0,1 1.1,2.1 1.7,3 a 63,63 0 0 1 5.5,10 z"
     id="path17"
     inkscape:connector-curvature="0"
     style="fill:#ca313c" />
  <path
     d="m 443.15,440.6 a 4.5,4.5 0 0 1 -0.8,3 4,4 0 0 1 -1.6,1 c -9.3,3.2 -20,-0.9 -29.3,2.4 -1.9,0.6 -3.7,1.6 -5.6,2.2 a 30.5,30.5 0 0 1 -7,1.3 l -9.8,0.6 a 23.7,23.7 0 0 1 -7.5,-0.7 9,9 0 0 1 -5.6,-4.5 4.3,4.3 0 0 1 -0.3,-3.2 3.5,3.5 0 0 1 0.6,-1 8.8,8.8 0 0 1 2.2,-1.7 l 3.4,-2.2 a 22.9,22.9 0 0 1 5.1,-2.8 l 4.2,-1 c 4.8,-1.4 8.4,-5.2 11.8,-8.8 l 4.7,-5 a 4.7,4.7 0 0 1 1.6,-1.3 4.5,4.5 0 0 1 2,-0.2 26.7,26.7 0 0 1 12.6,4.3 16.4,16.4 0 0 0 3.2,1.8 c 2.7,1 6.2,0.3 8.7,-1 1.2,-0.7 1,-1 1.4,-2.2 0.4,-1.2 1.7,-1.9 2.8,-0.8 a 3,3 0 0 1 0.7,1.2 c 1,3.3 0.6,6.9 0.6,10.3 a 4.5,4.5 0 0 0 0.2,1.6 9,9 0 0 0 0.9,1.5 3.4,3.4 0 0 1 0.2,0.4 10.2,10.2 0 0 1 0.6,4.8 z"
     id="path19"
     inkscape:connector-curvature="0"
     style="fill:#514e7f" />
  <path
     d="m 443.15,440.6 a 4.5,4.5 0 0 1 -0.8,3 4,4 0 0 1 -1.6,1 c -9.3,3.2 -20,-0.9 -29.3,2.4 -1.9,0.6 -3.7,1.6 -5.6,2.2 a 30.5,30.5 0 0 1 -7,1.3 l -9.8,0.6 a 23.7,23.7 0 0 1 -7.5,-0.7 9,9 0 0 1 -5.6,-4.5 4.3,4.3 0 0 1 -0.3,-3.2 3.5,3.5 0 0 1 0.6,-1 l 1.3,3.2 a 6.5,6.5 0 0 0 4.3,3.1 10.8,10.8 0 0 0 4,-0.5 c 8.4,-2 17.3,-2.1 25.4,-5.2 2.8,-1.1 5.4,-2.6 8.3,-3.2 2.9,-0.6 6,-0.5 9,-0.8 4.7,-0.4 9.3,-1.8 14,-2.5 a 10.2,10.2 0 0 1 0.6,4.8 z"
     id="path21"
     inkscape:connector-curvature="0"
     style="fill:#464353" />
  <path
     d="m 563.85,415.5 c -0.5,3.6 -2.7,6.6 -5.1,9.2 -2.4,2.6 -5.3,4.8 -7.2,7.8 -2.4,3.7 -3.5,8.2 -6.6,11.3 a 18.1,18.1 0 0 1 -4,2.9 28,28 0 0 1 -5.2,2.3 38.4,38.4 0 0 1 -14.5,0.8 13,13 0 0 1 -4.6,-0.9 14,14 0 0 1 -2,-1.1 9.2,9.2 0 0 1 -3,-3 3,3 0 0 1 -0.3,-2.2 5.1,5.1 0 0 1 1.4,-2.1 33,33 0 0 1 3.6,-3.2 21,21 0 0 0 4.5,-4 13,13 0 0 0 1.8,-4 35.5,35.5 0 0 0 1.3,-7.7 24.3,24.3 0 0 1 0.5,-5 c 0.8,-2.7 2.7,-5 2.5,-7.8 a 2,2 0 0 1 0.1,-1.2 1.6,1.6 0 0 1 1,-0.5 16.3,16.3 0 0 1 4.7,-1.2 5.6,5.6 0 0 1 4.4,1.8 c 0.7,0.8 1.2,2 2.2,2.3 a 3.4,3.4 0 0 0 1.5,0 c 2.5,-0.2 5,-0.5 7,-2 a 8.7,8.7 0 0 0 2.9,-6.5 c 0,-0.9 -0.4,-1.8 1,-2 1,0 1.9,1 2.4,1.7 2,2.7 4,5.4 4.7,8.6 a 2.5,2.5 0 0 1 1,-0.2 3.9,3.9 0 0 1 3.1,1.6 6.3,6.3 0 0 1 0.9,4.3 z"
     id="path23"
     inkscape:connector-curvature="0"
     style="fill:#514e7f" />
  <path
     d="m 563.85,415.5 c -0.5,3.6 -2.7,6.6 -5.1,9.2 -2.4,2.6 -5.3,4.8 -7.2,7.8 -2.4,3.7 -3.5,8.2 -6.6,11.3 a 18.1,18.1 0 0 1 -4,2.9 28,28 0 0 1 -5.2,2.3 38.4,38.4 0 0 1 -14.5,0.8 13,13 0 0 1 -4.6,-0.9 14,14 0 0 1 -2,-1.1 9.2,9.2 0 0 1 -3,-3 7.3,7.3 0 0 1 3,-0.8 c 2.2,0.2 3.8,2.2 5.8,2.8 3,1 6,-1.2 9,-1.9 1.9,-0.4 4,-0.3 5.9,-1 a 14.7,14.7 0 0 0 4.3,-2.6 22.4,22.4 0 0 0 4.7,-4.5 29,29 0 0 0 2.8,-5.5 78.5,78.5 0 0 1 5.5,-10.7 7.5,7.5 0 0 1 1.2,-1.5 c 0.4,-0.4 1,-0.7 1.5,-1 2,-1.6 2.8,-4 3.5,-6.5 a 11.3,11.3 0 0 1 0.8,-2.2 3.9,3.9 0 0 1 3.2,1.7 6.3,6.3 0 0 1 1,4.4 z"
     id="path25"
     inkscape:connector-curvature="0"
     style="fill:#464353" />
  <path
     d="m 626.95,281.6 v -12.4 a 34.5,34.5 0 0 0 -34.4,-34.5 h -490.5 a 34.5,34.5 0 0 0 -34.5,34.5 V 292 Z"
     id="path43"
     style="fill:#810920;fill-opacity:1;stroke:#3e2029;stroke-width:5.0999999;stroke-miterlimit:4;stroke-dasharray:none;stroke-opacity:1"
     inkscape:connector-curvature="0" />
  <path
     d="m 236.05,220.1 c 0,0 -1.5,86.9 14,115.5 15.5,28.6 22,152.9 22,152.9 0,0 161.4,16.7 273.9,-20 112.5,-36.7 351.9,-51.7 351.9,-51.7 l -40.4,-272 c 0,0 -199.3,-12.7 -312.6,41.4 -113.3,54.1 -308.9,34 -308.9,34 z"
     id="path45"
     inkscape:connector-curvature="0"
     style="fill:#8dd070" />
  <path
     d="m 236.05,220.1 c 0,0 -1.5,86.9 14,115.5 15.5,28.6 22,152.9 22,152.9 0,0 161.4,16.7 273.9,-20 112.5,-36.7 351.9,-51.7 351.9,-51.7 l -40.4,-272 c 0,0 -199.3,-12.7 -312.6,41.4 -113.3,54.1 -308.9,34 -308.9,34 z"
     id="path47"
     inkscape:connector-curvature="0"
     style="opacity:0.1" />
  <path
     d="m 271.75,251.9 c 0,0 -5,71.6 7.6,94.5 12.6,22.9 13.2,125.2 13.2,125.2 0,0 145.3,6.7 248.7,-28.5 103.4,-35.2 320.5,-58 320.5,-58 l -24.7,-222.3 c 0,0 -179.7,-1.9 -284.5,47.6 -104.8,49.5 -280.8,41.6 -280.8,41.6 z"
     id="path49"
     inkscape:connector-curvature="0"
     style="fill:#8dd070" />
  <ellipse
     cx="496.90503"
     cy="386.50354"
     rx="37.700001"
     ry="80.900002"
     transform="rotate(-7.1)"
     id="ellipse51"
     style="opacity:0.1" />
  <path
     d="m 748.15,12.4 c 0,0 -193.6,49 -284.9,135.3 -91.3,86.3 -283.5,127 -283.5,127 0,0 25.4,83.2 48.8,105.6 23.4,22.4 67.8,138.8 67.8,138.8 0,0 158.8,-33.6 254.7,-103.1 95.9,-69.5 319,-157.2 319,-157.2 z"
     id="path53"
     inkscape:connector-curvature="0"
     style="opacity:0.2" />
  <path
     d="m 176.85,262.3 c 0,0 25.3,83.1 48.7,105.6 23.4,22.5 67.9,138.8 67.9,138.8 0,0 158.8,-33.7 254.6,-103.1 95.8,-69.4 319,-157.2 319,-157.2 L 745.25,0 c 0,0 -193.6,49 -284.9,135.3 -91.3,86.3 -283.5,127 -283.5,127 z"
     id="path55"
     inkscape:connector-curvature="0"
     style="fill:#8dd070" />
  <path
     d="m 176.85,262.3 c 0,0 25.3,83.1 48.7,105.6 23.4,22.5 67.9,138.8 67.9,138.8 0,0 158.8,-33.7 254.6,-103.1 95.8,-69.4 319,-157.2 319,-157.2 L 745.25,0 c 0,0 -193.6,49 -284.9,135.3 -91.3,86.3 -283.5,127 -283.5,127 z"
     id="path57"
     inkscape:connector-curvature="0"
     style="opacity:0.1" />
  <path
     style="fill:#8dd070"
     d="m 220.55,281.6 c 9.53724,34.42169 18.99642,70.90236 43.9752,97.68066 C 283.27542,412.27139 295.41082,448.49002 307.85,484.2 394.90958,458.54465 480.90522,423.91996 553.51143,368.43149 638.62921,313.00434 730.91781,269.68728 823.05,227.4 792.48333,159.36667 761.91667,91.333333 731.35,23.3 643.60648,53.187222 555.56548,89.273311 483.32824,148.63354 413.45443,214.12292 321.87315,249.49851 232.0269,278.2658 c -3.81561,1.14522 -7.63627,2.27537 -11.4769,3.3342 z"
     id="path59"
     inkscape:connector-curvature="0" />
  <ellipse
     cx="339.25751"
     cy="451.37466"
     rx="37.700001"
     ry="80.900002"
     transform="rotate(-25)"
     id="ellipse61"
     style="opacity:0.1" />
  <path
     inkscape:connector-curvature="0"
     style="opacity:0.21600001;fill:#504f60"
     d="m 639.75,294.2 v 345 a 29.8,29.8 0 0 1 -29.9,29.8 h -513 A 29.8,29.8 0 0 1 67.05,639.2 V 259.4 c 14.7,5.4 14.7,5.4 29.8,5 h 513 a 29.8,29.8 0 0 1 29.9,29.8 z"
     id="path65-2" />
  <path
     d="m 637.75,298.2 v 345 a 29.8,29.8 0 0 1 -29.9,29.8 h -513 A 29.8,29.8 0 0 1 65.05,643.2 V 263.4 c 14.7,5.4 14.7,5.4 29.8,5 h 513 a 29.8,29.8 0 0 1 29.9,29.8 z"
     id="path65"
     style="fill:#3e2029;fill-opacity:1"
     inkscape:connector-curvature="0" />
  <path
     d="M 636.25,425.7 V 536 h -107 a 55.2,55.2 0 0 1 0,-110.3 z"
     id="path67"
     inkscape:connector-curvature="0"
     style="opacity:0.1" />
  <path
     d="M 637.75,422.8 V 533 h -107 a 55.2,55.2 0 0 1 0,-110.3 z"
     id="path69"
     style="fill:#810920;fill-opacity:1"
     inkscape:connector-curvature="0" />
  <circle
     cx="535.84998"
     cy="480.89999"
     r="21.5"
     id="circle71"
     style="opacity:0.1" />
  <circle
     cx="537.34998"
     cy="478"
     r="21.5"
     id="circle73"
     style="fill:#a02c2c" />
</svg>
