<?xml version="1.0" standalone="no"?>
<!DOCTYPE svg PUBLIC "-//W3C//DTD SVG 20010904//EN"
 "http://www.w3.org/TR/2001/REC-SVG-20010904/DTD/svg10.dtd">
<svg version="1.0" xmlns="http://www.w3.org/2000/svg"
 width="882.000000pt" height="1280.000000pt" viewBox="0 0 882.000000 1280.000000"
 preserveAspectRatio="xMidYMid meet">
<metadata>
Created by potrace 1.15, written by Peter Selinger 2001-2017
</metadata>
<g transform="translate(0.000000,1280.000000) scale(0.100000,-0.100000)"
fill="#ff5722" stroke="none">
<path d="M3463 12770 c-16 -19 -23 -42 -23 -69 0 -38 -2 -41 -27 -41 -16 0
-23 -4 -17 -8 6 -4 15 -26 19 -49 l7 -43 -46 6 c-60 9 -67 -9 -31 -77 27 -52
27 -79 1 -79 -9 0 -20 -9 -26 -21 -9 -16 -7 -28 9 -60 22 -42 27 -79 12 -79
-6 0 -26 9 -46 21 -50 30 -69 20 -62 -32 3 -23 14 -51 25 -62 25 -27 92 -141
92 -157 0 -6 -40 10 -88 35 -113 58 -122 58 -122 0 0 -50 16 -89 49 -119 12
-11 21 -24 21 -31 0 -7 9 -20 21 -31 33 -29 92 -114 85 -121 -3 -4 -23 1 -43
11 -32 15 -69 26 -155 43 -67 13 -101 -23 -58 -62 11 -10 22 -27 26 -39 3 -11
28 -43 55 -71 108 -110 127 -131 144 -157 20 -32 9 -36 -36 -12 -16 8 -39 12
-50 9 -12 -4 -31 2 -52 17 -31 22 -47 25 -177 31 l-55 2 -3 -40 c-3 -37 1 -44
37 -73 37 -29 39 -35 28 -53 -10 -18 -9 -23 7 -33 10 -6 38 -23 62 -38 25 -15
49 -39 54 -53 5 -14 31 -40 57 -58 65 -43 123 -101 123 -121 0 -25 -39 -19
-119 19 -40 19 -85 35 -101 35 -15 0 -33 7 -41 16 -27 32 -67 45 -106 35 -31
-9 -43 -7 -71 10 -30 17 -45 19 -103 13 -54 -5 -70 -10 -74 -25 -8 -26 10 -56
46 -75 29 -14 30 -17 15 -33 -22 -24 -21 -27 24 -57 42 -28 50 -48 24 -58 -25
-10 -8 -23 90 -69 52 -25 153 -84 225 -132 104 -69 140 -99 176 -148 67 -90
56 -121 -30 -80 -29 14 -38 25 -46 60 -10 36 -20 48 -68 80 -42 29 -66 38 -96
37 -38 -1 -43 3 -85 60 -44 59 -47 61 -93 62 -34 1 -58 9 -87 29 -34 23 -46
26 -82 21 -33 -5 -65 1 -136 24 -52 17 -98 28 -103 24 -14 -8 1 -56 27 -85 13
-14 24 -34 24 -45 0 -11 11 -31 25 -44 30 -28 32 -46 5 -55 -11 -3 -20 -15
-20 -25 0 -18 53 -70 71 -70 15 0 10 -22 -8 -35 -9 -7 -13 -17 -9 -24 4 -6 52
-34 107 -61 70 -36 99 -55 99 -68 0 -13 37 -39 125 -87 126 -70 261 -162 252
-172 -3 -2 -21 1 -40 8 -30 10 -40 10 -68 -4 -36 -17 -49 -10 -49 26 0 12 -18
27 -56 44 -46 21 -60 23 -80 14 -37 -16 -53 -14 -65 12 -5 12 -38 40 -71 62
-83 54 -96 58 -110 36 -9 -15 -17 -17 -40 -11 -15 5 -35 16 -44 24 -22 22 -58
30 -82 17 -29 -15 -38 -14 -59 8 -30 31 -64 36 -82 13 -15 -19 -21 -20 -86
-12 -110 15 -155 13 -162 -7 -4 -11 1 -22 16 -32 26 -17 111 -98 111 -105 0
-3 -10 -6 -22 -8 -15 -2 -24 -11 -26 -25 -3 -18 7 -27 48 -48 49 -25 51 -27
36 -44 -9 -10 -16 -22 -16 -28 0 -16 33 -41 65 -48 56 -12 58 -14 46 -29 -10
-12 -1 -21 44 -48 68 -40 115 -76 115 -89 0 -5 -15 -9 -33 -9 -21 0 -41 -8
-52 -20 -27 -29 -51 -25 -75 16 -29 46 -63 68 -95 60 -14 -4 -25 -11 -25 -16
0 -21 -57 -10 -80 15 -25 27 -59 32 -90 13 -15 -10 -24 -9 -46 2 -17 10 -58
15 -118 15 l-91 0 0 -28 c-1 -17 -8 -33 -18 -38 -24 -14 -21 -34 8 -47 34 -15
32 -31 -5 -38 -35 -8 -42 -39 -10 -49 26 -8 25 -29 -3 -48 -32 -22 -13 -47 54
-72 67 -26 70 -46 9 -58 -88 -17 -93 -47 -14 -82 31 -14 87 -34 124 -45 38
-11 72 -25 75 -31 4 -5 -11 -17 -34 -26 -39 -15 -59 -40 -44 -53 4 -4 50 -15
101 -24 52 -9 113 -23 135 -31 23 -9 68 -18 100 -21 37 -5 57 -11 57 -20 0
-16 -31 -34 -59 -34 -11 0 -33 -11 -49 -25 l-29 -24 -24 26 c-26 28 -137 83
-168 83 -33 0 -51 -11 -51 -31 0 -31 -36 -23 -91 21 -28 22 -55 40 -61 40 -13
0 -50 -20 -67 -37 -14 -14 -26 -14 -94 3 -21 5 -36 1 -58 -15 -24 -18 -49 -24
-122 -28 -51 -3 -97 -10 -104 -15 -21 -17 -64 -101 -59 -115 3 -7 12 -13 21
-13 13 0 13 -3 3 -20 -15 -24 -10 -29 47 -43 56 -15 60 -29 12 -42 -47 -13
-53 -21 -33 -44 11 -12 43 -23 93 -31 42 -7 86 -16 97 -20 21 -8 21 -8 1 -15
-72 -26 -145 -66 -145 -79 0 -9 3 -16 8 -17 88 -10 211 -20 300 -25 61 -3 112
-10 112 -15 0 -4 -26 -13 -59 -20 -81 -16 -88 -21 -67 -53 14 -23 23 -26 70
-26 30 0 98 -9 151 -20 53 -11 121 -20 150 -20 70 0 145 -11 145 -21 0 -4 -20
-11 -43 -14 -90 -14 -88 -36 5 -54 140 -28 218 -41 318 -56 142 -22 394 -82
455 -110 28 -12 77 -34 110 -49 105 -47 135 -121 155 -381 13 -162 12 -435 0
-435 -28 0 -60 37 -83 93 -25 62 -57 264 -57 358 0 87 -95 259 -143 259 -14 0
-43 23 -81 66 -55 62 -61 66 -93 61 -19 -3 -46 -16 -62 -29 -16 -13 -36 -27
-45 -33 -16 -9 -16 -13 -1 -48 17 -42 13 -57 -16 -57 -24 0 -24 -23 -4 -121
16 -77 14 -89 -13 -73 -29 18 -60 96 -77 194 -18 106 -27 119 -113 178 -83 58
-101 65 -117 52 -9 -8 -12 -22 -8 -42 6 -29 5 -31 -21 -26 -24 5 -29 1 -38
-23 -19 -55 -51 -24 -64 61 -5 33 -11 40 -28 40 -13 0 -32 13 -44 30 -16 22
-31 30 -53 30 -21 0 -42 12 -73 40 -24 22 -50 40 -58 40 -15 0 -31 -26 -43
-67 -4 -16 -14 -23 -33 -24 -47 -2 -56 2 -97 42 -40 38 -133 78 -183 79 -30 0
-62 -17 -62 -34 0 -7 -9 -21 -20 -31 -18 -17 -21 -17 -45 -1 -14 9 -25 20 -25
25 0 4 -30 21 -67 36 -105 45 -163 35 -163 -26 0 -35 -4 -36 -55 -4 -52 32
-129 35 -145 5 -9 -17 -21 -20 -78 -20 -39 0 -73 -5 -80 -12 -6 -6 -33 -15
-59 -19 -61 -9 -172 -34 -177 -40 -2 -2 -6 -24 -7 -49 -3 -39 -1 -45 20 -50
21 -5 22 -7 7 -19 -26 -22 -7 -34 44 -27 80 11 106 -14 50 -46 -36 -20 -39
-43 -8 -52 13 -3 69 -6 126 -6 56 0 102 -4 102 -9 0 -5 -26 -17 -57 -26 -92
-26 -114 -36 -111 -54 4 -20 49 -27 231 -37 76 -4 140 -10 142 -14 2 -4 -30
-18 -71 -31 -110 -35 -111 -54 -4 -86 63 -18 167 -24 435 -25 174 0 187 -1
157 -14 -19 -8 -70 -19 -114 -25 -57 -7 -91 -17 -117 -34 -37 -26 -75 -32 -86
-15 -3 6 -20 17 -37 26 -29 15 -34 15 -79 -6 -26 -13 -50 -31 -52 -41 -6 -24
-39 -25 -53 -1 -15 24 -128 82 -159 82 -19 0 -28 -8 -39 -35 -8 -19 -22 -35
-31 -35 -9 0 -31 16 -51 35 -42 42 -57 43 -90 8 -21 -23 -27 -25 -50 -15 -36
17 -68 15 -95 -7 -14 -10 -49 -20 -83 -24 -68 -7 -107 -30 -120 -73 -4 -16
-12 -37 -18 -47 -12 -25 -4 -34 37 -41 39 -8 45 -20 15 -36 -30 -16 -26 -50 5
-50 35 0 101 -29 89 -38 -5 -5 -35 -16 -66 -26 -128 -38 -76 -70 160 -95 83
-9 96 -16 56 -31 -16 -6 -45 -17 -64 -24 -19 -8 -48 -19 -65 -24 -80 -24 -9
-65 134 -76 41 -4 80 -11 87 -17 9 -7 48 -9 118 -4 114 8 186 1 168 -17 -6 -6
-41 -19 -78 -29 -37 -10 -77 -27 -88 -38 -12 -11 -33 -23 -49 -26 -28 -7 -67
-48 -67 -70 0 -17 23 -25 76 -25 25 0 44 -5 44 -11 0 -7 33 -10 97 -9 54 1
121 -1 148 -5 35 -5 66 -2 104 9 56 17 201 22 201 8 0 -5 -24 -14 -52 -21 -29
-7 -72 -24 -95 -37 -23 -13 -47 -24 -53 -24 -6 0 -50 -17 -97 -37 l-86 -37
-26 30 c-56 66 -101 64 -147 -6 -15 -22 -32 -40 -38 -40 -7 0 -28 16 -47 36
-43 45 -105 77 -133 70 -11 -3 -29 -19 -38 -36 -20 -35 -47 -39 -73 -10 -20
22 -74 27 -93 8 -9 -9 -18 -9 -37 0 -35 16 -66 15 -91 -3 -12 -8 -41 -14 -65
-14 -61 0 -142 -11 -155 -22 -6 -5 -14 -27 -18 -49 -3 -21 -14 -43 -23 -48
-14 -9 -14 -10 5 -16 17 -6 21 -13 16 -29 -4 -19 1 -25 32 -36 35 -13 36 -15
19 -27 -10 -8 -27 -14 -36 -14 -26 0 -35 -21 -14 -36 10 -7 51 -19 91 -26 82
-13 98 -33 36 -43 -51 -9 -105 -28 -109 -40 -8 -25 46 -38 194 -46 194 -10
239 -28 108 -43 -66 -8 -195 -55 -195 -72 0 -28 30 -32 353 -50 59 -3 107 -9
107 -14 0 -5 -23 -13 -51 -19 -27 -6 -69 -19 -92 -30 -23 -10 -53 -22 -67 -26
-40 -12 -90 -45 -90 -60 0 -21 33 -35 81 -35 24 0 50 -7 59 -15 14 -12 26 -13
68 -5 56 10 276 9 264 -2 -7 -6 -155 -52 -204 -63 -41 -8 -34 -27 22 -57 37
-21 64 -28 104 -28 45 0 54 -3 59 -20 5 -19 11 -20 239 -15 128 2 267 9 308
14 110 15 193 14 188 -1 -3 -9 -37 -15 -99 -19 -109 -7 -126 -13 -155 -46 -16
-19 -36 -26 -90 -34 -50 -7 -73 -15 -85 -30 -8 -11 -33 -29 -55 -39 -45 -22
-84 -53 -84 -69 0 -19 38 -31 97 -31 35 -1 66 -6 77 -15 24 -18 61 -19 122 -4
37 10 48 9 62 -3 28 -25 66 -28 128 -12 32 9 100 18 149 19 63 3 132 15 230
41 124 32 158 37 298 41 90 3 157 2 157 -3 0 -12 -107 -34 -232 -48 -74 -8
-102 -16 -120 -32 -13 -12 -35 -24 -50 -28 -16 -3 -28 -13 -28 -20 0 -8 -3
-21 -6 -30 -4 -11 3 -19 22 -27 29 -11 398 -32 504 -29 123 4 357 1 565 -7
201 -8 227 -11 300 -37 85 -29 297 -135 339 -170 17 -14 37 -51 57 -111 17
-49 37 -97 44 -105 21 -23 55 -109 71 -178 8 -34 21 -158 29 -275 18 -252 37
-413 70 -598 28 -155 31 -199 12 -199 -7 0 -53 24 -102 53 -122 72 -155 118
-154 220 0 100 28 312 51 385 8 26 6 40 -12 77 -20 41 -24 44 -66 47 l-46 3
31 42 c40 56 43 115 6 139 -13 8 -28 13 -34 10 -16 -10 -55 14 -76 46 -26 41
-84 62 -150 53 -57 -7 -59 -7 -100 1 -27 5 -35 0 -73 -45 -64 -75 -92 -66 -92
31 0 31 -5 40 -30 53 -18 9 -30 23 -30 36 0 12 -10 23 -27 30 -16 6 -38 20
-50 31 -30 28 -68 17 -95 -27 -14 -25 -27 -35 -44 -35 -29 0 -64 -33 -64 -59
0 -11 -12 -34 -27 -51 -18 -22 -31 -54 -40 -103 -15 -79 -34 -110 -55 -89 -9
9 -14 57 -15 155 -1 78 -3 151 -3 162 0 11 -7 44 -16 73 -13 48 -17 52 -44 52
-19 0 -33 7 -40 21 -14 25 -68 59 -96 59 -29 0 -90 -69 -99 -111 -4 -19 -18
-44 -31 -56 -17 -16 -24 -33 -24 -60 -1 -21 -7 -51 -14 -68 l-14 -30 -11 28
c-16 41 -14 92 9 202 24 119 25 134 3 142 -10 3 -32 21 -49 40 -38 39 -68 42
-90 8 -9 -14 -27 -28 -41 -31 -14 -4 -31 -21 -43 -43 -10 -21 -25 -43 -34 -50
-8 -7 -20 -28 -26 -47 -21 -62 -50 -29 -50 57 0 77 -35 132 -97 153 -25 9 -54
16 -62 16 -9 -1 -32 -24 -51 -52 -42 -62 -56 -68 -71 -31 -41 98 -61 131 -84
137 -28 7 -75 -18 -75 -39 0 -7 -6 -18 -13 -24 -16 -13 -35 4 -61 56 -20 39
-49 50 -81 29 -33 -22 -50 -20 -62 7 -11 23 -14 23 -127 21 -64 -2 -120 -5
-125 -8 -5 -3 -11 -33 -13 -66 -3 -44 -10 -66 -26 -83 -27 -29 -27 -35 0 -64
l22 -23 -22 -16 c-33 -23 -27 -39 24 -69 25 -15 44 -31 42 -37 -2 -5 -26 -17
-53 -27 -37 -12 -51 -22 -53 -38 -4 -25 21 -41 111 -69 31 -10 57 -21 57 -25
0 -4 -23 -20 -52 -36 -28 -15 -58 -38 -65 -50 -14 -20 -12 -23 17 -38 21 -11
76 -20 158 -26 68 -4 127 -11 130 -13 5 -6 -42 -26 -61 -26 -7 0 -43 -17 -82
-38 -79 -43 -90 -66 -48 -96 33 -24 177 -30 235 -10 53 18 218 35 253 26 l30
-9 -25 -6 c-14 -3 -62 -11 -108 -18 -58 -8 -92 -18 -110 -34 -15 -12 -48 -32
-74 -44 -91 -43 -89 -69 8 -101 60 -20 79 -22 176 -16 60 4 146 14 191 22 154
28 628 31 601 4 -5 -5 -74 -11 -154 -13 -205 -7 -312 -23 -386 -58 -33 -16
-85 -32 -115 -35 -31 -4 -70 -16 -91 -30 -47 -30 -59 -30 -88 1 -25 26 -59 32
-90 15 -13 -7 -34 -7 -62 -1 -31 7 -50 6 -73 -4 -16 -7 -70 -17 -120 -22 l-90
-8 -3 -50 c-2 -27 -10 -57 -18 -67 -13 -13 -13 -21 -4 -38 12 -23 1 -39 -26
-40 -6 0 -17 -6 -23 -14 -10 -11 -5 -19 21 -39 18 -14 43 -28 56 -32 33 -10
21 -29 -23 -36 -34 -6 -65 -29 -65 -50 0 -18 95 -57 163 -66 57 -8 40 -25 -51
-53 -103 -32 -116 -44 -81 -74 26 -22 32 -23 174 -19 99 2 145 0 140 -7 -3 -5
-21 -10 -39 -10 -18 0 -58 -13 -89 -30 -31 -16 -63 -30 -71 -30 -8 0 -37 -12
-65 -27 -62 -31 -63 -50 -6 -78 37 -18 63 -20 335 -21 305 -1 480 -10 480 -24
0 -5 -93 -10 -207 -12 -183 -3 -211 -5 -236 -22 -16 -11 -37 -16 -52 -13 -31
5 -112 -11 -140 -28 -11 -7 -36 -16 -55 -20 -19 -4 -57 -19 -85 -32 l-49 -25
23 -19 c13 -11 36 -19 52 -19 18 0 34 -8 41 -20 11 -16 24 -20 74 -20 41 0 65
-5 73 -14 15 -18 133 -23 588 -28 226 -2 325 -6 334 -15 8 -8 -11 -13 -77 -17
-138 -10 -171 -16 -184 -31 -8 -10 -32 -15 -70 -15 -67 0 -120 -16 -120 -36 0
-18 -40 -34 -86 -34 -52 0 -104 -25 -104 -49 0 -16 -9 -22 -40 -27 -22 -4 -57
-20 -77 -35 -20 -16 -41 -29 -48 -29 -7 0 -18 -7 -25 -15 -22 -27 14 -55 70
-55 29 0 52 -6 60 -14 9 -12 32 -14 114 -9 101 6 103 5 109 -17 6 -22 8 -22
104 -15 54 3 143 8 198 9 62 1 167 15 275 35 142 27 209 34 356 38 172 5 186
4 290 -22 129 -32 304 -89 354 -116 56 -29 18 -22 -142 26 -205 62 -327 85
-440 84 -111 0 -162 -14 -166 -46 -3 -22 -8 -23 -92 -23 -97 0 -120 -5 -120
-27 0 -17 -58 -43 -95 -43 -33 0 -64 -17 -88 -47 -10 -12 -25 -23 -33 -23 -20
0 -54 -37 -54 -59 0 -14 10 -21 38 -25 59 -11 72 -16 72 -32 0 -11 17 -14 80
-14 l80 0 -6 -27 -7 -26 109 9 c60 5 159 7 219 5 154 -4 418 27 553 65 102 29
229 42 312 33 142 -16 332 -101 608 -273 69 -43 84 -57 92 -86 6 -19 28 -98
50 -175 58 -201 95 -357 150 -635 52 -262 95 -538 86 -547 -11 -12 -130 50
-293 152 -105 66 -119 136 -54 282 98 225 149 475 106 523 -24 26 -37 25 -65
-5 -23 -24 -60 -34 -60 -17 0 5 15 38 34 73 25 48 35 82 40 135 5 67 5 71 -17
81 -14 6 -31 7 -46 1 -40 -14 -50 -4 -49 52 2 66 -11 79 -55 58 -42 -20 -62
-10 -53 26 7 28 -14 46 -54 46 -12 0 -24 9 -29 24 -11 26 -86 56 -143 56 -36
0 -101 -38 -117 -69 -6 -10 -24 -21 -41 -25 -29 -5 -31 -8 -28 -42 3 -34 0
-38 -28 -45 -47 -13 -67 -40 -54 -73 19 -50 14 -56 -42 -56 -29 0 -59 -4 -66
-8 -23 -15 -26 -78 -5 -114 40 -68 39 -71 -16 -63 -28 4 -59 4 -70 0 -26 -8
-28 -47 -3 -83 10 -15 24 -40 32 -55 8 -16 27 -38 42 -49 15 -10 28 -26 28
-34 0 -17 -39 -34 -78 -34 -14 0 -46 -8 -70 -17 -44 -16 -44 -17 -39 -56 4
-27 15 -47 36 -66 16 -14 31 -35 33 -46 2 -13 33 -35 93 -67 50 -26 96 -48
103 -48 7 0 32 -9 55 -19 23 -11 132 -46 241 -79 182 -56 253 -88 234 -107 -3
-3 -54 14 -112 39 -59 25 -125 49 -147 52 -44 7 -43 9 -23 -68 3 -10 30 -25
70 -38 35 -12 62 -26 58 -31 -9 -15 -20 -12 -168 47 -89 36 -169 61 -216 68
-82 11 -414 13 -504 2 -48 -6 -57 -11 -70 -36 -13 -28 -13 -30 18 -54 l31 -24
-28 -11 c-16 -6 -40 -11 -53 -11 -46 0 -119 -23 -146 -46 -24 -19 -36 -22 -82
-17 -49 5 -57 3 -81 -21 -16 -16 -37 -26 -55 -26 -20 0 -35 -8 -46 -25 -9 -14
-26 -25 -38 -25 -12 0 -37 -12 -55 -28 l-33 -27 22 -20 c20 -18 37 -20 199
-21 162 -1 182 1 252 24 71 23 79 23 99 9 19 -13 46 -14 171 -10 126 5 155 3
194 -11 70 -27 244 -8 366 39 49 19 93 35 98 35 5 0 43 25 83 56 l73 55 100
-3 c93 -3 103 -6 145 -34 25 -17 95 -54 155 -81 119 -53 226 -120 250 -157 9
-13 24 -49 35 -79 11 -31 31 -80 43 -109 13 -29 29 -75 36 -103 7 -27 21 -68
31 -91 11 -22 20 -51 20 -64 0 -29 30 -141 42 -156 4 -6 37 -14 73 -18 78 -8
125 10 125 47 0 13 -20 83 -45 157 -92 271 -185 583 -194 648 -6 37 -17 132
-26 212 -9 80 -20 178 -26 218 -16 124 -12 165 16 192 13 12 50 60 82 105 53
78 88 113 100 101 3 -2 -1 -29 -7 -59 -8 -35 -10 -81 -5 -131 8 -90 21 -102
92 -91 42 6 47 4 80 -30 33 -34 40 -37 76 -32 24 3 45 13 54 26 20 29 30 27
79 -19 51 -47 81 -50 138 -15 36 21 42 22 66 10 15 -8 32 -21 39 -29 19 -23
49 -20 87 9 37 29 56 31 74 10 18 -22 49 -28 67 -13 10 8 44 13 92 13 74 0 76
1 76 25 0 14 4 32 10 40 5 8 8 24 6 34 -1 10 3 30 10 42 10 20 10 27 -6 44
-10 11 -26 22 -35 25 -26 8 -33 34 -12 42 22 8 52 34 52 45 0 10 -53 34 -92
43 -33 6 -37 30 -8 45 11 6 20 17 20 24 0 14 -74 56 -98 56 -20 0 -24 21 -7
40 12 13 15 27 11 45 -9 35 10 40 75 21 29 -9 74 -16 100 -16 43 0 48 3 57 29
14 40 51 47 109 21 25 -11 63 -20 84 -20 33 0 41 4 55 31 16 32 16 32 82 26
77 -6 112 6 112 40 0 20 5 23 41 23 44 0 74 13 99 41 8 10 31 22 50 27 21 5
36 15 38 26 4 20 -55 87 -103 117 -22 14 -30 27 -30 46 0 27 -2 28 -62 31 -60
3 -63 4 -63 29 l0 26 -101 -6 c-98 -6 -100 -6 -93 15 6 20 4 20 -90 13 -64 -4
-96 -3 -96 3 0 6 4 14 10 17 5 3 10 11 10 16 0 13 -37 3 -142 -38 -102 -39
-118 -41 -92 -12 27 30 70 50 139 65 92 20 166 17 267 -12 76 -22 101 -25 157
-19 36 4 99 7 139 6 48 -1 83 4 103 15 23 12 46 14 100 8 59 -6 73 -4 89 11
16 14 29 16 75 10 43 -5 61 -3 73 8 9 8 46 18 82 21 95 10 99 11 112 24 8 8 7
17 -6 36 -9 14 -16 34 -16 44 0 10 -12 30 -27 44 -24 22 -40 26 -111 31 -46 4
-87 9 -93 12 -19 12 2 24 61 36 33 6 60 16 60 20 0 5 -26 9 -59 9 -83 0 -123
10 -128 31 -5 19 -33 27 -113 31 -33 2 -46 7 -48 20 -2 13 6 19 34 24 37 7
127 -9 394 -67 72 -16 102 -18 123 -11 19 7 49 7 93 0 36 -5 91 -7 122 -3 31
4 95 7 142 8 72 2 85 5 88 20 3 14 14 17 60 17 89 0 132 10 132 29 0 24 -52
71 -77 71 -12 0 -35 11 -51 25 -21 18 -50 28 -101 35 -46 6 -85 19 -109 35
-23 15 -70 31 -118 40 -43 8 -88 19 -99 24 -11 5 -49 14 -85 19 -63 9 -62 9
55 11 159 1 270 -12 396 -49 57 -17 138 -37 179 -46 41 -9 88 -23 105 -31 16
-9 59 -22 95 -29 36 -6 85 -20 110 -30 49 -19 100 -14 100 10 0 31 -148 140
-275 203 -68 34 -110 50 -214 80 -8 2 -11 6 -8 9 11 11 189 -17 260 -41 174
-58 204 -69 240 -92 38 -24 181 -53 194 -39 7 7 -8 22 -112 109 -22 18 -61 41
-87 51 -56 21 -62 28 -15 19 86 -17 273 -107 307 -149 14 -16 113 -64 132 -64
6 0 8 13 5 30 -6 26 -4 30 16 30 12 -1 33 -7 47 -15 55 -31 68 -4 24 48 -33
39 -18 45 42 17 48 -24 46 -24 114 15 14 8 35 15 48 15 48 0 20 29 -55 56 -43
15 -89 35 -103 44 -14 10 -36 21 -50 25 -14 4 -43 18 -65 30 -22 13 -65 28
-95 34 -38 8 -65 21 -88 44 -31 30 -38 32 -94 30 -68 -3 -98 9 -98 38 0 11
-11 31 -25 44 -28 29 -88 34 -119 10 -34 -26 -64 -19 -79 17 -21 49 -39 59
-119 65 l-74 6 -48 -42 c-27 -23 -53 -40 -59 -38 -6 2 -17 25 -23 52 -7 26
-19 54 -26 61 -9 9 -54 16 -136 21 l-123 6 -35 -34 c-19 -19 -51 -65 -70 -103
-19 -38 -40 -76 -47 -84 -18 -23 -159 -113 -166 -107 -3 3 25 34 62 68 37 35
67 70 67 78 0 8 14 37 31 63 l30 48 -20 22 c-14 15 -21 36 -21 63 0 27 -5 43
-15 47 -8 3 -15 18 -15 34 0 20 -7 33 -25 42 -14 7 -25 16 -25 20 0 3 -6 14
-12 23 -12 15 -18 15 -92 -3 -43 -11 -87 -20 -98 -20 -11 0 -33 -13 -48 -30
-15 -16 -36 -30 -45 -30 -32 0 -56 -22 -79 -73 -13 -29 -36 -61 -51 -71 -27
-17 -27 -21 -21 -78 5 -54 2 -72 -36 -175 -66 -181 -172 -333 -208 -297 -6 6
-1 22 17 49 15 22 53 83 85 135 54 88 57 96 41 108 -17 12 -16 17 16 74 26 48
31 62 20 69 -50 28 -52 33 -35 73 20 47 20 43 -8 50 -20 5 -23 12 -22 43 1 34
-2 38 -26 41 -21 3 -27 9 -30 30 -3 25 -7 27 -44 26 -30 0 -54 -9 -85 -32 -24
-18 -53 -32 -65 -32 -32 0 -81 -45 -89 -81 -8 -37 -45 -55 -134 -67 -38 -6
-72 -17 -93 -33 -18 -14 -54 -37 -80 -52 -30 -18 -50 -37 -54 -53 -8 -33 -50
-64 -85 -64 -33 0 -66 -28 -74 -62 -6 -31 -25 -158 -35 -243 -5 -38 -9 -123
-9 -187 -1 -67 -5 -119 -11 -123 -12 -8 -120 22 -120 33 0 5 7 17 15 28 9 12
14 42 15 82 l0 62 -30 0 c-16 0 -30 5 -30 12 0 6 16 39 35 74 19 34 35 67 35
72 0 5 -14 12 -31 16 -30 6 -31 8 -26 46 7 52 -22 110 -79 158 -47 39 -54 56
-28 70 15 8 15 11 -5 31 -11 11 -30 21 -40 21 -26 0 -36 17 -20 37 11 13 10
17 -5 28 -10 8 -35 16 -56 20 -30 5 -40 12 -42 28 -3 19 -10 22 -63 25 -73 4
-86 14 -57 45 32 34 28 40 -28 35 -35 -4 -50 -2 -47 6 8 24 118 16 225 -16 39
-11 46 -10 85 10 23 12 68 26 100 32 35 7 69 22 89 38 27 23 43 27 107 30 57
3 81 9 96 23 13 11 44 21 79 25 38 5 64 14 75 26 8 10 28 18 44 18 38 0 147
56 147 76 0 8 -19 37 -42 65 -37 43 -48 49 -81 49 -43 0 -107 24 -107 39 0 7
37 11 100 11 76 0 107 4 126 16 13 9 46 21 72 25 26 5 70 25 98 44 29 18 69
41 90 50 39 16 274 40 309 31 29 -7 49 8 42 33 -7 28 25 36 106 26 82 -10 153
-9 262 6 50 6 149 13 220 14 140 3 252 15 248 28 -2 4 -3 11 -3 16 0 32 -263
114 -419 131 -62 7 -128 17 -145 23 l-31 11 30 7 c17 4 89 7 160 8 105 1 161
-5 294 -29 89 -17 190 -40 223 -51 54 -18 69 -19 160 -9 56 5 104 12 106 15
23 23 -183 138 -305 171 -35 10 -63 21 -63 27 0 12 256 2 330 -13 88 -17 220
-24 220 -12 0 7 -42 32 -94 56 -149 71 -134 89 32 36 184 -58 262 -36 111 32
-38 17 -69 35 -69 39 0 16 63 10 138 -13 58 -17 75 -19 85 -9 9 10 7 16 -10
28 -32 22 -28 33 11 33 46 0 51 12 18 42 -39 37 -86 58 -127 58 -20 0 -69 13
-108 29 -40 17 -94 33 -122 36 -27 4 -71 13 -96 21 -50 16 -72 12 -107 -19
l-22 -21 -80 27 c-44 15 -90 27 -102 27 -13 0 -50 14 -82 30 -65 33 -120 38
-153 15 -18 -13 -20 -20 -13 -46 6 -20 6 -39 -1 -50 -12 -23 -39 -25 -39 -4 0
8 -19 25 -41 37 -23 13 -51 29 -63 36 -23 14 -126 7 -161 -10 -43 -22 -75 -61
-75 -93 0 -42 -20 -68 -51 -63 -17 2 -25 10 -27 28 -4 25 -97 120 -118 120 -6
0 -23 9 -37 20 -61 49 -217 4 -242 -69 -6 -19 -21 -38 -33 -42 -12 -5 -22 -17
-22 -28 0 -15 -9 -20 -47 -24 -51 -5 -121 -26 -190 -57 -41 -19 -41 -19 -55 2
-13 19 -18 20 -48 10 -18 -7 -48 -12 -67 -12 -18 0 -60 -11 -93 -25 -33 -14
-70 -25 -84 -25 -13 0 -47 -15 -75 -34 -27 -19 -73 -42 -101 -51 -54 -18 -64
-30 -75 -89 -4 -21 -20 -53 -35 -70 -16 -17 -32 -47 -37 -66 -9 -33 -12 -35
-51 -34 -55 1 -61 9 -31 42 34 37 49 75 49 123 0 22 4 49 10 59 8 15 5 20 -20
28 -32 12 -51 55 -31 75 6 6 30 10 54 9 57 -2 75 5 79 31 3 20 10 22 88 27 93
6 110 12 110 39 0 14 11 20 46 26 52 7 111 52 102 77 -6 14 -58 36 -140 60
-21 6 -39 14 -39 19 -1 5 -3 14 -4 19 -1 6 -3 14 -4 19 -2 16 -80 41 -129 41
-27 0 -72 11 -107 25 -47 19 -78 25 -141 25 -66 0 -83 3 -88 16 -5 14 -17 16
-80 10 -129 -12 -263 -35 -353 -61 -151 -43 -152 -28 -2 36 79 35 113 43 219
55 192 22 436 28 629 15 170 -11 175 -11 196 9 20 19 27 20 91 10 38 -5 103
-10 146 -10 71 0 78 2 96 27 19 27 20 27 73 14 30 -7 65 -11 79 -10 21 3 24 9
22 32 -3 25 0 27 37 27 27 0 44 6 53 18 7 9 26 23 41 30 55 24 11 72 -65 72
-28 0 -38 4 -38 16 0 17 -56 44 -92 44 -12 0 -32 10 -46 23 -21 19 -36 22
-133 25 -97 3 -109 6 -109 22 0 45 -50 52 -250 34 -275 -24 -297 -29 -410 -77
-58 -25 -107 -43 -110 -40 -19 19 179 118 317 159 60 18 117 27 178 29 50 2
209 6 354 10 245 7 264 9 268 26 5 17 16 19 105 19 100 0 138 9 138 34 0 9 20
15 61 19 50 4 67 11 89 34 15 15 40 36 54 46 33 23 22 42 -29 51 -22 4 -36 14
-40 27 -8 24 -43 39 -92 39 -26 0 -40 7 -55 25 -18 23 -27 26 -97 26 -42 0
-112 1 -156 2 -122 2 -280 -18 -378 -48 -125 -38 -154 -29 -56 18 153 73 301
104 549 114 119 5 150 9 172 24 16 12 43 19 71 19 59 0 106 17 142 51 17 15
47 44 68 63 21 20 36 40 33 45 -3 5 -23 11 -43 14 -21 3 -63 13 -93 23 -51 16
-119 18 -290 11 -24 -2 -35 2 -35 12 0 21 120 50 244 58 81 5 108 10 122 24
14 14 37 19 96 21 77 3 78 3 81 31 2 16 11 31 20 34 32 11 52 36 52 65 0 15
-5 28 -10 28 -6 0 -20 11 -32 25 -15 17 -32 25 -54 25 -39 0 -84 33 -68 50 6
6 33 14 60 19 27 4 67 20 88 34 21 15 44 27 50 27 15 0 106 84 106 98 0 18
-36 32 -84 32 -52 0 -64 12 -43 44 20 30 78 46 165 46 79 0 122 12 122 35 0 8
-11 17 -25 21 -28 7 -33 29 -9 38 9 3 33 6 55 6 28 0 39 4 39 15 0 12 13 15
60 15 33 0 60 4 60 9 0 5 20 12 45 15 25 4 51 13 58 21 8 7 24 15 37 17 68 9
8 52 -91 63 -30 4 -68 11 -84 16 -18 5 -50 6 -78 0 -36 -6 -47 -5 -47 5 0 7
-15 17 -33 23 -28 10 -43 8 -91 -10 -52 -20 -58 -21 -74 -5 -31 28 -82 20
-155 -24 -74 -45 -85 -47 -102 -23 -34 46 -149 -3 -206 -86 -33 -49 -68 -66
-84 -41 -12 19 -33 10 -119 -47 l-86 -57 0 -53 c0 -64 -14 -69 -49 -17 -28 41
-68 64 -110 64 -24 0 -43 -13 -86 -55 -56 -56 -79 -65 -118 -43 -12 6 -38 14
-57 17 -26 5 -36 12 -38 29 -3 19 -10 22 -45 22 -45 0 -197 29 -210 40 -9 7
140 26 288 36 50 3 104 11 120 19 17 7 66 16 110 19 46 4 86 13 96 22 10 9 37
14 73 14 57 0 96 12 96 30 0 6 -39 29 -87 52 l-88 43 -112 -2 c-167 -3 -149
15 52 52 50 9 104 21 120 27 17 6 63 17 104 25 77 15 121 36 121 57 0 19 -66
46 -112 46 -24 0 -38 4 -32 8 12 11 155 75 217 97 27 10 51 24 54 33 12 30
-26 42 -129 42 -59 0 -98 4 -98 10 0 6 3 10 6 10 22 0 244 64 262 76 31 20 23
38 -19 44 -49 7 -43 29 21 67 30 18 56 37 58 42 2 5 -12 12 -29 16 l-33 7 33
27 c18 15 31 34 29 42 -1 8 7 24 20 37 26 26 29 60 6 69 -17 6 -106 -11 -171
-34 -31 -10 -47 -11 -62 -4 -33 18 -61 12 -93 -19 -29 -29 -61 -39 -72 -21
-11 17 -44 18 -75 4 -17 -9 -31 -20 -31 -25 0 -18 -55 -78 -71 -78 -21 0 -36
19 -41 50 -3 22 -9 26 -58 31 -59 5 -130 32 -130 47 0 16 28 22 101 22 70 0
85 10 49 32 -35 22 -24 38 28 38 51 0 90 19 78 38 -4 7 -14 12 -22 12 -26 0
-10 24 22 32 40 11 98 63 89 79 -6 9 -38 10 -126 6 -103 -5 -119 -4 -119 9 0
13 -10 15 -57 11 -32 -3 -72 -8 -90 -12 -26 -6 -32 -4 -38 14 -5 17 -14 21
-52 21 -34 0 -59 -9 -105 -37 -49 -30 -61 -34 -69 -22 -5 8 -9 22 -9 31 0 23
-36 41 -67 33 -15 -3 -64 -33 -111 -66 -47 -32 -91 -59 -98 -59 -7 0 -14 10
-16 23 -2 15 -11 23 -29 25 -21 2 -45 -14 -119 -82 -51 -48 -97 -86 -101 -86
-13 0 -11 14 6 36 21 27 18 53 -7 73 -19 16 -20 21 -10 51 7 18 12 37 12 41 0
30 -125 -20 -167 -67 -12 -13 -33 -24 -46 -24 -29 0 -117 -89 -117 -118 0 -15
-59 -124 -76 -142 -3 -2 -9 2 -15 10 -14 22 -2 59 29 86 26 23 26 25 8 39 -10
8 -24 16 -30 18 -8 3 -8 9 0 23 9 15 8 24 -3 41 -18 27 -15 29 71 37 82 7 89
19 33 53 -26 15 -47 31 -47 34 0 4 29 10 65 14 36 3 68 12 72 18 5 8 42 13 98
13 114 2 175 12 182 31 3 8 -8 29 -28 49 -20 21 -29 37 -23 43 11 11 67 18
197 27 87 6 97 9 97 26 0 12 -12 24 -36 34 -60 25 -40 40 86 64 89 17 102 36
53 76 -36 29 -25 40 57 57 59 12 65 15 68 39 2 19 12 29 33 37 29 10 37 25 19
36 -18 11 -11 23 19 33 16 6 34 19 40 31 6 11 20 23 32 26 14 5 19 14 17 28
-3 22 -6 22 -168 22 -147 -1 -166 1 -178 17 -17 24 -80 24 -121 1 -30 -18 -31
-18 -56 10 -33 34 -58 34 -120 -3 -27 -16 -53 -30 -57 -30 -4 0 -14 14 -23 30
-12 22 -23 30 -43 30 -27 0 -151 -59 -184 -88 -24 -20 -45 -9 -53 28 -4 17
-13 34 -20 36 -21 8 -174 -73 -232 -122 -55 -48 -72 -75 -92 -151 -7 -26 -18
-43 -26 -43 -19 0 -19 10 1 60 21 52 15 151 -10 179 -10 11 -34 23 -54 28 -22
5 -37 15 -37 23 0 11 19 17 75 22 41 5 82 11 90 14 8 3 56 9 105 14 88 8 145
24 145 42 0 5 -13 17 -30 26 -16 9 -30 22 -30 29 0 12 54 30 144 50 47 10 58
30 22 39 -44 11 -33 26 39 55 31 13 40 22 40 40 0 17 9 28 33 38 17 8 32 22
32 30 0 9 24 37 52 63 l53 46 -30 12 c-19 8 -64 10 -125 7 -73 -3 -102 -1
-128 11 -27 13 -38 14 -65 4 -49 -17 -80 -15 -95 8 -7 11 -20 20 -30 20 -22 0
-99 -48 -126 -78 -30 -35 -51 -28 -51 15 0 35 -3 40 -47 61 -27 12 -48 26 -48
31 0 10 102 45 159 55 74 13 111 27 111 42 0 8 -7 17 -15 20 -27 11 -16 40 25
63 29 16 40 29 40 46 0 15 11 32 30 45 17 12 30 29 30 39 0 10 16 35 35 55 38
40 45 70 18 80 -19 8 -153 -2 -204 -15 -24 -6 -47 -5 -68 2 -42 15 -94 4 -131
-27 -26 -23 -37 -25 -73 -20 -41 6 -46 4 -101 -44 -62 -55 -84 -60 -111 -30
-38 42 -143 17 -193 -47 -31 -38 -63 -43 -84 -11 -26 39 -86 2 -175 -108 l-31
-39 -33 18 c-31 17 -32 17 -70 -7 -49 -33 -87 -90 -134 -199 -37 -85 -50 -105
-62 -93 -12 12 19 152 45 205 45 91 85 124 228 192 305 143 345 164 360 180 9
10 13 22 10 27 -3 5 7 14 22 20 15 6 80 31 144 56 65 25 123 46 130 46 7 0 22
7 33 16 20 15 20 15 -5 34 -19 14 -22 22 -13 31 12 12 136 49 168 49 11 0 27
4 35 10 12 7 12 12 0 35 -12 23 -12 28 0 35 8 6 24 10 35 10 32 0 65 28 65 56
0 19 8 29 33 39 17 8 47 30 66 50 19 19 38 35 42 35 5 0 13 9 19 21 9 15 8 24
-2 36 -11 13 -26 14 -103 7 -49 -4 -123 -7 -162 -5 -52 1 -83 -3 -108 -15 -23
-11 -44 -14 -62 -9 -16 5 -39 7 -53 6 -48 -5 -125 -42 -152 -73 -18 -20 -32
-29 -43 -24 -9 3 -14 10 -11 15 3 4 -3 16 -14 26 -18 16 -21 16 -65 -5 -33
-16 -57 -38 -82 -76 -20 -30 -43 -54 -52 -54 -23 0 -61 28 -61 45 0 23 171
141 283 194 93 45 107 54 107 76 0 27 25 45 62 45 31 0 68 27 68 49 0 18 107
115 148 134 12 6 22 16 22 23 0 36 -201 27 -292 -13 -32 -14 -64 -22 -75 -19
-27 8 -96 -17 -146 -54 -24 -17 -54 -30 -71 -30 -19 -1 -44 -12 -66 -30 -36
-32 -60 -38 -60 -17 0 17 114 117 171 150 26 14 49 35 52 46 3 13 22 24 63 36
32 9 76 26 98 37 39 20 136 108 136 124 0 4 10 18 22 31 19 21 20 26 8 34 -8
5 -42 9 -75 7 -33 -1 -76 2 -96 6 -28 6 -49 2 -95 -17 -32 -14 -75 -28 -94
-32 -19 -4 -61 -20 -92 -36 -64 -32 -78 -35 -78 -16 0 14 89 101 153 150 20
15 37 36 37 45 1 9 32 41 70 70 49 37 70 60 70 75 0 12 7 31 15 41 15 20 21
116 8 116 -13 0 -136 -52 -166 -71 -18 -10 -38 -19 -46 -19 -8 0 -29 -11 -47
-25 -74 -56 -73 -14 2 80 72 90 94 134 94 187 0 96 -23 110 -99 58 -24 -17
-48 -30 -53 -30 -13 0 -9 23 8 45 8 11 19 37 25 58 5 21 18 46 27 55 10 10 16
28 14 44 -6 50 -74 75 -116 43 -34 -26 -46 -19 -35 18 6 17 17 44 25 59 8 14
14 42 14 62 0 32 -3 36 -26 36 -14 0 -34 -5 -45 -11 -42 -22 -65 33 -33 79 8
12 14 32 12 45 -2 18 -11 23 -48 27 l-45 5 3 52 c2 47 0 52 -20 55 -18 2 -24
10 -26 38 -2 19 -9 42 -17 50 -7 8 -15 32 -19 53 -6 30 -11 37 -29 36 -12 0
-32 -13 -44 -29z m-254 -2712 c39 -81 66 -268 41 -283 -6 -3 -12 0 -14 7 -2 7
-18 56 -35 109 -39 117 -51 209 -28 209 8 0 24 -19 36 -42z m-589 -307 c0 -18
-26 -48 -34 -40 -3 2 -7 16 -11 32 -6 24 -5 27 19 27 19 0 26 -5 26 -19z m327
-111 c141 -55 156 -65 202 -129 29 -42 31 -49 31 -137 0 -86 -16 -243 -26
-253 -14 -14 -27 29 -34 115 -12 137 -21 170 -68 250 -66 112 -68 114 -111
114 -38 0 -61 -16 -74 -52 -4 -10 -11 -18 -16 -18 -13 0 -31 33 -31 57 0 10
-9 36 -20 58 -11 22 -20 41 -20 42 0 12 59 -4 167 -47z m1295 -55 c11 -11 -27
-74 -46 -75 -16 0 -17 5 -12 32 8 39 39 62 58 43z m-332 -164 c-11 -23 -25
-41 -30 -41 -11 0 -30 42 -30 65 0 14 73 36 78 24 2 -4 -6 -26 -18 -48z m-220
-42 c0 -6 -8 -23 -19 -37 -10 -15 -26 -44 -34 -64 -9 -21 -20 -38 -25 -38 -12
0 -22 24 -22 51 0 14 -7 19 -30 19 -63 0 -24 43 60 66 58 16 70 16 70 3z
m-1206 -248 c26 -5 27 -8 13 -19 -27 -23 -85 -27 -107 -7 -11 10 -20 22 -20
27 0 9 70 9 114 -1z m191 -55 c39 -13 96 -31 128 -40 35 -11 57 -22 57 -32 0
-7 -7 -14 -16 -14 -21 0 -99 -67 -113 -96 -17 -38 -38 -28 -65 33 -15 31 -44
76 -66 99 -71 77 -48 92 75 50z m1612 -93 c3 -7 -17 -26 -44 -43 -39 -25 -55
-45 -88 -109 -66 -127 -85 -141 -85 -61 0 28 -4 50 -9 50 -6 0 -11 15 -13 32
-3 28 -8 34 -33 38 -17 3 -30 11 -30 20 0 10 29 21 95 37 52 13 113 30 135 38
46 16 67 15 72 -2z m-1256 -36 c26 -17 42 -42 69 -107 32 -78 35 -93 36 -195
1 -60 3 -161 5 -222 3 -70 0 -113 -6 -114 -5 -1 -22 22 -37 52 -22 44 -27 69
-28 129 -1 148 -18 248 -61 354 -23 56 -43 107 -46 114 -8 20 31 14 68 -11z
m859 -111 c0 -22 -48 -74 -67 -72 -29 2 -54 -58 -66 -159 -10 -87 -13 -96 -32
-93 -14 2 -21 12 -23 33 -1 17 -7 47 -14 68 -9 29 -16 37 -35 37 -16 0 -27 8
-33 25 -5 14 -12 25 -16 25 -15 0 -198 -180 -219 -215 -46 -79 -75 -203 -76
-321 0 -60 -4 -127 -8 -149 l-8 -40 -12 29 c-16 40 -35 294 -27 381 3 47 15
93 35 135 26 60 36 70 113 122 46 32 113 70 149 86 175 79 209 92 264 106 77
18 75 18 75 2z m710 -559 c0 -7 -22 -30 -50 -50 -27 -21 -50 -44 -50 -52 0
-10 -10 -15 -29 -15 -24 0 -34 -9 -59 -47 -16 -27 -46 -90 -67 -140 -49 -120
-91 -160 -50 -48 8 22 14 54 15 71 0 29 -2 30 -31 26 l-31 -5 21 41 c24 48 25
52 9 52 -7 0 -22 12 -33 26 l-20 26 -62 -42 c-98 -65 -205 -171 -232 -229 -26
-54 -45 -65 -56 -31 -3 11 -15 20 -25 20 -13 0 -22 10 -28 33 -7 28 -13 32
-44 35 -29 2 -37 8 -40 25 -2 16 -11 23 -33 25 -25 2 -42 -8 -104 -68 -60 -57
-79 -70 -98 -65 -19 4 -26 -2 -49 -47 -65 -128 -74 -168 -74 -322 0 -137 2
-148 30 -217 27 -68 29 -78 20 -133 -16 -98 -52 -114 -65 -29 -4 27 -20 89
-36 139 -28 89 -29 97 -29 302 l0 210 46 61 c84 112 199 173 435 232 64 16
163 44 220 63 57 18 137 41 177 51 39 11 72 22 72 27 0 4 -18 12 -40 18 -22 6
-40 15 -40 19 0 16 43 22 175 28 72 3 137 9 145 14 25 14 110 11 110 -4z
m1500 -214 c0 -5 -18 -26 -40 -47 l-40 -39 -51 14 c-29 8 -54 19 -56 25 -2 5
25 20 59 31 64 21 128 29 128 16z m-4702 -356 c3 -27 -12 -57 -29 -57 -18 0
-39 33 -39 61 0 28 2 30 33 27 27 -2 33 -8 35 -31z m441 9 c223 7 252 -1 106
-31 -67 -14 -86 -22 -117 -53 -21 -20 -38 -44 -38 -54 0 -10 -7 -18 -15 -18
-29 0 -55 -38 -55 -80 0 -22 -4 -40 -10 -40 -17 0 -41 60 -47 116 -3 30 -9 54
-12 54 -10 0 -115 81 -119 91 -3 8 10 12 63 22 11 2 24 0 29 -5 6 -4 102 -5
215 -2z m3271 -115 c0 -29 -13 -32 -56 -18 -57 20 -55 37 5 37 44 0 51 -3 51
-19z m-2912 -41 l62 0 0 -35 c0 -24 -6 -37 -19 -45 -11 -5 -26 -22 -33 -37 -7
-15 -24 -30 -38 -33 -33 -8 -47 -70 -26 -114 20 -42 23 -68 10 -73 -16 -5 -54
119 -54 177 0 38 -5 52 -20 63 -25 18 -62 86 -53 100 3 5 27 7 57 3 28 -3 79
-6 114 -6z m287 -30 c28 -4 91 -13 140 -20 138 -18 195 -30 195 -41 0 -6 -5
-19 -11 -31 -9 -16 -17 -19 -45 -14 -36 7 -38 4 -46 -64 -2 -16 -9 -24 -18
-21 -66 17 -64 20 -56 -47 6 -55 5 -62 -14 -72 -14 -8 -26 -8 -41 0 -26 14
-59 69 -59 98 0 53 -67 142 -108 142 -27 0 -92 46 -92 66 0 16 72 18 155 4z
m2183 -46 c27 -4 31 -8 27 -27 -3 -12 -9 -45 -13 -72 -6 -41 -11 -50 -32 -55
-24 -6 -25 -8 -26 -105 -2 -146 -42 -307 -81 -322 -22 -9 -23 0 -8 52 8 26 15
63 15 81 0 27 -5 35 -25 40 -25 6 -35 37 -15 49 14 9 13 78 -2 93 -7 7 -24 12
-39 12 -26 0 -28 4 -31 43 -3 39 -5 42 -35 45 -35 3 -45 25 -17 36 9 3 38 6
64 6 57 0 147 18 155 30 10 17 -19 49 -50 56 -42 9 -87 33 -80 44 5 8 123 5
193 -6z m412 -13 c0 -5 -4 -22 -10 -36 -12 -33 -30 -24 -30 16 0 22 5 29 20
29 11 0 20 -4 20 -9z m-2057 -57 c29 -15 72 -41 97 -60 46 -32 46 -33 73 -150
15 -64 43 -225 62 -358 19 -133 41 -265 49 -293 11 -42 12 -53 2 -53 -19 0
-86 51 -123 94 -32 35 -33 40 -33 119 0 45 -7 117 -15 160 -8 43 -15 121 -15
173 0 70 -5 107 -21 151 -27 72 -34 81 -67 85 -22 3 -28 10 -35 46 -5 28 -17
48 -33 58 -27 18 -33 54 -9 54 9 0 39 -12 68 -26z m1187 -90 c0 -30 -35 -75
-62 -81 -28 -5 -28 -6 -28 -84 0 -78 0 -79 -25 -79 -24 0 -25 -2 -25 -65 l0
-65 -30 0 c-25 0 -30 4 -30 23 0 12 -7 33 -16 45 -13 19 -24 23 -57 20 -41 -3
-42 -2 -45 32 -4 44 -19 62 -44 54 -13 -4 -28 4 -48 26 -24 26 -35 31 -67 28
-32 -3 -41 -9 -55 -38 -10 -19 -26 -38 -37 -42 -20 -7 -54 -100 -44 -124 9
-23 -18 -84 -44 -101 -23 -15 -24 -21 -23 -97 1 -45 -2 -93 -5 -108 -9 -36 13
-104 76 -238 28 -58 60 -132 71 -165 11 -33 27 -72 36 -86 13 -23 13 -32 -3
-80 -36 -112 -71 -131 -94 -51 -8 26 -45 144 -83 262 -86 267 -110 369 -115
491 -5 96 -5 96 35 175 22 43 63 111 91 151 l51 72 112 35 c62 19 156 43 208
55 52 11 124 27 160 34 93 21 140 21 140 1z m1825 -386 c2 -7 6 -44 8 -81 l5
-68 -42 6 c-22 4 -50 15 -61 24 -32 26 -81 51 -102 51 -11 0 -28 -9 -39 -21
-26 -29 -102 -79 -120 -79 -20 0 -67 25 -83 44 -9 10 -30 16 -60 16 -27 0 -56
7 -70 17 -23 16 -79 25 -251 41 l-75 7 55 15 c63 17 410 21 612 7 103 -7 117
-7 112 6 -4 11 2 17 18 20 48 9 89 7 93 -5z m-4954 -139 c19 -7 35 -13 37 -15
8 -6 -20 -44 -32 -44 -7 0 -20 -19 -29 -42 -10 -25 -20 -38 -26 -33 -14 16
-43 117 -37 131 7 17 41 18 87 3z m1009 4 c0 -5 -61 -18 -136 -30 -75 -12
-146 -29 -158 -36 -12 -8 -37 -18 -56 -21 -62 -13 -70 -17 -70 -36 0 -10 -5
-22 -11 -26 -18 -11 -92 18 -121 48 -31 33 -58 36 -83 8 -10 -11 -24 -20 -32
-20 -7 0 -13 -10 -13 -22 0 -35 -11 -44 -57 -52 -42 -6 -43 -5 -43 21 0 20
-15 41 -55 79 -30 29 -55 54 -55 57 0 12 63 15 80 5 15 -10 43 -9 129 4 79 11
122 13 148 6 27 -6 63 -5 123 5 89 15 410 22 410 10z m3604 -72 c3 -5 -3 -29
-14 -52 -11 -24 -20 -61 -20 -81 0 -52 -15 -55 -41 -8 -16 28 -29 40 -45 40
-16 0 -25 9 -33 31 -15 45 -14 49 13 49 13 0 37 7 52 15 32 17 80 20 88 6z
m-3894 -139 c0 -36 -49 -91 -81 -92 -10 0 -20 11 -23 25 -3 13 -15 29 -26 35
-14 7 -20 21 -20 43 l0 33 75 -15 c49 -10 75 -20 75 -29z m3391 3 c3 -22 13
-55 23 -73 19 -36 15 -52 -15 -52 -23 0 -25 -13 -2 -31 31 -26 123 -178 135
-224 14 -53 4 -67 -47 -63 -30 3 -30 4 -38 78 -8 76 -19 100 -44 100 -23 0
-61 30 -82 65 -11 19 -31 37 -45 41 -31 7 -33 20 -6 29 11 3 20 11 20 16 0 5
-9 9 -20 9 -13 0 -20 7 -20 20 0 18 -7 20 -56 20 -41 0 -63 5 -81 20 -20 16
-41 20 -97 20 -40 0 -77 5 -83 11 -8 8 -30 8 -81 0 -39 -6 -83 -11 -99 -11
l-28 1 29 16 c16 8 43 20 60 26 28 9 374 25 516 23 l55 -1 6 -40z m-3024 0
c12 -3 59 -1 103 6 44 6 91 8 105 5 22 -6 26 -11 23 -39 -3 -28 -7 -32 -32
-32 -32 -1 -55 -33 -56 -77 0 -21 -5 -28 -19 -28 -37 0 -61 -46 -61 -117 0
-56 -2 -64 -17 -61 -16 3 -18 17 -21 106 -3 101 -3 102 -27 102 -21 0 -25 5
-25 28 0 15 -11 46 -24 69 -30 52 -21 59 51 38z m618 -9 c135 -15 230 -42 230
-65 0 -8 -19 -21 -43 -29 -23 -7 -47 -22 -52 -32 -6 -11 -17 -16 -28 -13 -27
7 -51 -22 -58 -68 -6 -34 -10 -39 -33 -39 -25 0 -61 -29 -61 -50 0 -17 -30
-11 -37 8 -3 9 -12 24 -19 32 -8 9 -14 48 -16 95 l-3 80 -31 -1 c-26 -1 -33 3
-43 32 -9 26 -18 34 -37 34 -15 0 -24 6 -24 15 0 20 78 20 255 1z m414 -119
c46 -23 94 -55 108 -71 41 -48 83 -143 135 -301 46 -138 63 -216 88 -395 5
-36 14 -92 20 -125 21 -113 24 -191 8 -198 -18 -6 -123 59 -159 99 -25 28 -65
114 -53 114 4 0 -1 11 -10 25 -32 49 -17 170 35 283 26 55 30 74 25 111 -8 62
-29 89 -68 93 -23 2 -32 7 -29 18 1 8 5 41 8 72 7 72 -4 88 -63 88 -42 0 -44
1 -44 29 0 47 -10 61 -41 61 -26 0 -29 3 -27 27 2 19 -3 30 -19 38 -26 13 -63
58 -63 75 0 19 58 3 149 -43z m1529 -142 c2 -16 12 -41 21 -55 42 -60 62 -112
50 -126 -9 -11 -6 -21 13 -46 14 -18 48 -72 76 -119 l52 -86 0 -104 c0 -83 -5
-120 -24 -177 -22 -68 -49 -112 -68 -112 -15 0 -8 34 21 110 30 78 47 176 36
209 -3 11 -18 24 -34 29 -24 9 -29 16 -34 61 -8 64 -12 71 -44 71 -25 0 -26 1
-20 51 8 62 -12 103 -55 118 -18 6 -28 17 -28 30 0 34 -11 51 -34 51 -11 0
-32 13 -46 29 -38 44 -65 48 -97 13 -16 -16 -56 -46 -89 -66 -67 -41 -77 -59
-76 -147 0 -45 0 -45 -40 -56 -35 -9 -45 -8 -73 9 -19 10 -41 30 -49 44 -37
56 -132 9 -138 -69 -3 -37 -6 -43 -30 -47 -38 -7 -68 -35 -68 -65 0 -19 -6
-26 -27 -30 -69 -14 -78 -25 -79 -98 -1 -58 -5 -70 -25 -86 -13 -10 -33 -20
-44 -22 -18 -4 -20 -11 -17 -69 2 -36 8 -80 14 -98 13 -45 5 -62 -32 -62 -16
0 -30 2 -30 5 0 3 -7 38 -14 78 -24 116 -35 296 -23 358 8 44 25 74 94 167 81
107 88 114 164 152 108 55 211 88 326 105 54 8 127 22 163 30 36 8 98 17 138
21 49 5 76 12 79 21 4 10 18 13 47 11 37 -3 41 -6 44 -33z m-318 -997 c0 -66
-16 -107 -71 -181 -60 -82 -129 -131 -129 -92 0 25 75 167 112 212 18 22 41
55 50 72 24 43 38 39 38 -11z m-487 -372 c66 -84 75 -100 80 -149 6 -44 3 -65
-13 -102 -48 -113 -101 -6 -158 318 -2 15 0 27 6 27 6 0 44 -42 85 -94z m572
-104 c44 -9 103 -17 130 -17 28 -1 84 -9 125 -17 156 -33 187 -36 256 -28 38
4 86 14 106 23 46 20 198 34 198 19 0 -18 -114 -81 -160 -88 -30 -5 -56 -18
-80 -40 -92 -86 -142 -124 -175 -133 -19 -5 -52 -23 -73 -39 -20 -16 -55 -39
-77 -50 -22 -11 -56 -37 -75 -57 -23 -23 -53 -41 -87 -51 -54 -16 -74 -35
-126 -126 -22 -37 -33 -48 -53 -48 -14 0 -34 -5 -44 -10 -27 -15 -90 -127 -99
-175 -6 -36 -10 -40 -38 -43 -37 -4 -60 -27 -79 -79 -37 -105 0 -288 98 -473
l61 -116 -43 -87 c-64 -132 -74 -130 -94 24 -8 60 -38 187 -70 299 -36 125
-60 229 -66 290 -6 52 -14 113 -20 135 -5 22 -14 148 -21 280 -14 276 -17 259
76 369 30 35 55 74 55 85 0 32 21 72 68 128 l43 52 92 -6 c51 -2 128 -12 172
-21z m-1861 -721 c3 -5 -18 -12 -46 -16 -29 -3 -75 -12 -103 -20 -27 -8 -79
-19 -113 -25 -57 -10 -65 -9 -77 6 -21 29 -149 17 -172 -17 -7 -9 -32 -28 -55
-42 -48 -28 -102 -90 -123 -140 -8 -19 -17 -68 -21 -110 -4 -42 -10 -77 -14
-77 -15 0 -30 63 -30 125 0 67 17 174 30 190 5 6 12 26 17 45 l9 34 105 19
c57 10 129 22 159 26 76 12 428 13 434 2z m2121 -90 c3 -6 3 -28 -1 -50 -7
-43 -27 -54 -52 -29 -18 18 -15 39 10 65 23 25 34 28 43 14z m-1474 -161 c118
-8 135 -12 253 -60 194 -77 254 -111 309 -174 26 -30 47 -61 47 -69 0 -12 59
-257 90 -377 13 -48 37 -238 50 -395 9 -118 23 -277 37 -427 3 -32 3 -58 0
-58 -7 0 -59 33 -127 80 -25 17 -60 40 -78 50 -37 23 -72 75 -72 108 0 13 6
38 14 55 40 94 68 170 86 237 11 41 25 91 31 110 19 64 29 152 21 184 -8 31
-9 31 -65 28 -61 -4 -83 3 -69 21 20 26 22 70 7 124 -16 55 -16 55 -50 49 -42
-8 -49 2 -24 40 20 30 24 70 10 92 -4 8 -29 14 -57 15 -44 2 -49 5 -52 26 -8
56 -51 88 -80 59 -8 -8 -14 -5 -21 14 -6 17 -20 28 -40 33 -17 4 -33 11 -36
16 -11 17 -41 9 -69 -20 -15 -16 -41 -32 -58 -35 -26 -5 -29 -9 -23 -28 16
-54 12 -63 -25 -60 -31 2 -38 -2 -54 -32 -10 -19 -16 -44 -13 -55 5 -21 -37
-70 -49 -58 -4 4 -9 42 -12 84 -6 96 -14 115 -48 107 -24 -6 -24 -6 -18 51 8
62 7 63 -47 41 -13 -6 -18 1 -24 31 -9 51 -21 63 -61 63 -27 0 -37 -5 -46 -24
-7 -17 -20 -26 -42 -28 -28 -3 -31 -6 -31 -38 0 -32 -3 -35 -29 -35 -25 0 -30
-6 -48 -52 -18 -50 -21 -53 -54 -53 -39 0 -44 16 -19 64 22 42 20 86 -5 86
-25 0 -25 6 1 65 l21 47 -38 39 c-27 28 -34 40 -23 44 56 21 429 30 630 15z
m1455 -83 l-11 -73 -112 -131 c-111 -129 -181 -199 -190 -190 -9 10 31 73 134
214 76 104 103 149 103 171 0 22 10 39 36 61 19 17 39 29 43 27 4 -3 3 -38 -3
-79z m340 -582 c19 -8 34 -18 34 -23 0 -5 -16 -22 -35 -36 -26 -20 -39 -41
-51 -81 -15 -54 -36 -85 -56 -85 -9 0 -8 41 3 80 3 10 -2 14 -14 12 -22 -4
-33 24 -17 43 15 18 6 45 -14 45 -21 0 -79 -52 -121 -110 -24 -32 -46 -51 -65
-55 -28 -6 -32 -11 -44 -67 -9 -39 -52 -85 -91 -98 -50 -16 -80 -58 -94 -129
-10 -51 -15 -61 -33 -61 -36 0 -97 -22 -115 -43 -15 -15 -17 -34 -15 -93 2
-72 2 -74 -21 -74 -37 0 -67 39 -65 86 1 21 -4 80 -10 129 -14 103 -15 280 -3
342 5 27 22 57 43 81 20 22 41 56 47 75 8 22 25 44 45 57 43 26 46 25 46 -5 0
-36 27 -42 71 -17 45 26 62 27 95 6 31 -21 116 -14 144 11 16 14 29 16 67 11
142 -20 140 -20 146 4 5 20 10 22 47 16 23 -4 57 -13 76 -21z m-2376 -82 c14
-27 40 -69 58 -91 29 -36 31 -42 15 -42 -23 0 -50 28 -92 94 -31 51 -42 101
-19 94 7 -3 24 -27 38 -55z m-321 -64 c17 -6 31 -15 31 -21 0 -6 -7 -7 -16 -4
-9 3 -21 6 -28 6 -7 0 -21 7 -32 15 -16 12 -16 14 -3 15 9 0 30 -5 48 -11z
m4056 -230 c-18 -5 -33 -5 -39 1 -7 7 4 10 30 9 39 -1 39 -1 9 -10z m-845
-209 c0 -18 -19 -63 -47 -111 -37 -65 -61 -92 -127 -144 -45 -36 -84 -65 -88
-65 -19 0 -4 26 41 76 27 30 82 103 123 164 40 60 79 109 86 110 7 0 12 -13
12 -30z m-602 -129 c14 -44 16 -98 4 -105 -16 -10 -92 7 -92 20 0 27 49 124
63 124 8 0 19 -17 25 -39z m-2 -406 c-5 -27 -30 -59 -100 -133 -81 -84 -176
-158 -176 -136 0 4 46 55 103 113 56 58 118 128 136 154 19 26 36 45 39 42 2
-2 1 -20 -2 -40z m289 -4 c7 -12 -33 -40 -123 -85 -100 -50 -123 -44 -50 14
76 59 159 93 173 71z m-871 -125 c21 -17 60 -59 86 -94 58 -75 76 -136 61
-204 -13 -57 -48 -118 -67 -118 -19 0 -27 21 -63 160 -17 63 -44 154 -61 202
-16 49 -30 90 -30 93 0 9 36 -10 74 -39z m998 -3 c26 -23 23 -43 -7 -43 -27 0
-41 20 -31 45 7 19 15 19 38 -2z"/>
</g>
</svg>
