<?xml version="1.0" encoding="UTF-8" standalone="no"?>
<svg
   xmlns:dc="http://purl.org/dc/elements/1.1/"
   xmlns:cc="http://creativecommons.org/ns#"
   xmlns:rdf="http://www.w3.org/1999/02/22-rdf-syntax-ns#"
   xmlns:svg="http://www.w3.org/2000/svg"
   xmlns="http://www.w3.org/2000/svg"
   xmlns:sodipodi="http://sodipodi.sourceforge.net/DTD/sodipodi-0.dtd"
   xmlns:inkscape="http://www.inkscape.org/namespaces/inkscape"
   sodipodi:docname="urgas-ocre-logo.svg"
   inkscape:version="0.92.3 (2405546, 2018-03-11)"
   id="svg8"
   version="1.1"
   viewBox="0 0 323.10623 156.95964"
   height="156.95964mm"
   width="323.10623mm"
   inkscape:export-filename="urgas-ocre2.png"
   inkscape:export-xdpi="150.00955"
   inkscape:export-ydpi="150.00955">
  <defs
     id="defs2">
    <clipPath
       id="clipPath4927-4"
       clipPathUnits="userSpaceOnUse">
      <path
         transform="matrix(0.96570178,-0.25965376,0.27109461,0.96255271,0,0)"
         d="m 20.776487,225.91167 a 41.58852,40.600914 0 0 1 -5.232813,-57.08403 41.58852,40.600914 0 0 1 58.452849,-5.31948 41.58852,40.600914 0 0 1 5.664863,57.04471 41.58852,40.600914 0 0 1 -58.410978,5.74113"
         sodipodi:arc-type="arc"
         sodipodi:open="true"
         sodipodi:end="2.2540055"
         sodipodi:start="2.2687884"
         sodipodi:ry="40.600914"
         sodipodi:rx="41.58852"
         sodipodi:cy="194.80592"
         sodipodi:cx="47.504623"
         sodipodi:type="arc"
         id="path4929-4"
         style="opacity:0.658147;fill:#00ffff;fill-opacity:1;stroke:#ffc300;stroke-width:0;stroke-dashoffset:3.90350008" />
    </clipPath>
    <filter
       id="filter2689-2-9"
       inkscape:label="Duochrome"
       style="color-interpolation-filters:sRGB">
      <feColorMatrix
         id="feColorMatrix2669-2-8"
         result="colormatrix1"
         type="luminanceToAlpha" />
      <feFlood
         id="feFlood2671-119-3"
         result="flood1"
         flood-color="rgb(122,4,83)"
         flood-opacity="1" />
      <feComposite
         id="feComposite2673-7-5"
         result="composite1"
         operator="out"
         in2="colormatrix1" />
      <feFlood
         id="feFlood2675-47-8"
         result="flood2"
         flood-color="rgb(218,109,150)"
         flood-opacity="0.788235" />
      <feComposite
         id="feComposite2677-4-7"
         operator="in"
         result="composite2"
         in2="colormatrix1" />
      <feComposite
         k4="0"
         k1="0"
         id="feComposite2679-27-3"
         result="composite3"
         operator="arithmetic"
         k3="1"
         k2="1"
         in2="composite1"
         in="composite2" />
      <feColorMatrix
         id="feColorMatrix2681-6-8"
         result="colormatrix2"
         values="2 -1 0 0 0 0 2 -1 0 0 -1 0 2 0 0 0 0 0 1 0 "
         type="matrix"
         in="composite3" />
      <feComposite
         k4="0"
         k3="0"
         k1="0"
         id="feComposite2683-3-1"
         result="composite4"
         k2="1.48503"
         operator="arithmetic"
         in2="composite3"
         in="colormatrix2" />
      <feBlend
         id="feBlend2685-07-5"
         result="blend"
         mode="normal"
         in2="composite3"
         in="composite4" />
      <feComposite
         result="fbSourceGraphic"
         id="feComposite2687-834-9"
         operator="in"
         in2="SourceGraphic" />
      <feColorMatrix
         id="feColorMatrix4461-4-5"
         values="0 0 0 -1 0 0 0 0 -1 0 0 0 0 -1 0 0 0 0 1 0"
         in="fbSourceGraphic"
         result="fbSourceGraphicAlpha" />
      <feColorMatrix
         in="fbSourceGraphic"
         result="colormatrix1"
         type="luminanceToAlpha"
         id="feColorMatrix4463-10-5" />
      <feFlood
         result="flood1"
         flood-color="rgb(13,7,15)"
         flood-opacity="1"
         id="feFlood4465-0-0" />
      <feComposite
         result="composite1"
         operator="out"
         id="feComposite4467-0-4"
         in2="colormatrix1" />
      <feFlood
         result="flood2"
         flood-color="rgb(201,75,122)"
         flood-opacity="0.788235"
         id="feFlood4469-32-3" />
      <feComposite
         operator="in"
         result="composite2"
         id="feComposite4471-44-0"
         in2="colormatrix1" />
      <feComposite
         k4="0"
         k1="0"
         result="composite3"
         operator="arithmetic"
         k3="1"
         k2="1"
         in="composite2"
         id="feComposite4473-57-4"
         in2="composite1" />
      <feColorMatrix
         result="colormatrix2"
         values="2 -1 0 0 0 0 2 -1 0 0 -1 0 2 0 0 0 0 0 1 0 "
         type="matrix"
         in="composite3"
         id="feColorMatrix4475-2-2" />
      <feComposite
         k4="0"
         k3="0"
         k1="0"
         result="composite4"
         k2="1.48503"
         operator="arithmetic"
         in="colormatrix2"
         id="feComposite4477-3-2"
         in2="composite3" />
      <feBlend
         result="blend"
         mode="normal"
         in="composite4"
         id="feBlend4479-3-5"
         in2="composite3" />
      <feComposite
         operator="in"
         id="feComposite4481-7-7"
         in2="fbSourceGraphic" />
    </filter>
    <clipPath
       id="clipPath4923-3"
       clipPathUnits="userSpaceOnUse">
      <path
         sodipodi:arc-type="arc"
         sodipodi:open="true"
         sodipodi:end="2.2540055"
         sodipodi:start="2.2687884"
         sodipodi:ry="50.667934"
         sodipodi:rx="50.876469"
         sodipodi:cy="362.51804"
         sodipodi:cx="-179.94225"
         sodipodi:type="arc"
         id="path4925-4"
         style="opacity:0.658147;fill:#00ffff;fill-opacity:1;stroke:#ffc300;stroke-width:0;stroke-dashoffset:3.90350008"
         d="m -212.63957,401.33647 a 50.876469,50.667934 0 0 1 -6.40145,-71.23805 50.876469,50.667934 0 0 1 71.5071,-6.63845 50.876469,50.667934 0 0 1 6.92999,71.18899 50.876469,50.667934 0 0 1 -71.45587,7.16463" />
    </clipPath>
    <clipPath
       id="clipPath4919-2"
       clipPathUnits="userSpaceOnUse">
      <path
         transform="matrix(0.95387067,-0.30021782,0.30021915,0.95387025,0,0)"
         sodipodi:arc-type="arc"
         sodipodi:open="true"
         sodipodi:end="2.2540055"
         sodipodi:start="2.2687884"
         sodipodi:ry="40.533249"
         sodipodi:rx="40.70015"
         sodipodi:cy="196.39818"
         sodipodi:cx="41.001057"
         sodipodi:type="arc"
         id="path4921-8"
         style="opacity:0.658147;fill:#00ffff;fill-opacity:1;stroke:#ffc300;stroke-width:0;stroke-dashoffset:3.90350008"
         d="m 14.843858,227.45209 a 40.70015,40.533249 0 0 1 -5.1210339,-56.9889 40.70015,40.533249 0 0 1 57.2042399,-5.31062 40.70015,40.533249 0 0 1 5.543856,56.94965 40.70015,40.533249 0 0 1 -57.163263,5.73155" />
    </clipPath>
    <clipPath
       id="clipPath4915-1"
       clipPathUnits="userSpaceOnUse">
      <path
         sodipodi:arc-type="arc"
         sodipodi:open="true"
         sodipodi:end="2.2540055"
         sodipodi:start="2.2687884"
         sodipodi:ry="22.645655"
         sodipodi:rx="24.26149"
         sodipodi:cy="157.12988"
         sodipodi:cx="341.23962"
         sodipodi:type="arc"
         id="path4917-5"
         style="opacity:0.658147;fill:#00ffff;fill-opacity:1;stroke:#ffc300;stroke-width:0;stroke-dashoffset:3.90350008"
         d="m 325.64723,174.47949 a 24.26149,22.645655 0 0 1 -3.05266,-31.83931 24.26149,22.645655 0 0 1 34.09963,-2.96701 24.26149,22.645655 0 0 1 3.30471,31.81739 24.26149,22.645655 0 0 1 -34.0752,3.20218" />
    </clipPath>
    <clipPath
       id="clipPath4911-7"
       clipPathUnits="userSpaceOnUse">
      <path
         sodipodi:arc-type="arc"
         sodipodi:open="true"
         sodipodi:end="2.2540055"
         sodipodi:start="2.2687884"
         sodipodi:ry="22.645655"
         sodipodi:rx="24.26149"
         sodipodi:cy="157.06744"
         sodipodi:cx="340.38211"
         sodipodi:type="arc"
         id="path4913-5"
         style="opacity:0.658147;fill:#00ffff;fill-opacity:1;stroke:#ffc300;stroke-width:0;stroke-dashoffset:3.90350008"
         d="m 324.78972,174.41705 a 24.26149,22.645655 0 0 1 -3.05266,-31.83931 24.26149,22.645655 0 0 1 34.09963,-2.96701 24.26149,22.645655 0 0 1 3.30471,31.81739 24.26149,22.645655 0 0 1 -34.07521,3.20218" />
    </clipPath>
    <clipPath
       id="clipPath4927-4-5"
       clipPathUnits="userSpaceOnUse">
      <path
         transform="matrix(0.96570178,-0.25965376,0.27109461,0.96255271,0,0)"
         d="m 20.776487,225.91167 a 41.58852,40.600914 0 0 1 -5.232813,-57.08403 41.58852,40.600914 0 0 1 58.452849,-5.31948 41.58852,40.600914 0 0 1 5.664863,57.04471 41.58852,40.600914 0 0 1 -58.410978,5.74113"
         sodipodi:arc-type="arc"
         sodipodi:open="true"
         sodipodi:end="2.2540055"
         sodipodi:start="2.2687884"
         sodipodi:ry="40.600914"
         sodipodi:rx="41.58852"
         sodipodi:cy="194.80592"
         sodipodi:cx="47.504623"
         sodipodi:type="arc"
         id="path4929-4-1"
         style="opacity:0.658147;fill:#00ffff;fill-opacity:1;stroke:#ffc300;stroke-width:0;stroke-dashoffset:3.90350008" />
    </clipPath>
    <filter
       id="filter2689-2-9-0"
       inkscape:label="Duochrome"
       style="color-interpolation-filters:sRGB">
      <feColorMatrix
         id="feColorMatrix2669-2-8-3"
         result="colormatrix1"
         type="luminanceToAlpha" />
      <feFlood
         id="feFlood2671-119-3-5"
         result="flood1"
         flood-color="rgb(122,4,83)"
         flood-opacity="1" />
      <feComposite
         id="feComposite2673-7-5-2"
         result="composite1"
         operator="out"
         in2="colormatrix1" />
      <feFlood
         id="feFlood2675-47-8-7"
         result="flood2"
         flood-color="rgb(218,109,150)"
         flood-opacity="0.788235" />
      <feComposite
         id="feComposite2677-4-7-3"
         operator="in"
         result="composite2"
         in2="colormatrix1" />
      <feComposite
         k4="0"
         k1="0"
         id="feComposite2679-27-3-8"
         result="composite3"
         operator="arithmetic"
         k3="1"
         k2="1"
         in2="composite1"
         in="composite2" />
      <feColorMatrix
         id="feColorMatrix2681-6-8-5"
         result="colormatrix2"
         values="2 -1 0 0 0 0 2 -1 0 0 -1 0 2 0 0 0 0 0 1 0 "
         type="matrix"
         in="composite3" />
      <feComposite
         k4="0"
         k3="0"
         k1="0"
         id="feComposite2683-3-1-7"
         result="composite4"
         k2="1.48503"
         operator="arithmetic"
         in2="composite3"
         in="colormatrix2" />
      <feBlend
         id="feBlend2685-07-5-2"
         result="blend"
         mode="normal"
         in2="composite3"
         in="composite4" />
      <feComposite
         result="fbSourceGraphic"
         id="feComposite2687-834-9-3"
         operator="in"
         in2="SourceGraphic" />
      <feColorMatrix
         id="feColorMatrix4461-4-5-4"
         values="0 0 0 -1 0 0 0 0 -1 0 0 0 0 -1 0 0 0 0 1 0"
         in="fbSourceGraphic"
         result="fbSourceGraphicAlpha" />
      <feColorMatrix
         in="fbSourceGraphic"
         result="colormatrix1"
         type="luminanceToAlpha"
         id="feColorMatrix4463-10-5-4" />
      <feFlood
         result="flood1"
         flood-color="rgb(13,7,15)"
         flood-opacity="1"
         id="feFlood4465-0-0-0" />
      <feComposite
         result="composite1"
         operator="out"
         id="feComposite4467-0-4-0"
         in2="colormatrix1" />
      <feFlood
         result="flood2"
         flood-color="rgb(201,75,122)"
         flood-opacity="0.788235"
         id="feFlood4469-32-3-9" />
      <feComposite
         operator="in"
         result="composite2"
         id="feComposite4471-44-0-9"
         in2="colormatrix1" />
      <feComposite
         k4="0"
         k1="0"
         result="composite3"
         operator="arithmetic"
         k3="1"
         k2="1"
         in="composite2"
         id="feComposite4473-57-4-9"
         in2="composite1" />
      <feColorMatrix
         result="colormatrix2"
         values="2 -1 0 0 0 0 2 -1 0 0 -1 0 2 0 0 0 0 0 1 0 "
         type="matrix"
         in="composite3"
         id="feColorMatrix4475-2-2-7" />
      <feComposite
         k4="0"
         k3="0"
         k1="0"
         result="composite4"
         k2="1.48503"
         operator="arithmetic"
         in="colormatrix2"
         id="feComposite4477-3-2-7"
         in2="composite3" />
      <feBlend
         result="blend"
         mode="normal"
         in="composite4"
         id="feBlend4479-3-5-8"
         in2="composite3" />
      <feComposite
         operator="in"
         id="feComposite4481-7-7-4"
         in2="fbSourceGraphic" />
    </filter>
    <clipPath
       id="clipPath4923-3-2"
       clipPathUnits="userSpaceOnUse">
      <path
         sodipodi:arc-type="arc"
         sodipodi:open="true"
         sodipodi:end="2.2540055"
         sodipodi:start="2.2687884"
         sodipodi:ry="50.667934"
         sodipodi:rx="50.876469"
         sodipodi:cy="362.51804"
         sodipodi:cx="-179.94225"
         sodipodi:type="arc"
         id="path4925-4-2"
         style="opacity:0.658147;fill:#00ffff;fill-opacity:1;stroke:#ffc300;stroke-width:0;stroke-dashoffset:3.90350008"
         d="m -212.63957,401.33647 a 50.876469,50.667934 0 0 1 -6.40145,-71.23805 50.876469,50.667934 0 0 1 71.5071,-6.63845 50.876469,50.667934 0 0 1 6.92999,71.18899 50.876469,50.667934 0 0 1 -71.45587,7.16463" />
    </clipPath>
    <clipPath
       id="clipPath4919-2-9"
       clipPathUnits="userSpaceOnUse">
      <path
         transform="matrix(0.95387067,-0.30021782,0.30021915,0.95387025,0,0)"
         sodipodi:arc-type="arc"
         sodipodi:open="true"
         sodipodi:end="2.2540055"
         sodipodi:start="2.2687884"
         sodipodi:ry="40.533249"
         sodipodi:rx="40.70015"
         sodipodi:cy="196.39818"
         sodipodi:cx="41.001057"
         sodipodi:type="arc"
         id="path4921-8-9"
         style="opacity:0.658147;fill:#00ffff;fill-opacity:1;stroke:#ffc300;stroke-width:0;stroke-dashoffset:3.90350008"
         d="m 14.843858,227.45209 a 40.70015,40.533249 0 0 1 -5.1210339,-56.9889 40.70015,40.533249 0 0 1 57.2042399,-5.31062 40.70015,40.533249 0 0 1 5.543856,56.94965 40.70015,40.533249 0 0 1 -57.163263,5.73155" />
    </clipPath>
    <clipPath
       id="clipPath4915-1-0"
       clipPathUnits="userSpaceOnUse">
      <path
         sodipodi:arc-type="arc"
         sodipodi:open="true"
         sodipodi:end="2.2540055"
         sodipodi:start="2.2687884"
         sodipodi:ry="22.645655"
         sodipodi:rx="24.26149"
         sodipodi:cy="157.12988"
         sodipodi:cx="341.23962"
         sodipodi:type="arc"
         id="path4917-5-9"
         style="opacity:0.658147;fill:#00ffff;fill-opacity:1;stroke:#ffc300;stroke-width:0;stroke-dashoffset:3.90350008"
         d="m 325.64723,174.47949 a 24.26149,22.645655 0 0 1 -3.05266,-31.83931 24.26149,22.645655 0 0 1 34.09963,-2.96701 24.26149,22.645655 0 0 1 3.30471,31.81739 24.26149,22.645655 0 0 1 -34.0752,3.20218" />
    </clipPath>
    <filter
       height="1.0244117"
       y="-0.012205861"
       width="1.0114398"
       x="-0.005719915"
       id="filter3479-5-0"
       style="color-interpolation-filters:sRGB"
       inkscape:collect="always">
      <feGaussianBlur
         id="feGaussianBlur3481-5-1"
         stdDeviation="0.090921971"
         inkscape:collect="always" />
    </filter>
    <clipPath
       id="clipPath4911-7-3"
       clipPathUnits="userSpaceOnUse">
      <path
         sodipodi:arc-type="arc"
         sodipodi:open="true"
         sodipodi:end="2.2540055"
         sodipodi:start="2.2687884"
         sodipodi:ry="22.645655"
         sodipodi:rx="24.26149"
         sodipodi:cy="157.06744"
         sodipodi:cx="340.38211"
         sodipodi:type="arc"
         id="path4913-5-4"
         style="opacity:0.658147;fill:#00ffff;fill-opacity:1;stroke:#ffc300;stroke-width:0;stroke-dashoffset:3.90350008"
         d="m 324.78972,174.41705 a 24.26149,22.645655 0 0 1 -3.05266,-31.83931 24.26149,22.645655 0 0 1 34.09963,-2.96701 24.26149,22.645655 0 0 1 3.30471,31.81739 24.26149,22.645655 0 0 1 -34.07521,3.20218" />
    </clipPath>
    <filter
       inkscape:collect="always"
       style="color-interpolation-filters:sRGB"
       id="filter15630"
       x="-9.1357208e-005"
       width="1.0001827"
       y="-6.6244371e-005"
       height="1.0001324">
      <feGaussianBlur
         inkscape:collect="always"
         stdDeviation="0.025538268"
         id="feGaussianBlur15632" />
    </filter>
  </defs>
  <sodipodi:namedview
     inkscape:window-maximized="1"
     inkscape:window-y="-8"
     inkscape:window-x="-8"
     inkscape:window-height="706"
     inkscape:window-width="1366"
     showgrid="false"
     inkscape:document-rotation="0"
     inkscape:current-layer="g15624"
     inkscape:document-units="mm"
     inkscape:cy="466.27322"
     inkscape:cx="671.74086"
     inkscape:zoom="1.6970563"
     inkscape:pageshadow="2"
     inkscape:pageopacity="0.0"
     borderopacity="1.0"
     bordercolor="#666666"
     pagecolor="#ffffff"
     id="base"
     showguides="true"
     fit-margin-top="0"
     fit-margin-left="0"
     fit-margin-right="0"
     fit-margin-bottom="0"
     inkscape:guide-bbox="true">
    <sodipodi:guide
       position="-5.2916666,136.26041"
       orientation="0,1"
       id="guide91"
       inkscape:locked="false" />
    <sodipodi:guide
       position="232.85215,133.62085"
       orientation="0,1"
       id="guide901"
       inkscape:locked="false" />
  </sodipodi:namedview>
  <metadata
     id="metadata5">
    <rdf:RDF>
      <cc:Work
         rdf:about="">
        <dc:format>image/svg+xml</dc:format>
        <dc:type
           rdf:resource="http://purl.org/dc/dcmitype/StillImage" />
        <dc:title></dc:title>
      </cc:Work>
    </rdf:RDF>
  </metadata>
  <g
     id="layer1"
     inkscape:groupmode="layer"
     inkscape:label="Capa 1"
     transform="translate(50.288008,-61.66774)">
    <g
       id="g15624"
       style="filter:url(#filter15630)"
       transform="translate(-145.33137,53.170012)">
      <g
         inkscape:export-ydpi="300"
         inkscape:export-xdpi="300"
         id="g2617"
         transform="translate(0,1.5875)">
        <g
           inkscape:export-filename="C:\Users\Alice\Desktop\19.png"
           clip-path="url(#clipPath4915-1-0)"
           style="fill:#571b16;fill-opacity:1;filter:url(#filter3479-5-0)"
           id="g2169-1-4-1-4-42-0-6-5-8-1"
           transform="matrix(8.1912339,0,0,8.7757029,-2545.2973,-1286.5729)"
           inkscape:export-xdpi="95.599998"
           inkscape:export-ydpi="95.599998">
          <path
             sodipodi:nodetypes="scssccsssssssscsccccsss"
             d="m 329.14845,163.02444 c -0.003,0.66925 -0.29462,1.19632 -0.88388,1.58122 -0.57771,0.3849 -1.39226,0.57741 -2.44367,0.57741 -0.50837,0 -0.96477,-0.0502 -1.36917,-0.15067 -0.40438,-0.10046 -0.75678,-0.24266 -1.05719,-0.42674 -0.28885,-0.19243 -0.51414,-0.4183 -0.6759,-0.67769 -0.15027,-0.26769 -0.22532,-0.56889 -0.22532,-0.90353 v -15.34845 c 0,-0.0757 0.0288,-0.13806 0.0867,-0.18827 0.0578,-0.0499 0.14453,-0.0756 0.25998,-0.0756 h 0.97052 c 0.30042,0 0.54305,0.0588 0.72791,0.17577 0.18486,0.1171 0.2773,0.27182 0.2773,0.4643 v 14.97198 c 0,0.22592 0.0809,0.4099 0.24264,0.55212 0.16176,0.13385 0.41594,0.2008 0.76257,0.2008 0.33505,0 0.58346,-0.0671 0.74522,-0.2008 0.17331,-0.14222 0.25996,-0.3262 0.25996,-0.55212 0.7031,-2.53003 -0.0644,-11.81451 0.41509,-13.93225 0.5274,-0.24124 1.16444,-0.22932 1.82063,-0.22932 0.34665,0.26344 -0.0577,-0.0499 0,0 0.0578,0.0502 0.156,0.11292 0.15552,0.18824 z"
             style="font-style:normal;font-variant:normal;font-weight:normal;font-stretch:normal;font-size:23.43639946px;line-height:1.25;font-family:'aliens and cows';-inkscape-font-specification:'aliens and cows';fill:#571b16;fill-opacity:1;stroke:#ffc300;stroke-width:0;stroke-miterlimit:4;stroke-dasharray:none;stroke-opacity:1"
             id="path2116-9-5-6-3-7-5-1-7-8-3"
             inkscape:connector-curvature="0" />
          <path
             sodipodi:nodetypes="ccscsscccssssscsscscscssssccccsssscacc"
             d="m 333.67899,149.98245 c 0.41599,0 0.79329,0.0559 1.1319,0.16716 0.3386,0.10289 0.62883,0.24865 0.87069,0.43726 0.24186,0.18861 0.42567,0.42009 0.55143,0.69443 0.13545,0.27435 0.20316,0.5787 0.20316,0.91308 v 4.681 c 0,0.37723 -0.087,0.68587 -0.2612,0.92593 -0.16446,0.24007 0.37469,0.55046 -3.19751,0.61788 3.15147,0.0675 3.03305,0.29949 3.19751,0.53954 0.17414,0.23149 0.2612,0.53152 0.2612,0.90018 v 5.02828 c 0,0.0769 -0.0242,0.14143 -0.0726,0.19284 -0.0484,0.0517 -0.12089,0.0771 -0.21768,0.0771 h -0.81264 c -0.28056,0 -0.49338,-0.0685 -0.6385,-0.20577 -0.13544,-0.14573 -0.20317,-0.3301 -0.20317,-0.55298 v -4.53958 c 0,-0.23149 -0.0676,-0.4158 -0.20315,-0.55298 -0.12582,-0.14573 -0.33861,-0.21864 -0.63851,-0.21864 h -0.84168 v 5.3112 c 0,0.22288 -0.0726,0.40725 -0.21767,0.55298 -0.13544,0.13718 -0.34343,0.20577 -0.62398,0.20577 h -0.81266 c -0.0967,0 -0.16929,-0.0258 -0.21766,-0.0771 -0.0484,-0.0517 -0.0723,-0.11567 -0.0726,-0.19284 l -0.0467,-14.00807 c -0.0983,-1.36552 1.66015,-0.93699 2.86198,-0.89662 z m -0.8707,1.44033 v 6.22423 h 0.84168 c 0.29022,0 0.50307,-0.0726 0.63851,-0.21863 0.13544,-0.14574 0.20315,-0.33006 0.20315,-0.553 v -4.681 c 0,-0.22292 -0.0726,-0.40725 -0.21767,-0.55299 -0.13544,-0.14575 -0.40295,-0.18147 -0.62399,-0.21861 -0.27508,-0.0465 -0.84168,0 -0.84168,0 z"
             style="font-style:normal;font-variant:normal;font-weight:normal;font-stretch:normal;font-size:23.43639946px;line-height:1.25;font-family:'aliens and cows';-inkscape-font-specification:'aliens and cows';fill:#571b16;fill-opacity:1;stroke:#ffc300;stroke-width:0;stroke-miterlimit:4;stroke-dasharray:none;stroke-opacity:1"
             id="path2118-6-5-7-4-1-1-6-6-2-7"
             inkscape:connector-curvature="0" />
          <path
             sodipodi:nodetypes="cssscssccsscscccscscscsscscscssscc"
             d="m 344.00984,158.18423 c 0.10782,0 0.18871,0.025 0.24263,0.0752 0.054,0.0501 0.0809,0.11279 0.0809,0.18804 v 4.58833 c 0,0.66862 -0.27497,1.19515 -0.82491,1.5796 -0.53918,0.38445 -1.29941,0.57668 -2.28069,0.57668 -0.47446,0 -0.90042,-0.0502 -1.27784,-0.15044 -0.37741,-0.1003 -0.70629,-0.24238 -0.98668,-0.42624 -0.26957,-0.19223 -0.47985,-0.41788 -0.63082,-0.67696 -0.14024,-0.26745 -0.21027,-0.56833 -0.21027,-0.90264 v -10.88161 c 0,-0.66861 0.26958,-1.19514 0.80876,-1.57959 0.54994,-0.38445 1.31556,-0.57667 2.29685,-0.57667 0.46368,0 0.88424,0.0501 1.26165,0.15044 0.38821,0.10028 0.71709,0.24654 0.98668,0.43876 0.28037,0.18387 0.49064,0.40953 0.63083,0.67698 0.15096,0.25909 0.0253,2.26944 0.0546,2.60306 0.0523,0.59549 -0.0564,0.61635 -1.86698,0.88767 l -0.12864,-2.6007 c -0.0104,-0.22553 -0.0755,-0.40534 -0.22646,-0.53907 -0.15096,-0.14207 -0.38819,-0.21311 -0.71169,-0.21311 -0.31271,0 -0.54996,0.071 -0.7117,0.21311 -0.15097,0.13373 -0.22646,0.31342 -0.22646,0.53907 v 10.88161 c 0,0.22567 0.0756,0.40953 0.22646,0.55161 0.15096,0.13372 0.38819,0.20059 0.7117,0.20059 0.31272,0 0.54456,-0.0668 0.69553,-0.20059 0.16175,-0.14208 0.24262,-0.32594 0.24262,-0.55161 v -3.44751 c -0.64701,0 -0.97051,-0.24237 -0.97051,-0.72712 v -0.42623 c 0,-0.0836 0.0324,-0.14626 0.0971,-0.18805 0.0647,-0.0418 0.14545,-0.0626 0.24264,-0.0626 z"
             style="font-style:normal;font-variant:normal;font-weight:normal;font-stretch:normal;font-size:23.43639946px;line-height:1.25;font-family:'aliens and cows';-inkscape-font-specification:'aliens and cows';fill:#571b16;fill-opacity:1;stroke:#ffc300;stroke-width:0;stroke-miterlimit:4;stroke-dasharray:none;stroke-opacity:1"
             id="path2120-4-8-0-7-9-0-7-9-4-5"
             inkscape:connector-curvature="0" />
          <path
             sodipodi:nodetypes="sscccssccccccsscccssscccc"
             d="m 350.10059,149.98949 c 0.11062,0 0.19654,0.0258 0.25793,0.0769 0.0615,0.0518 0.0983,0.11152 0.11045,0.18022 l 2.02668,14.61124 c 0.0118,0.0768 -0.0246,0.15018 -0.11045,0.21878 -0.0737,0.069 -0.19646,0.103 -0.36849,0.103 h -0.90279 c -0.30708,0 -0.56501,-0.0604 -0.77381,-0.18026 -0.19653,-0.12869 -0.30708,-0.28321 -0.33164,-0.46341 l -0.18424,-2.07262 H 348.295 l -0.18424,2.07262 c -0.0246,0.1802 -0.14111,0.33472 -0.35005,0.46341 -0.19653,0.12014 -0.44834,0.18026 -0.75542,0.18026 h -0.90277 c -0.17196,0 -0.30093,-0.0345 -0.38692,-0.103 -0.0737,-0.0683 -0.10435,-0.14153 -0.0922,-0.21878 l 2.02667,-14.61124 c 0.0119,-0.0684 0.0491,-0.12871 0.11062,-0.18022 0.0615,-0.0518 0.14738,-0.0769 0.25793,-0.0769 z m -1.67662,11.03241 h 1.27127 l -0.57161,-9.96985 z"
             style="font-style:normal;font-variant:normal;font-weight:normal;font-stretch:normal;font-size:23.43639946px;line-height:1.25;font-family:'aliens and cows';-inkscape-font-specification:'aliens and cows';fill:#571b16;fill-opacity:1;stroke:#ffc300;stroke-width:0;stroke-miterlimit:4;stroke-dasharray:none;stroke-opacity:1"
             id="path2122-0-8-01-73-7-3-1-2-1-6"
             inkscape:connector-curvature="0" />
          <path
             sodipodi:nodetypes="sccscscscscccscccscssssscsscscscccccscsccssccs"
             d="m 359.87361,154.61663 c -1.38989,0.27905 -1.56197,-1.06099 -1.54599,-2.54818 0,-0.22693 -0.096,-0.40763 -0.28783,-0.54211 -0.17908,-0.14287 -0.45408,-0.2143 -0.82504,-0.2143 -0.38375,0 -0.66517,0.0713 -0.84426,0.2143 -0.17908,0.13448 -0.26862,0.31518 -0.26862,0.54211 0,0.68076 0.0639,1.26909 0.19188,1.76496 0.14061,0.49587 0.32618,0.9329 0.55643,1.31111 0.23024,0.37821 0.48609,0.71859 0.76749,1.02115 0.29422,0.30257 0.58842,0.60514 0.88263,0.9077 0.29422,0.30256 0.58203,0.62614 0.86345,0.97073 0.29422,0.33619 0.55645,0.7354 0.7867,1.19765 0.23024,0.45386 0.40933,0.98755 0.53725,1.60107 0.14078,0.60514 0.21107,1.32792 0.21107,2.16838 0,0.33618 -0.0896,0.63876 -0.26864,0.90771 -0.16636,0.26055 -0.41575,0.48746 -0.74832,0.68077 -0.31979,0.1849 -0.70993,0.32777 -1.17044,0.42863 -0.44772,0.10085 -0.9466,0.15129 -1.49662,0.15129 -1.16404,0 -2.07225,-0.19331 -2.72463,-0.57992 -0.63959,-0.38662 -0.95939,-0.91611 -0.95939,-1.58848 v -3.10128 c 0,-0.0757 0.0319,-0.13868 0.096,-0.18911 0.064,-0.0505 0.15984,-0.0756 0.28782,-0.0756 h 1.0745 c 0.37096,0 0.64598,0.0713 0.82506,0.21431 0.19189,0.13448 0.28783,0.31098 0.28783,0.5295 v 2.62222 c 0,0.22693 0.0896,0.41184 0.26862,0.55471 0.19187,0.13447 0.47328,0.20171 0.84424,0.20171 0.38376,0 0.66517,-0.0673 0.84425,-0.20171 0.17909,-0.14287 0.26864,-0.32778 0.26864,-0.55471 0,-0.80683 -0.0704,-1.496 -0.21107,-2.06752 -0.12791,-0.57152 -0.30699,-1.06318 -0.53725,-1.47501 -0.23025,-0.42023 -0.49248,-0.78162 -0.78669,-1.08418 -0.28141,-0.31097 -0.56922,-0.60514 -0.86344,-0.88248 -0.29421,-0.28576 -0.58841,-0.57991 -0.88263,-0.88248 -0.28142,-0.30257 -0.53725,-0.65977 -0.76749,-1.0716 -0.23025,-0.41181 -0.41574,-0.89508 -0.55645,-1.44978 -0.1279,-0.5547 -0.19187,-1.23126 -0.19187,-2.0297 0,-0.33619 0.0831,-0.63454 0.24942,-0.89509 0.17908,-0.26895 0.42852,-0.49589 0.74832,-0.68078 0.3326,-0.19331 0.72274,-0.34039 1.17044,-0.44123 0.44772,-0.10086 0.95298,-0.15128 1.51582,-0.15128 1.16405,0 2.06587,0.1933 2.70545,0.57991 0.65238,0.3866 0.97858,0.91609 0.97858,1.58847 0.0642,0.99591 0.85738,2.17017 -1.02519,2.54813 z"
             style="font-style:normal;font-variant:normal;font-weight:normal;font-stretch:normal;font-size:23.43639946px;line-height:1.25;font-family:'aliens and cows';-inkscape-font-specification:'aliens and cows';fill:#571b16;fill-opacity:1;stroke:#ffc300;stroke-width:0;stroke-miterlimit:4;stroke-dasharray:none;stroke-opacity:1"
             id="path2124-7-7-4-82-8-2-0-00-2-6"
             inkscape:connector-curvature="0" />
        </g>
        <g
           inkscape:export-filename="C:\Users\Alice\Desktop\19.png"
           clip-path="url(#clipPath4911-7-3)"
           style="fill:#ffffff;fill-opacity:1"
           id="g2169-1-4-1-4-42-0-6-39-1-1"
           transform="matrix(8.1912339,0,0,8.7757029,-2539.8603,-1286.0249)"
           inkscape:export-xdpi="95.599998"
           inkscape:export-ydpi="95.599998">
          <path
             sodipodi:nodetypes="scssccsssssssscscccssss"
             d="m 329.14845,163.02405 c -0.003,0.66928 -0.29462,1.1964 -0.88388,1.5813 -0.57771,0.38483 -1.39226,0.57724 -2.44367,0.57724 -0.50837,0 -0.96477,-0.05 -1.36917,-0.15063 -0.40438,-0.10045 -0.75678,-0.24262 -1.05719,-0.42661 -0.28885,-0.19252 -0.51414,-0.41834 -0.6759,-0.67775 -0.15027,-0.26771 -0.22532,-0.56897 -0.22532,-0.90355 V 147.6756 c 0,-0.0757 0.0288,-0.13803 0.0867,-0.18825 0.0578,-0.05 0.14453,-0.0756 0.25998,-0.0756 h 0.97052 c 0.30042,0 0.54305,0.0588 0.72791,0.17574 0.18486,0.11711 0.2773,0.2719 0.2773,0.4643 v 14.97194 c 0,0.22587 0.0809,0.40997 0.24264,0.55223 0.16176,0.13379 0.41594,0.20076 0.76257,0.20076 0.33505,0 0.58346,-0.0671 0.74522,-0.20076 0.17331,-0.14226 0.25996,-0.32636 0.25996,-0.55223 0.7031,-2.52994 -0.0644,-11.81446 0.41509,-13.93219 0.5274,-0.24126 1.18927,-0.39526 1.82063,-0.22935 0.43118,0.11331 -0.0577,-0.0501 0,0 0.0578,0.0502 0.156,0.1129 0.15552,0.18829 -0.0297,4.65765 -0.0689,13.9732 -0.0689,13.9732 z"
             style="font-style:normal;font-variant:normal;font-weight:normal;font-stretch:normal;font-size:23.43639946px;line-height:1.25;font-family:'aliens and cows';-inkscape-font-specification:'aliens and cows';fill:#f8ae38;fill-opacity:1;stroke:#ffc300;stroke-width:0;stroke-miterlimit:4;stroke-dasharray:none;stroke-opacity:1"
             id="path2116-9-5-6-3-7-5-1-6-2-5"
             inkscape:connector-curvature="0" />
          <path
             sodipodi:nodetypes="ccscscccssssscsscscscssssccccsssscacc"
             d="m 333.67899,149.98362 c 0.41599,0 0.79329,0.0559 1.1319,0.16716 0.3386,0.10289 0.62883,0.24863 0.87069,0.43723 0.24186,0.18861 0.42567,0.42011 0.55143,0.69446 0.13545,0.27433 0.20316,0.5787 0.20316,0.91305 v 4.68101 c -0.31647,1.98679 -2.66956,1.52434 -3.45871,1.5438 3.15147,0.0675 3.03305,0.29951 3.19751,0.53954 0.17414,0.23149 0.2612,0.53157 0.2612,0.90018 v 5.02828 c 0,0.0769 -0.0242,0.14149 -0.0726,0.19291 -0.0484,0.0517 -0.12089,0.0768 -0.21768,0.0768 h -0.81264 c -0.28056,0 -0.49338,-0.0685 -0.6385,-0.20577 -0.13544,-0.14573 -0.20317,-0.33004 -0.20317,-0.55297 v -4.53958 c 0,-0.23146 -0.0676,-0.41581 -0.20315,-0.55299 -0.12582,-0.14573 -0.33861,-0.21859 -0.63851,-0.21859 h -0.84168 v 5.31116 c 0,0.22293 -0.0726,0.40724 -0.21767,0.55297 -0.13544,0.13718 -0.34343,0.20577 -0.62398,0.20577 h -0.81266 c -0.0967,0 -0.16929,-0.0258 -0.21766,-0.0768 -0.0484,-0.0517 -0.0723,-0.11574 -0.0726,-0.19291 l -0.0467,-14.00804 c -0.0983,-1.36552 1.66015,-0.93699 2.86198,-0.89662 z m -0.8707,1.4403 v 6.22423 h 0.84168 c 0.29022,0 0.50307,-0.0727 0.63851,-0.21862 0.13544,-0.14575 0.20315,-0.33005 0.20315,-0.553 v -4.68101 c 0,-0.2229 -0.0726,-0.40724 -0.21767,-0.55297 -0.13544,-0.14574 -0.40295,-0.18147 -0.62399,-0.21863 -0.27508,-0.0465 -0.84168,0 -0.84168,0 z"
             style="font-style:normal;font-variant:normal;font-weight:normal;font-stretch:normal;font-size:23.43639946px;line-height:1.25;font-family:'aliens and cows';-inkscape-font-specification:'aliens and cows';fill:#f8ae38;fill-opacity:1;stroke:#ffc300;stroke-width:0;stroke-miterlimit:4;stroke-dasharray:none;stroke-opacity:1"
             id="path2118-6-5-7-4-1-1-6-15-6-5"
             inkscape:connector-curvature="0" />
          <path
             sodipodi:nodetypes="cssscssccsscscccscscscsscscscssscc"
             d="m 344.00984,158.18379 c 0.10782,0 0.18871,0.025 0.24263,0.0752 0.054,0.0501 0.0809,0.11279 0.0809,0.18804 v 4.58833 c 0,0.66862 -0.27497,1.19515 -0.82491,1.57959 -0.53918,0.38446 -1.29941,0.57669 -2.28069,0.57669 -0.47446,0 -0.90042,-0.0502 -1.27784,-0.15045 -0.37741,-0.10029 -0.70629,-0.24237 -0.98668,-0.42624 -0.26957,-0.19222 -0.47985,-0.41788 -0.63082,-0.67695 -0.14024,-0.26745 -0.21027,-0.56833 -0.21027,-0.90264 v -10.88161 c 0,-0.66861 0.26958,-1.19514 0.80876,-1.57959 0.54994,-0.38445 1.31556,-0.57667 2.29685,-0.57667 0.46368,0 0.88424,0.0501 1.26165,0.15044 0.38821,0.10028 0.71709,0.24654 0.98668,0.43876 0.28037,0.18386 0.49064,0.40953 0.63083,0.67698 0.15096,0.25909 0.0253,2.26944 0.0546,2.60306 0.0523,0.59549 -0.0564,0.61635 -1.86698,0.88767 l -0.12864,-2.6007 c -0.0104,-0.22553 -0.0755,-0.40535 -0.22646,-0.53907 -0.15096,-0.14207 -0.38819,-0.21311 -0.71169,-0.21311 -0.31271,0 -0.54996,0.071 -0.7117,0.21311 -0.15097,0.13372 -0.22646,0.31342 -0.22646,0.53907 v 10.88161 c 0,0.22567 0.0756,0.40953 0.22646,0.55161 0.15096,0.13372 0.38819,0.20059 0.7117,0.20059 0.31272,0 0.54456,-0.0668 0.69553,-0.20059 0.16175,-0.14208 0.24262,-0.32594 0.24262,-0.55161 v -3.44751 c -0.64701,0 -0.97051,-0.24237 -0.97051,-0.72712 v -0.42623 c 0,-0.0836 0.0324,-0.14626 0.0971,-0.18805 0.0647,-0.0418 0.14545,-0.0627 0.24264,-0.0627 z"
             style="font-style:normal;font-variant:normal;font-weight:normal;font-stretch:normal;font-size:23.43639946px;line-height:1.25;font-family:'aliens and cows';-inkscape-font-specification:'aliens and cows';fill:#f8ae38;fill-opacity:1;stroke:#ffc300;stroke-width:0;stroke-miterlimit:4;stroke-dasharray:none;stroke-opacity:1"
             id="path2120-4-8-0-7-9-0-7-3-0-5"
             inkscape:connector-curvature="0" />
          <path
             sodipodi:nodetypes="sscccssccccccsscccssscccc"
             d="m 350.10059,149.99071 c 0.11062,0 0.19654,0.0258 0.25793,0.0769 0.0615,0.0518 0.0983,0.11153 0.11045,0.18023 l 2.02668,14.6112 c 0.0118,0.0769 -0.0246,0.15021 -0.11045,0.21887 -0.0737,0.069 -0.19646,0.10291 -0.36849,0.10291 h -0.90279 c -0.30708,0 -0.56501,-0.0604 -0.77381,-0.18025 -0.19653,-0.1287 -0.30708,-0.28319 -0.33164,-0.46341 l -0.18424,-2.07262 H 348.295 l -0.18424,2.07262 c -0.0246,0.18022 -0.14111,0.33471 -0.35005,0.46341 -0.19653,0.12014 -0.44834,0.18025 -0.75542,0.18025 h -0.90277 c -0.17196,0 -0.30093,-0.0345 -0.38692,-0.10291 -0.0737,-0.069 -0.10435,-0.14161 -0.0922,-0.21887 l 2.02667,-14.6112 c 0.0119,-0.069 0.0491,-0.1287 0.11062,-0.18023 0.0615,-0.0518 0.14738,-0.0769 0.25793,-0.0769 z m -1.67662,11.03244 h 1.27127 l -0.57161,-9.96986 z"
             style="font-style:normal;font-variant:normal;font-weight:normal;font-stretch:normal;font-size:23.43639946px;line-height:1.25;font-family:'aliens and cows';-inkscape-font-specification:'aliens and cows';fill:#f8ae38;fill-opacity:1;stroke:#ffc300;stroke-width:0;stroke-miterlimit:4;stroke-dasharray:none;stroke-opacity:1"
             id="path2122-0-8-01-73-7-3-1-5-04-6"
             inkscape:connector-curvature="0" />
          <path
             sodipodi:nodetypes="sccscscscscccscccscssssscsscscscccccscsccssccs"
             d="m 359.87361,154.61654 c -1.38989,0.27905 -1.56197,-1.061 -1.54599,-2.54819 0,-0.22692 -0.096,-0.40762 -0.28783,-0.5421 -0.17908,-0.14287 -0.45408,-0.21431 -0.82504,-0.21431 -0.38375,0 -0.66517,0.0713 -0.84426,0.21431 -0.17908,0.13448 -0.26862,0.31518 -0.26862,0.5421 0,0.68077 0.0639,1.26909 0.19188,1.76497 0.14061,0.49587 0.32618,0.9329 0.55643,1.31111 0.23024,0.37821 0.48609,0.71859 0.76749,1.02115 0.29422,0.30257 0.58842,0.60513 0.88263,0.9077 0.29422,0.30256 0.58203,0.62614 0.86345,0.97072 0.29422,0.33619 0.55645,0.73541 0.7867,1.19765 0.23024,0.45387 0.40933,0.98755 0.53725,1.60108 0.14078,0.60513 0.21107,1.32793 0.21107,2.16837 0,0.3362 -0.0896,0.63876 -0.26864,0.90771 -0.16636,0.26055 -0.41575,0.48746 -0.74832,0.68077 -0.31979,0.1849 -0.70993,0.32779 -1.17044,0.42863 -0.44772,0.10087 -0.9466,0.15129 -1.49662,0.15129 -1.16404,0 -2.07225,-0.19331 -2.72463,-0.57992 -0.63959,-0.3866 -0.95939,-0.91609 -0.95939,-1.58848 v -3.10127 c 0,-0.0756 0.0319,-0.13869 0.096,-0.18911 0.064,-0.0505 0.15984,-0.0755 0.28782,-0.0755 h 1.0745 c 0.37096,0 0.64598,0.0713 0.82506,0.21432 0.19189,0.13448 0.28783,0.31098 0.28783,0.52949 v 2.62221 c 0,0.22695 0.0896,0.41184 0.26862,0.55471 0.19187,0.13447 0.47328,0.20171 0.84424,0.20171 0.38376,0 0.66517,-0.0673 0.84425,-0.20171 0.17909,-0.14287 0.26864,-0.32776 0.26864,-0.55471 0,-0.80683 -0.0704,-1.496 -0.21107,-2.06751 -0.12791,-0.57151 -0.30699,-1.06319 -0.53725,-1.47501 -0.23025,-0.42022 -0.49248,-0.78162 -0.78669,-1.08418 -0.28141,-0.31097 -0.56922,-0.60514 -0.86344,-0.88249 -0.29421,-0.28576 -0.58841,-0.57991 -0.88263,-0.88247 -0.28142,-0.30257 -0.53725,-0.65978 -0.76749,-1.07159 -0.23025,-0.41183 -0.41574,-0.89509 -0.55645,-1.44979 -0.1279,-0.5547 -0.19187,-1.23127 -0.19187,-2.02971 0,-0.33618 0.0831,-0.63454 0.24942,-0.89508 0.17908,-0.26895 0.42852,-0.49589 0.74832,-0.68078 0.3326,-0.19331 0.72274,-0.34039 1.17044,-0.44123 0.44772,-0.10086 0.95298,-0.15129 1.51582,-0.15129 1.16405,0 2.06587,0.19331 2.70545,0.57991 0.65238,0.38661 0.97858,0.9161 0.97858,1.58847 0.0642,0.99592 0.85738,2.17018 -1.02519,2.54814 z"
             style="font-style:normal;font-variant:normal;font-weight:normal;font-stretch:normal;font-size:23.43639946px;line-height:1.25;font-family:'aliens and cows';-inkscape-font-specification:'aliens and cows';fill:#f8ae38;fill-opacity:1;stroke:#ffc300;stroke-width:0;stroke-miterlimit:4;stroke-dasharray:none;stroke-opacity:1"
             id="path2124-7-7-4-82-8-2-0-8-5-3"
             inkscape:connector-curvature="0" />
        </g>
      </g>
    </g>
  </g>
</svg>
